G04*
G04 #@! TF.GenerationSoftware,Altium Limited,Altium Designer,20.0.13 (296)*
G04*
G04 Layer_Color=32896*
%FSLAX24Y24*%
%MOIN*%
G70*
G01*
G75*
%ADD10C,0.0079*%
%ADD14C,0.0197*%
%ADD18C,0.0100*%
%ADD20C,0.0098*%
%ADD90C,0.0010*%
%ADD91C,0.0010*%
%ADD92C,0.0157*%
G36*
X96222Y53141D02*
X95278D01*
Y53259D01*
X96222D01*
Y53141D01*
D02*
G37*
G36*
X86497Y52904D02*
X85552D01*
Y53022D01*
X86497D01*
Y52904D01*
D02*
G37*
G36*
X94872Y42459D02*
X93928D01*
Y42577D01*
X94872D01*
Y42459D01*
D02*
G37*
G36*
X59572Y42141D02*
X58628D01*
Y42259D01*
X59572D01*
Y42141D01*
D02*
G37*
G36*
X87922Y41923D02*
X86978D01*
Y42041D01*
X87922D01*
Y41923D01*
D02*
G37*
G36*
X88072Y35571D02*
X87128D01*
Y35689D01*
X88072D01*
Y35571D01*
D02*
G37*
G36*
X98786Y34137D02*
X97841D01*
Y34255D01*
X98786D01*
Y34137D01*
D02*
G37*
G36*
X97711D02*
X96766D01*
Y34255D01*
X97711D01*
Y34137D01*
D02*
G37*
G36*
X96636D02*
X95691D01*
Y34255D01*
X96636D01*
Y34137D01*
D02*
G37*
G36*
X61772Y33341D02*
X60828D01*
Y33459D01*
X61772D01*
Y33341D01*
D02*
G37*
G36*
X67422Y28409D02*
X66478D01*
Y28527D01*
X67422D01*
Y28409D01*
D02*
G37*
G36*
X57372Y28341D02*
X56428D01*
Y28459D01*
X57372D01*
Y28341D01*
D02*
G37*
G36*
X87122Y25423D02*
X86178D01*
Y25541D01*
X87122D01*
Y25423D01*
D02*
G37*
G36*
X68962Y24552D02*
X68017D01*
Y24670D01*
X68962D01*
Y24552D01*
D02*
G37*
G36*
X73502Y24515D02*
X72557D01*
Y24633D01*
X73502D01*
Y24515D01*
D02*
G37*
G36*
X77872Y24509D02*
X76928D01*
Y24627D01*
X77872D01*
Y24509D01*
D02*
G37*
G36*
X74572D02*
X73628D01*
Y24627D01*
X74572D01*
Y24509D01*
D02*
G37*
G36*
X78972Y24509D02*
X78028D01*
Y24627D01*
X78972D01*
Y24509D01*
D02*
G37*
G36*
X71372D02*
X70428D01*
Y24627D01*
X71372D01*
Y24509D01*
D02*
G37*
G36*
X80072Y24509D02*
X79128D01*
Y24627D01*
X80072D01*
Y24509D01*
D02*
G37*
G36*
X71372Y22491D02*
X70428D01*
Y22609D01*
X71372D01*
Y22491D01*
D02*
G37*
G36*
X68962Y22467D02*
X68017D01*
Y22585D01*
X68962D01*
Y22467D01*
D02*
G37*
G36*
X80722Y21591D02*
X79778D01*
Y21709D01*
X80722D01*
Y21591D01*
D02*
G37*
G36*
X82822Y21591D02*
X81878D01*
Y21709D01*
X82822D01*
Y21591D01*
D02*
G37*
G36*
X69068Y20178D02*
X68950D01*
Y21122D01*
X69068D01*
Y20178D01*
D02*
G37*
G36*
X104472Y19923D02*
X103528D01*
Y20041D01*
X104472D01*
Y19923D01*
D02*
G37*
G36*
X82806Y19573D02*
X81861D01*
Y19691D01*
X82806D01*
Y19573D01*
D02*
G37*
G36*
X81622Y19573D02*
X80678D01*
Y19691D01*
X81622D01*
Y19573D01*
D02*
G37*
G36*
X80522Y19559D02*
X79578D01*
Y19677D01*
X80522D01*
Y19559D01*
D02*
G37*
G36*
X68022Y19109D02*
X67078D01*
Y19227D01*
X68022D01*
Y19109D01*
D02*
G37*
G36*
X66930Y19090D02*
X65985D01*
Y19208D01*
X66930D01*
Y19090D01*
D02*
G37*
G36*
X72666Y19030D02*
X71722D01*
Y19148D01*
X72666D01*
Y19030D01*
D02*
G37*
G36*
X63922Y17891D02*
X62978D01*
Y18009D01*
X63922D01*
Y17891D01*
D02*
G37*
G36*
X80172Y17523D02*
X79228D01*
Y17641D01*
X80172D01*
Y17523D01*
D02*
G37*
G36*
X81622Y17491D02*
X80678D01*
Y17609D01*
X81622D01*
Y17491D01*
D02*
G37*
G36*
X66946Y17036D02*
X66001D01*
Y17154D01*
X66946D01*
Y17036D01*
D02*
G37*
G36*
X70322Y16809D02*
X69378D01*
Y16927D01*
X70322D01*
Y16809D01*
D02*
G37*
G36*
X63922Y15759D02*
X62978D01*
Y15877D01*
X63922D01*
Y15759D01*
D02*
G37*
G36*
X82722Y14959D02*
X81778D01*
Y15077D01*
X82722D01*
Y14959D01*
D02*
G37*
G36*
X78872D02*
X77928D01*
Y15077D01*
X78872D01*
Y14959D01*
D02*
G37*
G36*
X77572Y14959D02*
X76628D01*
Y15077D01*
X77572D01*
Y14959D01*
D02*
G37*
G36*
X70272Y14191D02*
X69328D01*
Y14309D01*
X70272D01*
Y14191D01*
D02*
G37*
G36*
X68997Y14191D02*
X68053D01*
Y14309D01*
X68997D01*
Y14191D01*
D02*
G37*
G36*
X67722Y14191D02*
X66778D01*
Y14309D01*
X67722D01*
Y14191D01*
D02*
G37*
G36*
X77572Y12789D02*
X76628D01*
Y12907D01*
X77572D01*
Y12789D01*
D02*
G37*
G36*
X78922Y12789D02*
X77978D01*
Y12907D01*
X78922D01*
Y12789D01*
D02*
G37*
G36*
X73922Y12509D02*
X72978D01*
Y12627D01*
X73922D01*
Y12509D01*
D02*
G37*
G36*
X68997Y10541D02*
X68053D01*
Y10659D01*
X68997D01*
Y10541D01*
D02*
G37*
G36*
X71547Y10541D02*
X70603D01*
Y10659D01*
X71547D01*
Y10541D01*
D02*
G37*
G36*
X67722Y10541D02*
X66778D01*
Y10659D01*
X67722D01*
Y10541D01*
D02*
G37*
G36*
X72822Y10541D02*
X71878D01*
Y10659D01*
X72822D01*
Y10541D01*
D02*
G37*
G36*
X70272D02*
X69328D01*
Y10659D01*
X70272D01*
Y10541D01*
D02*
G37*
G36*
X105122Y10091D02*
X104178D01*
Y10209D01*
X105122D01*
Y10091D01*
D02*
G37*
G36*
X103772Y10091D02*
X102828D01*
Y10209D01*
X103772D01*
Y10091D01*
D02*
G37*
G36*
X94522Y9891D02*
X93578D01*
Y10009D01*
X94522D01*
Y9891D01*
D02*
G37*
G36*
X95822Y9891D02*
X94878D01*
Y10009D01*
X95822D01*
Y9891D01*
D02*
G37*
G36*
X107097Y11975D02*
X107052D01*
Y12161D01*
X107043Y12155D01*
X107039Y12152D01*
X107035Y12149D01*
X107032Y12146D01*
X107030Y12144D01*
X107028Y12142D01*
X107028Y12142D01*
X107025Y12139D01*
X107022Y12136D01*
X107015Y12128D01*
X107007Y12119D01*
X106999Y12110D01*
X106991Y12101D01*
X106988Y12098D01*
X106985Y12094D01*
X106983Y12092D01*
X106981Y12089D01*
X106980Y12088D01*
X106979Y12088D01*
X106972Y12079D01*
X106965Y12070D01*
X106958Y12063D01*
X106952Y12055D01*
X106946Y12049D01*
X106940Y12043D01*
X106935Y12038D01*
X106931Y12034D01*
X106926Y12029D01*
X106923Y12026D01*
X106920Y12023D01*
X106918Y12021D01*
X106914Y12018D01*
X106913Y12017D01*
X106904Y12009D01*
X106896Y12003D01*
X106888Y11997D01*
X106881Y11993D01*
X106875Y11989D01*
X106871Y11987D01*
X106868Y11986D01*
X106867Y11986D01*
X106859Y11982D01*
X106851Y11980D01*
X106843Y11978D01*
X106836Y11977D01*
X106830Y11976D01*
X106826Y11976D01*
X106823D01*
X106822D01*
X106814Y11976D01*
X106806Y11977D01*
X106799Y11978D01*
X106792Y11981D01*
X106779Y11986D01*
X106769Y11992D01*
X106764Y11995D01*
X106760Y11998D01*
X106756Y12000D01*
X106753Y12003D01*
X106751Y12005D01*
X106749Y12006D01*
X106749Y12007D01*
X106748Y12008D01*
X106742Y12014D01*
X106738Y12021D01*
X106734Y12028D01*
X106730Y12035D01*
X106725Y12049D01*
X106721Y12063D01*
X106720Y12069D01*
X106719Y12075D01*
X106718Y12081D01*
X106718Y12085D01*
X106717Y12089D01*
Y12094D01*
X106718Y12104D01*
X106718Y12113D01*
X106720Y12122D01*
X106722Y12130D01*
X106724Y12138D01*
X106726Y12145D01*
X106729Y12152D01*
X106732Y12158D01*
X106734Y12163D01*
X106737Y12167D01*
X106739Y12171D01*
X106741Y12175D01*
X106743Y12177D01*
X106745Y12179D01*
X106745Y12180D01*
X106746Y12181D01*
X106751Y12186D01*
X106757Y12191D01*
X106764Y12196D01*
X106770Y12200D01*
X106783Y12206D01*
X106797Y12211D01*
X106803Y12212D01*
X106809Y12214D01*
X106813Y12215D01*
X106818Y12216D01*
X106822Y12217D01*
X106824D01*
X106826Y12217D01*
X106827D01*
X106831Y12170D01*
X106819Y12169D01*
X106808Y12166D01*
X106798Y12163D01*
X106791Y12159D01*
X106784Y12156D01*
X106780Y12153D01*
X106777Y12150D01*
X106776Y12149D01*
X106769Y12141D01*
X106764Y12132D01*
X106761Y12123D01*
X106758Y12115D01*
X106757Y12107D01*
X106756Y12101D01*
X106756Y12099D01*
Y12095D01*
X106756Y12084D01*
X106758Y12074D01*
X106762Y12065D01*
X106765Y12057D01*
X106769Y12051D01*
X106771Y12047D01*
X106774Y12045D01*
X106775Y12043D01*
X106782Y12037D01*
X106790Y12032D01*
X106798Y12028D01*
X106805Y12026D01*
X106811Y12024D01*
X106817Y12024D01*
X106820Y12023D01*
X106821D01*
X106821D01*
X106831Y12024D01*
X106841Y12027D01*
X106851Y12030D01*
X106859Y12034D01*
X106866Y12039D01*
X106872Y12042D01*
X106875Y12043D01*
X106876Y12045D01*
X106877Y12046D01*
X106877D01*
X106883Y12050D01*
X106889Y12055D01*
X106896Y12061D01*
X106902Y12068D01*
X106916Y12082D01*
X106929Y12095D01*
X106935Y12102D01*
X106940Y12108D01*
X106945Y12114D01*
X106949Y12119D01*
X106953Y12123D01*
X106955Y12126D01*
X106957Y12129D01*
X106958Y12129D01*
X106969Y12143D01*
X106980Y12155D01*
X106990Y12166D01*
X106998Y12174D01*
X107005Y12181D01*
X107010Y12186D01*
X107013Y12189D01*
X107014Y12190D01*
X107014D01*
X107024Y12197D01*
X107032Y12203D01*
X107041Y12209D01*
X107049Y12213D01*
X107055Y12217D01*
X107060Y12219D01*
X107064Y12220D01*
X107064Y12220D01*
X107065D01*
X107071Y12223D01*
X107076Y12224D01*
X107082Y12225D01*
X107086Y12225D01*
X107091Y12226D01*
X107094D01*
X107096D01*
X107097D01*
Y11975D01*
D02*
G37*
G36*
X106854Y8576D02*
X106850Y8568D01*
X106846Y8560D01*
X106842Y8552D01*
X106839Y8546D01*
X106836Y8540D01*
X106834Y8537D01*
X106834Y8537D01*
Y8536D01*
X106828Y8526D01*
X106822Y8517D01*
X106816Y8510D01*
X106811Y8504D01*
X106807Y8498D01*
X106804Y8495D01*
X106802Y8492D01*
X106801Y8492D01*
X107097D01*
Y8445D01*
X106717D01*
Y8475D01*
X106727Y8481D01*
X106735Y8487D01*
X106744Y8494D01*
X106752Y8501D01*
X106758Y8507D01*
X106764Y8512D01*
X106765Y8514D01*
X106767Y8516D01*
X106768Y8516D01*
X106768Y8517D01*
X106777Y8528D01*
X106786Y8540D01*
X106794Y8551D01*
X106800Y8562D01*
X106805Y8571D01*
X106807Y8575D01*
X106809Y8578D01*
X106811Y8581D01*
X106811Y8583D01*
X106812Y8584D01*
Y8585D01*
X106857D01*
X106854Y8576D01*
D02*
G37*
D10*
X7500Y32324D02*
G03*
X7500Y31930I197J-197D01*
G01*
Y32324D02*
G03*
X7500Y32717I-197J197D01*
G01*
X64240Y16164D02*
Y16538D01*
Y16164D02*
X64496D01*
X65204D02*
X65460D01*
Y16538D01*
X80678Y18687D02*
X81032Y18687D01*
X80678Y19632D02*
X80678Y18687D01*
X81032Y18687D02*
X81622Y18687D01*
Y19632D01*
X80678Y19632D02*
Y20577D01*
X81032D01*
X81622Y19632D02*
Y20577D01*
X81032D02*
X81622D01*
X82451Y20577D02*
X82806Y20577D01*
X82806Y19632D01*
X81861Y20577D02*
X82451Y20577D01*
X81861Y19632D02*
Y20577D01*
X82806Y18687D02*
Y19632D01*
X82451Y18687D02*
X82806D01*
X81861D02*
Y19632D01*
Y18687D02*
X82451D01*
X81878Y20705D02*
X82232Y20705D01*
X81878Y21650D02*
X81878Y20705D01*
X82232Y20705D02*
X82822Y20705D01*
Y21650D01*
X81878Y21650D02*
Y22595D01*
X82232D01*
X82822Y21650D02*
Y22595D01*
X82232D02*
X82822D01*
X79778Y20705D02*
X80132D01*
X79778D02*
Y21650D01*
X80368Y20705D02*
X80722D01*
Y21650D01*
X79778D02*
Y22595D01*
X80132D01*
X80368D02*
X80722D01*
Y21650D02*
Y22595D01*
X78212Y20558D02*
Y20932D01*
X78468D01*
X79177D02*
X79433D01*
Y20558D02*
Y20932D01*
X80168Y20563D02*
X80522Y20563D01*
X80522Y19618D01*
X79578Y20563D02*
X80168Y20563D01*
X79578Y19618D02*
Y20563D01*
X80522Y18673D02*
Y19618D01*
X80168Y18673D02*
X80522D01*
X79578D02*
Y19618D01*
Y18673D02*
X80168D01*
X79818Y18527D02*
X80172Y18527D01*
X80172Y17582D01*
X79228Y18527D02*
X79818Y18527D01*
X79228Y17582D02*
Y18527D01*
X80172Y16637D02*
Y17582D01*
X79818Y16637D02*
X80172D01*
X79228D02*
Y17582D01*
Y16637D02*
X79818D01*
X80678Y16605D02*
X81032D01*
X80678D02*
Y17550D01*
X81268Y16605D02*
X81622D01*
Y17550D01*
X80678D02*
Y18495D01*
X81032D01*
X81268D02*
X81622D01*
Y17550D02*
Y18495D01*
X82368Y15963D02*
X82722Y15963D01*
X82368Y14073D02*
X82722D01*
X81778Y15963D02*
X82368Y15963D01*
X81778Y14073D02*
X82368D01*
X82722D02*
Y15018D01*
X82722Y15963D02*
X82722Y15018D01*
X81778Y15018D02*
Y15963D01*
Y14073D02*
Y15018D01*
X77218Y15963D02*
X77572D01*
X76628D02*
X76982D01*
X77218Y14073D02*
X77572D01*
X76628D02*
X76982D01*
X77572D02*
Y15018D01*
Y15963D01*
X76628Y15018D02*
Y15963D01*
Y14073D02*
Y15018D01*
X78518Y15963D02*
X78872Y15963D01*
X78518Y14073D02*
X78872D01*
X77928Y15963D02*
X78518Y15963D01*
X77928Y14073D02*
X78518D01*
X78872D02*
Y15018D01*
X78872Y15963D02*
X78872Y15018D01*
X77928Y15018D02*
Y15963D01*
Y14073D02*
Y15018D01*
X77218Y13793D02*
X77572D01*
X76628D02*
X76982D01*
X77218Y11903D02*
X77572D01*
X76628D02*
X76982D01*
X77572D02*
Y12848D01*
Y13793D01*
X76628Y12848D02*
Y13793D01*
Y11903D02*
Y12848D01*
X67068Y29413D02*
X67422D01*
X66478D02*
X66832D01*
X67068Y27523D02*
X67422D01*
X66478D02*
X66832D01*
X67422D02*
Y28468D01*
Y29413D01*
X66478Y28468D02*
Y29413D01*
Y27523D02*
Y28468D01*
X67538Y27377D02*
Y28164D01*
Y27180D02*
Y27377D01*
X68562D02*
Y28164D01*
Y27357D02*
Y27377D01*
Y27180D02*
Y27357D01*
X68247Y27180D02*
X68562D01*
X67538Y28558D02*
Y29345D01*
Y29542D01*
X67735D01*
X68562Y28558D02*
Y29345D01*
Y29463D01*
X68247Y29542D02*
X68562D01*
Y29463D02*
Y29542D01*
X67538Y28164D02*
X68562D01*
X67538Y27180D02*
X68247D01*
X67538Y28558D02*
X68562D01*
X67735Y29542D02*
X68247D01*
X67538Y28164D02*
Y28558D01*
X68562Y28164D02*
Y28558D01*
X68838Y27377D02*
Y28164D01*
Y27180D02*
Y27377D01*
X69862D02*
Y28164D01*
Y27357D02*
Y27377D01*
Y27180D02*
Y27357D01*
X69547Y27180D02*
X69862D01*
X68838Y28558D02*
Y29345D01*
Y29542D01*
X69035D01*
X69862Y28558D02*
Y29345D01*
Y29463D01*
X69547Y29542D02*
X69862D01*
Y29463D02*
Y29542D01*
X68838Y28164D02*
X69862D01*
X68838Y27180D02*
X69547D01*
X68838Y28558D02*
X69862D01*
X69035Y29542D02*
X69547D01*
X68838Y28164D02*
Y28558D01*
X69862Y28164D02*
Y28558D01*
X70038Y27377D02*
Y28164D01*
Y27180D02*
Y27377D01*
X71062D02*
Y28164D01*
Y27357D02*
Y27377D01*
Y27180D02*
Y27357D01*
X70747Y27180D02*
X71062D01*
X70038Y28558D02*
Y29345D01*
Y29542D01*
X70235D01*
X71062Y28558D02*
Y29345D01*
Y29463D01*
X70747Y29542D02*
X71062D01*
Y29463D02*
Y29542D01*
X70038Y28164D02*
X71062D01*
X70038Y27180D02*
X70747D01*
X70038Y28558D02*
X71062D01*
X70235Y29542D02*
X70747D01*
X70038Y28164D02*
Y28558D01*
X71062Y28164D02*
Y28558D01*
X68064Y21122D02*
X69009D01*
X69954D01*
X69009Y20178D02*
X69954D01*
X68064D02*
X69009D01*
X68064Y20768D02*
Y21122D01*
Y20178D02*
Y20532D01*
X69954Y20768D02*
Y21122D01*
Y20178D02*
Y20532D01*
X68962Y22526D02*
Y23471D01*
Y21581D02*
Y22526D01*
X68017Y22526D02*
X68017Y21581D01*
X68017Y22526D02*
Y23471D01*
X68372D02*
X68962D01*
X68372Y21581D02*
X68962Y21581D01*
X68017Y23471D02*
X68372D01*
X68017Y21581D02*
X68372Y21581D01*
X68962Y24611D02*
Y25556D01*
Y23666D02*
Y24611D01*
X68017Y23666D02*
Y24611D01*
Y25556D01*
X68608D02*
X68962D01*
X68017D02*
X68372D01*
X68608Y23666D02*
X68962D01*
X68017D02*
X68372D01*
X71372Y24568D02*
Y25513D01*
Y23623D02*
Y24568D01*
X70428Y23623D02*
Y24568D01*
Y25513D01*
X71018D02*
X71372D01*
X70428D02*
X70782D01*
X71018Y23623D02*
X71372D01*
X70428D02*
X70782D01*
X72557Y23629D02*
X72912Y23629D01*
X72557Y24574D02*
X72557Y23629D01*
X72912Y23629D02*
X73502Y23629D01*
Y24574D01*
X72557Y24574D02*
Y25519D01*
X72912D01*
X73502Y24574D02*
Y25519D01*
X72912D02*
X73502D01*
X74218Y25513D02*
X74572Y25513D01*
X74572Y24568D01*
X73628Y25513D02*
X74218Y25513D01*
X73628Y24568D02*
Y25513D01*
X74572Y23623D02*
Y24568D01*
X74218Y23623D02*
X74572D01*
X73628D02*
Y24568D01*
Y23623D02*
X74218D01*
X67078Y18223D02*
Y19168D01*
Y20113D01*
X68022D02*
X68022Y19168D01*
Y18223D02*
Y19168D01*
X67078Y18223D02*
X67668D01*
X67078Y20113D02*
X67668Y20113D01*
Y18223D02*
X68022D01*
X67668Y20113D02*
X68022Y20113D01*
X66930Y19149D02*
Y20094D01*
Y18204D02*
Y19149D01*
X65985Y18204D02*
Y19149D01*
Y20094D01*
X66576D02*
X66930D01*
X65985D02*
X66340D01*
X66576Y18204D02*
X66930D01*
X65985D02*
X66340D01*
X70322Y16868D02*
Y17813D01*
Y15923D02*
Y16868D01*
X69378Y16868D02*
X69378Y15923D01*
X69378Y16868D02*
Y17813D01*
X69732D02*
X70322D01*
X69732Y15923D02*
X70322Y15923D01*
X69378Y17813D02*
X69732D01*
X69378Y15923D02*
X69732Y15923D01*
X66001Y16150D02*
Y17095D01*
Y18040D01*
X66946D02*
X66946Y17095D01*
Y16150D02*
Y17095D01*
X66001Y16150D02*
X66592D01*
X66001Y18040D02*
X66592Y18040D01*
Y16150D02*
X66946D01*
X66592Y18040D02*
X66946Y18040D01*
X70410Y12164D02*
Y12538D01*
X70154Y12164D02*
X70410D01*
X69190D02*
X69446D01*
X69190D02*
Y12538D01*
X72510Y13348D02*
Y13722D01*
X72254Y13348D02*
X72510D01*
X71290D02*
X71546D01*
X71290D02*
Y13722D01*
X73568Y13513D02*
X73922Y13513D01*
X73568Y11623D02*
X73922D01*
X72978Y13513D02*
X73568Y13513D01*
X72978Y11623D02*
X73568D01*
X73922D02*
Y12568D01*
X73922Y13513D02*
X73922Y12568D01*
X72978Y12568D02*
Y13513D01*
Y11623D02*
Y12568D01*
X71878Y9655D02*
X72232Y9655D01*
X71878Y11545D02*
X72232D01*
Y9655D02*
X72822Y9655D01*
X72232Y11545D02*
X72822D01*
X71878Y10600D02*
Y11545D01*
Y10600D02*
X71878Y9655D01*
X72822D02*
Y10600D01*
Y11545D01*
X70603Y9655D02*
X70957Y9655D01*
X70603Y11545D02*
X70957D01*
Y9655D02*
X71547Y9655D01*
X70957Y11545D02*
X71547D01*
X70603Y10600D02*
Y11545D01*
Y10600D02*
X70603Y9655D01*
X71547D02*
Y10600D01*
Y11545D01*
X69328Y9655D02*
X69682Y9655D01*
X69328Y11545D02*
X69682D01*
Y9655D02*
X70272Y9655D01*
X69682Y11545D02*
X70272D01*
X69328Y10600D02*
Y11545D01*
Y10600D02*
X69328Y9655D01*
X70272D02*
Y10600D01*
Y11545D01*
X69918Y15195D02*
X70272Y15195D01*
X69918Y13305D02*
X70272D01*
X69328Y15195D02*
X69918Y15195D01*
X69328Y13305D02*
X69918D01*
X70272D02*
Y14250D01*
X70272Y15195D02*
X70272Y14250D01*
X69328Y14250D02*
Y15195D01*
Y13305D02*
Y14250D01*
X68643Y15195D02*
X68997D01*
X68053D02*
X68407D01*
X68643Y13305D02*
X68997D01*
X68053D02*
X68407D01*
X68997D02*
Y14250D01*
Y15195D01*
X68053Y14250D02*
Y15195D01*
Y13305D02*
Y14250D01*
X102828Y9205D02*
X103182D01*
X103418D02*
X103772D01*
X102828Y11095D02*
X103182D01*
X103418D02*
X103772D01*
X102828Y10150D02*
Y11095D01*
Y9205D02*
Y10150D01*
X103772Y9205D02*
Y10150D01*
Y11095D01*
X104768Y11095D02*
X105122Y11095D01*
X104768Y9205D02*
X105122D01*
X104178Y11095D02*
X104768Y11095D01*
X104178Y9205D02*
X104768D01*
X105122D02*
Y10150D01*
X105122Y11095D02*
X105122Y10150D01*
X104178Y10150D02*
Y11095D01*
Y9205D02*
Y10150D01*
X98898Y10329D02*
X98950D01*
Y7711D02*
Y10329D01*
X96150D02*
X96202D01*
X96150Y7711D02*
Y10329D01*
X94878Y9005D02*
X95232D01*
X95468D02*
X95822D01*
X94878Y10895D02*
X95232D01*
X95468D02*
X95822D01*
X94878Y9950D02*
Y10895D01*
Y9005D02*
Y9950D01*
X95822Y9005D02*
Y9950D01*
Y10895D01*
X94168Y10895D02*
X94522Y10895D01*
X94168Y9005D02*
X94522D01*
X93578Y10895D02*
X94168Y10895D01*
X93578Y9005D02*
X94168D01*
X94522D02*
Y9950D01*
X94522Y10895D02*
X94522Y9950D01*
X93578Y9950D02*
Y10895D01*
Y9005D02*
Y9950D01*
X77518Y25513D02*
X77872Y25513D01*
X77872Y24568D01*
X76928Y25513D02*
X77518Y25513D01*
X76928Y24568D02*
Y25513D01*
X77872Y23623D02*
Y24568D01*
X77518Y23623D02*
X77872D01*
X76928D02*
Y24568D01*
Y23623D02*
X77518D01*
X78028Y23623D02*
Y24568D01*
Y23623D02*
X78382D01*
X78618D02*
X78972D01*
Y24568D01*
X78028D02*
Y25513D01*
X78382D01*
X78972Y24568D02*
Y25513D01*
X78618D02*
X78972D01*
X79128Y23623D02*
X79482Y23623D01*
X79128Y24568D02*
X79128Y23623D01*
X79482Y23623D02*
X80072Y23623D01*
Y24568D01*
X79128Y24568D02*
Y25513D01*
X79482D01*
X80072Y24568D02*
Y25513D01*
X79482D02*
X80072D01*
X66778Y9655D02*
X67132D01*
X67368D02*
X67722D01*
X66778Y11545D02*
X67132D01*
X67368D02*
X67722D01*
X66778Y10600D02*
Y11545D01*
Y9655D02*
Y10600D01*
X67722Y9655D02*
Y10600D01*
Y11545D01*
X86178Y24537D02*
X86532D01*
X86178D02*
Y25482D01*
X86768Y24537D02*
X87122D01*
Y25482D01*
X86178D02*
Y26427D01*
X86532D01*
X86768D02*
X87122D01*
Y25482D02*
Y26427D01*
X97357Y35141D02*
X97711D01*
Y34196D02*
Y35141D01*
X96766D02*
X97121D01*
X96766Y34196D02*
Y35141D01*
X97711Y33251D02*
Y34196D01*
X97357Y33251D02*
X97711D01*
X96766D02*
X97121D01*
X96766D02*
Y34196D01*
X96282Y35141D02*
X96636D01*
Y34196D02*
Y35141D01*
X95691D02*
X96046D01*
X95691Y34196D02*
Y35141D01*
X96636Y33251D02*
Y34196D01*
X96282Y33251D02*
X96636D01*
X95691D02*
X96046D01*
X95691D02*
Y34196D01*
X98432Y35141D02*
X98786D01*
Y34196D02*
Y35141D01*
X97841D02*
X98196D01*
X97841Y34196D02*
Y35141D01*
X98786Y33251D02*
Y34196D01*
X98432Y33251D02*
X98786D01*
X97841D02*
X98196D01*
X97841D02*
Y34196D01*
X87128Y34685D02*
Y35630D01*
Y34685D02*
X87482D01*
X87718D02*
X88072D01*
Y35630D01*
X87128D02*
Y36575D01*
X87482D01*
X88072Y35630D02*
Y36575D01*
X87718D02*
X88072D01*
X86978Y41037D02*
X87332D01*
X86978D02*
Y41982D01*
X87568Y41037D02*
X87922D01*
Y41982D01*
X86978D02*
Y42927D01*
X87332D01*
X87568D02*
X87922D01*
Y41982D02*
Y42927D01*
X85552Y52018D02*
X85907D01*
X85552D02*
Y52963D01*
X86143Y52018D02*
X86497D01*
Y52963D01*
X85552D02*
Y53908D01*
X85907D01*
X86143D02*
X86497D01*
Y52963D02*
Y53908D01*
X57862Y44597D02*
Y45384D01*
Y45581D01*
X56838Y44597D02*
Y45384D01*
Y45404D01*
Y45581D01*
X57153D01*
X57862Y43416D02*
Y44203D01*
Y43219D02*
Y43416D01*
X57665Y43219D02*
X57862D01*
X56838Y43416D02*
Y44203D01*
Y43298D02*
Y43416D01*
Y43219D02*
X57153D01*
X56838D02*
Y43298D01*
Y44597D02*
X57862D01*
X57153Y45581D02*
X57862D01*
X56838Y44203D02*
X57862D01*
X57153Y43219D02*
X57665D01*
X57862Y44203D02*
Y44597D01*
X56838Y44203D02*
Y44597D01*
X56997Y40138D02*
X57784D01*
X57981D01*
X56997Y41162D02*
X57784D01*
X57804D01*
X57981D01*
Y40847D02*
Y41162D01*
X55816Y40138D02*
X56603D01*
X55619D02*
X55816D01*
X55619D02*
Y40335D01*
X55816Y41162D02*
X56603D01*
X55698D02*
X55816D01*
X55619Y40847D02*
Y41162D01*
X55698D01*
X56997Y40138D02*
Y41162D01*
X57981Y40138D02*
Y40847D01*
X56603Y40138D02*
Y41162D01*
X55619Y40335D02*
Y40847D01*
X56603Y40138D02*
X56997D01*
X56603Y41162D02*
X56997D01*
X93928Y41573D02*
X94282D01*
X93928D02*
Y42518D01*
X94518Y41573D02*
X94872D01*
Y42518D01*
X93928D02*
Y43463D01*
X94282D01*
X94518D02*
X94872D01*
Y42518D02*
Y43463D01*
X60828Y32455D02*
Y33400D01*
Y34345D01*
X61772D02*
X61772Y33400D01*
Y32455D02*
Y33400D01*
X60828Y32455D02*
X61418D01*
X60828Y34345D02*
X61418Y34345D01*
Y32455D02*
X61772D01*
X61418Y34345D02*
X61772Y34345D01*
X58962Y30997D02*
Y31784D01*
Y31981D01*
X57938Y30997D02*
Y31784D01*
Y31804D01*
Y31981D01*
X58253D01*
X58962Y29816D02*
Y30603D01*
Y29619D02*
Y29816D01*
X58765Y29619D02*
X58962D01*
X57938Y29816D02*
Y30603D01*
Y29698D02*
Y29816D01*
Y29619D02*
X58253D01*
X57938D02*
Y29698D01*
Y30997D02*
X58962D01*
X58253Y31981D02*
X58962D01*
X57938Y30603D02*
X58962D01*
X58253Y29619D02*
X58765D01*
X58962Y30603D02*
Y30997D01*
X57938Y30603D02*
Y30997D01*
X56788Y30603D02*
Y30997D01*
X57812Y30603D02*
Y30997D01*
X57103Y29619D02*
X57615D01*
X56788Y30603D02*
X57812D01*
X57103Y31981D02*
X57812D01*
X56788Y30997D02*
X57812D01*
X56788Y29619D02*
Y29698D01*
Y29619D02*
X57103D01*
X56788Y29698D02*
Y29816D01*
Y30603D01*
X57615Y29619D02*
X57812D01*
Y29816D01*
Y30603D01*
X56788Y31981D02*
X57103D01*
X56788Y31804D02*
Y31981D01*
Y31784D02*
Y31804D01*
Y30997D02*
Y31784D01*
X57812D02*
Y31981D01*
Y30997D02*
Y31784D01*
X57372Y28400D02*
Y29345D01*
Y27455D02*
Y28400D01*
X56428Y28400D02*
X56428Y27455D01*
X56428Y28400D02*
Y29345D01*
X56782D02*
X57372D01*
X56782Y27455D02*
X57372Y27455D01*
X56428Y29345D02*
X56782D01*
X56428Y27455D02*
X56782Y27455D01*
X62978Y17005D02*
Y17950D01*
Y18895D01*
X63922Y17950D02*
Y18895D01*
Y17005D02*
Y17950D01*
X62978Y17005D02*
X63332D01*
X63568D02*
X63922D01*
X62978Y18895D02*
X63332D01*
X63568D02*
X63922D01*
X62978Y14873D02*
Y15818D01*
Y16763D01*
X63922D02*
X63922Y15818D01*
Y14873D02*
Y15818D01*
X62978Y14873D02*
X63568D01*
X62978Y16763D02*
X63568Y16763D01*
Y14873D02*
X63922D01*
X63568Y16763D02*
X63922Y16763D01*
X6713Y30454D02*
X8287D01*
X6713D02*
Y34194D01*
X8287D01*
Y30454D02*
Y34194D01*
X104118Y20927D02*
X104472D01*
Y19982D02*
Y20927D01*
X103528D02*
X103882D01*
X103528Y19982D02*
Y20927D01*
X104472Y19037D02*
Y19982D01*
X104118Y19037D02*
X104472D01*
X103528D02*
X103882D01*
X103528D02*
Y19982D01*
X70428Y21605D02*
Y22550D01*
Y23495D01*
X71372D02*
X71372Y22550D01*
Y21605D02*
Y22550D01*
X70428Y21605D02*
X71018D01*
X70428Y23495D02*
X71018Y23495D01*
Y21605D02*
X71372D01*
X71018Y23495D02*
X71372Y23495D01*
X72666Y19089D02*
Y20034D01*
Y18144D02*
Y19089D01*
X71722Y18144D02*
Y19089D01*
Y20034D01*
X72312D02*
X72666D01*
X71722D02*
X72076D01*
X72312Y18144D02*
X72666D01*
X71722D02*
X72076D01*
X78922Y12848D02*
Y13793D01*
Y11903D02*
Y12848D01*
X77978Y12848D02*
X77978Y11903D01*
X77978Y12848D02*
Y13793D01*
X78332D02*
X78922D01*
X78332Y11903D02*
X78922Y11903D01*
X77978Y13793D02*
X78332D01*
X77978Y11903D02*
X78332Y11903D01*
X67722Y14250D02*
Y15195D01*
Y13305D02*
Y14250D01*
X66778Y14250D02*
X66778Y13305D01*
X66778Y14250D02*
Y15195D01*
X67132D02*
X67722D01*
X67132Y13305D02*
X67722Y13305D01*
X66778Y15195D02*
X67132D01*
X66778Y13305D02*
X67132Y13305D01*
X68053Y9655D02*
Y10600D01*
Y11545D01*
X68997D02*
X68997Y10600D01*
Y9655D02*
Y10600D01*
X68053Y9655D02*
X68643D01*
X68053Y11545D02*
X68643Y11545D01*
Y9655D02*
X68997D01*
X68643Y11545D02*
X68997Y11545D01*
X96222Y53200D02*
Y54145D01*
X95868D02*
X96222D01*
X95278D02*
X95632D01*
X95278Y53200D02*
Y54145D01*
X96222Y52255D02*
Y53200D01*
X95868Y52255D02*
X96222D01*
X95278D02*
Y53200D01*
Y52255D02*
X95632D01*
X59218Y43145D02*
X59572Y43145D01*
X59218Y41255D02*
X59572D01*
X58628Y43145D02*
X59218Y43145D01*
X58628Y41255D02*
X59218D01*
X59572D02*
Y42200D01*
X59572Y43145D02*
X59572Y42200D01*
X58628Y42200D02*
Y43145D01*
Y41255D02*
Y42200D01*
X105115Y50726D02*
X105137D01*
X105182Y50749D01*
X105205Y50771D01*
X105227Y50816D01*
Y50906D01*
X105205Y50951D01*
X105182Y50973D01*
X105137Y50996D01*
X105092D01*
X105047Y50973D01*
X104980Y50928D01*
X104755Y50704D01*
Y51018D01*
X105117Y55837D02*
X105140Y55882D01*
X105207Y55950D01*
X104735D01*
X85100Y25175D02*
X84898D01*
X84830Y25197D01*
X84808Y25220D01*
X84785Y25265D01*
Y25332D01*
X84808Y25377D01*
X84830Y25400D01*
X84898Y25422D01*
X85100D01*
Y24950D01*
X81100Y25472D02*
Y25000D01*
Y25472D02*
X80785Y25000D01*
Y25472D02*
Y25000D01*
X105728Y40696D02*
X105750Y40741D01*
X105818Y40808D01*
X105345D01*
X105463Y45769D02*
Y45521D01*
X105643Y45656D01*
Y45589D01*
X105666Y45544D01*
X105688Y45521D01*
X105756Y45499D01*
X105801D01*
X105868Y45521D01*
X105913Y45566D01*
X105936Y45634D01*
Y45701D01*
X105913Y45769D01*
X105891Y45791D01*
X105846Y45814D01*
X83650Y52225D02*
X83448D01*
X83380Y52247D01*
X83358Y52270D01*
X83335Y52315D01*
Y52382D01*
X83358Y52427D01*
X83380Y52450D01*
X83448Y52472D01*
X83650D01*
Y52000D01*
X78150Y52472D02*
Y52000D01*
Y52472D02*
X77835Y52000D01*
Y52472D02*
Y52000D01*
X105117Y38396D02*
X105140Y38441D01*
X105207Y38509D01*
X104735D01*
X62300Y20128D02*
Y20600D01*
Y20128D02*
X62502D01*
X62570Y20150D01*
X62592Y20173D01*
X62615Y20218D01*
Y20263D01*
X62592Y20308D01*
X62570Y20330D01*
X62502Y20353D01*
X62300D02*
X62502D01*
X62570Y20375D01*
X62592Y20398D01*
X62615Y20443D01*
Y20510D01*
X62592Y20555D01*
X62570Y20578D01*
X62502Y20600D01*
X62300D01*
X62587Y19290D02*
X62565Y19245D01*
X62520Y19200D01*
X62475Y19178D01*
X62385D01*
X62340Y19200D01*
X62295Y19245D01*
X62272Y19290D01*
X62250Y19358D01*
Y19470D01*
X62272Y19538D01*
X62295Y19583D01*
X62340Y19628D01*
X62385Y19650D01*
X62475D01*
X62520Y19628D01*
X62565Y19583D01*
X62587Y19538D01*
X62592Y21028D02*
X62300D01*
Y21500D01*
X62592D01*
X62300Y21253D02*
X62480D01*
X62492Y23978D02*
X62200D01*
Y24450D01*
X62492D01*
X62200Y24203D02*
X62380D01*
X62537Y22340D02*
X62515Y22295D01*
X62470Y22250D01*
X62425Y22228D01*
X62335D01*
X62290Y22250D01*
X62245Y22295D01*
X62222Y22340D01*
X62200Y22408D01*
Y22520D01*
X62222Y22588D01*
X62245Y22633D01*
X62290Y22678D01*
X62335Y22700D01*
X62425D01*
X62470Y22678D01*
X62515Y22633D01*
X62537Y22588D01*
X62200Y23128D02*
Y23600D01*
Y23128D02*
X62402D01*
X62470Y23150D01*
X62492Y23173D01*
X62515Y23218D01*
Y23263D01*
X62492Y23308D01*
X62470Y23330D01*
X62402Y23353D01*
X62200D02*
X62402D01*
X62470Y23375D01*
X62492Y23398D01*
X62515Y23443D01*
Y23510D01*
X62492Y23555D01*
X62470Y23578D01*
X62402Y23600D01*
X62200D01*
X6328Y59710D02*
Y59732D01*
X6305Y59777D01*
X6283Y59800D01*
X6238Y59822D01*
X6148D01*
X6103Y59800D01*
X6080Y59777D01*
X6058Y59732D01*
Y59687D01*
X6080Y59642D01*
X6125Y59575D01*
X6350Y59350D01*
X6035D01*
X6284Y54634D02*
X6239Y54656D01*
X6172Y54724D01*
Y54251D01*
X6728Y11410D02*
Y11432D01*
X6705Y11477D01*
X6683Y11500D01*
X6638Y11522D01*
X6548D01*
X6503Y11500D01*
X6480Y11477D01*
X6458Y11432D01*
Y11387D01*
X6480Y11342D01*
X6525Y11275D01*
X6750Y11050D01*
X6435D01*
X6750Y6232D02*
X6705Y6255D01*
X6638Y6322D01*
Y5850D01*
D14*
X105444Y44042D02*
X106330D01*
X105444Y43058D02*
X106330D01*
D18*
X2600Y68933D02*
Y67933D01*
X3100D01*
X3266Y68100D01*
Y68266D01*
X3100Y68433D01*
X2600D01*
X3100D01*
X3266Y68600D01*
Y68766D01*
X3100Y68933D01*
X2600D01*
X3766Y67933D02*
X4100D01*
X4266Y68100D01*
Y68433D01*
X4100Y68600D01*
X3766D01*
X3600Y68433D01*
Y68100D01*
X3766Y67933D01*
X4766Y68766D02*
Y68600D01*
X4599D01*
X4933D01*
X4766D01*
Y68100D01*
X4933Y67933D01*
X5599Y68766D02*
Y68600D01*
X5432D01*
X5766D01*
X5599D01*
Y68100D01*
X5766Y67933D01*
X6432D02*
X6765D01*
X6932Y68100D01*
Y68433D01*
X6765Y68600D01*
X6432D01*
X6265Y68433D01*
Y68100D01*
X6432Y67933D01*
X7265D02*
Y68600D01*
X7432D01*
X7598Y68433D01*
Y67933D01*
Y68433D01*
X7765Y68600D01*
X7932Y68433D01*
Y67933D01*
X9764Y68933D02*
X9431D01*
X9265Y68766D01*
Y68100D01*
X9431Y67933D01*
X9764D01*
X9931Y68100D01*
Y68766D01*
X9764Y68933D01*
X10264Y68600D02*
X10597Y67933D01*
X10931Y68600D01*
X11764Y67933D02*
X11430D01*
X11264Y68100D01*
Y68433D01*
X11430Y68600D01*
X11764D01*
X11930Y68433D01*
Y68266D01*
X11264D01*
X12264Y68600D02*
Y67933D01*
Y68266D01*
X12430Y68433D01*
X12597Y68600D01*
X12763D01*
X13263Y67933D02*
X13596D01*
X13430D01*
Y68933D01*
X13263D01*
X14263Y68600D02*
X14596D01*
X14763Y68433D01*
Y67933D01*
X14263D01*
X14096Y68100D01*
X14263Y68266D01*
X14763D01*
X15096Y68600D02*
Y68100D01*
X15263Y67933D01*
X15762D01*
Y67767D01*
X15596Y67600D01*
X15429D01*
X15762Y67933D02*
Y68600D01*
X65350Y17900D02*
Y17400D01*
X65250Y17300D01*
X65050D01*
X64950Y17400D01*
Y17900D01*
X64750Y17800D02*
X64650Y17900D01*
X64450D01*
X64350Y17800D01*
Y17700D01*
X64450Y17600D01*
X64550D01*
X64450D01*
X64350Y17500D01*
Y17400D01*
X64450Y17300D01*
X64650D01*
X64750Y17400D01*
X83750Y20450D02*
X83150D01*
Y20150D01*
X83250Y20050D01*
X83450D01*
X83550Y20150D01*
Y20450D01*
Y20250D02*
X83750Y20050D01*
X83250Y19850D02*
X83150Y19750D01*
Y19550D01*
X83250Y19450D01*
X83350D01*
X83450Y19550D01*
Y19650D01*
Y19550D01*
X83550Y19450D01*
X83650D01*
X83750Y19550D01*
Y19750D01*
X83650Y19850D01*
X83150Y18850D02*
X83250Y19050D01*
X83450Y19250D01*
X83650D01*
X83750Y19150D01*
Y18950D01*
X83650Y18850D01*
X83550D01*
X83450Y18950D01*
Y19250D01*
X84700Y20350D02*
X84100D01*
Y20050D01*
X84200Y19950D01*
X84400D01*
X84500Y20050D01*
Y20350D01*
Y20150D02*
X84700Y19950D01*
X84200Y19750D02*
X84100Y19650D01*
Y19450D01*
X84200Y19350D01*
X84300D01*
X84400Y19450D01*
Y19550D01*
Y19450D01*
X84500Y19350D01*
X84600D01*
X84700Y19450D01*
Y19650D01*
X84600Y19750D01*
X84700Y19150D02*
Y18950D01*
Y19050D01*
X84100D01*
X84200Y19150D01*
X83700Y22400D02*
X83100D01*
Y22100D01*
X83200Y22000D01*
X83400D01*
X83500Y22100D01*
Y22400D01*
Y22200D02*
X83700Y22000D01*
Y21400D02*
Y21800D01*
X83300Y21400D01*
X83200D01*
X83100Y21500D01*
Y21700D01*
X83200Y21800D01*
X83600Y21200D02*
X83700Y21100D01*
Y20900D01*
X83600Y20800D01*
X83200D01*
X83100Y20900D01*
Y21100D01*
X83200Y21200D01*
X83300D01*
X83400Y21100D01*
Y20800D01*
X81100Y22000D02*
X81000Y22100D01*
Y22300D01*
X81100Y22400D01*
X81500D01*
X81600Y22300D01*
Y22100D01*
X81500Y22000D01*
X81000Y21400D02*
Y21800D01*
X81300D01*
X81200Y21600D01*
Y21500D01*
X81300Y21400D01*
X81500D01*
X81600Y21500D01*
Y21700D01*
X81500Y21800D01*
X81600Y21200D02*
Y21000D01*
Y21100D01*
X81000D01*
X81100Y21200D01*
X79300Y22050D02*
Y21550D01*
X79200Y21450D01*
X79000D01*
X78900Y21550D01*
Y22050D01*
X78400Y21450D02*
Y22050D01*
X78700Y21750D01*
X78300D01*
X79250Y20200D02*
X78650D01*
Y19900D01*
X78750Y19800D01*
X78950D01*
X79050Y19900D01*
Y20200D01*
Y20000D02*
X79250Y19800D01*
Y19300D02*
X78650D01*
X78950Y19600D01*
Y19200D01*
X79250Y19000D02*
Y18800D01*
Y18900D01*
X78650D01*
X78750Y19000D01*
X82600Y18350D02*
X82000D01*
Y18050D01*
X82100Y17950D01*
X82300D01*
X82400Y18050D01*
Y18350D01*
Y18150D02*
X82600Y17950D01*
Y17350D02*
Y17750D01*
X82200Y17350D01*
X82100D01*
X82000Y17450D01*
Y17650D01*
X82100Y17750D01*
X82000Y16750D02*
X82100Y16950D01*
X82300Y17150D01*
X82500D01*
X82600Y17050D01*
Y16850D01*
X82500Y16750D01*
X82400D01*
X82300Y16850D01*
Y17150D01*
X83100Y18000D02*
X83000Y18100D01*
Y18300D01*
X83100Y18400D01*
X83500D01*
X83600Y18300D01*
Y18100D01*
X83500Y18000D01*
X83000Y17400D02*
Y17800D01*
X83300D01*
X83200Y17600D01*
Y17500D01*
X83300Y17400D01*
X83500D01*
X83600Y17500D01*
Y17700D01*
X83500Y17800D01*
X83100Y17200D02*
X83000Y17100D01*
Y16900D01*
X83100Y16800D01*
X83500D01*
X83600Y16900D01*
Y17100D01*
X83500Y17200D01*
X83100D01*
X84450Y15900D02*
X83850D01*
Y15600D01*
X83950Y15500D01*
X84150D01*
X84250Y15600D01*
Y15900D01*
Y15700D02*
X84450Y15500D01*
X83950Y15300D02*
X83850Y15200D01*
Y15000D01*
X83950Y14900D01*
X84050D01*
X84150Y15000D01*
Y15100D01*
Y15000D01*
X84250Y14900D01*
X84350D01*
X84450Y15000D01*
Y15200D01*
X84350Y15300D01*
X83950Y14700D02*
X83850Y14600D01*
Y14400D01*
X83950Y14300D01*
X84050D01*
X84150Y14400D01*
X84250Y14300D01*
X84350D01*
X84450Y14400D01*
Y14600D01*
X84350Y14700D01*
X84250D01*
X84150Y14600D01*
X84050Y14700D01*
X83950D01*
X84150Y14600D02*
Y14400D01*
X83450Y15250D02*
X83050D01*
X82950Y15350D01*
Y15550D01*
X83050Y15650D01*
X83450D01*
X83550Y15550D01*
Y15350D01*
X83350Y15450D02*
X83550Y15250D01*
Y15350D02*
X83450Y15250D01*
Y15050D02*
X83550Y14950D01*
Y14750D01*
X83450Y14650D01*
X83050D01*
X82950Y14750D01*
Y14950D01*
X83050Y15050D01*
X83150D01*
X83250Y14950D01*
Y14650D01*
X82150Y12900D02*
X81750D01*
X81650Y13000D01*
Y13200D01*
X81750Y13300D01*
X82150D01*
X82250Y13200D01*
Y13000D01*
X82050Y13100D02*
X82250Y12900D01*
Y13000D02*
X82150Y12900D01*
X82250Y12700D02*
Y12500D01*
Y12600D01*
X81650D01*
X81750Y12700D01*
Y12200D02*
X81650Y12100D01*
Y11900D01*
X81750Y11800D01*
X82150D01*
X82250Y11900D01*
Y12100D01*
X82150Y12200D01*
X81750D01*
X77000Y16800D02*
X77100Y16900D01*
X77300D01*
X77400Y16800D01*
Y16400D01*
X77300Y16300D01*
X77100D01*
X77000Y16400D01*
X76400Y16900D02*
X76800D01*
Y16600D01*
X76600Y16700D01*
X76500D01*
X76400Y16600D01*
Y16400D01*
X76500Y16300D01*
X76700D01*
X76800Y16400D01*
X75800Y16300D02*
X76200D01*
X75800Y16700D01*
Y16800D01*
X75900Y16900D01*
X76100D01*
X76200Y16800D01*
X79300Y16300D02*
Y16900D01*
X79000D01*
X78900Y16800D01*
Y16600D01*
X79000Y16500D01*
X79300D01*
X79100D02*
X78900Y16300D01*
X78700Y16800D02*
X78600Y16900D01*
X78400D01*
X78300Y16800D01*
Y16700D01*
X78400Y16600D01*
X78500D01*
X78400D01*
X78300Y16500D01*
Y16400D01*
X78400Y16300D01*
X78600D01*
X78700Y16400D01*
X78100D02*
X78000Y16300D01*
X77800D01*
X77700Y16400D01*
Y16800D01*
X77800Y16900D01*
X78000D01*
X78100Y16800D01*
Y16700D01*
X78000Y16600D01*
X77700D01*
X77100Y11550D02*
X77200Y11650D01*
X77400D01*
X77500Y11550D01*
Y11150D01*
X77400Y11050D01*
X77200D01*
X77100Y11150D01*
X76500Y11650D02*
X76900D01*
Y11350D01*
X76700Y11450D01*
X76600D01*
X76500Y11350D01*
Y11150D01*
X76600Y11050D01*
X76800D01*
X76900Y11150D01*
X75900Y11650D02*
X76300D01*
Y11350D01*
X76100Y11450D01*
X76000D01*
X75900Y11350D01*
Y11150D01*
X76000Y11050D01*
X76200D01*
X76300Y11150D01*
X64650Y28750D02*
X64550Y28850D01*
Y29050D01*
X64650Y29150D01*
X65050D01*
X65150Y29050D01*
Y28850D01*
X65050Y28750D01*
X65150Y28250D02*
X64550D01*
X64850Y28550D01*
Y28150D01*
X66050Y29150D02*
X65450D01*
Y28850D01*
X65550Y28750D01*
X65750D01*
X65850Y28850D01*
Y29150D01*
Y28950D02*
X66050Y28750D01*
Y28550D02*
Y28350D01*
Y28450D01*
X65450D01*
X65550Y28550D01*
Y28050D02*
X65450Y27950D01*
Y27750D01*
X65550Y27650D01*
X65650D01*
X65750Y27750D01*
X65850Y27650D01*
X65950D01*
X66050Y27750D01*
Y27950D01*
X65950Y28050D01*
X65850D01*
X65750Y27950D01*
X65650Y28050D01*
X65550D01*
X65750Y27950D02*
Y27750D01*
X72000Y29400D02*
X71400D01*
Y29100D01*
X71500Y29000D01*
X71700D01*
X71800Y29100D01*
Y29400D01*
Y29200D02*
X72000Y29000D01*
Y28400D02*
Y28800D01*
X71600Y28400D01*
X71500D01*
X71400Y28500D01*
Y28700D01*
X71500Y28800D01*
X72000Y28200D02*
Y28000D01*
Y28100D01*
X71400D01*
X71500Y28200D01*
X73050Y29500D02*
X72450D01*
Y29200D01*
X72550Y29100D01*
X72750D01*
X72850Y29200D01*
Y29500D01*
Y29300D02*
X73050Y29100D01*
Y28500D02*
Y28900D01*
X72650Y28500D01*
X72550D01*
X72450Y28600D01*
Y28800D01*
X72550Y28900D01*
Y28300D02*
X72450Y28200D01*
Y28000D01*
X72550Y27900D01*
X72650D01*
X72750Y28000D01*
Y28100D01*
Y28000D01*
X72850Y27900D01*
X72950D01*
X73050Y28000D01*
Y28200D01*
X72950Y28300D01*
X73050Y19550D02*
X73650D01*
Y19250D01*
X73550Y19150D01*
X73150D01*
X73050Y19250D01*
Y19550D01*
Y18950D02*
Y18550D01*
X73150D01*
X73550Y18950D01*
X73650D01*
X67450Y20900D02*
X67550Y21000D01*
X67750D01*
X67850Y20900D01*
Y20500D01*
X67750Y20400D01*
X67550D01*
X67450Y20500D01*
X66850Y20400D02*
X67250D01*
X66850Y20800D01*
Y20900D01*
X66950Y21000D01*
X67150D01*
X67250Y20900D01*
X66250Y21000D02*
X66450Y20900D01*
X66650Y20700D01*
Y20500D01*
X66550Y20400D01*
X66350D01*
X66250Y20500D01*
Y20600D01*
X66350Y20700D01*
X66650D01*
X67650Y22950D02*
X67050D01*
Y22650D01*
X67150Y22550D01*
X67350D01*
X67450Y22650D01*
Y22950D01*
Y22750D02*
X67650Y22550D01*
X67150Y22350D02*
X67050Y22250D01*
Y22050D01*
X67150Y21950D01*
X67250D01*
X67350Y22050D01*
X67450Y21950D01*
X67550D01*
X67650Y22050D01*
Y22250D01*
X67550Y22350D01*
X67450D01*
X67350Y22250D01*
X67250Y22350D01*
X67150D01*
X67350Y22250D02*
Y22050D01*
X67100Y25000D02*
X67000Y25100D01*
Y25300D01*
X67100Y25400D01*
X67500D01*
X67600Y25300D01*
Y25100D01*
X67500Y25000D01*
X67600Y24400D02*
Y24800D01*
X67200Y24400D01*
X67100D01*
X67000Y24500D01*
Y24700D01*
X67100Y24800D01*
X67600Y23900D02*
X67000D01*
X67300Y24200D01*
Y23800D01*
X69650Y24950D02*
X69550Y25050D01*
Y25250D01*
X69650Y25350D01*
X70050D01*
X70150Y25250D01*
Y25050D01*
X70050Y24950D01*
X70150Y24350D02*
Y24750D01*
X69750Y24350D01*
X69650D01*
X69550Y24450D01*
Y24650D01*
X69650Y24750D01*
X69550Y24150D02*
Y23750D01*
X69650D01*
X70050Y24150D01*
X70150D01*
X73250Y27400D02*
X72650D01*
Y27100D01*
X72750Y27000D01*
X72950D01*
X73050Y27100D01*
Y27400D01*
Y27200D02*
X73250Y27000D01*
Y26400D02*
Y26800D01*
X72850Y26400D01*
X72750D01*
X72650Y26500D01*
Y26700D01*
X72750Y26800D01*
X72650Y26200D02*
Y25800D01*
X72750D01*
X73150Y26200D01*
X73250D01*
X74450Y27400D02*
X73850D01*
Y27100D01*
X73950Y27000D01*
X74150D01*
X74250Y27100D01*
Y27400D01*
Y27200D02*
X74450Y27000D01*
X73950Y26800D02*
X73850Y26700D01*
Y26500D01*
X73950Y26400D01*
X74050D01*
X74150Y26500D01*
Y26600D01*
Y26500D01*
X74250Y26400D01*
X74350D01*
X74450Y26500D01*
Y26700D01*
X74350Y26800D01*
X73950Y26200D02*
X73850Y26100D01*
Y25900D01*
X73950Y25800D01*
X74050D01*
X74150Y25900D01*
Y26000D01*
Y25900D01*
X74250Y25800D01*
X74350D01*
X74450Y25900D01*
Y26100D01*
X74350Y26200D01*
X65800Y19950D02*
X65200D01*
Y19650D01*
X65300Y19550D01*
X65500D01*
X65600Y19650D01*
Y19950D01*
Y19750D02*
X65800Y19550D01*
Y19350D02*
Y19150D01*
Y19250D01*
X65200D01*
X65300Y19350D01*
X65800Y18550D02*
X65200D01*
X65500Y18850D01*
Y18450D01*
X64400Y19600D02*
X64300Y19700D01*
Y19900D01*
X64400Y20000D01*
X64800D01*
X64900Y19900D01*
Y19700D01*
X64800Y19600D01*
X64900Y19000D02*
Y19400D01*
X64500Y19000D01*
X64400D01*
X64300Y19100D01*
Y19300D01*
X64400Y19400D01*
X64300Y18400D02*
Y18800D01*
X64600D01*
X64500Y18600D01*
Y18500D01*
X64600Y18400D01*
X64800D01*
X64900Y18500D01*
Y18700D01*
X64800Y18800D01*
X72550Y17700D02*
X71950D01*
Y17400D01*
X72050Y17300D01*
X72250D01*
X72350Y17400D01*
Y17700D01*
Y17500D02*
X72550Y17300D01*
X72050Y17100D02*
X71950Y17000D01*
Y16800D01*
X72050Y16700D01*
X72150D01*
X72250Y16800D01*
Y16900D01*
Y16800D01*
X72350Y16700D01*
X72450D01*
X72550Y16800D01*
Y17000D01*
X72450Y17100D01*
X71950Y16500D02*
Y16100D01*
X72050D01*
X72450Y16500D01*
X72550D01*
X70950Y16800D02*
X71350D01*
X71450Y16700D01*
Y16500D01*
X71350Y16400D01*
X70950D01*
X70850Y16500D01*
Y16700D01*
X71050Y16600D02*
X70850Y16800D01*
Y16700D02*
X70950Y16800D01*
X71450Y17400D02*
X71350Y17200D01*
X71150Y17000D01*
X70950D01*
X70850Y17100D01*
Y17300D01*
X70950Y17400D01*
X71050D01*
X71150Y17300D01*
Y17000D01*
X67250Y15300D02*
Y15900D01*
X66950D01*
X66850Y15800D01*
Y15600D01*
X66950Y15500D01*
X67250D01*
X67050D02*
X66850Y15300D01*
X66650Y15800D02*
X66550Y15900D01*
X66350D01*
X66250Y15800D01*
Y15700D01*
X66350Y15600D01*
X66450D01*
X66350D01*
X66250Y15500D01*
Y15400D01*
X66350Y15300D01*
X66550D01*
X66650Y15400D01*
X65650Y15300D02*
X66050D01*
X65650Y15700D01*
Y15800D01*
X65750Y15900D01*
X65950D01*
X66050Y15800D01*
X68200Y12850D02*
X68700D01*
X68800Y12750D01*
Y12550D01*
X68700Y12450D01*
X68200D01*
Y11850D02*
Y12250D01*
X68500D01*
X68400Y12050D01*
Y11950D01*
X68500Y11850D01*
X68700D01*
X68800Y11950D01*
Y12150D01*
X68700Y12250D01*
X72450Y12550D02*
Y12050D01*
X72350Y11950D01*
X72150D01*
X72050Y12050D01*
Y12550D01*
X71450D02*
X71650Y12450D01*
X71850Y12250D01*
Y12050D01*
X71750Y11950D01*
X71550D01*
X71450Y12050D01*
Y12150D01*
X71550Y12250D01*
X71850D01*
X75000Y13450D02*
X74400D01*
Y13150D01*
X74500Y13050D01*
X74700D01*
X74800Y13150D01*
Y13450D01*
Y13250D02*
X75000Y13050D01*
Y12550D02*
X74400D01*
X74700Y12850D01*
Y12450D01*
X74400Y11850D02*
X74500Y12050D01*
X74700Y12250D01*
X74900D01*
X75000Y12150D01*
Y11950D01*
X74900Y11850D01*
X74800D01*
X74700Y11950D01*
Y12250D01*
X75000Y11300D02*
X74400D01*
Y11000D01*
X74500Y10900D01*
X74700D01*
X74800Y11000D01*
Y11300D01*
Y11100D02*
X75000Y10900D01*
Y10400D02*
X74400D01*
X74700Y10700D01*
Y10300D01*
X74400Y9700D02*
Y10100D01*
X74700D01*
X74600Y9900D01*
Y9800D01*
X74700Y9700D01*
X74900D01*
X75000Y9800D01*
Y10000D01*
X74900Y10100D01*
X73850Y11300D02*
X73250D01*
Y11000D01*
X73350Y10900D01*
X73550D01*
X73650Y11000D01*
Y11300D01*
Y11100D02*
X73850Y10900D01*
Y10400D02*
X73250D01*
X73550Y10700D01*
Y10300D01*
X73350Y10100D02*
X73250Y10000D01*
Y9800D01*
X73350Y9700D01*
X73750D01*
X73850Y9800D01*
Y10000D01*
X73750Y10100D01*
X73350D01*
X66450Y11250D02*
X65850D01*
Y10950D01*
X65950Y10850D01*
X66150D01*
X66250Y10950D01*
Y11250D01*
Y11050D02*
X66450Y10850D01*
Y10350D02*
X65850D01*
X66150Y10650D01*
Y10250D01*
X65850Y10050D02*
Y9650D01*
X65950D01*
X66350Y10050D01*
X66450D01*
X66400Y14750D02*
X65800D01*
Y14450D01*
X65900Y14350D01*
X66100D01*
X66200Y14450D01*
Y14750D01*
Y14550D02*
X66400Y14350D01*
Y13850D02*
X65800D01*
X66100Y14150D01*
Y13750D01*
X65900Y13550D02*
X65800Y13450D01*
Y13250D01*
X65900Y13150D01*
X66000D01*
X66100Y13250D01*
Y13350D01*
Y13250D01*
X66200Y13150D01*
X66300D01*
X66400Y13250D01*
Y13450D01*
X66300Y13550D01*
X64800Y14350D02*
X64700Y14450D01*
Y14650D01*
X64800Y14750D01*
X65200D01*
X65300Y14650D01*
Y14450D01*
X65200Y14350D01*
X64700Y13750D02*
Y14150D01*
X65000D01*
X64900Y13950D01*
Y13850D01*
X65000Y13750D01*
X65200D01*
X65300Y13850D01*
Y14050D01*
X65200Y14150D01*
X64700Y13150D02*
X64800Y13350D01*
X65000Y13550D01*
X65200D01*
X65300Y13450D01*
Y13250D01*
X65200Y13150D01*
X65100D01*
X65000Y13250D01*
Y13550D01*
X103100Y12500D02*
X103000Y12600D01*
Y12800D01*
X103100Y12900D01*
X103500D01*
X103600Y12800D01*
Y12600D01*
X103500Y12500D01*
X103000Y11900D02*
X103100Y12100D01*
X103300Y12300D01*
X103500D01*
X103600Y12200D01*
Y12000D01*
X103500Y11900D01*
X103400D01*
X103300Y12000D01*
Y12300D01*
X103000Y11700D02*
Y11300D01*
X103100D01*
X103500Y11700D01*
X103600D01*
X104900Y12900D02*
X104300D01*
Y12600D01*
X104400Y12500D01*
X104600D01*
X104700Y12600D01*
Y12900D01*
Y12700D02*
X104900Y12500D01*
X104300Y11900D02*
Y12300D01*
X104600D01*
X104500Y12100D01*
Y12000D01*
X104600Y11900D01*
X104800D01*
X104900Y12000D01*
Y12200D01*
X104800Y12300D01*
X104400Y11700D02*
X104300Y11600D01*
Y11400D01*
X104400Y11300D01*
X104500D01*
X104600Y11400D01*
Y11500D01*
Y11400D01*
X104700Y11300D01*
X104800D01*
X104900Y11400D01*
Y11600D01*
X104800Y11700D01*
X98000Y11800D02*
Y11300D01*
X97900Y11200D01*
X97700D01*
X97600Y11300D01*
Y11800D01*
X97400D02*
X97000D01*
Y11700D01*
X97400Y11300D01*
Y11200D01*
X95150Y12350D02*
X95050Y12450D01*
Y12650D01*
X95150Y12750D01*
X95550D01*
X95650Y12650D01*
Y12450D01*
X95550Y12350D01*
X95050Y12150D02*
Y11750D01*
X95150D01*
X95550Y12150D01*
X95650D01*
X95150Y11550D02*
X95050Y11450D01*
Y11250D01*
X95150Y11150D01*
X95550D01*
X95650Y11250D01*
Y11450D01*
X95550Y11550D01*
X95150D01*
X94300Y12700D02*
X93700D01*
Y12400D01*
X93800Y12300D01*
X94000D01*
X94100Y12400D01*
Y12700D01*
Y12500D02*
X94300Y12300D01*
X93700Y11700D02*
Y12100D01*
X94000D01*
X93900Y11900D01*
Y11800D01*
X94000Y11700D01*
X94200D01*
X94300Y11800D01*
Y12000D01*
X94200Y12100D01*
X94300Y11200D02*
X93700D01*
X94000Y11500D01*
Y11100D01*
X76550Y20150D02*
Y20550D01*
X76650Y20650D01*
X76850D01*
X76950Y20550D01*
Y20150D01*
X76850Y20050D01*
X76650D01*
X76750Y20250D02*
X76550Y20050D01*
X76650D02*
X76550Y20150D01*
X76350Y20550D02*
X76250Y20650D01*
X76050D01*
X75950Y20550D01*
Y20450D01*
X76050Y20350D01*
X75950Y20250D01*
Y20150D01*
X76050Y20050D01*
X76250D01*
X76350Y20150D01*
Y20250D01*
X76250Y20350D01*
X76350Y20450D01*
Y20550D01*
X76250Y20350D02*
X76050D01*
X75100Y20700D02*
Y20100D01*
X74800D01*
X74700Y20200D01*
Y20600D01*
X74800Y20700D01*
X75100D01*
X74500Y20100D02*
X74300D01*
X74400D01*
Y20700D01*
X74500Y20600D01*
X73600Y20700D02*
X74000D01*
Y20400D01*
X73800Y20500D01*
X73700D01*
X73600Y20400D01*
Y20200D01*
X73700Y20100D01*
X73900D01*
X74000Y20200D01*
X75850Y26100D02*
Y26500D01*
X75950Y26600D01*
X76150D01*
X76250Y26500D01*
Y26100D01*
X76150Y26000D01*
X75950D01*
X76050Y26200D02*
X75850Y26000D01*
X75950D02*
X75850Y26100D01*
X75250Y26600D02*
X75650D01*
Y26300D01*
X75450Y26400D01*
X75350D01*
X75250Y26300D01*
Y26100D01*
X75350Y26000D01*
X75550D01*
X75650Y26100D01*
X77650Y27350D02*
X77050D01*
Y27050D01*
X77150Y26950D01*
X77350D01*
X77450Y27050D01*
Y27350D01*
Y27150D02*
X77650Y26950D01*
X77150Y26750D02*
X77050Y26650D01*
Y26450D01*
X77150Y26350D01*
X77250D01*
X77350Y26450D01*
Y26550D01*
Y26450D01*
X77450Y26350D01*
X77550D01*
X77650Y26450D01*
Y26650D01*
X77550Y26750D01*
X77050Y25750D02*
Y26150D01*
X77350D01*
X77250Y25950D01*
Y25850D01*
X77350Y25750D01*
X77550D01*
X77650Y25850D01*
Y26050D01*
X77550Y26150D01*
X78250Y26950D02*
X78150Y27050D01*
Y27250D01*
X78250Y27350D01*
X78650D01*
X78750Y27250D01*
Y27050D01*
X78650Y26950D01*
X78150Y26350D02*
Y26750D01*
X78450D01*
X78350Y26550D01*
Y26450D01*
X78450Y26350D01*
X78650D01*
X78750Y26450D01*
Y26650D01*
X78650Y26750D01*
X78750Y25850D02*
X78150D01*
X78450Y26150D01*
Y25750D01*
X79950Y27400D02*
X79350D01*
Y27100D01*
X79450Y27000D01*
X79650D01*
X79750Y27100D01*
Y27400D01*
Y27200D02*
X79950Y27000D01*
Y26500D02*
X79350D01*
X79650Y26800D01*
Y26400D01*
X79950Y25800D02*
Y26200D01*
X79550Y25800D01*
X79450D01*
X79350Y25900D01*
Y26100D01*
X79450Y26200D01*
X63800Y10800D02*
X63700Y10900D01*
Y11100D01*
X63800Y11200D01*
X64200D01*
X64300Y11100D01*
Y10900D01*
X64200Y10800D01*
X63700Y10200D02*
Y10600D01*
X64000D01*
X63900Y10400D01*
Y10300D01*
X64000Y10200D01*
X64200D01*
X64300Y10300D01*
Y10500D01*
X64200Y10600D01*
X63700Y10000D02*
Y9600D01*
X63800D01*
X64200Y10000D01*
X64300D01*
X88950Y25650D02*
X89050Y25750D01*
X89250D01*
X89350Y25650D01*
Y25250D01*
X89250Y25150D01*
X89050D01*
X88950Y25250D01*
X88750Y25650D02*
X88650Y25750D01*
X88450D01*
X88350Y25650D01*
Y25550D01*
X88450Y25450D01*
X88550D01*
X88450D01*
X88350Y25350D01*
Y25250D01*
X88450Y25150D01*
X88650D01*
X88750Y25250D01*
X88150Y25650D02*
X88050Y25750D01*
X87850D01*
X87750Y25650D01*
Y25550D01*
X87850Y25450D01*
X87750Y25350D01*
Y25250D01*
X87850Y25150D01*
X88050D01*
X88150Y25250D01*
Y25350D01*
X88050Y25450D01*
X88150Y25550D01*
Y25650D01*
X88050Y25450D02*
X87850D01*
X96950Y36600D02*
X96850Y36700D01*
Y36900D01*
X96950Y37000D01*
X97350D01*
X97450Y36900D01*
Y36700D01*
X97350Y36600D01*
X96950Y36400D02*
X96850Y36300D01*
Y36100D01*
X96950Y36000D01*
X97050D01*
X97150Y36100D01*
Y36200D01*
Y36100D01*
X97250Y36000D01*
X97350D01*
X97450Y36100D01*
Y36300D01*
X97350Y36400D01*
X96850Y35400D02*
X96950Y35600D01*
X97150Y35800D01*
X97350D01*
X97450Y35700D01*
Y35500D01*
X97350Y35400D01*
X97250D01*
X97150Y35500D01*
Y35800D01*
X95750Y36600D02*
X95650Y36700D01*
Y36900D01*
X95750Y37000D01*
X96150D01*
X96250Y36900D01*
Y36700D01*
X96150Y36600D01*
X95750Y36400D02*
X95650Y36300D01*
Y36100D01*
X95750Y36000D01*
X95850D01*
X95950Y36100D01*
Y36200D01*
Y36100D01*
X96050Y36000D01*
X96150D01*
X96250Y36100D01*
Y36300D01*
X96150Y36400D01*
X95750Y35800D02*
X95650Y35700D01*
Y35500D01*
X95750Y35400D01*
X95850D01*
X95950Y35500D01*
Y35600D01*
Y35500D01*
X96050Y35400D01*
X96150D01*
X96250Y35500D01*
Y35700D01*
X96150Y35800D01*
X98200Y36600D02*
X98100Y36700D01*
Y36900D01*
X98200Y37000D01*
X98600D01*
X98700Y36900D01*
Y36700D01*
X98600Y36600D01*
X98200Y36400D02*
X98100Y36300D01*
Y36100D01*
X98200Y36000D01*
X98300D01*
X98400Y36100D01*
Y36200D01*
Y36100D01*
X98500Y36000D01*
X98600D01*
X98700Y36100D01*
Y36300D01*
X98600Y36400D01*
X98100Y35800D02*
Y35400D01*
X98200D01*
X98600Y35800D01*
X98700D01*
X89350Y36050D02*
X89450Y36150D01*
X89650D01*
X89750Y36050D01*
Y35650D01*
X89650Y35550D01*
X89450D01*
X89350Y35650D01*
X89150Y36050D02*
X89050Y36150D01*
X88850D01*
X88750Y36050D01*
Y35950D01*
X88850Y35850D01*
X88950D01*
X88850D01*
X88750Y35750D01*
Y35650D01*
X88850Y35550D01*
X89050D01*
X89150Y35650D01*
X88550Y35550D02*
X88350D01*
X88450D01*
Y36150D01*
X88550Y36050D01*
X89350Y42050D02*
X89450Y42150D01*
X89650D01*
X89750Y42050D01*
Y41650D01*
X89650Y41550D01*
X89450D01*
X89350Y41650D01*
X89150Y41550D02*
X88950D01*
X89050D01*
Y42150D01*
X89150Y42050D01*
X88250Y42150D02*
X88650D01*
Y41850D01*
X88450Y41950D01*
X88350D01*
X88250Y41850D01*
Y41650D01*
X88350Y41550D01*
X88550D01*
X88650Y41650D01*
X86200Y54750D02*
X86300Y54850D01*
X86500D01*
X86600Y54750D01*
Y54350D01*
X86500Y54250D01*
X86300D01*
X86200Y54350D01*
X85600Y54850D02*
X85800Y54750D01*
X86000Y54550D01*
Y54350D01*
X85900Y54250D01*
X85700D01*
X85600Y54350D01*
Y54450D01*
X85700Y54550D01*
X86000D01*
X56550Y44850D02*
X55950D01*
Y44550D01*
X56050Y44450D01*
X56250D01*
X56350Y44550D01*
Y44850D01*
Y44650D02*
X56550Y44450D01*
X55950Y44250D02*
Y43850D01*
X56050D01*
X56450Y44250D01*
X56550D01*
X54700Y42650D02*
X55300D01*
Y42350D01*
X55200Y42250D01*
X54800D01*
X54700Y42350D01*
Y42650D01*
Y41650D02*
Y42050D01*
X55000D01*
X54900Y41850D01*
Y41750D01*
X55000Y41650D01*
X55200D01*
X55300Y41750D01*
Y41950D01*
X55200Y42050D01*
X57350Y39250D02*
Y39850D01*
X57050D01*
X56950Y39750D01*
Y39550D01*
X57050Y39450D01*
X57350D01*
X57150D02*
X56950Y39250D01*
X56350Y39850D02*
X56750D01*
Y39550D01*
X56550Y39650D01*
X56450D01*
X56350Y39550D01*
Y39350D01*
X56450Y39250D01*
X56650D01*
X56750Y39350D01*
X96550Y42568D02*
X96650Y42668D01*
X96850D01*
X96950Y42568D01*
Y42168D01*
X96850Y42068D01*
X96650D01*
X96550Y42168D01*
X96350Y42068D02*
X96150D01*
X96250D01*
Y42668D01*
X96350Y42568D01*
X95450Y42668D02*
X95650Y42568D01*
X95850Y42368D01*
Y42168D01*
X95750Y42068D01*
X95550D01*
X95450Y42168D01*
Y42268D01*
X95550Y42368D01*
X95850D01*
X62050Y34700D02*
Y35300D01*
X61750D01*
X61650Y35200D01*
Y35000D01*
X61750Y34900D01*
X62050D01*
X61850D02*
X61650Y34700D01*
X61450D02*
X61250D01*
X61350D01*
Y35300D01*
X61450Y35200D01*
X60950D02*
X60850Y35300D01*
X60650D01*
X60550Y35200D01*
Y34800D01*
X60650Y34700D01*
X60850D01*
X60950Y34800D01*
Y35200D01*
X61750Y29750D02*
Y29150D01*
X61450D01*
X61350Y29250D01*
Y29650D01*
X61450Y29750D01*
X61750D01*
X61150Y29250D02*
X61050Y29150D01*
X60850D01*
X60750Y29250D01*
Y29650D01*
X60850Y29750D01*
X61050D01*
X61150Y29650D01*
Y29550D01*
X61050Y29450D01*
X60750D01*
X59050Y27100D02*
Y26500D01*
X58750D01*
X58650Y26600D01*
Y27000D01*
X58750Y27100D01*
X59050D01*
X58450Y27000D02*
X58350Y27100D01*
X58150D01*
X58050Y27000D01*
Y26900D01*
X58150Y26800D01*
X58050Y26700D01*
Y26600D01*
X58150Y26500D01*
X58350D01*
X58450Y26600D01*
Y26700D01*
X58350Y26800D01*
X58450Y26900D01*
Y27000D01*
X58350Y26800D02*
X58150D01*
X58750Y33750D02*
X58150D01*
Y33450D01*
X58250Y33350D01*
X58450D01*
X58550Y33450D01*
Y33750D01*
Y33550D02*
X58750Y33350D01*
Y33150D02*
Y32950D01*
Y33050D01*
X58150D01*
X58250Y33150D01*
Y32650D02*
X58150Y32550D01*
Y32350D01*
X58250Y32250D01*
X58350D01*
X58450Y32350D01*
Y32450D01*
Y32350D01*
X58550Y32250D01*
X58650D01*
X58750Y32350D01*
Y32550D01*
X58650Y32650D01*
X57550Y33750D02*
X56950D01*
Y33450D01*
X57050Y33350D01*
X57250D01*
X57350Y33450D01*
Y33750D01*
Y33550D02*
X57550Y33350D01*
Y33150D02*
Y32950D01*
Y33050D01*
X56950D01*
X57050Y33150D01*
X56950Y32250D02*
X57050Y32450D01*
X57250Y32650D01*
X57450D01*
X57550Y32550D01*
Y32350D01*
X57450Y32250D01*
X57350D01*
X57250Y32350D01*
Y32650D01*
X57450Y26500D02*
Y27100D01*
X57150D01*
X57050Y27000D01*
Y26800D01*
X57150Y26700D01*
X57450D01*
X57250D02*
X57050Y26500D01*
X56850D02*
X56650D01*
X56750D01*
Y27100D01*
X56850Y27000D01*
X56350Y27100D02*
X55950D01*
Y27000D01*
X56350Y26600D01*
Y26500D01*
X62144Y18270D02*
X62044Y18370D01*
Y18570D01*
X62144Y18670D01*
X62543D01*
X62643Y18570D01*
Y18370D01*
X62543Y18270D01*
X62044Y17670D02*
Y18070D01*
X62344D01*
X62244Y17870D01*
Y17770D01*
X62344Y17670D01*
X62543D01*
X62643Y17770D01*
Y17970D01*
X62543Y18070D01*
X62144Y17470D02*
X62044Y17370D01*
Y17170D01*
X62144Y17071D01*
X62244D01*
X62344Y17170D01*
Y17270D01*
Y17170D01*
X62444Y17071D01*
X62543D01*
X62643Y17170D01*
Y17370D01*
X62543Y17470D01*
X62650Y16600D02*
X62050D01*
Y16300D01*
X62150Y16200D01*
X62350D01*
X62450Y16300D01*
Y16600D01*
Y16400D02*
X62650Y16200D01*
Y15700D02*
X62050D01*
X62350Y16000D01*
Y15600D01*
X62650Y15100D02*
X62050D01*
X62350Y15400D01*
Y15000D01*
X7650Y35100D02*
X8050D01*
Y34800D01*
X7850D01*
X8050D01*
Y34500D01*
X7450Y35000D02*
X7350Y35100D01*
X7150D01*
X7050Y35000D01*
Y34900D01*
X7150Y34800D01*
X7250D01*
X7150D01*
X7050Y34700D01*
Y34600D01*
X7150Y34500D01*
X7350D01*
X7450Y34600D01*
X71000Y20450D02*
Y20850D01*
X71100Y20950D01*
X71300D01*
X71400Y20850D01*
Y20450D01*
X71300Y20350D01*
X71100D01*
X71200Y20550D02*
X71000Y20350D01*
X71100D02*
X71000Y20450D01*
X70800Y20950D02*
X70400D01*
Y20850D01*
X70800Y20450D01*
Y20350D01*
X64250Y14750D02*
X63650D01*
Y14450D01*
X63750Y14350D01*
X63950D01*
X64050Y14450D01*
Y14750D01*
Y14550D02*
X64250Y14350D01*
X63650Y13750D02*
Y14150D01*
X63950D01*
X63850Y13950D01*
Y13850D01*
X63950Y13750D01*
X64150D01*
X64250Y13850D01*
Y14050D01*
X64150Y14150D01*
X63750Y13550D02*
X63650Y13450D01*
Y13250D01*
X63750Y13150D01*
X64150D01*
X64250Y13250D01*
Y13450D01*
X64150Y13550D01*
X63750D01*
X65350Y11200D02*
X64750D01*
Y10900D01*
X64850Y10800D01*
X65050D01*
X65150Y10900D01*
Y11200D01*
Y11000D02*
X65350Y10800D01*
Y10300D02*
X64750D01*
X65050Y10600D01*
Y10200D01*
X65250Y10000D02*
X65350Y9900D01*
Y9700D01*
X65250Y9600D01*
X64850D01*
X64750Y9700D01*
Y9900D01*
X64850Y10000D01*
X64950D01*
X65050Y9900D01*
Y9600D01*
X79500Y11000D02*
Y11600D01*
X79200D01*
X79100Y11500D01*
Y11300D01*
X79200Y11200D01*
X79500D01*
X79300D02*
X79100Y11000D01*
X78600D02*
Y11600D01*
X78900Y11300D01*
X78500D01*
X78300Y11500D02*
X78200Y11600D01*
X78000D01*
X77900Y11500D01*
Y11400D01*
X78000Y11300D01*
X77900Y11200D01*
Y11100D01*
X78000Y11000D01*
X78200D01*
X78300Y11100D01*
Y11200D01*
X78200Y11300D01*
X78300Y11400D01*
Y11500D01*
X78200Y11300D02*
X78000D01*
X70150Y23250D02*
X69550D01*
Y22950D01*
X69650Y22850D01*
X69850D01*
X69950Y22950D01*
Y23250D01*
Y23050D02*
X70150Y22850D01*
Y22250D02*
Y22650D01*
X69750Y22250D01*
X69650D01*
X69550Y22350D01*
Y22550D01*
X69650Y22650D01*
Y22050D02*
X69550Y21950D01*
Y21750D01*
X69650Y21650D01*
X70050D01*
X70150Y21750D01*
Y21950D01*
X70050Y22050D01*
X69650D01*
X59510Y43488D02*
Y44088D01*
X59210D01*
X59110Y43988D01*
Y43788D01*
X59210Y43688D01*
X59510D01*
X59310D02*
X59110Y43488D01*
X58910Y43588D02*
X58810Y43488D01*
X58610D01*
X58510Y43588D01*
Y43988D01*
X58610Y44088D01*
X58810D01*
X58910Y43988D01*
Y43888D01*
X58810Y43788D01*
X58510D01*
X106100Y20100D02*
X106200Y20200D01*
X106400D01*
X106500Y20100D01*
Y19700D01*
X106400Y19600D01*
X106200D01*
X106100Y19700D01*
X105900Y20100D02*
X105800Y20200D01*
X105600D01*
X105500Y20100D01*
Y20000D01*
X105600Y19900D01*
X105700D01*
X105600D01*
X105500Y19800D01*
Y19700D01*
X105600Y19600D01*
X105800D01*
X105900Y19700D01*
X105300D02*
X105200Y19600D01*
X105000D01*
X104900Y19700D01*
Y20100D01*
X105000Y20200D01*
X105200D01*
X105300Y20100D01*
Y20000D01*
X105200Y19900D01*
X104900D01*
X71900Y24950D02*
X71800Y25050D01*
Y25250D01*
X71900Y25350D01*
X72300D01*
X72400Y25250D01*
Y25050D01*
X72300Y24950D01*
X72400Y24350D02*
Y24750D01*
X72000Y24350D01*
X71900D01*
X71800Y24450D01*
Y24650D01*
X71900Y24750D01*
Y24150D02*
X71800Y24050D01*
Y23850D01*
X71900Y23750D01*
X72000D01*
X72100Y23850D01*
Y23950D01*
Y23850D01*
X72200Y23750D01*
X72300D01*
X72400Y23850D01*
Y24050D01*
X72300Y24150D01*
X95760Y54980D02*
X95860Y55080D01*
X96060D01*
X96160Y54980D01*
Y54580D01*
X96060Y54480D01*
X95860D01*
X95760Y54580D01*
X95560Y55080D02*
X95160D01*
Y54980D01*
X95560Y54580D01*
Y54480D01*
D20*
X105262Y26457D02*
X105321Y26427D01*
X105350Y26339D01*
Y26281D01*
X105321Y26193D01*
X105233Y26134D01*
X105086Y26105D01*
X104940D01*
X104823Y26134D01*
X104764Y26193D01*
X104735Y26281D01*
Y26310D01*
X104764Y26398D01*
X104823Y26457D01*
X104911Y26486D01*
X104940D01*
X105028Y26457D01*
X105086Y26398D01*
X105116Y26310D01*
Y26281D01*
X105086Y26193D01*
X105028Y26134D01*
X104940Y26105D01*
X5350Y29548D02*
X5291Y29577D01*
X5204Y29665D01*
Y29050D01*
X5341Y37215D02*
X5019D01*
X5195Y36981D01*
X5107D01*
X5049Y36951D01*
X5019Y36922D01*
X4990Y36834D01*
Y36776D01*
X5019Y36688D01*
X5078Y36629D01*
X5166Y36600D01*
X5254D01*
X5341Y36629D01*
X5371Y36659D01*
X5400Y36717D01*
D90*
X79601Y14753D02*
X79995D01*
X80822D02*
X81216D01*
X79601Y15128D02*
X81216D01*
X79601Y16053D02*
X81216D01*
X79601Y14753D02*
Y16053D01*
X81216Y14753D02*
Y16053D01*
X80408Y15128D02*
Y16053D01*
X80870Y12928D02*
X81263D01*
X79649D02*
X80043D01*
X79649Y12554D02*
X81263D01*
X79649Y11628D02*
X81263D01*
Y12928D01*
X79649Y11628D02*
Y12928D01*
X80456Y11628D02*
Y12554D01*
X69270Y19278D02*
X69663D01*
X68049D02*
X68443D01*
X68049Y18904D02*
X69663D01*
X68049Y17978D02*
X69663D01*
Y19278D01*
X68049Y17978D02*
Y19278D01*
X68856Y17978D02*
Y18904D01*
X69004Y16544D02*
Y17844D01*
X67390Y16544D02*
Y17844D01*
Y16918D02*
X69004D01*
X67390Y17844D02*
X69004D01*
X68197Y16918D02*
Y17844D01*
X68610Y16544D02*
X69004Y16544D01*
X67390D02*
X67784Y16544D01*
X77018Y21043D02*
Y22342D01*
X75404Y21043D02*
Y22342D01*
X76624D02*
X77018D01*
X75404Y21968D02*
X77018D01*
X75404Y21043D02*
X77018D01*
X75404Y22342D02*
X75797D01*
X76211Y21043D02*
Y21968D01*
X75307Y21037D02*
Y22336D01*
X73693Y21037D02*
Y22336D01*
X74913D02*
X75307D01*
X73693Y21962D02*
X75307D01*
X73693Y21037D02*
X75307D01*
X73693Y22336D02*
X74087D01*
X74500Y21037D02*
Y21962D01*
X76061Y24843D02*
X76455Y24843D01*
X74840D02*
X75234Y24843D01*
X74840Y24469D02*
X76455D01*
Y23544D02*
Y24843D01*
X74840Y23544D02*
X76455D01*
X75647D02*
Y24469D01*
X74840Y23544D02*
Y24843D01*
X56896Y42294D02*
X57822D01*
X56522Y41487D02*
X57822D01*
X56522Y43101D02*
X57822D01*
Y41487D02*
Y43101D01*
X56896Y41487D02*
Y43101D01*
X56522Y41487D02*
Y41880D01*
Y42707D02*
Y43101D01*
X61676Y31436D02*
X62070D01*
X60456D02*
X60849D01*
X60456Y31062D02*
X62070D01*
X60456Y30137D02*
X62070D01*
Y31436D01*
X60456Y30137D02*
Y31436D01*
X61263Y30137D02*
Y31062D01*
X58450Y27387D02*
Y28312D01*
X57643Y27387D02*
Y28686D01*
X59257Y27387D02*
Y28686D01*
X57643Y27387D02*
X59257D01*
X57643Y28312D02*
X59257D01*
X57643Y28686D02*
X58037D01*
X58863D02*
X59257D01*
X71213Y19278D02*
X71607D01*
X69993D02*
X70387D01*
X69993Y18904D02*
X71607D01*
X69993Y17978D02*
X71607D01*
Y19278D01*
X69993Y17978D02*
Y19278D01*
X70800Y17978D02*
Y18904D01*
D91*
X79995Y13927D02*
Y14753D01*
X80822Y13927D02*
Y14753D01*
X79995Y13927D02*
X80822D01*
X80870Y12928D02*
Y13754D01*
X80043Y12928D02*
Y13754D01*
X80870D01*
X69270Y19278D02*
Y20104D01*
X68443Y19278D02*
Y20104D01*
X69270D01*
X67784Y15718D02*
X68610D01*
Y16544D01*
X67784Y15718D02*
Y16544D01*
X75797Y23169D02*
X76624D01*
Y22342D02*
Y23169D01*
X75797Y22342D02*
Y23169D01*
X74087Y23163D02*
X74913D01*
Y22336D02*
Y23163D01*
X74087Y22336D02*
Y23163D01*
X75234Y25670D02*
X76061D01*
Y24843D02*
Y25670D01*
X75234Y24843D02*
Y25670D01*
X55696Y41880D02*
Y42707D01*
Y41880D02*
X56522D01*
X55696Y42707D02*
X56522D01*
X61676Y31436D02*
Y32263D01*
X60849Y31436D02*
Y32263D01*
X61676D01*
X58037Y29513D02*
X58863D01*
X58037Y28686D02*
Y29513D01*
X58863Y28686D02*
Y29513D01*
X71213Y19278D02*
Y20104D01*
X70387Y19278D02*
Y20104D01*
X71213D01*
D92*
X106408Y10258D02*
X107491D01*
M02*
