G04*
G04 #@! TF.GenerationSoftware,Altium Limited,Altium Designer,20.0.13 (296)*
G04*
G04 Layer_Physical_Order=2*
G04 Layer_Color=16711680*
%FSLAX24Y24*%
%MOIN*%
G70*
G01*
G75*
%ADD15C,0.0040*%
%ADD18C,0.0100*%
%ADD19C,0.0150*%
%ADD42C,0.0050*%
%ADD43C,0.0300*%
%ADD44C,0.0400*%
%ADD46C,0.0600*%
%ADD47C,0.0900*%
%ADD48C,0.1200*%
%ADD49R,0.1200X0.1200*%
%ADD50C,0.0630*%
%ADD51C,0.0787*%
%ADD52C,0.0709*%
%ADD53C,0.0984*%
%ADD54C,0.1220*%
%ADD55R,0.0600X0.0600*%
%ADD56C,0.0600*%
%ADD57R,0.0709X0.0709*%
%ADD58C,0.2756*%
%ADD59C,0.0591*%
%ADD60C,0.1800*%
%ADD61C,0.0906*%
%ADD62R,0.0866X0.1378*%
%ADD63C,0.1181*%
%ADD64C,0.0866*%
%ADD65R,0.1402X0.0866*%
%ADD66C,0.0400*%
%ADD67C,0.0220*%
%ADD68R,0.0433X0.0492*%
%ADD69R,0.0551X0.0531*%
%ADD70R,0.0433X0.0650*%
%ADD71R,0.0630X0.0591*%
%ADD72R,0.0531X0.0551*%
%ADD73R,0.0638X0.1181*%
%ADD74R,0.2642X0.2657*%
%ADD75R,0.0650X0.0433*%
%ADD76R,0.0591X0.0630*%
%ADD77R,0.1102X0.1102*%
%ADD78C,0.0180*%
%ADD79C,0.0800*%
G36*
X90863Y62250D02*
X90783D01*
X90828Y62270D01*
X90863Y62250D01*
D02*
G37*
G36*
X72466Y57250D02*
X72466Y55900D01*
X72166Y55600D01*
X69166Y55600D01*
X68866Y55900D01*
X68866Y57100D01*
X69166Y57400D01*
X72316Y57400D01*
X72466Y57250D01*
D02*
G37*
G36*
X40150Y59800D02*
X40400Y59550D01*
X40400Y58300D01*
X41100Y57600D01*
X45950D01*
X66700Y57600D01*
X66950Y57350D01*
X66950Y55800D01*
X66600Y55450D01*
X58550Y55450D01*
X57750Y54650D01*
X44730D01*
X44250Y54307D01*
Y51950D01*
X43100Y50800D01*
X31050D01*
Y36200D01*
X30200Y35350D01*
X26550D01*
X26100Y35800D01*
X26100Y41550D01*
X26350Y41800D01*
X27900Y41800D01*
X28150Y42050D01*
X28150Y50650D01*
X23200Y50650D01*
X22800Y51050D01*
Y53650D01*
X23200Y54050D01*
X33950D01*
X34550Y54650D01*
X34550Y59500D01*
X34850Y59800D01*
X40150Y59800D01*
D02*
G37*
G36*
X99000Y61100D02*
X99000Y58050D01*
X100300Y56750D01*
X105400D01*
X106300Y55850D01*
Y53800D01*
X105800Y53300D01*
X103750D01*
X103600Y53450D01*
X103350Y53300D01*
X103150Y51200D01*
X102025Y51125D01*
X101250Y51200D01*
X97150Y51200D01*
X87000Y51200D01*
X86750Y51450D01*
X86750Y52213D01*
X86946D01*
X87154Y52004D01*
X87165Y51952D01*
X87220Y51870D01*
X87302Y51814D01*
X87400Y51795D01*
X87498Y51814D01*
X87580Y51870D01*
X87635Y51952D01*
X87655Y52050D01*
Y52119D01*
X87652Y52132D01*
X87694Y52180D01*
X87729D01*
X87827Y52199D01*
X87909Y52255D01*
X87965Y52337D01*
X87984Y52435D01*
X87965Y52533D01*
X87909Y52615D01*
X87827Y52670D01*
X87729Y52690D01*
X87560D01*
X87463Y52670D01*
X87380Y52615D01*
X87323Y52558D01*
X87322Y52558D01*
X87231Y52648D01*
X87149Y52703D01*
X87051Y52723D01*
X86750D01*
Y53177D01*
X86764D01*
X86861Y53197D01*
X86944Y53252D01*
X87448Y53756D01*
X87500Y53745D01*
X87598Y53765D01*
X87621Y53780D01*
X87646Y53785D01*
X87728Y53840D01*
X87783Y53923D01*
X87803Y54021D01*
Y54080D01*
X87852Y54144D01*
X87893Y54242D01*
X87907Y54346D01*
X87893Y54450D01*
X87852Y54548D01*
X87788Y54631D01*
X87705Y54695D01*
X87608Y54736D01*
X87503Y54750D01*
X87399Y54736D01*
X87301Y54695D01*
X87218Y54631D01*
X87154Y54548D01*
X87113Y54450D01*
X87100Y54346D01*
X87113Y54242D01*
X87142Y54171D01*
X86796Y53825D01*
X86750Y53844D01*
X86750Y56500D01*
X87000Y56750D01*
X90600D01*
Y61850D01*
X90950Y62200D01*
X90863Y62250D01*
X97850D01*
X99000Y61100D01*
D02*
G37*
G36*
X69516Y52450D02*
X69616Y52350D01*
X69616Y50900D01*
X69466Y50750D01*
X66266Y50750D01*
X66166Y50850D01*
Y52250D01*
X66366Y52450D01*
X69516Y52450D01*
D02*
G37*
G36*
X101670Y48380D02*
X101950Y48100D01*
X101950Y42573D01*
X100507Y41130D01*
X88757D01*
Y47730D01*
X89357Y48330D01*
Y48380D01*
X101670Y48380D01*
D02*
G37*
G36*
X99300Y13300D02*
Y12600D01*
X100140D01*
X100170Y12570D01*
X100252Y12514D01*
X100350Y12495D01*
X103951D01*
X104427Y12020D01*
X104509Y11964D01*
X104607Y11945D01*
X104700D01*
X104798Y11964D01*
X104880Y12020D01*
X104935Y12102D01*
X104955Y12200D01*
X104935Y12298D01*
X104880Y12380D01*
X104798Y12435D01*
X104715Y12452D01*
X104614Y12554D01*
X104633Y12600D01*
X106850D01*
X107700Y11750D01*
Y10400D01*
X107550Y10250D01*
X103689Y10250D01*
X103684Y10258D01*
X103634Y10291D01*
X103576Y10303D01*
X103024D01*
X102966Y10291D01*
X102916Y10258D01*
X102911Y10250D01*
X102900D01*
X102450Y9800D01*
X98000D01*
X97750Y10050D01*
Y13200D01*
X98100Y13550D01*
X99050D01*
X99300Y13300D01*
D02*
G37*
G36*
X97350Y13350D02*
X97350Y10250D01*
X97150Y10050D01*
X95739D01*
X95734Y10058D01*
X95684Y10091D01*
X95626Y10103D01*
X95074D01*
X95016Y10091D01*
X94966Y10058D01*
X94961Y10050D01*
X91200Y10050D01*
Y13050D01*
X91650Y13500D01*
X91950Y13500D01*
X97200D01*
X97350Y13350D01*
D02*
G37*
G36*
X107650Y9950D02*
Y8750D01*
X107400Y8500D01*
X99650D01*
X99600Y8450D01*
Y7050D01*
X98900Y6350D01*
X91250Y6350D01*
X90750Y6850D01*
X90750Y9250D01*
X91173Y9673D01*
X91200Y9650D01*
X91200Y9650D01*
X95750D01*
X96231D01*
Y9639D01*
X97069D01*
Y9650D01*
X98031Y9650D01*
Y9639D01*
X98869D01*
Y9650D01*
X102800Y9650D01*
X103147Y9997D01*
X103576D01*
X103634Y10009D01*
X103684Y10042D01*
X103717Y10091D01*
X103719Y10100D01*
X107500D01*
X107650Y9950D01*
D02*
G37*
%LPC*%
G36*
X91700Y58519D02*
X91592Y58504D01*
X91491Y58462D01*
X91404Y58396D01*
X91338Y58309D01*
X91296Y58208D01*
X91281Y58100D01*
X91296Y57992D01*
X91338Y57891D01*
X91404Y57804D01*
X91491Y57738D01*
X91592Y57696D01*
X91700Y57681D01*
X91808Y57696D01*
X91909Y57738D01*
X91996Y57804D01*
X92062Y57891D01*
X92104Y57992D01*
X92119Y58100D01*
X92104Y58208D01*
X92062Y58309D01*
X91996Y58396D01*
X91909Y58462D01*
X91808Y58504D01*
X91700Y58519D01*
D02*
G37*
G36*
X95600Y58158D02*
X95481Y58143D01*
X95371Y58097D01*
X95276Y58024D01*
X95203Y57929D01*
X95157Y57819D01*
X95142Y57700D01*
X95157Y57581D01*
X95203Y57471D01*
X95276Y57376D01*
X95371Y57303D01*
X95481Y57257D01*
X95600Y57242D01*
X95719Y57257D01*
X95829Y57303D01*
X95924Y57376D01*
X95997Y57471D01*
X96043Y57581D01*
X96058Y57700D01*
X96043Y57819D01*
X95997Y57929D01*
X95924Y58024D01*
X95829Y58097D01*
X95719Y58143D01*
X95600Y58158D01*
D02*
G37*
G36*
X97345Y56031D02*
X97216Y56014D01*
X97096Y55965D01*
X96993Y55886D01*
X96914Y55782D01*
X96864Y55662D01*
X96847Y55533D01*
X96864Y55405D01*
X96914Y55284D01*
X96993Y55181D01*
X97096Y55102D01*
X97216Y55052D01*
X97345Y55035D01*
X97474Y55052D01*
X97594Y55102D01*
X97697Y55181D01*
X97776Y55284D01*
X97826Y55405D01*
X97843Y55533D01*
X97826Y55662D01*
X97776Y55782D01*
X97697Y55886D01*
X97594Y55965D01*
X97474Y56014D01*
X97345Y56031D01*
D02*
G37*
G36*
X91850Y54603D02*
X91742Y54589D01*
X91641Y54547D01*
X91554Y54480D01*
X91488Y54394D01*
X91446Y54293D01*
X91431Y54184D01*
X91446Y54076D01*
X91488Y53975D01*
X91554Y53888D01*
X91641Y53822D01*
X91742Y53780D01*
X91850Y53766D01*
X91958Y53780D01*
X92059Y53822D01*
X92146Y53888D01*
X92212Y53975D01*
X92254Y54076D01*
X92269Y54184D01*
X92254Y54293D01*
X92212Y54394D01*
X92146Y54480D01*
X92059Y54547D01*
X91958Y54589D01*
X91850Y54603D01*
D02*
G37*
G36*
X102275Y54491D02*
X102146Y54474D01*
X102026Y54424D01*
X101922Y54345D01*
X101843Y54242D01*
X101794Y54122D01*
X101777Y53993D01*
X101794Y53864D01*
X101843Y53744D01*
X101922Y53641D01*
X102026Y53562D01*
X102146Y53512D01*
X102275Y53495D01*
X102403Y53512D01*
X102524Y53562D01*
X102627Y53641D01*
X102706Y53744D01*
X102756Y53864D01*
X102772Y53993D01*
X102756Y54122D01*
X102706Y54242D01*
X102627Y54345D01*
X102524Y54424D01*
X102403Y54474D01*
X102275Y54491D01*
D02*
G37*
G36*
X97113D02*
X96984Y54474D01*
X96864Y54424D01*
X96761Y54345D01*
X96682Y54242D01*
X96632Y54122D01*
X96615Y53993D01*
X96632Y53864D01*
X96682Y53744D01*
X96761Y53641D01*
X96864Y53562D01*
X96984Y53512D01*
X97113Y53495D01*
X97242Y53512D01*
X97362Y53562D01*
X97465Y53641D01*
X97544Y53744D01*
X97594Y53864D01*
X97611Y53993D01*
X97594Y54122D01*
X97544Y54242D01*
X97465Y54345D01*
X97362Y54424D01*
X97242Y54474D01*
X97113Y54491D01*
D02*
G37*
G36*
X94300Y54553D02*
X94192Y54539D01*
X94091Y54497D01*
X94004Y54430D01*
X93938Y54344D01*
X93896Y54243D01*
X93881Y54134D01*
X93896Y54026D01*
X93938Y53925D01*
X94004Y53838D01*
X94091Y53772D01*
X94192Y53730D01*
X94300Y53716D01*
X94408Y53730D01*
X94426Y53737D01*
X94661Y53502D01*
X94744Y53447D01*
X94841Y53427D01*
X95374D01*
Y53357D01*
X95370Y53311D01*
X95366Y53308D01*
X95333Y53259D01*
X95321Y53200D01*
X95333Y53141D01*
X95366Y53092D01*
X95416Y53059D01*
X95474Y53047D01*
X96026D01*
X96084Y53059D01*
X96134Y53092D01*
X96167Y53141D01*
X96179Y53200D01*
X96167Y53259D01*
X96134Y53308D01*
X96131Y53311D01*
X96126Y53317D01*
X96126Y53317D01*
Y54048D01*
X95374D01*
Y53937D01*
X94947D01*
X94714Y54170D01*
X94704Y54243D01*
X94662Y54344D01*
X94596Y54430D01*
X94509Y54497D01*
X94408Y54539D01*
X94300Y54553D01*
D02*
G37*
G36*
X95750Y52973D02*
X94852D01*
X94754Y52953D01*
X94672Y52898D01*
X94170Y52396D01*
X94115Y52313D01*
X94095Y52216D01*
Y52200D01*
X94115Y52102D01*
X94170Y52020D01*
X94252Y51965D01*
X94350Y51945D01*
X94448Y51965D01*
X94530Y52020D01*
X94562Y52067D01*
X94958Y52463D01*
X95750D01*
X95848Y52482D01*
X95930Y52537D01*
X95985Y52620D01*
X96005Y52718D01*
X95985Y52815D01*
X95930Y52898D01*
X95848Y52953D01*
X95750Y52973D01*
D02*
G37*
G36*
X91350Y46830D02*
X91242Y46815D01*
X91141Y46773D01*
X91054Y46707D01*
X90988Y46620D01*
X90946Y46519D01*
X90931Y46411D01*
X90946Y46303D01*
X90988Y46202D01*
X91054Y46115D01*
X91141Y46049D01*
X91242Y46007D01*
X91350Y45992D01*
X91458Y46007D01*
X91559Y46049D01*
X91646Y46115D01*
X91712Y46202D01*
X91754Y46303D01*
X91769Y46411D01*
X91754Y46519D01*
X91712Y46620D01*
X91646Y46707D01*
X91559Y46773D01*
X91458Y46815D01*
X91350Y46830D01*
D02*
G37*
G36*
X96900Y46058D02*
X96781Y46043D01*
X96671Y45997D01*
X96576Y45924D01*
X96503Y45829D01*
X96457Y45719D01*
X96442Y45600D01*
X96457Y45481D01*
X96503Y45371D01*
X96576Y45276D01*
X96671Y45203D01*
X96781Y45157D01*
X96900Y45142D01*
X97019Y45157D01*
X97129Y45203D01*
X97224Y45276D01*
X97297Y45371D01*
X97343Y45481D01*
X97358Y45600D01*
X97343Y45719D01*
X97297Y45829D01*
X97224Y45924D01*
X97129Y45997D01*
X97019Y46043D01*
X96900Y46058D01*
D02*
G37*
G36*
X100600Y45098D02*
X100471Y45081D01*
X100351Y45031D01*
X100248Y44952D01*
X100169Y44849D01*
X100119Y44729D01*
X100102Y44600D01*
X100119Y44471D01*
X100169Y44351D01*
X100248Y44248D01*
X100351Y44169D01*
X100471Y44119D01*
X100600Y44102D01*
X100729Y44119D01*
X100849Y44169D01*
X100952Y44248D01*
X101031Y44351D01*
X101081Y44471D01*
X101098Y44600D01*
X101081Y44729D01*
X101031Y44849D01*
X100952Y44952D01*
X100849Y45031D01*
X100729Y45081D01*
X100600Y45098D01*
D02*
G37*
G36*
X90493Y44015D02*
X90385Y44001D01*
X90284Y43959D01*
X90197Y43892D01*
X90131Y43806D01*
X90089Y43705D01*
X90075Y43596D01*
X90089Y43488D01*
X90131Y43387D01*
X90197Y43300D01*
X90284Y43234D01*
X90385Y43192D01*
X90493Y43178D01*
X90602Y43192D01*
X90703Y43234D01*
X90789Y43300D01*
X90856Y43387D01*
X90898Y43488D01*
X90912Y43596D01*
X90898Y43705D01*
X90856Y43806D01*
X90789Y43892D01*
X90703Y43959D01*
X90602Y44001D01*
X90493Y44015D01*
D02*
G37*
G36*
X92753D02*
X92645Y44001D01*
X92544Y43959D01*
X92457Y43892D01*
X92390Y43806D01*
X92349Y43705D01*
X92334Y43596D01*
X92349Y43488D01*
X92390Y43387D01*
X92457Y43300D01*
X92544Y43234D01*
X92645Y43192D01*
X92753Y43178D01*
X92861Y43192D01*
X92962Y43234D01*
X93049Y43300D01*
X93076Y43336D01*
X93704D01*
X94024Y43015D01*
Y42675D01*
X94020Y42628D01*
X94016Y42626D01*
X93983Y42576D01*
X93971Y42518D01*
X93983Y42459D01*
X94016Y42410D01*
X94066Y42376D01*
X94124Y42365D01*
X94676D01*
X94734Y42376D01*
X94784Y42410D01*
X94817Y42459D01*
X94829Y42518D01*
X94817Y42576D01*
X94784Y42626D01*
X94781Y42629D01*
X94776Y42634D01*
X94776Y42634D01*
Y43366D01*
X94395D01*
X93990Y43771D01*
X93907Y43826D01*
X93809Y43846D01*
X93085D01*
X93049Y43892D01*
X92962Y43959D01*
X92861Y44001D01*
X92753Y44015D01*
D02*
G37*
%LPD*%
D15*
X67396Y28468D02*
G03*
X67374Y28550I-170J0D01*
G01*
X66558Y28592D02*
G03*
X66674Y28298I116J-124D01*
G01*
X67226D02*
G03*
X67396Y28468I0J170D01*
G01*
X67387Y28520D02*
X71030D01*
X67395Y28480D02*
X71070D01*
X67374Y28550D02*
X71000Y28550D01*
X71267Y28283D01*
X67357Y28360D02*
X71190D01*
X67393Y28440D02*
X71110D01*
X67382Y28400D02*
X71150D01*
X66850Y30900D02*
X67117Y30633D01*
X67117Y30117D02*
X67117Y30633D01*
X66950Y29950D02*
X67117Y30117D01*
X66317Y29950D02*
X66950Y29950D01*
X66317Y28833D02*
X66558Y28592D01*
X71267Y28283D02*
X71267Y27650D01*
X70967Y27350D02*
X71267Y27650D01*
X67310Y28320D02*
X71230D01*
X66674Y28298D02*
X67226D01*
X66417Y27100D02*
X66667Y27350D01*
X70967D01*
X65500Y25040D02*
X66445D01*
X65500Y25000D02*
X66446D01*
X65500Y24880D02*
X66448D01*
X65500Y24840D02*
X66448D01*
X65500Y24960D02*
X66447D01*
X65500Y24920D02*
X66447D01*
X65500Y24760D02*
X66449D01*
X65500Y24720D02*
X66450D01*
X65500Y24800D02*
X66449D01*
X65500Y26520D02*
X66425D01*
X65500Y26440D02*
X66426D01*
X66317Y28833D02*
X66317Y29950D01*
X65500Y26720D02*
X66422D01*
X65500Y26280D02*
X66428D01*
X65500Y26240D02*
X66429D01*
X65500Y26400D02*
X66427D01*
X65500Y26320D02*
X66428D01*
X65500Y26120D02*
X66431D01*
X65500Y26080D02*
X66431D01*
X65500Y26200D02*
X66429D01*
X65500Y26160D02*
X66430D01*
X65500Y26000D02*
X66432D01*
X65500Y25960D02*
X66433D01*
X65500Y26040D02*
X66432D01*
X65500Y25560D02*
X66438D01*
X65500Y25520D02*
X66439D01*
X65500Y25640D02*
X66437D01*
X65500Y25600D02*
X66438D01*
X65500Y25280D02*
X66442D01*
X65500Y25240D02*
X66443D01*
X65500Y25360D02*
X66441D01*
X65500Y25320D02*
X66442D01*
X65500Y25840D02*
X66434D01*
X65500Y25800D02*
X66435D01*
X65500Y25920D02*
X66433D01*
X65500Y25880D02*
X66434D01*
X65500Y25720D02*
X66436D01*
X65500Y25680D02*
X66437D01*
X65500Y25760D02*
X66436D01*
X65500Y23520D02*
X67020D01*
X65500Y23480D02*
X67130D01*
X65500Y23600D02*
X66800D01*
X65500Y23560D02*
X66910D01*
X66464Y23722D02*
X67567Y23321D01*
X67567Y22550D02*
X67567Y23321D01*
X65500Y23440D02*
X67240D01*
X65500Y23400D02*
X67350D01*
X65500Y23280D02*
X67567D01*
X65500Y23240D02*
X67567D01*
X65500Y23360D02*
X67460D01*
X65500Y23320D02*
X67567D01*
X65500Y23160D02*
X67567D01*
X65500Y23120D02*
X67567D01*
X65500Y23200D02*
X67567D01*
X65500Y22720D02*
X67567D01*
X65500Y22680D02*
X67567D01*
X65500Y22800D02*
X67567D01*
X65500Y22760D02*
X67567D01*
X65540Y22560D02*
X67567D01*
X65550Y22550D02*
X67567Y22550D01*
X65500Y22640D02*
X67567D01*
X65500Y22600D02*
X67567D01*
X65500Y23000D02*
X67567D01*
X65500Y22960D02*
X67567D01*
X65500Y23080D02*
X67567D01*
X65500Y23040D02*
X67567D01*
X65500Y22880D02*
X67567D01*
X65500Y22840D02*
X67567D01*
X65500Y22920D02*
X67567D01*
X65500Y24600D02*
X66452D01*
X65500Y24560D02*
X66452D01*
X65500Y24680D02*
X66450D01*
X65500Y24640D02*
X66451D01*
X66417Y27100D02*
X66464Y23722D01*
X65500Y24440D02*
X66454D01*
X65500Y24520D02*
X66453D01*
X65500Y24480D02*
X66453D01*
X65500Y24320D02*
X66455D01*
X65500Y24280D02*
X66456D01*
X65500Y24400D02*
X66454D01*
X65500Y24360D02*
X66455D01*
X65500Y24200D02*
X66457D01*
X65500Y24160D02*
X66458D01*
X65500Y24240D02*
X66457D01*
X65500Y23760D02*
X66463D01*
X65500Y23720D02*
X66470D01*
X65500Y23840D02*
X66462D01*
X65500Y23800D02*
X66463D01*
X65500Y23680D02*
X66580D01*
X65500Y23640D02*
X66690D01*
X65500Y22600D02*
X65550Y22550D01*
X65500Y24040D02*
X66459D01*
X65500Y24000D02*
X66460D01*
X65500Y24120D02*
X66458D01*
X65500Y24080D02*
X66459D01*
X65500Y23920D02*
X66461D01*
X65500Y23880D02*
X66462D01*
X65500Y23960D02*
X66460D01*
X65500Y30560D02*
X67117D01*
X65500Y30520D02*
X67117D01*
X65500Y30640D02*
X67110D01*
X65500Y30600D02*
X67117D01*
X65500Y30400D02*
X67117D01*
X65500Y30360D02*
X67117D01*
X65500Y30480D02*
X67117D01*
X65500Y30440D02*
X67117D01*
X65500Y30840D02*
X66910D01*
X65500Y30800D02*
X66950D01*
X65500Y30900D02*
X66850Y30900D01*
X65500Y30880D02*
X66870D01*
X65500Y30720D02*
X67030D01*
X65500Y30680D02*
X67070D01*
X65500Y30760D02*
X66990D01*
X65500Y30040D02*
X67040D01*
X65500Y30000D02*
X67000D01*
X65500Y29960D02*
X66960D01*
X65500Y28720D02*
X66430D01*
X65500Y28600D02*
X66550D01*
X65500Y28560D02*
X66532D01*
X65500Y28680D02*
X66470D01*
X65500Y28640D02*
X66510D01*
X65500Y30320D02*
X67117D01*
X65500Y30280D02*
X67117D01*
X65500Y30240D02*
X67117D01*
X65500Y30200D02*
X67117D01*
X65500Y30160D02*
X67117D01*
X65500Y30120D02*
X67117D01*
X65500Y30080D02*
X67080D01*
X65500Y29560D02*
X66317D01*
X65500Y29520D02*
X66317D01*
X65500Y29640D02*
X66317D01*
X65500Y29600D02*
X66317D01*
X65500Y29480D02*
X66317D01*
X65500Y29440D02*
X66317D01*
X65500Y29400D02*
X66317D01*
X65500Y29360D02*
X66317D01*
X65500Y29840D02*
X66317D01*
X65500Y29800D02*
X66317D01*
X65500Y29920D02*
X66317D01*
X65500Y29880D02*
X66317D01*
X65500Y29720D02*
X66317D01*
X65500Y29680D02*
X66317D01*
X65500Y29760D02*
X66317D01*
X65500Y28960D02*
X66317D01*
X65500Y28920D02*
X66317D01*
X65500Y29040D02*
X66317D01*
X65500Y29000D02*
X66317D01*
X65500Y28800D02*
X66350D01*
X65500Y28760D02*
X66390D01*
X65500Y28880D02*
X66317D01*
X65500Y28840D02*
X66317D01*
X65500Y29240D02*
X66317D01*
X65500Y29200D02*
X66317D01*
X65500Y29320D02*
X66317D01*
X65500Y29280D02*
X66317D01*
X65500Y29120D02*
X66317D01*
X65500Y29080D02*
X66317D01*
X65500Y29160D02*
X66317D01*
X65500Y28040D02*
X71267D01*
X65500Y28000D02*
X71267D01*
X65500Y28120D02*
X71267D01*
X65500Y28080D02*
X71267D01*
X65500Y27880D02*
X71267D01*
X65500Y27840D02*
X71267D01*
X65500Y27960D02*
X71267D01*
X65500Y27920D02*
X71267D01*
X65500Y28320D02*
X66590D01*
X65500Y28280D02*
X71267D01*
X65500Y28400D02*
X66518D01*
X65500Y28360D02*
X66543D01*
X65500Y28200D02*
X71267D01*
X65500Y28160D02*
X71267D01*
X65500Y28240D02*
X71267D01*
X65500Y27520D02*
X71137D01*
X65500Y27480D02*
X71097D01*
X65500Y27440D02*
X71057D01*
X65500Y27400D02*
X71017D01*
X65500Y27360D02*
X70977D01*
X65500Y27320D02*
X66637D01*
X65500Y27280D02*
X66597D01*
X65500Y27240D02*
X66557D01*
X65500Y27720D02*
X71267D01*
X65500Y27680D02*
X71267D01*
X65500Y27800D02*
X71267D01*
X65500Y27760D02*
X71267D01*
X65500Y27640D02*
X71257D01*
X65500Y27600D02*
X71217D01*
X65500Y27560D02*
X71177D01*
X65500Y27000D02*
X66418D01*
X65500Y26960D02*
X66419D01*
X65500Y27080D02*
X66417D01*
X65500Y27040D02*
X66418D01*
X65500Y26840D02*
X66421D01*
X65500Y26800D02*
X66421D01*
X65500Y26920D02*
X66420D01*
X65500Y26880D02*
X66420D01*
X65500Y28520D02*
X66513D01*
X65500Y27200D02*
X66517D01*
X65500Y28480D02*
X66505D01*
X65500Y28440D02*
X66507D01*
X65500Y27160D02*
X66477D01*
X65500Y27120D02*
X66437D01*
X65500Y30900D02*
X65500Y22600D01*
X65500Y25400D02*
X66441D01*
X65500Y25200D02*
X66443D01*
X65500Y25480D02*
X66439D01*
X65500Y25440D02*
X66440D01*
X65500Y25120D02*
X66444D01*
X65500Y25080D02*
X66445D01*
X65500Y25160D02*
X66444D01*
X65500Y26640D02*
X66423D01*
X65500Y26600D02*
X66424D01*
X65500Y26760D02*
X66422D01*
X65500Y26680D02*
X66423D01*
X65500Y26480D02*
X66426D01*
X65500Y26360D02*
X66427D01*
X65500Y26560D02*
X66424D01*
X25850Y29520D02*
X30166D01*
X25850Y29480D02*
X30167D01*
X25850Y29560D02*
X30166D01*
X25850Y29400D02*
X30167D01*
X25850Y29440D02*
X30167D01*
X25850Y29680D02*
X30165D01*
X25850Y29720D02*
X30165D01*
X25850Y29600D02*
X30166D01*
X25850Y29640D02*
X30165D01*
X25850Y29160D02*
X30169D01*
X25850Y29120D02*
X30170D01*
X25850Y29200D02*
X30169D01*
X25850Y29080D02*
X30170D01*
X25840Y29040D02*
X30170D01*
X25850Y29320D02*
X30168D01*
X25850Y29360D02*
X30168D01*
X25850Y29240D02*
X30169D01*
X25850Y29280D02*
X30168D01*
X25640Y28840D02*
X30172D01*
X25600Y28800D02*
X30172D01*
X25560Y28760D02*
X30173D01*
X25520Y28720D02*
X30173D01*
X25480Y28680D02*
X30173D01*
X25800Y29000D02*
X30171D01*
X25760Y28960D02*
X30171D01*
X25720Y28920D02*
X30171D01*
X25680Y28880D02*
X30172D01*
X25280Y28480D02*
X30175D01*
X25240Y28440D02*
X30175D01*
X25200Y28400D02*
X30175D01*
X25160Y28360D02*
X30176D01*
X25120Y28320D02*
X30176D01*
X25440Y28640D02*
X30173D01*
X25400Y28600D02*
X30174D01*
X25360Y28560D02*
X30174D01*
X25320Y28520D02*
X30174D01*
X21670Y28120D02*
X30178D01*
X21630Y28080D02*
X30178D01*
X21590Y28040D02*
X30178D01*
X21550Y28000D02*
X30179D01*
X21510Y27960D02*
X30179D01*
X25080Y28280D02*
X30176D01*
X25040Y28240D02*
X30177D01*
X25000Y28200D02*
X30177D01*
X24960Y28160D02*
X30177D01*
X21310Y27760D02*
X30181D01*
X21270Y27720D02*
X30181D01*
X21230Y27680D02*
X30181D01*
X21190Y27640D02*
X30182D01*
X21150Y27600D02*
X30182D01*
X21470Y27920D02*
X30179D01*
X21430Y27880D02*
X30180D01*
X21390Y27840D02*
X30180D01*
X21350Y27800D02*
X30180D01*
X20950Y27400D02*
X30183D01*
X20910Y27360D02*
X30184D01*
X20870Y27320D02*
X30184D01*
X20830Y27280D02*
X30184D01*
X20790Y27240D02*
X30185D01*
X21110Y27560D02*
X30182D01*
X21070Y27520D02*
X30182D01*
X21030Y27480D02*
X30183D01*
X20990Y27440D02*
X30183D01*
X20590Y27040D02*
X30186D01*
X20550Y27000D02*
X30187D01*
X20510Y26960D02*
X30187D01*
X20470Y26920D02*
X30187D01*
X20750Y27200D02*
X30185D01*
X20710Y27160D02*
X30185D01*
X20670Y27120D02*
X30186D01*
X20630Y27080D02*
X30186D01*
X26210Y32160D02*
X29540D01*
X26170Y32120D02*
X29580D01*
X26130Y32080D02*
X29620D01*
X26090Y32040D02*
X29660D01*
X26050Y32000D02*
X29700D01*
X26350Y32300D02*
X29400D01*
X26330Y32280D02*
X29420D01*
X26290Y32240D02*
X29460D01*
X26250Y32200D02*
X29500D01*
X25930Y31880D02*
X29820D01*
X29400Y32300D02*
X30150Y31550D01*
X25890Y31840D02*
X29860D01*
X25850Y31760D02*
X29940D01*
X25850Y31800D02*
X29900D01*
X26010Y31960D02*
X29740D01*
X25850Y31800D02*
X26350Y32300D01*
X25970Y31920D02*
X29780D01*
X25850Y29050D02*
Y31800D01*
Y31520D02*
X30150D01*
X25850Y31480D02*
X30151D01*
X25850Y31560D02*
X30140D01*
X25850Y31400D02*
X30151D01*
X25850Y31440D02*
X30151D01*
X25850Y31680D02*
X30020D01*
X25850Y31720D02*
X29980D01*
X25850Y31600D02*
X30100D01*
X25850Y31640D02*
X30060D01*
X25850Y31160D02*
X30153D01*
X25850Y31200D02*
X30153D01*
X25850Y31080D02*
X30154D01*
X25850Y31120D02*
X30153D01*
X25850Y31320D02*
X30152D01*
X25850Y31360D02*
X30152D01*
X25850Y31240D02*
X30152D01*
X25850Y31280D02*
X30152D01*
X25850Y30840D02*
X30156D01*
X25850Y30800D02*
X30156D01*
X25850Y30880D02*
X30155D01*
X25850Y30720D02*
X30157D01*
X25850Y30760D02*
X30156D01*
X25850Y31000D02*
X30154D01*
X25850Y31040D02*
X30154D01*
X25850Y30920D02*
X30155D01*
X25850Y30960D02*
X30155D01*
X25850Y30480D02*
X30159D01*
X25850Y30440D02*
X30159D01*
X25850Y30520D02*
X30158D01*
X25850Y30360D02*
X30160D01*
X25850Y30400D02*
X30159D01*
X25850Y30640D02*
X30157D01*
X25850Y30680D02*
X30157D01*
X25850Y30560D02*
X30158D01*
X25850Y30600D02*
X30158D01*
X25850Y30120D02*
X30162D01*
X25850Y30080D02*
X30162D01*
X25850Y30160D02*
X30161D01*
X25850Y30000D02*
X30162D01*
X25850Y30040D02*
X30162D01*
X25850Y30280D02*
X30160D01*
X25850Y30320D02*
X30160D01*
X25850Y30200D02*
X30161D01*
X25850Y30240D02*
X30161D01*
X25850Y29840D02*
X30164D01*
X25850Y29880D02*
X30163D01*
X25850Y29760D02*
X30164D01*
X25850Y29800D02*
X30164D01*
X25850Y29920D02*
X30163D01*
X25850Y29960D02*
X30163D01*
X24950Y28150D02*
X25850Y29050D01*
X21700Y28150D02*
X24950Y28150D01*
X19700Y16000D02*
X40400D01*
X19700Y15840D02*
X40400D01*
X19700Y16040D02*
X40400D01*
X19700Y15760D02*
X40400D01*
X19700Y15800D02*
X40400D01*
X40200Y16950D02*
X40400Y16750D01*
X19700Y16160D02*
X40400D01*
X19700Y16080D02*
X40400D01*
X19700Y16120D02*
X40400D01*
X19700Y14640D02*
X40400D01*
Y12250D02*
Y16750D01*
X19700Y14600D02*
X40400D01*
X19700Y14520D02*
X40400D01*
X19700Y14560D02*
X40400D01*
X19700Y14800D02*
X40400D01*
X19700Y15680D02*
X40400D01*
X19700Y14720D02*
X40400D01*
X19700Y14760D02*
X40400D01*
X19700Y14280D02*
X40400D01*
X19700Y14240D02*
X40400D01*
X19700Y14320D02*
X40400D01*
X19700Y14160D02*
X40400D01*
X19700Y14200D02*
X40400D01*
X19700Y14440D02*
X40400D01*
X19700Y14480D02*
X40400D01*
X19700Y14360D02*
X40400D01*
X19700Y14400D02*
X40400D01*
X19700Y13920D02*
X40400D01*
X19700Y13960D02*
X40400D01*
X19700Y13840D02*
X40400D01*
X19700Y13880D02*
X40400D01*
X19700Y14080D02*
X40400D01*
X19700Y14120D02*
X40400D01*
X19700Y14000D02*
X40400D01*
X19700Y14040D02*
X40400D01*
X19790Y12760D02*
X40400D01*
X19830Y12720D02*
X40400D01*
X19750Y12800D02*
X40400D01*
X19910Y12640D02*
X40400D01*
X19870Y12680D02*
X40400D01*
X19700Y13080D02*
X40400D01*
X19700Y13120D02*
X40400D01*
X19710Y12840D02*
X40400D01*
X19700Y13040D02*
X40400D01*
X20190Y12360D02*
X40400D01*
X20230Y12320D02*
X40400D01*
X20150Y12400D02*
X40400D01*
X38750Y10600D02*
X40400Y12250D01*
X20270Y12280D02*
X40400D01*
X20030Y12520D02*
X40400D01*
X19950Y12600D02*
X40400D01*
X20110Y12440D02*
X40400D01*
X20070Y12480D02*
X40400D01*
X19700Y13600D02*
X40400D01*
X19700Y13560D02*
X40400D01*
X19700Y13640D02*
X40400D01*
X19700Y13480D02*
X40400D01*
X19700Y13520D02*
X40400D01*
X19700Y13760D02*
X40400D01*
X19700Y13800D02*
X40400D01*
X19700Y13680D02*
X40400D01*
X19700Y13720D02*
X40400D01*
X19700Y13240D02*
X40400D01*
X19700Y13280D02*
X40400D01*
X19700Y13160D02*
X40400D01*
X19700Y13200D02*
X40400D01*
X19700Y13400D02*
X40400D01*
X19700Y13440D02*
X40400D01*
X19700Y13320D02*
X40400D01*
X19700Y13360D02*
X40400D01*
X20390Y26840D02*
X30188D01*
X30150Y31550D02*
X30200Y25350D01*
X20350Y26800D02*
X30188D01*
X29617Y24842D02*
X30200Y25350D01*
X20310Y26760D02*
X30189D01*
X25650Y24850D02*
X29617Y24842D01*
X20430Y26880D02*
X30188D01*
X24050Y17750D02*
Y23250D01*
X25650Y24850D01*
X20350Y12200D02*
X40350D01*
X20390Y12160D02*
X40310D01*
X20310Y12240D02*
X40390D01*
X20470Y12080D02*
X40230D01*
X20430Y12120D02*
X40270D01*
X24850Y16950D02*
X40200Y16950D01*
X24050Y17750D02*
X24850Y16950D01*
X20550Y12000D02*
X40150D01*
X20510Y12040D02*
X40190D01*
X20110Y26560D02*
X30190D01*
X20070Y26520D02*
X30191D01*
X20030Y26480D02*
X30191D01*
X19990Y26440D02*
X30191D01*
X19950Y26400D02*
X30192D01*
X20270Y26720D02*
X30189D01*
X20230Y26680D02*
X30189D01*
X20190Y26640D02*
X30190D01*
X20150Y26600D02*
X30190D01*
X19790Y26240D02*
X30193D01*
X19750Y26200D02*
X30193D01*
X19990Y12560D02*
X40400D01*
X19710Y26160D02*
X30193D01*
X19910Y26360D02*
X30192D01*
X19870Y26320D02*
X30192D01*
X19830Y26280D02*
X30192D01*
X19700Y12850D02*
X21950Y10600D01*
X21310Y11240D02*
X39390D01*
X21350Y11200D02*
X39350D01*
X21270Y11280D02*
X39430D01*
X21430Y11120D02*
X39270D01*
X21390Y11160D02*
X39310D01*
X21510Y11040D02*
X39190D01*
X21470Y11080D02*
X39230D01*
X21590Y10960D02*
X39110D01*
X21550Y11000D02*
X39150D01*
X21670Y10880D02*
X39030D01*
X21710Y10840D02*
X38990D01*
X21630Y10920D02*
X39070D01*
X21790Y10760D02*
X38910D01*
X21750Y10800D02*
X38950D01*
X21870Y10680D02*
X38830D01*
X21830Y10720D02*
X38870D01*
X21950Y10600D02*
X38750D01*
X21910Y10640D02*
X38790D01*
X20630Y11920D02*
X40070D01*
X20670Y11880D02*
X40030D01*
X20590Y11960D02*
X40110D01*
X20750Y11800D02*
X39950D01*
X20710Y11840D02*
X39990D01*
X20830Y11720D02*
X39870D01*
X20790Y11760D02*
X39910D01*
X20910Y11640D02*
X39790D01*
X20870Y11680D02*
X39830D01*
X20990Y11560D02*
X39710D01*
X20950Y11600D02*
X39750D01*
X21070Y11480D02*
X39630D01*
X21030Y11520D02*
X39670D01*
X21150Y11400D02*
X39550D01*
X21110Y11440D02*
X39590D01*
X21230Y11320D02*
X39470D01*
X21190Y11360D02*
X39510D01*
X19700Y25360D02*
X30200D01*
X19700Y25320D02*
X30166D01*
X19700Y25400D02*
X30200D01*
X19700Y25240D02*
X30074D01*
X19700Y25280D02*
X30120D01*
X19700Y25160D02*
X29982D01*
X19700Y25200D02*
X30028D01*
X19700Y25080D02*
X29890D01*
X19700Y25120D02*
X29936D01*
X19700Y25000D02*
X29798D01*
X19700Y24960D02*
X29752D01*
X19700Y25040D02*
X29844D01*
X19700Y24880D02*
X29660D01*
X19700Y24920D02*
X29706D01*
X19700Y24800D02*
X25600D01*
X19700Y24840D02*
X25640D01*
X19700Y24720D02*
X25520D01*
X19700Y24760D02*
X25560D01*
X19700Y25920D02*
X30195D01*
X19700Y25880D02*
X30196D01*
X19700Y25960D02*
X30195D01*
X19700Y25800D02*
X30196D01*
X19700Y25840D02*
X30196D01*
X19700Y26080D02*
X30194D01*
X19700Y26120D02*
X30194D01*
X19700Y26000D02*
X30195D01*
X19700Y26040D02*
X30194D01*
X19700Y25560D02*
X30198D01*
X19700Y25520D02*
X30199D01*
X19700Y25600D02*
X30198D01*
X19700Y25440D02*
X30199D01*
X19700Y25480D02*
X30199D01*
X19700Y25720D02*
X30197D01*
X19700Y25760D02*
X30197D01*
X19700Y25640D02*
X30198D01*
X19700Y25680D02*
X30197D01*
X19700Y23960D02*
X24760D01*
X19700Y23920D02*
X24720D01*
X19700Y24000D02*
X24800D01*
X19700Y23840D02*
X24640D01*
X19700Y23880D02*
X24680D01*
X19700Y23760D02*
X24560D01*
X19700Y23800D02*
X24600D01*
X19700Y23680D02*
X24480D01*
X19700Y23720D02*
X24520D01*
X19700Y23600D02*
X24400D01*
X19700Y23560D02*
X24360D01*
X19700Y23640D02*
X24440D01*
X19700Y23480D02*
X24280D01*
X19700Y23520D02*
X24320D01*
X19700Y23400D02*
X24200D01*
X19700Y23440D02*
X24240D01*
X19700Y23320D02*
X24120D01*
X19700Y23360D02*
X24160D01*
X19700Y24640D02*
X25440D01*
X19700Y24600D02*
X25400D01*
X19700Y24680D02*
X25480D01*
X19700Y24520D02*
X25320D01*
X19700Y24560D02*
X25360D01*
X19700Y24440D02*
X25240D01*
X19700Y24480D02*
X25280D01*
X19700Y24360D02*
X25160D01*
X19700Y24400D02*
X25200D01*
X19700Y24280D02*
X25080D01*
X19700Y24320D02*
X25120D01*
X19700Y24200D02*
X25000D01*
X19700Y24240D02*
X25040D01*
X19700Y24120D02*
X24920D01*
X19700Y24160D02*
X24960D01*
X19700Y24040D02*
X24840D01*
X19700Y24080D02*
X24880D01*
X19700Y22440D02*
X24050D01*
X19700Y22400D02*
X24050D01*
X19700Y22480D02*
X24050D01*
X19700Y22320D02*
X24050D01*
X19700Y22360D02*
X24050D01*
X19700Y22600D02*
X24050D01*
X19700Y22640D02*
X24050D01*
X19700Y22520D02*
X24050D01*
X19700Y22560D02*
X24050D01*
X19700Y22080D02*
X24050D01*
X19700Y22040D02*
X24050D01*
X19700Y22120D02*
X24050D01*
X19700Y21960D02*
X24050D01*
X19700Y22000D02*
X24050D01*
X19700Y22240D02*
X24050D01*
X19700Y22280D02*
X24050D01*
X19700Y22160D02*
X24050D01*
X19700Y22200D02*
X24050D01*
X19700Y23240D02*
X24050D01*
X19700Y23200D02*
X24050D01*
X19700Y23280D02*
X24080D01*
X19700Y23040D02*
X24050D01*
X19700Y23160D02*
X24050D01*
X19700Y23120D02*
X24050D01*
X19700Y26150D02*
X21700Y28150D01*
X19700Y23000D02*
X24050D01*
X19700Y23080D02*
X24050D01*
X19700Y22760D02*
X24050D01*
X19700Y22800D02*
X24050D01*
X19700Y22680D02*
X24050D01*
X19700Y22720D02*
X24050D01*
X19700Y22920D02*
X24050D01*
X19700Y22960D02*
X24050D01*
X19700Y22840D02*
X24050D01*
X19700Y22880D02*
X24050D01*
X19700Y21040D02*
X24050D01*
X19700Y21000D02*
X24050D01*
X19700Y21080D02*
X24050D01*
X19700Y20920D02*
X24050D01*
X19700Y20960D02*
X24050D01*
X19700Y21200D02*
X24050D01*
X19700Y21240D02*
X24050D01*
X19700Y21120D02*
X24050D01*
X19700Y21160D02*
X24050D01*
X19700Y20680D02*
X24050D01*
X19700Y20640D02*
X24050D01*
X19700Y20720D02*
X24050D01*
X19700Y20560D02*
X24050D01*
X19700Y20600D02*
X24050D01*
X19700Y20840D02*
X24050D01*
X19700Y20880D02*
X24050D01*
X19700Y20760D02*
X24050D01*
X19700Y20800D02*
X24050D01*
X19700Y21720D02*
X24050D01*
X19700Y21680D02*
X24050D01*
X19700Y21760D02*
X24050D01*
X19700Y21600D02*
X24050D01*
X19700Y21640D02*
X24050D01*
X19700Y21880D02*
X24050D01*
X19700Y21920D02*
X24050D01*
X19700Y21800D02*
X24050D01*
X19700Y21840D02*
X24050D01*
X19700Y21360D02*
X24050D01*
X19700Y21400D02*
X24050D01*
X19700Y21280D02*
X24050D01*
X19700Y21320D02*
X24050D01*
X19700Y21520D02*
X24050D01*
X19700Y21560D02*
X24050D01*
X19700Y21440D02*
X24050D01*
X19700Y21480D02*
X24050D01*
X19700Y16880D02*
X40270D01*
X19700Y16840D02*
X40310D01*
X19700Y16920D02*
X40230D01*
X19700Y16760D02*
X40390D01*
X19700Y16800D02*
X40350D01*
X19700Y17040D02*
X24760D01*
X19700Y17080D02*
X24720D01*
X19700Y16960D02*
X24840D01*
X19700Y17000D02*
X24800D01*
X19700Y16520D02*
X40400D01*
X19700Y16480D02*
X40400D01*
X19700Y16560D02*
X40400D01*
X19700Y16400D02*
X40400D01*
X19700Y16440D02*
X40400D01*
X19700Y16680D02*
X40400D01*
X19700Y16720D02*
X40400D01*
X19700Y16600D02*
X40400D01*
X19700Y16640D02*
X40400D01*
X19700Y17560D02*
X24240D01*
X19700Y17520D02*
X24280D01*
X19700Y17600D02*
X24200D01*
X19700Y17440D02*
X24360D01*
X19700Y17480D02*
X24320D01*
X19700Y17720D02*
X24080D01*
X19700Y19600D02*
X24050D01*
X19700Y17640D02*
X24160D01*
X19700Y17680D02*
X24120D01*
X19700Y17200D02*
X24600D01*
X19700Y17240D02*
X24560D01*
X19700Y17120D02*
X24680D01*
X19700Y17160D02*
X24640D01*
X19700Y17360D02*
X24440D01*
X19700Y17400D02*
X24400D01*
X19700Y17280D02*
X24520D01*
X19700Y17320D02*
X24480D01*
X19700Y15120D02*
X40400D01*
X19700Y15080D02*
X40400D01*
X19700Y15160D02*
X40400D01*
X19700Y15000D02*
X40400D01*
X19700Y15040D02*
X40400D01*
X19700Y15280D02*
X40400D01*
X19700Y15320D02*
X40400D01*
X19700Y15200D02*
X40400D01*
X19700Y15240D02*
X40400D01*
X19700Y13000D02*
X40400D01*
X19700Y12960D02*
X40400D01*
X19700Y14680D02*
X40400D01*
X19700Y12880D02*
X40400D01*
X19700Y12920D02*
X40400D01*
X19700Y14920D02*
X40400D01*
X19700Y14960D02*
X40400D01*
X19700Y14840D02*
X40400D01*
X19700Y14880D02*
X40400D01*
X19700Y15960D02*
X40400D01*
X19700Y15920D02*
X40400D01*
X19700Y16200D02*
X40400D01*
X19700Y15720D02*
X40400D01*
X19700Y15880D02*
X40400D01*
X19700Y16320D02*
X40400D01*
X19700Y16360D02*
X40400D01*
X19700Y16240D02*
X40400D01*
X19700Y16280D02*
X40400D01*
X19700Y15440D02*
X40400D01*
X19700Y15480D02*
X40400D01*
X19700Y15360D02*
X40400D01*
X19700Y15400D02*
X40400D01*
X19700Y15600D02*
X40400D01*
X19700Y15640D02*
X40400D01*
X19700Y15520D02*
X40400D01*
X19700Y15560D02*
X40400D01*
X19700Y19680D02*
X24050D01*
X19700Y19640D02*
X24050D01*
X19700Y19720D02*
X24050D01*
X19700Y19520D02*
X24050D01*
X19700Y19560D02*
X24050D01*
X19700Y19840D02*
X24050D01*
X19700Y19880D02*
X24050D01*
X19700Y19760D02*
X24050D01*
X19700Y19800D02*
X24050D01*
X19700Y19280D02*
X24050D01*
X19700Y19240D02*
X24050D01*
X19700Y19320D02*
X24050D01*
X19700Y19160D02*
X24050D01*
X19700Y19200D02*
X24050D01*
X19700Y19440D02*
X24050D01*
X19700Y19480D02*
X24050D01*
X19700Y19360D02*
X24050D01*
X19700Y19400D02*
X24050D01*
X19700Y20320D02*
X24050D01*
X19700Y20280D02*
X24050D01*
X19700Y20360D02*
X24050D01*
X19700Y20200D02*
X24050D01*
X19700Y20240D02*
X24050D01*
X19700Y20480D02*
X24050D01*
X19700Y20520D02*
X24050D01*
X19700Y20400D02*
X24050D01*
X19700Y20440D02*
X24050D01*
X19700Y20120D02*
X24050D01*
X19700Y20160D02*
X24050D01*
X19700Y20040D02*
X24050D01*
X19700Y20080D02*
X24050D01*
X19700Y20000D02*
X24050D01*
X19700Y26150D02*
X19700Y12850D01*
X19700Y19920D02*
X24050D01*
X19700Y19960D02*
X24050D01*
X19700Y18240D02*
X24050D01*
X19700Y18200D02*
X24050D01*
X19700Y18280D02*
X24050D01*
X19700Y18120D02*
X24050D01*
X19700Y18160D02*
X24050D01*
X19700Y18400D02*
X24050D01*
X19700Y18440D02*
X24050D01*
X19700Y18320D02*
X24050D01*
X19700Y18360D02*
X24050D01*
X19700Y17880D02*
X24050D01*
X19700Y17840D02*
X24050D01*
X19700Y17920D02*
X24050D01*
X19700Y17760D02*
X24050D01*
X19700Y17800D02*
X24050D01*
X19700Y18040D02*
X24050D01*
X19700Y18080D02*
X24050D01*
X19700Y17960D02*
X24050D01*
X19700Y18000D02*
X24050D01*
X19700Y18920D02*
X24050D01*
X19700Y18880D02*
X24050D01*
X19700Y18960D02*
X24050D01*
X19700Y18800D02*
X24050D01*
X19700Y18840D02*
X24050D01*
X19700Y19080D02*
X24050D01*
X19700Y19120D02*
X24050D01*
X19700Y19000D02*
X24050D01*
X19700Y19040D02*
X24050D01*
X19700Y18560D02*
X24050D01*
X19700Y18600D02*
X24050D01*
X19700Y18480D02*
X24050D01*
X19700Y18520D02*
X24050D01*
X19700Y18720D02*
X24050D01*
X19700Y18760D02*
X24050D01*
X19700Y18640D02*
X24050D01*
X19700Y18680D02*
X24050D01*
D18*
X79974Y21650D02*
X80526D01*
X80874Y17550D02*
X81426D01*
X76824Y15018D02*
X77376D01*
X76824Y12848D02*
X77376D01*
X66674Y28468D02*
X67226D01*
X69009Y20374D02*
Y20926D01*
X68214Y24611D02*
X68765D01*
X70624Y24568D02*
X71176D01*
X66182Y19149D02*
X66733D01*
X68249Y14250D02*
X68801D01*
X103024Y10150D02*
X103576D01*
X95074Y9950D02*
X95626D01*
X78224Y24568D02*
X78776D01*
X66974Y10600D02*
X67526D01*
X86374Y25482D02*
X86926D01*
X96963Y34196D02*
X97514D01*
X95888D02*
X96439D01*
X98038D02*
X98589D01*
X87324Y35630D02*
X87876D01*
X87174Y41982D02*
X87726D01*
X85749Y52963D02*
X86300D01*
X94124Y42518D02*
X94676D01*
X63174Y17950D02*
X63726D01*
X103724Y19982D02*
X104276D01*
X71918Y19089D02*
X72470D01*
X95474Y53200D02*
X96026D01*
X2250Y68833D02*
Y67833D01*
X2750D01*
X2916Y68000D01*
Y68166D01*
X2750Y68333D01*
X2250D01*
X2750D01*
X2916Y68500D01*
Y68666D01*
X2750Y68833D01*
X2250D01*
X3416Y67833D02*
X3750D01*
X3916Y68000D01*
Y68333D01*
X3750Y68500D01*
X3416D01*
X3250Y68333D01*
Y68000D01*
X3416Y67833D01*
X4416Y68666D02*
Y68500D01*
X4249D01*
X4583D01*
X4416D01*
Y68000D01*
X4583Y67833D01*
X5249Y68666D02*
Y68500D01*
X5082D01*
X5416D01*
X5249D01*
Y68000D01*
X5416Y67833D01*
X6082D02*
X6415D01*
X6582Y68000D01*
Y68333D01*
X6415Y68500D01*
X6082D01*
X5915Y68333D01*
Y68000D01*
X6082Y67833D01*
X6915D02*
Y68500D01*
X7082D01*
X7248Y68333D01*
Y67833D01*
Y68333D01*
X7415Y68500D01*
X7582Y68333D01*
Y67833D01*
X8915Y68833D02*
Y67833D01*
X9581D01*
X10081Y68500D02*
X10414D01*
X10581Y68333D01*
Y67833D01*
X10081D01*
X9914Y68000D01*
X10081Y68166D01*
X10581D01*
X10914Y68500D02*
Y68000D01*
X11080Y67833D01*
X11580D01*
Y67667D01*
X11414Y67500D01*
X11247D01*
X11580Y67833D02*
Y68500D01*
X12413Y67833D02*
X12080D01*
X11914Y68000D01*
Y68333D01*
X12080Y68500D01*
X12413D01*
X12580Y68333D01*
Y68166D01*
X11914D01*
X12913Y68500D02*
Y67833D01*
Y68166D01*
X13080Y68333D01*
X13246Y68500D01*
X13413D01*
D19*
X66649Y19440D02*
X66795D01*
X67580Y18645D02*
X68321D01*
X67349Y18876D02*
X67580Y18645D01*
X67349Y18876D02*
Y18886D01*
X66795Y19440D02*
X67349Y18886D01*
X66458Y19631D02*
X66649Y19440D01*
X67550Y19650D02*
X68735D01*
X68715Y19724D02*
Y19970D01*
X68735Y19650D02*
X68789D01*
X68715Y19724D02*
X68789Y19650D01*
X68527Y20159D02*
X68715Y19970D01*
X68527Y20159D02*
Y20650D01*
X68789Y19650D02*
X68856Y19583D01*
X66458Y19631D02*
X66502Y19675D01*
Y21480D02*
X66864Y21842D01*
X66502Y19675D02*
Y21480D01*
X66864Y21842D02*
Y21936D01*
X68463Y18500D02*
Y18504D01*
X68321Y18645D02*
X68463Y18504D01*
X71194Y17865D02*
Y18417D01*
X70679Y17350D02*
X71194Y17865D01*
X69850Y17350D02*
X70679D01*
X80632Y21168D02*
X81150Y20650D01*
X80250Y21168D02*
X80632D01*
X81150Y20115D02*
Y20650D01*
X77503Y20207D02*
X78402D01*
X78429Y20233D01*
X77446Y20150D02*
X77503Y20207D01*
X77394Y20239D02*
X77513Y20358D01*
X80250Y22150D02*
X82332D01*
X77776D02*
X80250D01*
X82332D02*
X82350Y22132D01*
X77513Y21887D02*
X77776Y22150D01*
X77513Y20358D02*
Y21887D01*
X66950Y22050D02*
X68550D01*
X66950Y21960D02*
Y22050D01*
X59097Y41153D02*
X59100Y41150D01*
X59097Y41714D02*
X59100Y41718D01*
X59097Y41153D02*
Y41714D01*
X53900Y38536D02*
Y38602D01*
X68490Y22890D02*
Y24129D01*
X68450Y22850D02*
X68490Y22890D01*
Y24129D02*
X68977D01*
X69848Y25000D01*
X69950D01*
D42*
X104300Y21323D02*
G03*
X104429Y21650I-350J327D01*
G01*
D02*
G03*
X103650Y21276I-479J0D01*
G01*
X97840Y24931D02*
G03*
X97840Y24931I-440J0D01*
G01*
X104451Y19982D02*
G03*
X104401Y20105I-175J0D01*
G01*
X104276Y19807D02*
G03*
X104451Y19982I0J175D01*
G01*
X101540Y21434D02*
G03*
X101540Y21434I-440J0D01*
G01*
X103599Y20105D02*
G03*
X103724Y19807I125J-122D01*
G01*
X98190Y21039D02*
G03*
X98190Y21039I-440J0D01*
G01*
X94090D02*
G03*
X94090Y21039I-440J0D01*
G01*
X79471Y33900D02*
G03*
X80329Y33900I429J96D01*
G01*
X80340Y32028D02*
G03*
X80340Y32028I-440J0D01*
G01*
X83229Y30775D02*
G03*
X83229Y30775I-479J0D01*
G01*
X84688Y25700D02*
G03*
X84086Y25700I-301J-123D01*
G01*
X83819D02*
G03*
X83268Y25882I-488J-550D01*
G01*
X90329Y21550D02*
G03*
X90329Y21550I-479J0D01*
G01*
X105201Y34200D02*
G03*
X104899Y34200I-151J-709D01*
G01*
X95888Y34371D02*
G03*
X95805Y34350I0J-175D01*
G01*
X98764Y34196D02*
G03*
X98589Y34371I-175J0D01*
G01*
X98038D02*
G03*
X97863Y34200I0J-175D01*
G01*
X98800Y34162D02*
G03*
X98764Y34189I-106J-106D01*
G01*
X98800Y34162D02*
G03*
X98764Y34189I-106J-106D01*
G01*
X97689Y34200D02*
G03*
X97514Y34371I-175J-4D01*
G01*
X96963D02*
G03*
X96850Y34330I0J-175D01*
G01*
X98885Y34065D02*
G03*
X98856Y34106I-135J-65D01*
G01*
X98885Y34065D02*
G03*
X98856Y34106I-135J-65D01*
G01*
X98589Y34021D02*
G03*
X98694Y34056I0J175D01*
G01*
X94240Y34512D02*
G03*
X94240Y34512I-440J0D01*
G01*
X91240Y34973D02*
G03*
X91240Y34973I-440J0D01*
G01*
X88001Y35507D02*
G03*
X88051Y35630I-125J122D01*
G01*
D02*
G03*
X87876Y35805I-175J0D01*
G01*
X94590Y31996D02*
G03*
X94590Y31996I-440J0D01*
G01*
X91240Y32133D02*
G03*
X91240Y32133I-440J0D01*
G01*
X82364Y36350D02*
G03*
X83182Y36350I409J462D01*
G01*
X87324Y35805D02*
G03*
X87199Y35507I0J-175D01*
G01*
X76482Y36350D02*
G03*
X76850Y36350I184J268D01*
G01*
X75653D02*
G03*
X75774Y36350I60J713D01*
G01*
X79411Y36350D02*
G03*
X80229Y36350I409J462D01*
G01*
X87327Y34609D02*
G03*
X87522Y34690I0J275D01*
G01*
X87327Y34609D02*
G03*
X87521Y34690I0J275D01*
G01*
X86843Y35159D02*
G03*
X86843Y34609I-343J-275D01*
G01*
X83229Y34712D02*
G03*
X83229Y34712I-479J0D01*
G01*
X80340Y33996D02*
G03*
X79709Y33600I-440J0D01*
G01*
X80091D02*
G03*
X80340Y33996I-191J396D01*
G01*
X76249Y33600D02*
G03*
X75177Y33600I-536J-474D01*
G01*
X47216Y35284D02*
G03*
X47284Y35216I226J157D01*
G01*
X97826Y25040D02*
X104810D01*
X97835Y25000D02*
X104850D01*
X97798Y25120D02*
X104730D01*
X97814Y25080D02*
X104770D01*
X97839Y24960D02*
X104890D01*
X97840Y24920D02*
X104930D01*
X97837Y24880D02*
X104970D01*
X97830Y24840D02*
X105010D01*
X98850Y25850D02*
X104000D01*
X97669Y25280D02*
X104570D01*
X97500Y25360D02*
X104490D01*
X97606Y25320D02*
X104530D01*
X97749Y25200D02*
X104650D01*
X97776Y25160D02*
X104690D01*
X97714Y25240D02*
X104610D01*
X97636Y24560D02*
X105100D01*
X97556Y24520D02*
X105100D01*
X95710Y23840D02*
X105100D01*
X95750Y23800D02*
X105100D01*
X95790Y23760D02*
X105100D01*
X95770Y23720D02*
X105100D01*
X95730Y23680D02*
X105100D01*
X97820Y24800D02*
X105050D01*
X104000Y25850D02*
X105100Y24750D01*
X97805Y24760D02*
X105090D01*
X97786Y24720D02*
X105100D01*
X97761Y24680D02*
X105100D01*
X97730Y24640D02*
X105100D01*
X97689Y24600D02*
X105100D01*
X95700Y25480D02*
X104370D01*
X95700Y25440D02*
X104410D01*
X95700Y25560D02*
X104290D01*
X95700Y25520D02*
X104330D01*
X95700Y24440D02*
X105100D01*
X95700Y24400D02*
X105100D01*
X95700Y25400D02*
X104450D01*
X95700Y24480D02*
X105100D01*
X95700Y25760D02*
X104090D01*
X95700Y25720D02*
X104130D01*
X95700Y25840D02*
X104010D01*
X95700Y25800D02*
X104050D01*
X95700Y25640D02*
X104210D01*
X95700Y25600D02*
X104250D01*
X95700Y25680D02*
X104170D01*
X95700Y24000D02*
X105100D01*
X95700Y23960D02*
X105100D01*
X95700Y24080D02*
X105100D01*
X95700Y24040D02*
X105100D01*
X95700Y23920D02*
X105100D01*
X95700Y23880D02*
X105100D01*
X95690Y23640D02*
X105100D01*
X95700Y24280D02*
X105100D01*
X95700Y24240D02*
X105100D01*
X95700Y24360D02*
X105100D01*
X95700Y24320D02*
X105100D01*
X95700Y24160D02*
X105100D01*
X95700Y24120D02*
X105100D01*
X95700Y24200D02*
X105100D01*
X104417Y21760D02*
X105100D01*
X104424Y21720D02*
X105100D01*
X104390Y21840D02*
X105100D01*
X104405Y21800D02*
X105100D01*
X104428Y21680D02*
X105100D01*
X104429Y21640D02*
X105100D01*
X104427Y21600D02*
X105100D01*
X104421Y21560D02*
X105100D01*
X104229Y22040D02*
X105100D01*
X104277Y22000D02*
X105100D01*
X104044Y22120D02*
X105100D01*
X104162Y22080D02*
X105100D01*
X104346Y21920D02*
X105100D01*
X104371Y21880D02*
X105100D01*
X104316Y21960D02*
X105100D01*
X104411Y21520D02*
X105100D01*
X104398Y21480D02*
X105100D01*
X104381Y21440D02*
X105100D01*
X104359Y21400D02*
X105100D01*
X104332Y21360D02*
X105100D01*
X104300Y21320D02*
X105100D01*
X104300Y21280D02*
X105100D01*
X101532Y21520D02*
X103489D01*
X101538Y21480D02*
X103502D01*
X101540Y21440D02*
X103519D01*
X101539Y21400D02*
X103541D01*
X101534Y21360D02*
X103568D01*
X95650Y23600D02*
X105100D01*
X95610Y23560D02*
X105100D01*
X95570Y23520D02*
X105100D01*
X95530Y23480D02*
X105100D01*
X95490Y23440D02*
X105100D01*
X101270Y21840D02*
X103510D01*
X95450Y23400D02*
X105100D01*
X90198Y21880D02*
X103529D01*
X101345Y21800D02*
X103495D01*
X101396Y21760D02*
X103483D01*
X90232Y21840D02*
X100930D01*
X90259Y21800D02*
X100855D01*
X90298Y21720D02*
X100765D01*
X101435D02*
X103476D01*
X90281Y21760D02*
X100804D01*
X101489Y21640D02*
X103471D01*
X101508Y21600D02*
X103473D01*
X90311Y21680D02*
X100735D01*
X101465D02*
X103472D01*
X101522Y21560D02*
X103479D01*
X101525Y21320D02*
X103602D01*
X101512Y21280D02*
X103645D01*
X90329Y21560D02*
X100678D01*
X90328Y21520D02*
X100668D01*
X90321Y21640D02*
X100711D01*
X90327Y21600D02*
X100692D01*
X98118Y21280D02*
X100688D01*
X98141Y21240D02*
X100705D01*
X98089Y21320D02*
X100675D01*
X95700Y28320D02*
X98380D01*
X98150Y28550D02*
X98650Y28050D01*
X95700Y28280D02*
X98420D01*
X95700Y28240D02*
X98460D01*
X95700Y28120D02*
X98580D01*
X95700Y28080D02*
X98620D01*
X95700Y28200D02*
X98500D01*
X95700Y28160D02*
X98540D01*
X95800Y28550D02*
X98150D01*
X95770Y28520D02*
X98180D01*
X95730Y28480D02*
X98220D01*
X95700Y28450D02*
X95800Y28550D01*
X95700Y28400D02*
X98300D01*
X95700Y28360D02*
X98340D01*
X95700Y28440D02*
X98260D01*
X95700Y27960D02*
X98650D01*
X95700Y27920D02*
X98650D01*
X95700Y28040D02*
X98650D01*
X95700Y28000D02*
X98650D01*
X95700Y27840D02*
X98650D01*
X95700Y27800D02*
X98650D01*
X95700Y27880D02*
X98650D01*
Y26050D02*
Y28050D01*
X95700Y23850D02*
Y28450D01*
Y27760D02*
X98650D01*
X95700Y27720D02*
X98650D01*
X95700Y27640D02*
X98650D01*
X95700Y27600D02*
X98650D01*
X95700Y27680D02*
X98650D01*
X95700Y27200D02*
X98650D01*
X95700Y27160D02*
X98650D01*
X95700Y27280D02*
X98650D01*
X95700Y27240D02*
X98650D01*
X95700Y27040D02*
X98650D01*
X95700Y27000D02*
X98650D01*
X95700Y27120D02*
X98650D01*
X95700Y27080D02*
X98650D01*
X95700Y27480D02*
X98650D01*
X95700Y27440D02*
X98650D01*
X95700Y27560D02*
X98650D01*
X95700Y27520D02*
X98650D01*
X95700Y27360D02*
X98650D01*
X95700Y27320D02*
X98650D01*
X95700Y27400D02*
X98650D01*
X95700Y26880D02*
X98650D01*
X95700Y26840D02*
X98650D01*
X95700Y26960D02*
X98650D01*
X95700Y26920D02*
X98650D01*
X95700Y26760D02*
X98650D01*
X95700Y26720D02*
X98650D01*
X95700Y26800D02*
X98650D01*
X95700Y26640D02*
X98650D01*
X95700Y26600D02*
X98650D01*
X95700Y26680D02*
X98650D01*
X91450Y24750D02*
X91450Y27050D01*
X95700Y26520D02*
X98650D01*
X95700Y26480D02*
X98650D01*
X95700Y26560D02*
X98650D01*
X95700Y26160D02*
X98650D01*
Y26050D02*
X98850Y25850D01*
X95700Y26120D02*
X98650D01*
X95700Y26040D02*
X98660D01*
X95700Y25920D02*
X98780D01*
X95700Y25880D02*
X98820D01*
X95700Y26000D02*
X98700D01*
X95700Y25960D02*
X98740D01*
X95700Y26360D02*
X98650D01*
X95700Y26320D02*
X98650D01*
X95700Y26440D02*
X98650D01*
X95700Y26400D02*
X98650D01*
X95700Y26240D02*
X98650D01*
X95700Y26200D02*
X98650D01*
X95700Y26280D02*
X98650D01*
X95700Y25360D02*
X97300D01*
X95700Y25320D02*
X97194D01*
X95700Y25280D02*
X97131D01*
X98001Y21400D02*
X100661D01*
X98051Y21360D02*
X100666D01*
X97931Y21440D02*
X100660D01*
X95700Y25160D02*
X97024D01*
X95700Y25120D02*
X97002D01*
X95700Y25240D02*
X97086D01*
X95700Y25200D02*
X97051D01*
X95700Y25040D02*
X96974D01*
X95700Y25000D02*
X96965D01*
X95700Y25080D02*
X96986D01*
X95700Y24680D02*
X97039D01*
X95700Y24640D02*
X97070D01*
X95700Y26080D02*
X98650D01*
X95700Y24720D02*
X97014D01*
X95700Y24560D02*
X97164D01*
X95700Y24520D02*
X97244D01*
X95700Y24600D02*
X97111D01*
X95700Y24880D02*
X96963D01*
X95700Y24840D02*
X96970D01*
X95700Y24960D02*
X96961D01*
X95700Y24920D02*
X96960D01*
X95700Y24760D02*
X96995D01*
X95700Y23850D02*
X95800Y23750D01*
X95700Y24800D02*
X96980D01*
X95450Y23400D02*
X95800Y23750D01*
X93901Y21400D02*
X97499D01*
X90324Y21480D02*
X100662D01*
X93831Y21440D02*
X97569D01*
X93989Y21320D02*
X97411D01*
X94018Y21280D02*
X97382D01*
X93951Y21360D02*
X97449D01*
X91450Y24750D02*
X92800Y23400D01*
X95450Y23400D01*
X90317Y21440D02*
X93469D01*
X90305Y21400D02*
X93399D01*
X90290Y21360D02*
X93349D01*
X90271Y21320D02*
X93311D01*
X90246Y21280D02*
X93282D01*
X104401Y20480D02*
X105100D01*
X104401Y20440D02*
X105100D01*
X104401Y20560D02*
X105100D01*
X104401Y20520D02*
X105100D01*
X104401Y20320D02*
X105100D01*
X104401Y20280D02*
X105100D01*
X104401Y20400D02*
X105100D01*
X104401Y20360D02*
X105100D01*
X104401Y20760D02*
X105100D01*
X104401Y20720D02*
X105100D01*
X104401Y20840D02*
X105100D01*
X104401Y20800D02*
X105100D01*
X104401Y20640D02*
X105100D01*
X104401Y20600D02*
X105100D01*
X104401Y20680D02*
X105100D01*
X104401Y20160D02*
X105100D01*
X104401Y20120D02*
X105100D01*
X104401Y20240D02*
X105100D01*
X104401Y20200D02*
X105100D01*
X104441Y20040D02*
X105100D01*
X104450Y20000D02*
X105100D01*
X104421Y20080D02*
X105100D01*
X104449Y19960D02*
X105100D01*
Y17300D02*
Y24750D01*
X104401Y20105D02*
Y20855D01*
X104439Y19920D02*
X105100D01*
X104418Y19880D02*
X105100D01*
X104377Y19840D02*
X105100D01*
X104300Y21160D02*
X105100D01*
X104300Y21120D02*
X105100D01*
X104300Y21240D02*
X105100D01*
X104300Y21200D02*
X105100D01*
X104300Y21000D02*
X105100D01*
X104300Y20960D02*
X105100D01*
X104300Y21080D02*
X105100D01*
X104300Y21040D02*
X105100D01*
X104300Y20880D02*
X105100D01*
X104300Y20855D02*
X104401D01*
X104300Y20920D02*
X105100D01*
X104300Y20855D02*
Y21323D01*
X103724Y19807D02*
X104276D01*
X90190Y18960D02*
X105100D01*
X90590Y18560D02*
X105100D01*
X90630Y18520D02*
X105100D01*
X90510Y18640D02*
X105100D01*
X90550Y18600D02*
X105100D01*
X90710Y18440D02*
X105100D01*
X90750Y18400D02*
X105100D01*
X90670Y18480D02*
X105100D01*
X90310Y18840D02*
X105100D01*
X90350Y18800D02*
X105100D01*
X90230Y18920D02*
X105100D01*
X90270Y18880D02*
X105100D01*
X90430Y18720D02*
X105100D01*
X90470Y18680D02*
X105100D01*
X90390Y18760D02*
X105100D01*
X104000Y17300D02*
X105100D01*
X103800Y17100D02*
X104000Y17300D01*
X91910Y17240D02*
X103940D01*
X91950Y17200D02*
X103900D01*
X92070Y17080D02*
X103800D01*
X92110Y17040D02*
X103800D01*
X91990Y17160D02*
X103860D01*
X92030Y17120D02*
X103820D01*
X100380Y16920D02*
X103800D01*
X100420Y16880D02*
X103800D01*
X92150Y17000D02*
X103800D01*
X92190Y16960D02*
X103800D01*
X100500Y16800D02*
X103800D01*
X100540Y16760D02*
X103800D01*
X100460Y16840D02*
X103800D01*
X100600Y16680D02*
X103800D01*
X103800Y14350D02*
X103800Y17100D01*
X100580Y16720D02*
X103800D01*
X100600Y16640D02*
X103800D01*
X100600Y16560D02*
X103800D01*
X100600Y16520D02*
X103800D01*
X100600Y16600D02*
X103800D01*
X100600Y16400D02*
X103800D01*
X100600Y16360D02*
X103800D01*
X100600Y16480D02*
X103800D01*
X100600Y16440D02*
X103800D01*
X100600Y16200D02*
X103800D01*
X100600Y16160D02*
X103800D01*
X100600Y16320D02*
X103800D01*
X91150Y18000D02*
X105100D01*
X91190Y17960D02*
X105100D01*
X91070Y18080D02*
X105100D01*
X91110Y18040D02*
X105100D01*
X91270Y17880D02*
X105100D01*
X91310Y17840D02*
X105100D01*
X91230Y17920D02*
X105100D01*
X90870Y18280D02*
X105100D01*
X90910Y18240D02*
X105100D01*
X90790Y18360D02*
X105100D01*
X90830Y18320D02*
X105100D01*
X90990Y18160D02*
X105100D01*
X91030Y18120D02*
X105100D01*
X90950Y18200D02*
X105100D01*
X91430Y17720D02*
X105100D01*
X91470Y17680D02*
X105100D01*
X91350Y17800D02*
X105100D01*
X91390Y17760D02*
X105100D01*
X91550Y17600D02*
X105100D01*
X91590Y17560D02*
X105100D01*
X91510Y17640D02*
X105100D01*
X91710Y17440D02*
X105100D01*
X91750Y17400D02*
X105100D01*
X91630Y17520D02*
X105100D01*
X91670Y17480D02*
X105100D01*
X91830Y17320D02*
X105100D01*
X91870Y17280D02*
X103980D01*
X91790Y17360D02*
X105100D01*
X101495Y21240D02*
X103650D01*
X101472Y21200D02*
X103650D01*
X101444Y21160D02*
X103650D01*
X101408Y21120D02*
X103650D01*
X101361Y21080D02*
X103650D01*
X101295Y21040D02*
X103650D01*
X101171Y21000D02*
X103650D01*
X98183Y20960D02*
X103650D01*
X98188Y21080D02*
X100839D01*
X98173Y21160D02*
X100756D01*
X98182Y21120D02*
X100792D01*
X98190Y21040D02*
X100905D01*
X98188Y21000D02*
X101029D01*
X98174Y20920D02*
X103650D01*
X100600Y16120D02*
X103800D01*
X100600Y16080D02*
X103800D01*
X100600Y16280D02*
X103800D01*
X100600Y16240D02*
X103800D01*
X100600Y16000D02*
X103800D01*
X100600Y15960D02*
X103800D01*
X100600Y16040D02*
X103800D01*
X103599Y20855D02*
X103650D01*
Y21276D01*
X98160Y20880D02*
X103650D01*
X103599Y20105D02*
Y20855D01*
X100600Y14500D02*
X100600Y16700D01*
X100350Y16950D02*
X100600Y16700D01*
X98159Y21200D02*
X100728D01*
X94073Y21160D02*
X97327D01*
X94041Y21240D02*
X97359D01*
X94059Y21200D02*
X97341D01*
X98142Y20840D02*
X103599D01*
X98119Y20800D02*
X103599D01*
X94060Y20880D02*
X97340D01*
X94042Y20840D02*
X97358D01*
X94088Y21080D02*
X97312D01*
X94090Y21040D02*
X97310D01*
X90216Y21240D02*
X93259D01*
X94082Y21120D02*
X97318D01*
X94088Y21000D02*
X97312D01*
X94083Y20960D02*
X97317D01*
X94074Y20920D02*
X97326D01*
X98090Y20760D02*
X103599D01*
X98053Y20720D02*
X103599D01*
X98004Y20680D02*
X103599D01*
X97935Y20640D02*
X103599D01*
X97779Y20600D02*
X103599D01*
X92200Y16950D02*
X100350D01*
X94019Y20800D02*
X97381D01*
X93990Y20760D02*
X97410D01*
X93953Y20720D02*
X97447D01*
X93904Y20680D02*
X97496D01*
X93835Y20640D02*
X97565D01*
X93679Y20600D02*
X97721D01*
X100600Y15840D02*
X103800D01*
X100600Y15800D02*
X103800D01*
X100600Y15920D02*
X103800D01*
X100600Y15880D02*
X103800D01*
X100600Y15680D02*
X103800D01*
X100600Y15640D02*
X103800D01*
X100600Y15760D02*
X103800D01*
X100600Y15720D02*
X103800D01*
X100660Y14440D02*
X103800D01*
X100700Y14400D02*
X103800D01*
X100600Y15320D02*
X103800D01*
X100620Y14480D02*
X103800D01*
X100780Y14320D02*
X103770D01*
X100820Y14280D02*
X103730D01*
X100740Y14360D02*
X103800D01*
X100940Y14160D02*
X103610D01*
X103250Y13800D02*
X103800Y14350D01*
X100860Y14240D02*
X103690D01*
X100900Y14200D02*
X103650D01*
X101020Y14080D02*
X103530D01*
X101060Y14040D02*
X103490D01*
X100980Y14120D02*
X103570D01*
X101180Y13920D02*
X103370D01*
X101220Y13880D02*
X103330D01*
X101100Y14000D02*
X103450D01*
X101140Y13960D02*
X103410D01*
X101300Y13800D02*
X103250D01*
X101300Y13800D02*
X103250Y13800D01*
X101260Y13840D02*
X103290D01*
X100600Y15520D02*
X103800D01*
X100600Y15480D02*
X103800D01*
X100600Y15600D02*
X103800D01*
X100600Y15560D02*
X103800D01*
X100600Y15400D02*
X103800D01*
X100600Y15360D02*
X103800D01*
X100600Y15440D02*
X103800D01*
X100600Y15280D02*
X103800D01*
X100600Y15240D02*
X103800D01*
X100600Y15200D02*
X103800D01*
X100600Y15160D02*
X103800D01*
X100600Y15080D02*
X103800D01*
X100600Y15040D02*
X103800D01*
X100600Y15120D02*
X103800D01*
X100600Y14920D02*
X103800D01*
X100600Y14880D02*
X103800D01*
X100600Y15000D02*
X103800D01*
X100600Y14960D02*
X103800D01*
X100600Y14800D02*
X103800D01*
X100600Y14760D02*
X103800D01*
X100600Y14840D02*
X103800D01*
X100600Y14640D02*
X103800D01*
X100600Y14600D02*
X103800D01*
X100600Y14720D02*
X103800D01*
X100600Y14680D02*
X103800D01*
X100600Y14520D02*
X103800D01*
X100600Y14500D02*
X101300Y13800D01*
X100600Y14560D02*
X103800D01*
X80340Y32040D02*
X84150D01*
X80339Y32000D02*
X84150D01*
X80298Y31840D02*
X84150D01*
X80276Y31800D02*
X84150D01*
X80249Y31760D02*
X84150D01*
X80214Y31720D02*
X84150D01*
X80169Y31680D02*
X84150D01*
X80108Y31640D02*
X84150D01*
X83650Y33900D02*
X84150Y33400D01*
X80305Y32200D02*
X84150D01*
X80260Y32280D02*
X84150D01*
X80285Y32240D02*
X84150D01*
X80330Y32120D02*
X84150D01*
X80337Y32080D02*
X84150D01*
X80320Y32160D02*
X84150D01*
X79430Y29720D02*
X84580D01*
X84150Y30150D02*
X85650Y28650D01*
X79350Y29800D02*
X84500D01*
X79390Y29760D02*
X84540D01*
X79510Y29640D02*
X84660D01*
X79550Y29600D02*
X84700D01*
X79470Y29680D02*
X84620D01*
X82972Y31200D02*
X84150D01*
X83036Y31160D02*
X84150D01*
X80003Y31600D02*
X84150D01*
X82866Y31240D02*
X84150D01*
X79270Y29880D02*
X84420D01*
X79310Y29840D02*
X84460D01*
X79230Y29920D02*
X84380D01*
X76883Y32920D02*
X84150D01*
X76898Y32880D02*
X84150D01*
X76823Y33080D02*
X84150D01*
X76853Y33000D02*
X84150D01*
X76944Y32760D02*
X84150D01*
X76959Y32720D02*
X84150D01*
X76913Y32840D02*
X84150D01*
X76928Y32800D02*
X84150D01*
X76747Y33280D02*
X84150D01*
X76762Y33240D02*
X84150D01*
X76717Y33360D02*
X84150D01*
X76732Y33320D02*
X84150D01*
X76792Y33160D02*
X84150D01*
X76807Y33120D02*
X84150D01*
X76777Y33200D02*
X84150D01*
X79030Y30120D02*
X84180D01*
X79070Y30080D02*
X84220D01*
X77830Y31320D02*
X84150D01*
X77870Y31280D02*
X84150D01*
X79150Y30000D02*
X84300D01*
X79190Y29960D02*
X84340D01*
X79110Y30040D02*
X84260D01*
X77630Y31520D02*
X84150D01*
X77670Y31480D02*
X84150D01*
X76974Y32680D02*
X84150D01*
X77590Y31560D02*
X84150D01*
X77750Y31400D02*
X84150D01*
X77790Y31360D02*
X84150D01*
X77710Y31440D02*
X84150D01*
X81070Y28080D02*
X90420D01*
X81110Y28040D02*
X90460D01*
X80990Y28160D02*
X90340D01*
X81030Y28120D02*
X90380D01*
X81230Y27920D02*
X90580D01*
X81270Y27880D02*
X90620D01*
X81150Y28000D02*
X90500D01*
X81190Y27960D02*
X90540D01*
X85650Y28650D02*
X89850Y28650D01*
X80830Y28320D02*
X90180D01*
X80750Y28400D02*
X90100D01*
X80790Y28360D02*
X90140D01*
X80910Y28240D02*
X90260D01*
X80950Y28200D02*
X90300D01*
X80870Y28280D02*
X90220D01*
X81670Y27480D02*
X91020D01*
X81710Y27440D02*
X91060D01*
X81590Y27560D02*
X90940D01*
X81630Y27520D02*
X90980D01*
X81790Y27360D02*
X91140D01*
X81830Y27320D02*
X91180D01*
X81750Y27400D02*
X91100D01*
X81390Y27760D02*
X90740D01*
X81430Y27720D02*
X90780D01*
X81310Y27840D02*
X90660D01*
X81350Y27800D02*
X90700D01*
X81510Y27640D02*
X90860D01*
X81550Y27600D02*
X90900D01*
X81470Y27680D02*
X90820D01*
X79950Y29200D02*
X85100D01*
X79990Y29160D02*
X85140D01*
X79870Y29280D02*
X85020D01*
X79910Y29240D02*
X85060D01*
X80110Y29040D02*
X85260D01*
X80150Y29000D02*
X85300D01*
X80030Y29120D02*
X85180D01*
X80070Y29080D02*
X85220D01*
X79670Y29480D02*
X84820D01*
X79710Y29440D02*
X84860D01*
X79590Y29560D02*
X84740D01*
X79630Y29520D02*
X84780D01*
X79790Y29360D02*
X84940D01*
X79830Y29320D02*
X84980D01*
X79750Y29400D02*
X84900D01*
X80550Y28600D02*
X89900D01*
X80590Y28560D02*
X89940D01*
X80470Y28680D02*
X85620D01*
X80510Y28640D02*
X89860D01*
X80670Y28480D02*
X90020D01*
X80710Y28440D02*
X90060D01*
X80630Y28520D02*
X89980D01*
X80270Y28880D02*
X85420D01*
X80310Y28840D02*
X85460D01*
X80190Y28960D02*
X85340D01*
X80230Y28920D02*
X85380D01*
X80390Y28760D02*
X85540D01*
X80430Y28720D02*
X85580D01*
X80350Y28800D02*
X85500D01*
X80206Y33680D02*
X83870D01*
X80158Y33640D02*
X83910D01*
X80091Y33600D02*
X83950D01*
X79957Y33560D02*
X83990D01*
X80188Y32360D02*
X84150D01*
X80229Y32320D02*
X84150D01*
X80054Y32440D02*
X84150D01*
X80135Y32400D02*
X84150D01*
X80329Y33900D02*
X83650Y33900D01*
X80324Y33880D02*
X83670D01*
X80311Y33840D02*
X83710D01*
X80294Y33800D02*
X83750D01*
X80271Y33760D02*
X83790D01*
X80242Y33720D02*
X83830D01*
X80335Y31960D02*
X84150D01*
Y30150D02*
Y33400D01*
X77156Y32200D02*
X79495D01*
X80327Y31920D02*
X84150D01*
X80314Y31880D02*
X84150D01*
X77277D02*
X79486D01*
X77201Y32080D02*
X79463D01*
X77216Y32040D02*
X79460D01*
X77171Y32160D02*
X79480D01*
X77186Y32120D02*
X79470D01*
X77246Y31960D02*
X79465D01*
X77262Y31920D02*
X79473D01*
X77231Y32000D02*
X79461D01*
X76626Y33600D02*
X79709D01*
X76641Y33560D02*
X79843D01*
X76595Y33680D02*
X79594D01*
X76611Y33640D02*
X79642D01*
X76686Y33440D02*
X84110D01*
X76701Y33400D02*
X84150D01*
X76656Y33520D02*
X84030D01*
X76671Y33480D02*
X84070D01*
X77050Y33900D02*
X79471Y33900D01*
X76950Y33880D02*
X79476D01*
X76750Y33840D02*
X79489D01*
X76550Y33800D02*
X77050Y33900D01*
X76565Y33760D02*
X79529D01*
X76580Y33720D02*
X79558D01*
X76550Y33800D02*
X79506D01*
X76989Y32640D02*
X84150D01*
X77004Y32600D02*
X84150D01*
X76838Y33040D02*
X84150D01*
X76868Y32960D02*
X84150D01*
X77034Y32520D02*
X84150D01*
X77050Y32480D02*
X84150D01*
X77019Y32560D02*
X84150D01*
X77080Y32400D02*
X79665D01*
X77095Y32360D02*
X79612D01*
X77065Y32440D02*
X79746D01*
X76550Y33800D02*
X77281Y31869D01*
X77125Y32280D02*
X79540D01*
X77140Y32240D02*
X79515D01*
X77110Y32320D02*
X79571D01*
X83229Y30800D02*
X84150D01*
X83229Y30760D02*
X84150D01*
X83225Y30840D02*
X84150D01*
X83226Y30720D02*
X84150D01*
X83220Y30680D02*
X84150D01*
X83210Y30640D02*
X84150D01*
X83196Y30600D02*
X84150D01*
X83178Y30560D02*
X84150D01*
X83149Y31040D02*
X84150D01*
X83173Y31000D02*
X84150D01*
X83083Y31120D02*
X84150D01*
X83120Y31080D02*
X84150D01*
X83207Y30920D02*
X84150D01*
X83218Y30880D02*
X84150D01*
X83192Y30960D02*
X84150D01*
X83156Y30520D02*
X84150D01*
X83128Y30480D02*
X84150D01*
X83093Y30440D02*
X84150D01*
X83049Y30400D02*
X84150D01*
X82990Y30360D02*
X84150D01*
X82901Y30320D02*
X84150D01*
X78990Y30160D02*
X84150D01*
X78830Y30320D02*
X82599D01*
X78750Y30400D02*
X82451D01*
X78790Y30360D02*
X82510D01*
X78910Y30240D02*
X84150D01*
X78950Y30200D02*
X84150D01*
X78870Y30280D02*
X84150D01*
X77990Y31160D02*
X82464D01*
X78030Y31120D02*
X82417D01*
X77910Y31240D02*
X82634D01*
X77950Y31200D02*
X82528D01*
X78110Y31040D02*
X82351D01*
X78150Y31000D02*
X82327D01*
X78070Y31080D02*
X82380D01*
X77390Y31760D02*
X79551D01*
X77430Y31720D02*
X79586D01*
X77310Y31840D02*
X79502D01*
X77350Y31800D02*
X79524D01*
X77510Y31640D02*
X79692D01*
X77550Y31600D02*
X79797D01*
X77470Y31680D02*
X79630D01*
X78550Y30600D02*
X82304D01*
X78590Y30560D02*
X82322D01*
X78190Y30960D02*
X82308D01*
X78230Y30920D02*
X82293D01*
X78670Y30480D02*
X82372D01*
X78710Y30440D02*
X82407D01*
X78630Y30520D02*
X82344D01*
X78350Y30800D02*
X82271D01*
X78390Y30760D02*
X82271D01*
X78270Y30880D02*
X82282D01*
X78310Y30840D02*
X82275D01*
X78470Y30680D02*
X82280D01*
X78510Y30640D02*
X82290D01*
X78430Y30720D02*
X82274D01*
X88900Y22680D02*
X105100D01*
X88900Y22640D02*
X105100D01*
X88900Y22760D02*
X105100D01*
X88900Y22720D02*
X105100D01*
X88900Y22520D02*
X105100D01*
X88900Y22480D02*
X105100D01*
X88900Y22600D02*
X105100D01*
X88900Y22560D02*
X105100D01*
X88900Y22960D02*
X105100D01*
X88900Y22920D02*
X105100D01*
X88900Y23040D02*
X105100D01*
X88900Y23000D02*
X105100D01*
X88900Y22840D02*
X105100D01*
X88900Y22800D02*
X105100D01*
X88900Y22880D02*
X105100D01*
X88900Y22360D02*
X105100D01*
X88900Y22320D02*
X105100D01*
X88900Y22440D02*
X105100D01*
X88900Y22400D02*
X105100D01*
X88900Y22240D02*
X105100D01*
X88900Y22200D02*
X105100D01*
X88900Y22280D02*
X105100D01*
X88900Y22080D02*
X103738D01*
X88900Y22040D02*
X103671D01*
X88900Y22160D02*
X105100D01*
X88900Y22120D02*
X103856D01*
X90098Y21960D02*
X103584D01*
X90155Y21920D02*
X103554D01*
X90015Y22000D02*
X103623D01*
X88900Y23840D02*
X92360D01*
X88900Y23800D02*
X92400D01*
X88900Y23920D02*
X92280D01*
X88900Y23880D02*
X92320D01*
X88900Y23680D02*
X92520D01*
X88900Y23640D02*
X92560D01*
X88900Y23760D02*
X92440D01*
X88900Y23720D02*
X92480D01*
X88900Y24120D02*
X92080D01*
X88900Y24080D02*
X92120D01*
X88900Y24200D02*
X92000D01*
X88900Y24160D02*
X92040D01*
X88900Y24000D02*
X92200D01*
X88900Y23960D02*
X92240D01*
X88900Y24040D02*
X92160D01*
X88900Y23240D02*
X105100D01*
X88900Y23200D02*
X105100D01*
X88900Y23320D02*
X105100D01*
X88900Y23280D02*
X105100D01*
X88900Y23120D02*
X105100D01*
X88900Y23080D02*
X105100D01*
X88900Y23160D02*
X105100D01*
X88900Y23520D02*
X92680D01*
X88900Y23480D02*
X92720D01*
X88900Y23600D02*
X92600D01*
X88900Y23560D02*
X92640D01*
X88900Y23400D02*
X92800D01*
X88900Y23360D02*
X105100D01*
X88900Y23440D02*
X92760D01*
X89390Y19760D02*
X105100D01*
X89430Y19720D02*
X105100D01*
X89310Y19840D02*
X103623D01*
X89350Y19800D02*
X105100D01*
X89550Y19600D02*
X105100D01*
X89590Y19560D02*
X105100D01*
X89470Y19680D02*
X105100D01*
X89510Y19640D02*
X105100D01*
X90177Y21200D02*
X93241D01*
X90129Y21160D02*
X93227D01*
X90062Y21120D02*
X93218D01*
X89944Y21080D02*
X93212D01*
X89230Y19920D02*
X103561D01*
X89270Y19880D02*
X103582D01*
X89190Y19960D02*
X103551D01*
X89990Y19160D02*
X105100D01*
X90030Y19120D02*
X105100D01*
X89910Y19240D02*
X105100D01*
X89950Y19200D02*
X105100D01*
X90110Y19040D02*
X105100D01*
X90150Y19000D02*
X105100D01*
X90070Y19080D02*
X105100D01*
X89710Y19440D02*
X105100D01*
X89750Y19400D02*
X105100D01*
X89630Y19520D02*
X105100D01*
X89670Y19480D02*
X105100D01*
X89830Y19320D02*
X105100D01*
X89870Y19280D02*
X105100D01*
X89790Y19360D02*
X105100D01*
X88900Y20680D02*
X93396D01*
X88900Y20640D02*
X93465D01*
X88900Y20760D02*
X93310D01*
X88900Y20720D02*
X93347D01*
X88900Y20560D02*
X103599D01*
X88900Y20520D02*
X103599D01*
X88900Y20600D02*
X93621D01*
X88900Y20960D02*
X93217D01*
X88900Y20920D02*
X93226D01*
X88900Y21040D02*
X93210D01*
X88900Y21000D02*
X93212D01*
X88900Y20840D02*
X93258D01*
X88900Y20800D02*
X93281D01*
X88900Y20880D02*
X93240D01*
X88900Y20400D02*
X103599D01*
X88900Y20360D02*
X103599D01*
X88900Y20480D02*
X103599D01*
X88900Y20440D02*
X103599D01*
X88900Y20280D02*
X103599D01*
X88910Y20240D02*
X103599D01*
X88900Y20320D02*
X103599D01*
X88990Y20160D02*
X103599D01*
X89030Y20120D02*
X103599D01*
X88950Y20200D02*
X103599D01*
X88900Y20250D02*
X92200Y16950D01*
X89110Y20040D02*
X103559D01*
X89150Y20000D02*
X103550D01*
X89070Y20080D02*
X103579D01*
X89850Y28650D02*
X91450Y27050D01*
X83070Y26080D02*
X91450D01*
X82990Y26160D02*
X91450D01*
X83030Y26120D02*
X91450D01*
X83190Y25960D02*
X91450D01*
X83230Y25920D02*
X91450D01*
X83110Y26040D02*
X91450D01*
X83150Y26000D02*
X91450D01*
X84506Y25880D02*
X91450D01*
X84579Y25840D02*
X91450D01*
X83419Y25880D02*
X84268D01*
X83585Y25840D02*
X84195D01*
X84624Y25800D02*
X91450D01*
X83742Y25760D02*
X84118D01*
X83675Y25800D02*
X84150D01*
X88470Y25680D02*
X91450D01*
X88510Y25640D02*
X91450D01*
X84656Y25760D02*
X91450D01*
X84679Y25720D02*
X91450D01*
X88630Y25520D02*
X91450D01*
X88670Y25480D02*
X91450D01*
X88550Y25600D02*
X91450D01*
X88450Y25700D02*
X88900Y25250D01*
X83796Y25720D02*
X84095D01*
X84688Y25700D02*
X88450D01*
X88590Y25560D02*
X91450D01*
X83819Y25700D02*
X84086D01*
X82230Y26920D02*
X91450D01*
X82270Y26880D02*
X91450D01*
X82150Y27000D02*
X91450D01*
X82190Y26960D02*
X91450D01*
X82390Y26760D02*
X91450D01*
X82430Y26720D02*
X91450D01*
X82310Y26840D02*
X91450D01*
X82350Y26800D02*
X91450D01*
X81950Y27200D02*
X91300D01*
X81990Y27160D02*
X91340D01*
X81870Y27280D02*
X91220D01*
X81910Y27240D02*
X91260D01*
X82070Y27080D02*
X91420D01*
X82110Y27040D02*
X91450D01*
X82030Y27120D02*
X91380D01*
X82550Y26600D02*
X91450D01*
X82590Y26560D02*
X91450D01*
X82470Y26680D02*
X91450D01*
X82510Y26640D02*
X91450D01*
X82670Y26480D02*
X91450D01*
X82710Y26440D02*
X91450D01*
X82630Y26520D02*
X91450D01*
X82790Y26360D02*
X91450D01*
X82830Y26320D02*
X91450D01*
X82750Y26400D02*
X91450D01*
X77281Y31869D02*
X83268Y25882D01*
X82910Y26240D02*
X91450D01*
X82950Y26200D02*
X91450D01*
X82870Y26280D02*
X91450D01*
X88900Y24400D02*
X91800D01*
X88900Y24360D02*
X91840D01*
X88900Y24480D02*
X91720D01*
X88900Y24440D02*
X91760D01*
X88900Y21920D02*
X89545D01*
X88900Y21880D02*
X89502D01*
X88900Y22000D02*
X89685D01*
X88900Y21960D02*
X89602D01*
X88900Y21760D02*
X89419D01*
X88900Y21720D02*
X89402D01*
X88900Y21840D02*
X89468D01*
X88900Y21800D02*
X89441D01*
X88900Y21640D02*
X89379D01*
X88900Y21600D02*
X89373D01*
X88900Y21680D02*
X89389D01*
X88900Y21280D02*
X89454D01*
X88900Y21240D02*
X89484D01*
X88900Y21200D02*
X89522D01*
X88900Y21120D02*
X89638D01*
X88900Y21080D02*
X89756D01*
X88900Y21160D02*
X89571D01*
X88900Y21480D02*
X89376D01*
X88900Y21440D02*
X89383D01*
X88900Y21560D02*
X89371D01*
X88900Y21520D02*
X89372D01*
X88900Y21360D02*
X89410D01*
X88900Y21320D02*
X89429D01*
X88900Y21400D02*
X89395D01*
X88790Y25360D02*
X91450D01*
X88830Y25320D02*
X91450D01*
X88710Y25440D02*
X91450D01*
X88750Y25400D02*
X91450D01*
X88900Y25240D02*
X91450D01*
X88900Y25200D02*
X91450D01*
X88870Y25280D02*
X91450D01*
X88900Y25080D02*
X91450D01*
X88900Y25040D02*
X91450D01*
X88900Y25160D02*
X91450D01*
X88900Y25120D02*
X91450D01*
X88900Y24960D02*
X91450D01*
X88900Y24920D02*
X91450D01*
X88900Y25000D02*
X91450D01*
X88900Y24560D02*
X91640D01*
X88900Y24520D02*
X91680D01*
X88900Y24640D02*
X91560D01*
X88900Y24600D02*
X91600D01*
X88900Y24280D02*
X91920D01*
X88900Y24240D02*
X91960D01*
X88900Y24320D02*
X91880D01*
X88900Y24840D02*
X91450D01*
X88900Y24800D02*
X91450D01*
X88900Y24880D02*
X91450D01*
X88900Y25250D02*
X88900Y20250D01*
X88900Y24720D02*
X91480D01*
X88900Y24680D02*
X91520D01*
X88900Y24760D02*
X91450D01*
X103700Y48350D02*
X104000Y48050D01*
X101651Y46960D02*
X104000D01*
Y46600D02*
X104000Y48050D01*
X101636Y47040D02*
X104000D01*
X101644Y47000D02*
X104000D01*
X101674Y46840D02*
X104000D01*
X101681Y46800D02*
X104000D01*
X101659Y46920D02*
X104000D01*
X101666Y46880D02*
X104000D01*
X101704Y46680D02*
X104000D01*
X101711Y46640D02*
X104000D01*
X101689Y46760D02*
X104000D01*
X101696Y46720D02*
X104000D01*
X101734Y46520D02*
X103920D01*
X101741Y46480D02*
X103880D01*
X101719Y46600D02*
X104000D01*
X101726Y46560D02*
X103960D01*
X101764Y46360D02*
X103760D01*
X102250Y46350D02*
X103750D01*
X104000Y46600D01*
X101749Y46440D02*
X103840D01*
X101756Y46400D02*
X103800D01*
X102250Y46300D02*
Y46350D01*
X101850Y45900D02*
X102250Y46300D01*
X101771Y46320D02*
X102250D01*
X101779Y46280D02*
X102230D01*
X101801Y46160D02*
X102110D01*
X101809Y46120D02*
X102070D01*
X101786Y46240D02*
X102190D01*
X101794Y46200D02*
X102150D01*
X101831Y46000D02*
X101950D01*
X101839Y45960D02*
X101910D01*
X101816Y46080D02*
X102030D01*
X101824Y46040D02*
X101990D01*
X101471Y47920D02*
X104000D01*
X101464Y47960D02*
X104000D01*
X101479Y47880D02*
X104000D01*
X101449Y48040D02*
X104000D01*
X101456Y48000D02*
X104000D01*
X101501Y47760D02*
X104000D01*
X101509Y47720D02*
X104000D01*
X101486Y47840D02*
X104000D01*
X101494Y47800D02*
X104000D01*
X101404Y48280D02*
X103770D01*
X101411Y48240D02*
X103810D01*
X101391Y48350D02*
X103700D01*
X101396Y48320D02*
X103730D01*
X101434Y48120D02*
X103930D01*
X101441Y48080D02*
X103970D01*
X101419Y48200D02*
X103850D01*
X101426Y48160D02*
X103890D01*
X101539Y47560D02*
X104000D01*
X101531Y47600D02*
X104000D01*
X101546Y47520D02*
X104000D01*
X101516Y47680D02*
X104000D01*
X101524Y47640D02*
X104000D01*
X101569Y47400D02*
X104000D01*
X101576Y47360D02*
X104000D01*
X101554Y47480D02*
X104000D01*
X101561Y47440D02*
X104000D01*
X101591Y47280D02*
X104000D01*
X101599Y47240D02*
X104000D01*
X101584Y47320D02*
X104000D01*
X101391Y48350D02*
X101850Y45900D01*
X101621Y47120D02*
X104000D01*
X101629Y47080D02*
X104000D01*
X101606Y47200D02*
X104000D01*
X101614Y47160D02*
X104000D01*
X105050Y43350D02*
X105210Y43190D01*
X99741Y42120D02*
X105210D01*
X99735Y42200D02*
X105210D01*
X99738Y42160D02*
X105210D01*
X99749Y42000D02*
X105210D01*
X99752Y41960D02*
X105210D01*
X99743Y42080D02*
X105210D01*
X99746Y42040D02*
X105210D01*
X99761Y41840D02*
X105210D01*
X99763Y41800D02*
X105210D01*
X99755Y41920D02*
X105210D01*
X99758Y41880D02*
X105210D01*
X99772Y41680D02*
X105210D01*
X99775Y41640D02*
X105210D01*
X99766Y41760D02*
X105210D01*
X99769Y41720D02*
X105210D01*
X99783Y41520D02*
X105210D01*
Y41500D02*
X105210Y43190D01*
X99778Y41600D02*
X105210D01*
X99781Y41560D02*
X105210D01*
X99792Y41400D02*
X105110D01*
X104860Y41150D02*
X105210Y41500D01*
X99786Y41480D02*
X105190D01*
X99789Y41440D02*
X105150D01*
X99801Y41280D02*
X104990D01*
X99803Y41240D02*
X104950D01*
X99795Y41360D02*
X105070D01*
X99798Y41320D02*
X105030D01*
X99809Y41160D02*
X104870D01*
X99810Y41150D02*
X104860D01*
X99806Y41200D02*
X104910D01*
X99672Y43080D02*
X105210D01*
X99675Y43040D02*
X105210D01*
X99666Y43160D02*
X105210D01*
X99669Y43120D02*
X105210D01*
X99689Y42840D02*
X105210D01*
X99692Y42800D02*
X105210D01*
X99678Y43000D02*
X105210D01*
X99686Y42880D02*
X105210D01*
X99658Y43280D02*
X105120D01*
X99661Y43240D02*
X105160D01*
X99653Y43350D02*
X105050Y43350D01*
X99655Y43320D02*
X105080D01*
X99681Y42960D02*
X105210D01*
X99683Y42920D02*
X105210D01*
X99663Y43200D02*
X105200D01*
X99701Y42680D02*
X105210D01*
X99703Y42640D02*
X105210D01*
X99695Y42760D02*
X105210D01*
X99698Y42720D02*
X105210D01*
X99712Y42520D02*
X105210D01*
X99715Y42480D02*
X105210D01*
X99706Y42600D02*
X105210D01*
X99709Y42560D02*
X105210D01*
X99721Y42400D02*
X105210D01*
X99723Y42360D02*
X105210D01*
X99718Y42440D02*
X105210D01*
X99653Y43350D02*
X99810Y41150D01*
X99729Y42280D02*
X105210D01*
X99732Y42240D02*
X105210D01*
X99726Y42320D02*
X105210D01*
X104200Y35240D02*
X106600D01*
X104200Y34720D02*
X106600D01*
X104200Y35360D02*
X106600D01*
X104200Y35320D02*
X106600D01*
X104240Y34560D02*
X106600D01*
X104280Y34520D02*
X106600D01*
X104200Y34640D02*
X106600D01*
X104200Y35560D02*
X106600D01*
X104200Y35520D02*
X106600D01*
X104200Y35920D02*
X104406D01*
X104200Y35440D02*
X106600D01*
X104200Y35400D02*
X106600D01*
X104200Y35480D02*
X106600D01*
Y34500D02*
Y35600D01*
X106300Y34200D02*
X106600Y34500D01*
X104320Y34480D02*
X106580D01*
X104360Y34440D02*
X106540D01*
X104440Y34360D02*
X106460D01*
X104480Y34320D02*
X106420D01*
X104400Y34400D02*
X106500D01*
X104520Y34280D02*
X106380D01*
X104560Y34240D02*
X106340D01*
X104200Y34600D02*
X104600Y34200D01*
X105201D02*
X106300D01*
X104600D02*
X104899D01*
X104200Y35600D02*
X106600D01*
X104200Y35280D02*
X106600D01*
X104200Y35640D02*
X106326D01*
X104200Y35950D02*
X106600Y35600D01*
X104200Y35160D02*
X106600D01*
X104200Y35120D02*
X106600D01*
X104200Y35200D02*
X106600D01*
X104200Y35840D02*
X104954D01*
X104200Y35800D02*
X105229D01*
X104200Y35880D02*
X104680D01*
X104200Y35720D02*
X105777D01*
X104200Y35680D02*
X106051D01*
X104200Y35760D02*
X105503D01*
X104200Y35040D02*
X106600D01*
X104200Y35000D02*
X106600D01*
X104200Y35080D02*
X106600D01*
X104200Y34920D02*
X106600D01*
X104200Y34880D02*
X106600D01*
X104200Y34960D02*
X106600D01*
X104200Y34840D02*
X106600D01*
X104200Y34800D02*
X106600D01*
X104200Y34600D02*
Y35950D01*
Y34680D02*
X106600D01*
X104200Y34600D02*
X106600D01*
X104200Y34760D02*
X106600D01*
X95300Y35120D02*
X96450D01*
X95300Y35080D02*
X96450D01*
X95300Y35160D02*
X96450D01*
X95300Y34960D02*
X96450D01*
X95300Y35000D02*
X96450D01*
X96050Y35500D02*
X96450Y35450D01*
X95300Y35320D02*
X96450D01*
X95300Y35280D02*
X96450D01*
X95300Y35200D02*
X96450D01*
X95300Y35240D02*
X96450D01*
X95300Y34920D02*
X96450D01*
Y34550D02*
Y35450D01*
X95300Y34880D02*
X96450D01*
X95300Y34800D02*
X96450D01*
X95300Y34840D02*
X96450D01*
X95888Y34371D02*
X96271D01*
X96450Y34550D01*
X95300Y34350D02*
Y35350D01*
Y34350D02*
X95805D01*
X95250Y35400D02*
X96450D01*
X95290Y35360D02*
X96450D01*
X95210Y35440D02*
X96450D01*
X95300Y34720D02*
X96450D01*
X95300Y34760D02*
X96450D01*
X95250Y35500D02*
X96050D01*
X95230Y35480D02*
X96210D01*
X95200Y35450D02*
X95250Y35500D01*
X95300Y35040D02*
X96450D01*
X95200Y35450D02*
X95300Y35350D01*
Y34640D02*
X96450D01*
X95300Y34600D02*
X96450D01*
X95300Y34680D02*
X96450D01*
X95300Y34520D02*
X96420D01*
X95300Y34560D02*
X96450D01*
X95300Y34440D02*
X96340D01*
X95300Y34480D02*
X96380D01*
X95300Y34360D02*
X95826D01*
X95300Y34400D02*
X96300D01*
X99400Y32440D02*
X101900D01*
X99400Y32400D02*
X101900D01*
X99400Y32480D02*
X101900D01*
X99400Y32320D02*
X101900D01*
X99400Y32280D02*
X101900D01*
X99400Y32360D02*
X101900D01*
X99400Y32640D02*
X101900D01*
X99400Y32600D02*
X101900D01*
X99400Y32680D02*
X101900D01*
X99400Y32520D02*
X101900D01*
X99400Y32560D02*
X101900D01*
X99400Y32000D02*
X101900D01*
X99400Y31960D02*
X101900D01*
X99400Y32040D02*
X101900D01*
X99400Y31880D02*
X101900D01*
X99400Y31840D02*
X101900D01*
X99400Y31920D02*
X101900D01*
X99400Y32200D02*
X101900D01*
X99400Y32160D02*
X101900D01*
X99400Y32240D02*
X101900D01*
X99400Y32080D02*
X101900D01*
X99400Y32120D02*
X101900D01*
X99400Y33520D02*
X101900D01*
X99400Y33480D02*
X101900D01*
X101600Y35200D02*
X101900Y34900D01*
X99400Y33400D02*
X101900D01*
X99400Y33360D02*
X101900D01*
X99400Y33440D02*
X101900D01*
X99400Y33280D02*
X101900D01*
X99400Y33240D02*
X101900D01*
X99400Y33320D02*
X101900D01*
X99400Y33160D02*
X101900D01*
X99400Y33200D02*
X101900D01*
X99400Y32880D02*
X101900D01*
X99400Y32840D02*
X101900D01*
X99400Y32920D02*
X101900D01*
X99400Y32760D02*
X101900D01*
X99400Y32720D02*
X101900D01*
X99400Y32800D02*
X101900D01*
X99400Y33080D02*
X101900D01*
X99400Y33040D02*
X101900D01*
X99400Y33120D02*
X101900D01*
X99400Y32960D02*
X101900D01*
X99400Y33000D02*
X101900D01*
X99400Y30280D02*
X101900D01*
X99400Y30240D02*
X101900D01*
X99400Y30320D02*
X101900D01*
X101900Y34900D02*
X101900Y29450D01*
X99400Y30160D02*
X101900D01*
X99400Y30200D02*
X101900D01*
X99400Y30080D02*
X101900D01*
X99400Y30040D02*
X101900D01*
X99400Y30120D02*
X101900D01*
X99400Y29960D02*
X101900D01*
X99400Y30000D02*
X101900D01*
X99550Y29600D02*
X101900D01*
X99590Y29560D02*
X101900D01*
X99470Y29680D02*
X101900D01*
X99670Y29480D02*
X101900D01*
X101800Y29350D02*
X101900Y29450D01*
X99630Y29520D02*
X101900D01*
X99400Y29840D02*
X101900D01*
X99400Y29800D02*
X101900D01*
X99400Y29880D02*
X101900D01*
X99430Y29720D02*
X101900D01*
X99400Y29760D02*
X101900D01*
X99400Y31600D02*
X101900D01*
X99400Y31560D02*
X101900D01*
X99400Y31640D02*
X101900D01*
X99400Y31480D02*
X101900D01*
X99400Y31440D02*
X101900D01*
X99400Y31520D02*
X101900D01*
X99400Y31760D02*
X101900D01*
X99400Y31720D02*
X101900D01*
X99400Y31800D02*
X101900D01*
X99400Y31680D02*
X101900D01*
X99400Y29750D02*
Y33550D01*
X99510Y29640D02*
X101900D01*
X99710Y29440D02*
X101890D01*
X99750Y29400D02*
X101850D01*
X99790Y29360D02*
X101810D01*
X99800Y29350D02*
X101800D01*
X99400Y31360D02*
X101900D01*
X99400Y31280D02*
X101900D01*
X99400Y31400D02*
X101900D01*
X99400Y30360D02*
X101900D01*
X99400Y29750D02*
X99800Y29350D01*
X96850Y34760D02*
X101900D01*
X96850Y34720D02*
X101900D01*
X96850Y34800D02*
X101900D01*
X96850Y34640D02*
X101900D01*
X96850Y34600D02*
X101900D01*
X96850Y34680D02*
X101900D01*
X96850Y34960D02*
X101840D01*
X96850Y34920D02*
X101880D01*
X96850Y35000D02*
X101800D01*
X96850Y34840D02*
X101900D01*
X96850Y34880D02*
X101900D01*
X98713Y34320D02*
X101900D01*
X98743Y34280D02*
X101900D01*
X98651Y34360D02*
X101900D01*
X98764Y34200D02*
X101900D01*
X98802Y34160D02*
X101900D01*
X98759Y34240D02*
X101900D01*
X96850Y34520D02*
X101900D01*
X96850Y34480D02*
X101900D01*
X96850Y34560D02*
X101900D01*
X96850Y34400D02*
X101900D01*
X96850Y34440D02*
X101900D01*
X96950Y35200D02*
X101600D01*
X96910Y35160D02*
X101640D01*
X96950Y35200D02*
X101600D01*
X98038Y34371D02*
X98589D01*
X96870Y35120D02*
X101680D01*
X96850Y35080D02*
X101720D01*
X96850Y35100D02*
X96950Y35200D01*
X96850Y35040D02*
X101760D01*
X96850Y34330D02*
Y35100D01*
X97638Y34320D02*
X97914D01*
X97668Y34280D02*
X97885D01*
X97684Y34240D02*
X97869D01*
X97689Y34200D02*
X97863D01*
X96963Y34371D02*
X97514D01*
X97576Y34360D02*
X97976D01*
X96850D02*
X96901D01*
X99400Y31040D02*
X101900D01*
X99400Y31000D02*
X101900D01*
X99400Y31080D02*
X101900D01*
X99400Y30920D02*
X101900D01*
X99400Y30880D02*
X101900D01*
X99400Y30960D02*
X101900D01*
X99400Y31240D02*
X101900D01*
X99400Y31200D02*
X101900D01*
X99400Y31320D02*
X101900D01*
X99400Y31120D02*
X101900D01*
X99400Y31160D02*
X101900D01*
X99400Y30520D02*
X101900D01*
X99400Y30480D02*
X101900D01*
X99400Y30560D02*
X101900D01*
X99400Y30400D02*
X101900D01*
X99400Y29920D02*
X101900D01*
X99400Y30440D02*
X101900D01*
X99400Y30800D02*
X101900D01*
X99400Y30760D02*
X101900D01*
X99400Y30840D02*
X101900D01*
X99400Y30600D02*
X101900D01*
X99400Y30720D02*
X101900D01*
X98950Y34000D02*
X101900D01*
X98990Y33960D02*
X101900D01*
X98910Y34040D02*
X101900D01*
X99030Y33920D02*
X101900D01*
X99070Y33880D02*
X101900D01*
X98885Y34065D02*
X99400Y33550D01*
X98842Y34120D02*
X101900D01*
X98877Y34080D02*
X101900D01*
X98800Y34162D02*
X98856Y34106D01*
X99350Y33600D02*
X101900D01*
X99390Y33560D02*
X101900D01*
X99310Y33640D02*
X101900D01*
X99400Y30640D02*
X101900D01*
X99400Y30680D02*
X101900D01*
X99150Y33800D02*
X101900D01*
X99190Y33760D02*
X101900D01*
X99110Y33840D02*
X101900D01*
X99270Y33680D02*
X101900D01*
X99230Y33720D02*
X101900D01*
X98550Y34000D02*
X98750D01*
X98694Y34056D02*
X98750Y34000D01*
X95910Y33960D02*
X98750D01*
X95870Y33920D02*
X98750D01*
X95830Y33880D02*
X98750D01*
X95750Y33800D02*
X98750D01*
X95790Y33840D02*
X98750D01*
X95630Y33680D02*
X98750D01*
X95590Y33640D02*
X98750D01*
X95550Y33480D02*
X98750D01*
X98668Y34040D02*
X98710D01*
X98550Y34000D02*
X98571Y34021D01*
X95971D02*
X96171D01*
X96150Y34000D02*
X96171Y34021D01*
X96150Y34000D02*
X98550D01*
X95950D02*
X96150D01*
X98550D01*
X95710Y33760D02*
X98750D01*
X95670Y33720D02*
X98750D01*
X95550Y33200D02*
X98750D01*
X95550Y33240D02*
X98750D01*
Y32200D02*
Y34000D01*
X95550Y33160D02*
X98750D01*
X95550Y33120D02*
X98750D01*
X95550Y33080D02*
X98750D01*
X95560Y31840D02*
X98390D01*
X98050Y31500D02*
X98750Y32200D01*
X95550Y33000D02*
X98750D01*
X95550Y32960D02*
X98750D01*
X95680Y31720D02*
X98270D01*
X95720Y31680D02*
X98230D01*
X95760Y31640D02*
X98190D01*
X95600Y31800D02*
X98350D01*
X95640Y31760D02*
X98310D01*
X98030Y31520D02*
X98070D01*
X95850Y31550D02*
X98000D01*
X98050Y31500D01*
X95800Y31600D02*
X98150D01*
X95840Y31560D02*
X98110D01*
X95550Y33440D02*
X98750D01*
X95550Y33520D02*
X98750D01*
X95550Y33400D02*
X98750D01*
X95550Y33600D02*
X98750D01*
X95550Y33560D02*
X98750D01*
X95550Y33040D02*
X98750D01*
X95550Y33280D02*
X98750D01*
X95550Y32920D02*
X98750D01*
X95550Y33360D02*
X98750D01*
X95550Y33320D02*
X98750D01*
X95550Y32800D02*
X98750D01*
X95550Y32840D02*
X98750D01*
X95550Y32760D02*
X98750D01*
X95550Y33600D02*
X95971Y34021D01*
X95550Y32880D02*
X98750D01*
X95550Y32600D02*
X98750D01*
X95550Y32640D02*
X98750D01*
X95550Y32560D02*
X98750D01*
X95550Y32720D02*
X98750D01*
X95550Y32680D02*
X98750D01*
X95550Y32400D02*
X98750D01*
X95550Y32440D02*
X98750D01*
X95550Y32360D02*
X98750D01*
X95550Y32520D02*
X98750D01*
X95550Y32480D02*
X98750D01*
X95550Y32200D02*
X98750D01*
X95550Y32240D02*
X98750D01*
X95550Y32160D02*
X98710D01*
X95550Y32320D02*
X98750D01*
X95550Y32280D02*
X98750D01*
X95550Y32080D02*
X98630D01*
X95550Y32040D02*
X98590D01*
X95550Y32000D02*
X98550D01*
X95550Y32120D02*
X98670D01*
X95550Y31850D02*
Y33600D01*
Y31880D02*
X98430D01*
X95550Y31850D02*
X95850Y31550D01*
X95550Y31960D02*
X98510D01*
X95550Y31920D02*
X98470D01*
X106600Y35350D02*
Y37850D01*
X106150Y38300D02*
X106600Y37850D01*
X95350Y35350D02*
X106600Y35350D01*
X94213Y34360D02*
X95350D01*
X93965Y34920D02*
X95350D01*
X91240Y34960D02*
X95350D01*
X94225Y34400D02*
X95350D01*
X94110Y34200D02*
X95350D01*
X94064Y34160D02*
X95350D01*
X94000Y34120D02*
X95350D01*
X93883Y34080D02*
X95350D01*
X94196Y34320D02*
X95350D01*
X94174Y34280D02*
X95350D01*
X94146Y34240D02*
X95350D01*
X88050Y35640D02*
X106600D01*
X88043Y35680D02*
X106600D01*
X88048Y35600D02*
X106600D01*
X88036Y35560D02*
X106600D01*
X87992Y35760D02*
X106600D01*
X87916Y35800D02*
X106600D01*
X88026Y35720D02*
X106600D01*
X88012Y35520D02*
X106600D01*
X88001Y35480D02*
X106600D01*
X90906Y35400D02*
X106600D01*
X88001Y35440D02*
X106600D01*
X91215Y35120D02*
X95350D01*
X91009Y35360D02*
X106600D01*
X91227Y35080D02*
X95350D01*
X88600Y32800D02*
X95350D01*
X88560Y32840D02*
X95350D01*
X88680Y32720D02*
X95350D01*
X88640Y32760D02*
X95350D01*
X88480Y32920D02*
X95350D01*
X88440Y32960D02*
X95350D01*
X88520Y32880D02*
X95350D01*
X91010Y32520D02*
X95350D01*
X90907Y32560D02*
X95350D01*
X91115Y32440D02*
X95350D01*
X91071Y32480D02*
X95350D01*
X88750Y32640D02*
X95350D01*
X88720Y32680D02*
X95350D01*
X88750Y32600D02*
X95350D01*
X88040Y33360D02*
X95350D01*
X88000Y33400D02*
X95350D01*
X88120Y33280D02*
X95350D01*
X88080Y33320D02*
X95350D01*
X87920Y33480D02*
X95350D01*
X87880Y33520D02*
X95350D01*
X87960Y33440D02*
X95350D01*
X88320Y33080D02*
X95350D01*
X88280Y33120D02*
X95350D01*
X88400Y33000D02*
X95350D01*
X88360Y33040D02*
X95350D01*
X88200Y33200D02*
X95350D01*
X88160Y33240D02*
X95350D01*
X88240Y33160D02*
X95350D01*
X91115Y35280D02*
X95350D01*
X91071Y35320D02*
X95350D01*
X91198Y35160D02*
X95350D01*
X91150Y35240D02*
X95350D01*
X88001Y35280D02*
X90485D01*
X88001Y35320D02*
X90529D01*
X91177Y35200D02*
X95350D01*
X91239Y35000D02*
X95350D01*
X91235Y35040D02*
X95350D01*
X91237Y34920D02*
X93635D01*
X88001Y34757D02*
Y35507D01*
X91230Y34880D02*
X93559D01*
X88001Y35360D02*
X90591D01*
X88001Y35400D02*
X90694D01*
X88001Y35200D02*
X90423D01*
X88001Y35240D02*
X90450D01*
X88001Y35160D02*
X90402D01*
X88001Y35080D02*
X90373D01*
X88001Y35120D02*
X90385D01*
X88001Y34880D02*
X90370D01*
X88001Y35040D02*
X90365D01*
X88001Y34960D02*
X90360D01*
X88001Y35000D02*
X90361D01*
X88001Y34920D02*
X90363D01*
X94093Y34840D02*
X95350D01*
X94041Y34880D02*
X95350D01*
X94163Y34760D02*
X95350D01*
X94133Y34800D02*
X95350D01*
X91219Y34840D02*
X93507D01*
X91205Y34800D02*
X93467D01*
X94188Y34720D02*
X95350D01*
X94240Y34520D02*
X95350D01*
X94237Y34560D02*
X95350D01*
X94239Y34480D02*
X95350D01*
X94234Y34440D02*
X95350D01*
X94221Y34640D02*
X95350D01*
X94207Y34680D02*
X95350D01*
X94231Y34600D02*
X95350D01*
X91185Y34760D02*
X93437D01*
X91160Y34720D02*
X93412D01*
X91128Y34680D02*
X93393D01*
X91088Y34640D02*
X93379D01*
X88001Y34800D02*
X90395D01*
X88001Y34840D02*
X90381D01*
X88001Y34760D02*
X90415D01*
X91033Y34600D02*
X93369D01*
X90952Y34560D02*
X93363D01*
X88750Y32560D02*
X90693D01*
X88750Y32480D02*
X90529D01*
X88750Y32520D02*
X90590D01*
X88750Y32440D02*
X90485D01*
X94582Y32080D02*
X95350D01*
X94572Y32120D02*
X95350D01*
X94590Y32000D02*
X95350D01*
X94588Y32040D02*
X95350D01*
X94540Y32200D02*
X95350D01*
X94516Y32240D02*
X95350D01*
X94558Y32160D02*
X95350D01*
X95350Y35350D02*
X95350Y29850D01*
X94561Y31840D02*
X95350D01*
X94544Y31800D02*
X95350D01*
X94521Y31760D02*
X95350D01*
X94588Y31960D02*
X95350D01*
X94583Y31920D02*
X95350D01*
X94574Y31880D02*
X95350D01*
X94492Y31720D02*
X95350D01*
X94456Y31680D02*
X95350D01*
X94408Y31640D02*
X95350D01*
X94341Y31600D02*
X95350D01*
X94448Y32320D02*
X95350D01*
X94398Y32360D02*
X95350D01*
X94486Y32280D02*
X95350D01*
X88750Y31160D02*
X95350D01*
X88750Y31200D02*
X95350D01*
X88750Y31080D02*
X95350D01*
X88750Y31120D02*
X95350D01*
X94207Y31560D02*
X95350D01*
X88750Y31280D02*
X95350D01*
X88750Y31240D02*
X95350D01*
X88900Y30200D02*
X95350D01*
X88860Y30240D02*
X95350D01*
X88980Y30120D02*
X95350D01*
X88940Y30160D02*
X95350D01*
X88780Y30320D02*
X95350D01*
X88750Y30360D02*
X95350D01*
X88820Y30280D02*
X95350D01*
X89180Y29920D02*
X95350D01*
X89140Y29960D02*
X95350D01*
X89250Y29850D02*
X95350Y29850D01*
X89220Y29880D02*
X95350D01*
X89060Y30040D02*
X95350D01*
X89020Y30080D02*
X95350D01*
X89100Y30000D02*
X95350D01*
X88750Y30720D02*
X95350D01*
X88750Y30760D02*
X95350D01*
X88750Y30640D02*
X95350D01*
X88750Y30680D02*
X95350D01*
X88750Y30840D02*
X95350D01*
X88750Y31040D02*
X95350D01*
X88750Y30800D02*
X95350D01*
X88750Y30440D02*
X95350D01*
X88750Y30480D02*
X95350D01*
X88750Y30400D02*
X95350D01*
X88750Y30560D02*
X95350D01*
X88750Y30600D02*
X95350D01*
X88750Y30520D02*
X95350D01*
X94325Y32400D02*
X95350D01*
X91150D02*
X93975D01*
X91198Y32320D02*
X93852D01*
X91177Y32360D02*
X93902D01*
X91227Y32240D02*
X93784D01*
X91215Y32280D02*
X93814D01*
X91235Y32200D02*
X93760D01*
X91239Y32160D02*
X93742D01*
X91240Y32120D02*
X93728D01*
X91237Y32080D02*
X93718D01*
X91230Y32040D02*
X93712D01*
X91219Y32000D02*
X93710D01*
X91204Y31960D02*
X93712D01*
X88750Y32360D02*
X90423D01*
X88750Y32400D02*
X90450D01*
X88750Y32280D02*
X90385D01*
X88750Y32320D02*
X90402D01*
X88750Y32200D02*
X90365D01*
X88750Y32240D02*
X90373D01*
X88750Y32160D02*
X90361D01*
X88750Y32040D02*
X90370D01*
X88750Y31960D02*
X90396D01*
X88750Y32000D02*
X90381D01*
X88750Y32120D02*
X90360D01*
X88750Y30350D02*
Y32650D01*
Y32080D02*
X90363D01*
X91185Y31920D02*
X93717D01*
X91160Y31880D02*
X93726D01*
X91128Y31840D02*
X93739D01*
X91087Y31800D02*
X93756D01*
X88750Y31880D02*
X90440D01*
X88750Y31920D02*
X90415D01*
X88750Y31840D02*
X90472D01*
X91033Y31760D02*
X93779D01*
X90951Y31720D02*
X93808D01*
X88750Y31640D02*
X93892D01*
X88750Y31680D02*
X93844D01*
X88750Y31760D02*
X90567D01*
X88750Y31800D02*
X90513D01*
X88750Y31720D02*
X90649D01*
X88750Y31440D02*
X95350D01*
X88750Y31480D02*
X95350D01*
X88750Y31360D02*
X95350D01*
X88750Y31400D02*
X95350D01*
X88750Y31560D02*
X94093D01*
X88750Y31600D02*
X93959D01*
X88750Y31520D02*
X95350D01*
X88750Y31000D02*
X95350D01*
X88750Y31320D02*
X95350D01*
X88750Y30960D02*
X95350D01*
X88750Y30880D02*
X95350D01*
X88750Y30920D02*
X95350D01*
X88750Y30350D02*
X89250Y29850D01*
X84770Y37920D02*
X106530D01*
X84730Y37880D02*
X106570D01*
X84690Y37840D02*
X106600D01*
X84650Y37800D02*
X106600D01*
X84890Y38040D02*
X106410D01*
X84850Y38000D02*
X106450D01*
X84810Y37960D02*
X106490D01*
X84490Y37640D02*
X106600D01*
X84450Y37600D02*
X106600D01*
X84410Y37560D02*
X106600D01*
X84370Y37520D02*
X106600D01*
X84610Y37760D02*
X106600D01*
X84570Y37720D02*
X106600D01*
X84530Y37680D02*
X106600D01*
X84210Y37360D02*
X106600D01*
X84170Y37320D02*
X106600D01*
X84130Y37280D02*
X106600D01*
X84090Y37240D02*
X106600D01*
X84330Y37480D02*
X106600D01*
X84290Y37440D02*
X106600D01*
X84250Y37400D02*
X106600D01*
X83930Y37080D02*
X106600D01*
X83890Y37040D02*
X106600D01*
X83850Y37000D02*
X106600D01*
X83810Y36960D02*
X106600D01*
X84050Y37200D02*
X106600D01*
X84010Y37160D02*
X106600D01*
X83970Y37120D02*
X106600D01*
X83650Y36800D02*
X106600D01*
X83610Y36760D02*
X106600D01*
X83570Y36720D02*
X106600D01*
X83530Y36680D02*
X106600D01*
X83770Y36920D02*
X106600D01*
X83730Y36880D02*
X106600D01*
X83690Y36840D02*
X106600D01*
X83370Y36520D02*
X106600D01*
X83330Y36480D02*
X106600D01*
X83290Y36440D02*
X106600D01*
X83250Y36400D02*
X106600D01*
X83490Y36640D02*
X106600D01*
X83450Y36600D02*
X106600D01*
X83410Y36560D02*
X106600D01*
X83005Y36240D02*
X106600D01*
X82852Y36200D02*
X106600D01*
X75010Y36160D02*
X106600D01*
X74970Y36120D02*
X106600D01*
X83210Y36360D02*
X106600D01*
X83145Y36320D02*
X106600D01*
X83086Y36280D02*
X106600D01*
X74810Y35960D02*
X106600D01*
X74770Y35920D02*
X106600D01*
X74730Y35880D02*
X106600D01*
X74690Y35840D02*
X106600D01*
X74930Y36080D02*
X106600D01*
X74890Y36040D02*
X106600D01*
X74850Y36000D02*
X106600D01*
X85050Y38200D02*
X106250D01*
X85010Y38160D02*
X106290D01*
X84970Y38120D02*
X106330D01*
X84930Y38080D02*
X106370D01*
X85150Y38300D02*
X106150D01*
X85130Y38280D02*
X106170D01*
X85090Y38240D02*
X106210D01*
X83200Y36350D02*
X85150Y38300D01*
X87324Y35805D02*
X87876D01*
X80229Y36350D02*
X82364D01*
X80193Y36320D02*
X82400D01*
X80133Y36280D02*
X82460D01*
X76850Y36350D02*
X79411Y36350D01*
X76796Y36320D02*
X79448D01*
X75170D02*
X76536D01*
X75200Y36350D02*
X75653D01*
X75774D02*
X76482D01*
X80052Y36240D02*
X82541D01*
X79900Y36200D02*
X82694D01*
X75050D02*
X79741D01*
X75130Y36280D02*
X79507D01*
X74400Y35550D02*
X75200Y36350D01*
X75090Y36240D02*
X79589D01*
X74650Y35800D02*
X87284D01*
X74610Y35760D02*
X87208D01*
X86692Y35280D02*
X87199D01*
X86559Y35320D02*
X87199D01*
X74570Y35720D02*
X87174D01*
X74530Y35680D02*
X87157D01*
X74490Y35640D02*
X87150D01*
X87199Y35159D02*
Y35507D01*
X86759Y35240D02*
X87199D01*
X86843Y35160D02*
X87199D01*
X86806Y35200D02*
X87199D01*
X86843Y35159D02*
X87199D01*
X82920Y35160D02*
X86157D01*
X83002Y35120D02*
X86129D01*
X74400Y35440D02*
X87199D01*
X74400Y35480D02*
X87199D01*
X74400Y35360D02*
X87199D01*
X74400Y35400D02*
X87199D01*
X74450Y35600D02*
X87152D01*
X74410Y35560D02*
X87164D01*
X74400Y35520D02*
X87188D01*
X74400Y35280D02*
X86308D01*
X74400Y35320D02*
X86441D01*
X74400Y35240D02*
X86241D01*
X74400Y35160D02*
X82580D01*
X74400Y35200D02*
X86194D01*
X74400Y35120D02*
X82498D01*
X87588Y34757D02*
X88001D01*
X87552Y34720D02*
X90440D01*
X87511Y34680D02*
X90472D01*
X87454Y34640D02*
X90513D01*
X87522Y34690D02*
X87588Y34757D01*
X83229Y34720D02*
X86092D01*
X83228Y34680D02*
X86110D01*
X86836Y34600D02*
X90567D01*
X86798Y34560D02*
X90648D01*
X86747Y34520D02*
X93360D01*
X86843Y34609D02*
X87327D01*
X83100Y35040D02*
X86089D01*
X83057Y35080D02*
X86106D01*
X83160Y34960D02*
X86067D01*
X83133Y35000D02*
X86076D01*
X83199Y34880D02*
X86060D01*
X83182Y34920D02*
X86062D01*
X83212Y34840D02*
X86062D01*
X83224Y34640D02*
X86134D01*
X83216Y34600D02*
X86164D01*
X83205Y34560D02*
X86202D01*
X83189Y34520D02*
X86253D01*
X83221Y34800D02*
X86068D01*
X83227Y34760D02*
X86078D01*
X83114Y34400D02*
X93375D01*
X83075Y34360D02*
X93387D01*
X83026Y34320D02*
X93404D01*
X82958Y34280D02*
X93426D01*
X86674Y34480D02*
X93361D01*
X83169D02*
X86326D01*
X83145Y34440D02*
X93366D01*
X80340Y34000D02*
X95350D01*
X80338Y34040D02*
X95350D01*
X87840Y33560D02*
X95350D01*
X80338Y33960D02*
X95350D01*
X87800Y33600D02*
X95350D01*
X82833Y34240D02*
X93454D01*
X87800Y33600D02*
X88750Y32650D01*
X80333Y33920D02*
X95350D01*
X80332Y34080D02*
X93717D01*
X80324Y33880D02*
X95350D01*
X80311Y33840D02*
X95350D01*
X80308Y34160D02*
X93536D01*
X80290Y34200D02*
X93490D01*
X80322Y34120D02*
X93600D01*
X80294Y33800D02*
X95350D01*
X80271Y33760D02*
X95350D01*
X80242Y33720D02*
X95350D01*
X80206Y33680D02*
X95350D01*
X80158Y33640D02*
X95350D01*
X80091Y33600D02*
X87800D01*
X74400Y35040D02*
X82400D01*
X74400Y35080D02*
X82443D01*
X74400Y34880D02*
X82301D01*
X74400Y34920D02*
X82318D01*
X74400Y34800D02*
X82279D01*
X74400Y34840D02*
X82288D01*
X74400Y34760D02*
X82273D01*
X80198Y34320D02*
X82474D01*
X80148Y34360D02*
X82425D01*
X80266Y34240D02*
X82667D01*
X80236Y34280D02*
X82542D01*
X74400Y34720D02*
X82271D01*
X80075Y34400D02*
X82386D01*
X74400Y34960D02*
X82340D01*
X74400Y35000D02*
X82367D01*
X74400Y34520D02*
X82311D01*
X74400Y34560D02*
X82295D01*
X74400Y34640D02*
X82276D01*
X74400Y34680D02*
X82272D01*
X74400Y34600D02*
X82284D01*
X74400Y34440D02*
X82355D01*
X74400Y34480D02*
X82331D01*
X74400Y34360D02*
X79652D01*
X74400Y34400D02*
X79725D01*
X74400Y34320D02*
X79602D01*
X74400Y34000D02*
Y35550D01*
Y34280D02*
X79564D01*
X75954Y33800D02*
X79506D01*
X75760Y33840D02*
X79489D01*
X76112Y33720D02*
X79558D01*
X76045Y33760D02*
X79529D01*
X74680Y33720D02*
X75314D01*
X74640Y33760D02*
X75382D01*
X74720Y33680D02*
X75261D01*
X76166D02*
X79594D01*
X76249Y33600D02*
X79709D01*
X76211Y33640D02*
X79642D01*
X74760D02*
X75216D01*
X74800Y33600D02*
X75177D01*
X74400Y34200D02*
X79510D01*
X74400Y34240D02*
X79534D01*
X74400Y34120D02*
X79478D01*
X74400Y34160D02*
X79492D01*
X74400Y34040D02*
X79462D01*
X74400Y34080D02*
X79468D01*
X74400Y34000D02*
X79460D01*
X74480Y33920D02*
X79467D01*
X74440Y33960D02*
X79462D01*
X74520Y33880D02*
X79476D01*
X74560Y33840D02*
X75667D01*
X74400Y34000D02*
X74800Y33600D01*
X74600Y33800D02*
X75473D01*
X52500Y25700D02*
X52500Y24700D01*
X52300Y25900D02*
X52500Y25700D01*
X52350Y24550D02*
X52500Y24700D01*
X48979Y27971D02*
X51050Y25900D01*
X52300Y25900D01*
X50700Y24550D02*
X52350Y24550D01*
X48716Y22040D02*
X50710D01*
X48758Y22000D02*
X50750D01*
X50000Y23850D02*
X50700Y24550D01*
X48674Y22080D02*
X50670D01*
X48500Y22320D02*
X50430D01*
X48500Y22360D02*
X50390D01*
X48500Y22280D02*
X50470D01*
X48500Y22440D02*
X50310D01*
X48500Y22400D02*
X50350D01*
X48590Y22160D02*
X50590D01*
X48632Y22120D02*
X50630D01*
X48505Y22240D02*
X50510D01*
X48547Y22200D02*
X50550D01*
X49305Y21480D02*
X51270D01*
X49263Y21520D02*
X51230D01*
X49347Y21440D02*
X51310D01*
X49179Y21600D02*
X51150D01*
X49221Y21560D02*
X51190D01*
X49474Y21320D02*
X51430D01*
X49516Y21280D02*
X51470D01*
X49389Y21400D02*
X51350D01*
X49432Y21360D02*
X51390D01*
X48926Y21840D02*
X50910D01*
X48884Y21880D02*
X50870D01*
X48968Y21800D02*
X50950D01*
X48800Y21960D02*
X50790D01*
X48842Y21920D02*
X50830D01*
X49095Y21680D02*
X51070D01*
X49137Y21640D02*
X51110D01*
X49011Y21760D02*
X50990D01*
X49053Y21720D02*
X51030D01*
X48500Y23360D02*
X50000D01*
X48500Y23440D02*
X50000D01*
X48500Y23320D02*
X50000D01*
X48800Y29350D02*
X48979Y28993D01*
X48979Y27971D01*
X50000Y22750D02*
X50000Y23850D01*
X48500Y23280D02*
X50000D01*
X48500Y23240D02*
X50000D01*
X48500Y23450D02*
X48500Y22245D01*
X48500Y23200D02*
X50000D01*
X48230Y23720D02*
X50000D01*
X48190Y23760D02*
X50000D01*
X48270Y23680D02*
X50000D01*
X48310Y23640D02*
X50000D01*
X48350Y23600D02*
X50000D01*
X48390Y23560D02*
X50000D01*
X48430Y23520D02*
X50000D01*
X48470Y23480D02*
X50000D01*
X48500Y23400D02*
X50000D01*
X48500Y22680D02*
X50070D01*
X48500Y22720D02*
X50030D01*
X48500Y22640D02*
X50110D01*
X48500Y22800D02*
X50000D01*
X48500Y22760D02*
X50000D01*
X48500Y22520D02*
X50230D01*
X48500Y22480D02*
X50270D01*
X48500Y22600D02*
X50150D01*
X48500Y22560D02*
X50190D01*
X48500Y23120D02*
X50000D01*
X48500Y23160D02*
X50000D01*
X48500Y23080D02*
X50000D01*
X48500Y23040D02*
X50000D01*
X48500Y23000D02*
X50000D01*
X48500Y22880D02*
X50000D01*
X48500Y22840D02*
X50000D01*
X48500Y22960D02*
X50000D01*
X48500Y22920D02*
X50000D01*
X51200Y19680D02*
X52700D01*
X51158Y19720D02*
X52700D01*
X51242Y19640D02*
X52700D01*
X51074Y19800D02*
X52700D01*
X51116Y19760D02*
X52700D01*
X52700Y20050D02*
X52700Y18836D01*
X51288Y19520D02*
X52700D01*
X51303Y19480D02*
X52700D01*
X51258Y19600D02*
X52700D01*
X51273Y19560D02*
X52700D01*
X50821Y20040D02*
X52700D01*
X50000Y22750D02*
X52700Y20050D01*
X50863Y20000D02*
X52700D01*
X50737Y20120D02*
X52630D01*
X50779Y20080D02*
X52670D01*
X50989Y19880D02*
X52700D01*
X51031Y19840D02*
X52700D01*
X50905Y19960D02*
X52700D01*
X50947Y19920D02*
X52700D01*
X51500Y18960D02*
X52700D01*
X51485Y19000D02*
X52700D01*
X51515Y18920D02*
X52700D01*
X51455Y19080D02*
X52700D01*
X51470Y19040D02*
X52700D01*
X51530Y18880D02*
X52700D01*
X51545Y18840D02*
X52700D01*
X52272Y18591D02*
X52700Y18836D01*
X51561Y18800D02*
X52638D01*
X51364Y19320D02*
X52700D01*
X51349Y19360D02*
X52700D01*
X51379Y19280D02*
X52700D01*
X51319Y19440D02*
X52700D01*
X51334Y19400D02*
X52700D01*
X51424Y19160D02*
X52700D01*
X51440Y19120D02*
X52700D01*
X51394Y19240D02*
X52700D01*
X51409Y19200D02*
X52700D01*
X50021Y20800D02*
X51950D01*
X49979Y20840D02*
X51910D01*
X50063Y20760D02*
X51990D01*
X49895Y20920D02*
X51830D01*
X49937Y20880D02*
X51870D01*
X50232Y20600D02*
X52150D01*
X50189Y20640D02*
X52110D01*
X50274Y20560D02*
X52190D01*
X50105Y20720D02*
X52030D01*
X50147Y20680D02*
X52070D01*
X49684Y21120D02*
X51630D01*
X49642Y21160D02*
X51590D01*
X49726Y21080D02*
X51670D01*
X49558Y21240D02*
X51510D01*
X49600Y21200D02*
X51550D01*
X49811Y21000D02*
X51750D01*
X49853Y20960D02*
X51790D01*
X48500Y22245D02*
X51243Y19639D01*
X49768Y21040D02*
X51710D01*
X51576Y18760D02*
X52568D01*
X50695Y20160D02*
X52590D01*
X51591Y18720D02*
X52498D01*
X51243Y19639D02*
X51594Y18713D01*
X51675Y18680D02*
X52428D01*
X51774Y18640D02*
X52358D01*
X51872Y18600D02*
X52288D01*
X51594Y18713D02*
X51894Y18591D01*
X52272Y18591D01*
X50442Y20400D02*
X52350D01*
X50400Y20440D02*
X52310D01*
X50484Y20360D02*
X52390D01*
X50316Y20520D02*
X52230D01*
X50358Y20480D02*
X52270D01*
X50610Y20240D02*
X52510D01*
X50653Y20200D02*
X52550D01*
X50526Y20320D02*
X52430D01*
X50568Y20280D02*
X52470D01*
X47250Y27440D02*
X49510D01*
X47250Y27480D02*
X49470D01*
X47250Y27400D02*
X49550D01*
X47250Y27560D02*
X49390D01*
X47250Y27520D02*
X49430D01*
X47250Y27240D02*
X49710D01*
X47250Y27280D02*
X49670D01*
X47250Y27200D02*
X49750D01*
X47250Y27360D02*
X49590D01*
X47250Y27320D02*
X49630D01*
X47250Y27800D02*
X49150D01*
X47250Y27840D02*
X49110D01*
X47250Y27760D02*
X49190D01*
X47250Y27920D02*
X49030D01*
X47250Y27880D02*
X49070D01*
X47250Y27640D02*
X49310D01*
X47250Y27600D02*
X49350D01*
X47250Y27720D02*
X49230D01*
X47250Y27680D02*
X49270D01*
X47250Y26680D02*
X50270D01*
X47250Y26720D02*
X50230D01*
X47250Y26640D02*
X50310D01*
X47250Y26800D02*
X50150D01*
X47250Y26760D02*
X50190D01*
X47250Y26520D02*
X50430D01*
X47250Y26480D02*
X50470D01*
X47250Y26600D02*
X50350D01*
X47250Y26560D02*
X50390D01*
X47250Y27040D02*
X49910D01*
X47250Y27080D02*
X49870D01*
X47250Y27000D02*
X49950D01*
X47250Y27160D02*
X49790D01*
X47250Y27120D02*
X49830D01*
X47250Y26880D02*
X50070D01*
X47250Y26840D02*
X50110D01*
X47250Y26960D02*
X49990D01*
X47250Y26920D02*
X50030D01*
X47630Y29280D02*
X48835D01*
X47590Y29240D02*
X48855D01*
X47550Y29200D02*
X48875D01*
X47700Y29350D02*
X48800Y29350D01*
X47670Y29320D02*
X48815D01*
X47430Y29080D02*
X48935D01*
X47390Y29040D02*
X48955D01*
X47350Y29000D02*
X48975D01*
X47510Y29160D02*
X48895D01*
X47470Y29120D02*
X48915D01*
X47310Y28960D02*
X48979D01*
X47270Y28920D02*
X48979D01*
X47250Y28840D02*
X48979D01*
X47250Y28900D02*
X47700Y29350D01*
X47250Y28880D02*
X48979D01*
X47250Y28720D02*
X48979D01*
X47250Y28680D02*
X48979D01*
X47250Y28800D02*
X48979D01*
X47250Y28760D02*
X48979D01*
X47250Y28160D02*
X48979D01*
X47250Y28200D02*
X48979D01*
X47250Y28120D02*
X48979D01*
X47250Y28280D02*
X48979D01*
X47250Y28240D02*
X48979D01*
X47250Y28000D02*
X48979D01*
X47250Y27960D02*
X48990D01*
X47250Y28080D02*
X48979D01*
X47250Y28040D02*
X48979D01*
X47250Y28520D02*
X48979D01*
X47250Y28560D02*
X48979D01*
X47250Y28480D02*
X48979D01*
X47250Y28640D02*
X48979D01*
X47250Y28600D02*
X48979D01*
X47250Y28360D02*
X48979D01*
X47250Y28320D02*
X48979D01*
X47250Y28440D02*
X48979D01*
X47250Y28400D02*
X48979D01*
X46720Y25920D02*
X51030D01*
X46680Y25880D02*
X52320D01*
X46640Y25840D02*
X52360D01*
X46800Y26000D02*
X50950D01*
X46760Y25960D02*
X50990D01*
X46520Y25720D02*
X52480D01*
X46480Y25680D02*
X52500D01*
X46440Y25640D02*
X52500D01*
X46600Y25800D02*
X52400D01*
X46560Y25760D02*
X52440D01*
X46320Y25520D02*
X52500D01*
X46280Y25480D02*
X52500D01*
X46240Y25440D02*
X52500D01*
X46400Y25600D02*
X52500D01*
X46360Y25560D02*
X52500D01*
X46200Y25320D02*
X52500D01*
X46200Y25280D02*
X52500D01*
X46200Y25400D02*
X52500D01*
X46200Y25360D02*
X52500D01*
X46200Y25040D02*
X52500D01*
X46200Y25080D02*
X52500D01*
X46230Y24720D02*
X52500D01*
X46200Y25240D02*
X52500D01*
X46200Y25120D02*
X52500D01*
X46270Y24680D02*
X52480D01*
X46310Y24640D02*
X52440D01*
X46350Y24600D02*
X52400D01*
X46390Y24560D02*
X52360D01*
X46200Y24960D02*
X52500D01*
X46200Y25000D02*
X52500D01*
X46200Y24920D02*
X52500D01*
X46200Y25200D02*
X52500D01*
X46200Y25160D02*
X52500D01*
X46200Y24800D02*
X52500D01*
X46200Y24760D02*
X52500D01*
X46200Y24880D02*
X52500D01*
X46200Y24840D02*
X52500D01*
X47200Y26400D02*
X50550D01*
X47160Y26360D02*
X50590D01*
X47120Y26320D02*
X50630D01*
X47250Y26450D02*
Y28900D01*
X47240Y26440D02*
X50510D01*
X47040Y26240D02*
X50710D01*
X47000Y26200D02*
X50750D01*
X46960Y26160D02*
X50790D01*
X47080Y26280D02*
X50670D01*
X47550Y24400D02*
X50550D01*
X46920Y26120D02*
X50830D01*
X46880Y26080D02*
X50870D01*
X46840Y26040D02*
X50910D01*
X46200Y25400D02*
X47250Y26450D01*
X46200Y24750D02*
X46200Y25400D01*
X46430Y24520D02*
X50670D01*
X46470Y24480D02*
X50630D01*
X46200Y24750D02*
X46550Y24400D01*
X46510Y24440D02*
X50590D01*
X47870Y24080D02*
X50230D01*
X47830Y24120D02*
X50270D01*
X47910Y24040D02*
X50190D01*
X47950Y24000D02*
X50150D01*
X47990Y23960D02*
X50110D01*
X48030Y23920D02*
X50070D01*
X48070Y23880D02*
X50030D01*
X48110Y23840D02*
X50000D01*
X48150Y23800D02*
X50000D01*
X47630Y24320D02*
X50470D01*
X47590Y24360D02*
X50510D01*
X47670Y24280D02*
X50430D01*
X46550Y24400D02*
X47550Y24400D01*
X46550D02*
X47550D01*
X47710Y24240D02*
X50390D01*
X47750Y24200D02*
X50350D01*
X47550Y24400D02*
X48500Y23450D01*
X47790Y24160D02*
X50310D01*
X49750Y30400D02*
X51450D01*
X49790Y30360D02*
X51450D01*
X49710Y30440D02*
X51450D01*
X49870Y30280D02*
X51450D01*
X49830Y30320D02*
X51450D01*
X50900Y31350D02*
X51450Y30800D01*
X41690Y31240D02*
X51010D01*
X49670Y30480D02*
X51450D01*
X41650Y31200D02*
X51050D01*
X51450Y29000D02*
Y30800D01*
X50070Y30080D02*
X51450D01*
X50150Y30000D02*
X51450D01*
X50110Y30040D02*
X51450D01*
X49950Y30200D02*
X51450D01*
X49910Y30240D02*
X51450D01*
X50030Y30120D02*
X51450D01*
X49990Y30160D02*
X51450D01*
X41450Y31000D02*
X51250D01*
X41410Y30960D02*
X51290D01*
X41370Y30920D02*
X51330D01*
X41350Y30840D02*
X51410D01*
X41350Y30880D02*
X51370D01*
X41610Y31160D02*
X51090D01*
X41570Y31120D02*
X51130D01*
X41530Y31080D02*
X51170D01*
X41490Y31040D02*
X51210D01*
X41350Y30600D02*
X51450D01*
X41350Y30640D02*
X51450D01*
X41350Y30520D02*
X51450D01*
X41350Y30560D02*
X51450D01*
X41350Y30760D02*
X51450D01*
X41350Y30800D02*
X51450D01*
X41350Y30680D02*
X51450D01*
X41350Y30720D02*
X51450D01*
X50400Y29520D02*
X51450D01*
X50400Y29480D02*
X51450D01*
X50400Y29560D02*
X51450D01*
X50400Y29400D02*
X51450D01*
X50400Y29440D02*
X51450D01*
X50400Y29680D02*
X51450D01*
X50400Y29720D02*
X51450D01*
X50400Y29640D02*
X51450D01*
X50400Y29600D02*
X51450D01*
X50400Y29360D02*
X51450D01*
X50400Y29320D02*
X51450D01*
X51200Y28750D02*
X51450Y29000D01*
X50420Y28880D02*
X51330D01*
X50500Y28800D02*
X51250D01*
X50460Y28840D02*
X51290D01*
X50550Y28750D02*
X51200Y28750D01*
X50540Y28760D02*
X51210D01*
X50390Y29760D02*
X51450D01*
X50350Y29800D02*
X51450D01*
X50400Y29240D02*
X51450D01*
X50400Y29280D02*
X51450D01*
X50230Y29920D02*
X51450D01*
X50190Y29960D02*
X51450D01*
X50310Y29840D02*
X51450D01*
X50270Y29880D02*
X51450D01*
X50400Y29160D02*
X51450D01*
X50400Y29200D02*
X51450D01*
X50400Y29080D02*
X51450D01*
X50400Y29120D02*
X51450D01*
X50400Y29000D02*
X51450D01*
X50400Y29040D02*
X51450D01*
X50400Y28920D02*
X51370D01*
X50400Y28960D02*
X51410D01*
X41800Y31350D02*
X50900Y31350D01*
X41770Y31320D02*
X50930D01*
X41730Y31280D02*
X50970D01*
X44050Y30500D02*
X49650D01*
X41350Y30480D02*
X44030D01*
X41350Y30440D02*
X43990D01*
X41350Y30900D02*
X41800Y31350D01*
X41350Y30360D02*
X43910D01*
X41350Y30400D02*
X43950D01*
X49650Y30500D02*
X50400Y29750D01*
X43400Y29850D02*
X44050Y30500D01*
X50400Y28900D02*
X50400Y29750D01*
X41350Y30320D02*
X43870D01*
X41350Y30240D02*
X43790D01*
X41350Y30280D02*
X43830D01*
X41350Y30160D02*
X43710D01*
X41350Y30200D02*
X43750D01*
X41350Y30080D02*
X43630D01*
X41350Y30120D02*
X43670D01*
X41350Y30000D02*
X43550D01*
X41350Y30040D02*
X43590D01*
X41350Y29920D02*
X43470D01*
X41350Y29960D02*
X43510D01*
X41350Y29840D02*
X43400D01*
X41350Y29880D02*
X43430D01*
X41350Y29600D02*
X43400D01*
X41350Y29640D02*
X43400D01*
X41350Y29520D02*
X43400D01*
X41350Y29560D02*
X43400D01*
X41350Y29760D02*
X43400D01*
X41350Y29800D02*
X43400D01*
X41350Y29680D02*
X43400D01*
X41350Y29720D02*
X43400D01*
X41350Y29280D02*
X43400D01*
X41350Y29240D02*
X43400D01*
X41350Y29320D02*
X43400D01*
X41350Y29160D02*
X43400D01*
X41350Y29200D02*
X43400D01*
X41350Y29440D02*
X43400D01*
X41350Y29480D02*
X43400D01*
X41350Y29360D02*
X43400D01*
X41350Y29400D02*
X43400D01*
X41350Y28920D02*
X43400D01*
X41350Y28960D02*
X43400D01*
X50400Y28900D02*
X50550Y28750D01*
X41350Y28880D02*
X43400D01*
X41350Y29080D02*
X43400D01*
X41350Y29120D02*
X43400D01*
X41350Y29000D02*
X43400D01*
X41350Y29040D02*
X43400D01*
X41350Y28640D02*
X43400D01*
X41350Y28680D02*
X43400D01*
X41350Y28560D02*
X43400D01*
X41350Y28600D02*
X43400D01*
X41350Y28800D02*
X43400D01*
X41350Y28840D02*
X43400D01*
X41350Y28720D02*
X43400D01*
X41350Y28760D02*
X43400D01*
X41350Y28320D02*
X43400D01*
X41350Y28360D02*
X43400D01*
X41350Y28240D02*
X43400D01*
X41350Y28280D02*
X43400D01*
X41350Y28480D02*
X43400D01*
X41350Y28520D02*
X43400D01*
X41350Y28400D02*
X43400D01*
X41350Y28440D02*
X43400D01*
X41350Y28000D02*
X43400D01*
X41350Y27960D02*
X43400D01*
X41350Y28040D02*
X43400D01*
X41350Y27880D02*
X43400D01*
X41350Y27920D02*
X43400D01*
X41350Y28160D02*
X43400D01*
X41350Y28200D02*
X43400D01*
X41350Y28080D02*
X43400D01*
X41350Y28120D02*
X43400D01*
X43400Y16196D02*
X43400Y29850D01*
X41350Y27680D02*
X43400D01*
X41350Y27600D02*
X43400D01*
X41350Y27640D02*
X43400D01*
X41350Y27800D02*
X43400D01*
X41350Y27840D02*
X43400D01*
X41350Y27720D02*
X43400D01*
X41350Y27760D02*
X43400D01*
X41350Y27360D02*
X43400D01*
X41350Y27400D02*
X43400D01*
X41350Y27280D02*
X43400D01*
X41350Y27320D02*
X43400D01*
X41350Y27520D02*
X43400D01*
X41350Y27560D02*
X43400D01*
X41350Y27440D02*
X43400D01*
X41350Y27480D02*
X43400D01*
X41350Y27040D02*
X43400D01*
X41350Y27080D02*
X43400D01*
X41350Y26960D02*
X43400D01*
X41350Y27000D02*
X43400D01*
X41350Y27200D02*
X43400D01*
X41350Y27240D02*
X43400D01*
X41350Y27120D02*
X43400D01*
X41350Y27160D02*
X43400D01*
X41350Y26080D02*
X43400D01*
X41350Y26040D02*
X43400D01*
X41350Y26120D02*
X43400D01*
X41350Y25960D02*
X43400D01*
X41350Y26000D02*
X43400D01*
X41350Y26240D02*
X43400D01*
X41350Y26280D02*
X43400D01*
X41350Y26160D02*
X43400D01*
X41350Y26200D02*
X43400D01*
X41350Y25720D02*
X43400D01*
X41350Y25760D02*
X43400D01*
X41350Y25640D02*
X43400D01*
X41350Y25680D02*
X43400D01*
X41350Y25880D02*
X43400D01*
X41350Y25920D02*
X43400D01*
X41350Y25800D02*
X43400D01*
X41350Y25840D02*
X43400D01*
X41350Y26720D02*
X43400D01*
X41350Y26760D02*
X43400D01*
X41350Y26640D02*
X43400D01*
X41350Y26680D02*
X43400D01*
X41350Y26880D02*
X43400D01*
X41350Y26920D02*
X43400D01*
X41350Y26800D02*
X43400D01*
X41350Y26840D02*
X43400D01*
X41350Y26560D02*
X43400D01*
X41350Y26600D02*
X43400D01*
X41350Y26480D02*
X43400D01*
X41350Y26520D02*
X43400D01*
X41350Y26400D02*
X43400D01*
X41350Y26440D02*
X43400D01*
X41350Y26320D02*
X43400D01*
X41350Y26360D02*
X43400D01*
X41350Y25400D02*
X43400D01*
X41350Y25360D02*
X43400D01*
X41350Y25440D02*
X43400D01*
X41350Y25280D02*
X43400D01*
X41350Y25320D02*
X43400D01*
X41350Y25560D02*
X43400D01*
X41350Y25600D02*
X43400D01*
X41350Y25480D02*
X43400D01*
X41350Y25520D02*
X43400D01*
X41350Y25040D02*
X43400D01*
X41350Y25080D02*
X43400D01*
X41350Y24960D02*
X43400D01*
X41350Y25000D02*
X43400D01*
X41350Y25200D02*
X43400D01*
X41350Y25240D02*
X43400D01*
X41350Y25120D02*
X43400D01*
X41350Y25160D02*
X43400D01*
X41350Y24720D02*
X43400D01*
X41350Y24760D02*
X43400D01*
X41350Y24640D02*
X43400D01*
X41350Y24680D02*
X43400D01*
X41350Y24920D02*
X43400D01*
X41350Y24880D02*
X43400D01*
X41350Y24800D02*
X43400D01*
X41350Y24840D02*
X43400D01*
X41350Y24400D02*
X43400D01*
X41350Y24440D02*
X43400D01*
X41350Y24120D02*
X43400D01*
X41350Y24280D02*
X43400D01*
X41350Y24560D02*
X43400D01*
X41350Y24600D02*
X43400D01*
X41350Y24480D02*
X43400D01*
X41350Y24520D02*
X43400D01*
X41350Y23240D02*
X43400D01*
X41350Y23200D02*
X43400D01*
X41350Y23280D02*
X43400D01*
X41350Y23120D02*
X43400D01*
X41350Y23160D02*
X43400D01*
X41350Y23400D02*
X43400D01*
X41350Y23440D02*
X43400D01*
X41350Y23320D02*
X43400D01*
X41350Y23360D02*
X43400D01*
X41350Y22880D02*
X43400D01*
X41350Y22920D02*
X43400D01*
X41350Y22800D02*
X43400D01*
X41350Y22840D02*
X43400D01*
X41350Y23040D02*
X43400D01*
X41350Y23080D02*
X43400D01*
X41350Y22960D02*
X43400D01*
X41350Y23000D02*
X43400D01*
X41350Y23880D02*
X43400D01*
X41350Y23920D02*
X43400D01*
X41350Y23800D02*
X43400D01*
X41350Y23840D02*
X43400D01*
X41350Y24040D02*
X43400D01*
X41350Y24080D02*
X43400D01*
X41350Y23960D02*
X43400D01*
X41350Y24000D02*
X43400D01*
X41350Y23560D02*
X43400D01*
X41350Y23600D02*
X43400D01*
X41350Y23480D02*
X43400D01*
X41350Y23520D02*
X43400D01*
X41350Y23720D02*
X43400D01*
X41350Y23760D02*
X43400D01*
X41350Y23640D02*
X43400D01*
X41350Y23680D02*
X43400D01*
X41350Y22120D02*
X43400D01*
X41350Y22080D02*
X43400D01*
X41350Y22160D02*
X43400D01*
X41350Y22000D02*
X43400D01*
X41350Y22040D02*
X43400D01*
X41350Y22280D02*
X43400D01*
X41350Y22320D02*
X43400D01*
X41350Y22200D02*
X43400D01*
X41350Y22240D02*
X43400D01*
X41350Y21760D02*
X43400D01*
X41350Y21800D02*
X43400D01*
X41350Y21680D02*
X43400D01*
X41350Y21720D02*
X43400D01*
X41350Y21920D02*
X43400D01*
X41350Y21960D02*
X43400D01*
X41350Y21840D02*
X43400D01*
X41350Y21880D02*
X43400D01*
X41350Y22760D02*
X43400D01*
X41350Y24160D02*
X43400D01*
X41350Y22680D02*
X43400D01*
X41350Y22720D02*
X43400D01*
X41350Y24320D02*
X43400D01*
X41350Y24360D02*
X43400D01*
X41350Y24200D02*
X43400D01*
X41350Y24240D02*
X43400D01*
X41350Y22440D02*
X43400D01*
X41350Y22480D02*
X43400D01*
X41350Y22360D02*
X43400D01*
X41350Y22400D02*
X43400D01*
X41350Y22600D02*
X43400D01*
X41350Y22640D02*
X43400D01*
X41350Y22520D02*
X43400D01*
X41350Y22560D02*
X43400D01*
X41350Y21440D02*
X43400D01*
X41350Y21400D02*
X43400D01*
X41350Y21480D02*
X43400D01*
X41350Y21320D02*
X43400D01*
X41350Y21360D02*
X43400D01*
X41350Y21600D02*
X43400D01*
X41350Y21640D02*
X43400D01*
X41350Y21520D02*
X43400D01*
X41350Y21560D02*
X43400D01*
X41350Y21080D02*
X43400D01*
X41350Y21120D02*
X43400D01*
X41350Y21000D02*
X43400D01*
X41350Y21040D02*
X43400D01*
X41350Y21240D02*
X43400D01*
X41350Y21280D02*
X43400D01*
X41350Y21160D02*
X43400D01*
X41350Y21200D02*
X43400D01*
X41350Y20760D02*
X43400D01*
X41350Y20800D02*
X43400D01*
X41350Y20680D02*
X43400D01*
X41350Y20720D02*
X43400D01*
X41350Y20920D02*
X43400D01*
X41350Y20960D02*
X43400D01*
X41350Y20840D02*
X43400D01*
X41350Y20880D02*
X43400D01*
X41350Y20440D02*
X43400D01*
X41350Y20480D02*
X43400D01*
X41350Y20360D02*
X43400D01*
X41350Y20400D02*
X43400D01*
X41350Y20600D02*
X43400D01*
X41350Y20640D02*
X43400D01*
X41350Y20520D02*
X43400D01*
X41350Y20560D02*
X43400D01*
X41350Y19680D02*
X43400D01*
X41350Y19640D02*
X43400D01*
X41350Y19720D02*
X43400D01*
X41350Y19560D02*
X43400D01*
X41350Y19600D02*
X43400D01*
X41350Y19480D02*
X43400D01*
X41350Y19520D02*
X43400D01*
X41350Y19400D02*
X43400D01*
X41350Y19440D02*
X43400D01*
X41350Y19160D02*
X43400D01*
X41350Y19200D02*
X43400D01*
X41350Y19080D02*
X43400D01*
X41350Y19120D02*
X43400D01*
X41350Y19320D02*
X43400D01*
X41350Y19360D02*
X43400D01*
X41350Y19240D02*
X43400D01*
X41350Y19280D02*
X43400D01*
X41350Y20120D02*
X43400D01*
X41350Y20160D02*
X43400D01*
X41350Y20040D02*
X43400D01*
X41350Y20080D02*
X43400D01*
X41350Y20280D02*
X43400D01*
X41350Y20320D02*
X43400D01*
X41350Y20200D02*
X43400D01*
X41350Y20240D02*
X43400D01*
X41350Y19960D02*
X43400D01*
X41350Y20000D02*
X43400D01*
X41350Y19880D02*
X43400D01*
X41350Y19920D02*
X43400D01*
X41350Y19840D02*
X43400D01*
X41350Y18900D02*
X41350Y30900D01*
X41350Y19760D02*
X43400D01*
X41350Y19800D02*
X43400D01*
X41330Y18880D02*
X43400D01*
X41290Y18840D02*
X43400D01*
X41250Y18800D02*
X43400D01*
X41210Y18760D02*
X43400D01*
X41170Y18720D02*
X43400D01*
X41350Y19000D02*
X43400D01*
X41350Y19040D02*
X43400D01*
X41350Y18920D02*
X43400D01*
X41350Y18960D02*
X43400D01*
X40970Y18520D02*
X43400D01*
X40930Y18480D02*
X43400D01*
X40890Y18440D02*
X43400D01*
X40850Y18400D02*
X43400D01*
X41130Y18680D02*
X43400D01*
X41090Y18640D02*
X43400D01*
X41050Y18600D02*
X43400D01*
X41010Y18560D02*
X43400D01*
X40650Y18200D02*
X43400D01*
X40610Y18160D02*
X43400D01*
X40570Y18120D02*
X43400D01*
X40530Y18080D02*
X43400D01*
X40810Y18360D02*
X43400D01*
X40770Y18320D02*
X43400D01*
X40730Y18280D02*
X43400D01*
X40690Y18240D02*
X43400D01*
X40330Y17880D02*
X43400D01*
X40290Y17840D02*
X43400D01*
X40250Y17800D02*
X43400D01*
X40210Y17760D02*
X43400D01*
X40490Y18040D02*
X43400D01*
X40450Y18000D02*
X43400D01*
X40410Y17960D02*
X43400D01*
X40370Y17920D02*
X43400D01*
X40010Y17560D02*
X43400D01*
X39970Y17520D02*
X43400D01*
X39930Y17480D02*
X43400D01*
X39890Y17440D02*
X43400D01*
X39850Y17400D02*
X43400D01*
X40170Y17720D02*
X43400D01*
X40130Y17680D02*
X43400D01*
X40090Y17640D02*
X43400D01*
X40050Y17600D02*
X43400D01*
X39650Y17200D02*
X43400D01*
X39610Y17160D02*
X43400D01*
X39570Y17120D02*
X43400D01*
X39530Y17080D02*
X43400D01*
X39810Y17360D02*
X43400D01*
X39770Y17320D02*
X43400D01*
X39730Y17280D02*
X43400D01*
X39690Y17240D02*
X43400D01*
X39330Y16880D02*
X43400D01*
X39290Y16840D02*
X43400D01*
X39250Y16800D02*
X43400D01*
X39210Y16760D02*
X43400D01*
X39490Y17040D02*
X43400D01*
X39450Y17000D02*
X43400D01*
X39410Y16960D02*
X43400D01*
X39370Y16920D02*
X43400D01*
X39108Y16560D02*
X43400D01*
X39091Y16520D02*
X43400D01*
X39073Y16480D02*
X43400D01*
X39056Y16440D02*
X43400D01*
X39179Y16720D02*
X43400D01*
X39161Y16680D02*
X43400D01*
X39144Y16640D02*
X43400D01*
X39126Y16600D02*
X43400D01*
X39038Y16400D02*
X43400D01*
X39020Y16360D02*
X43400D01*
X39003Y16320D02*
X43400D01*
X38985Y16280D02*
X43400D01*
X38968Y16240D02*
X43400D01*
X38950Y16200D02*
X43400D01*
X38932Y16160D02*
X43357D01*
X38915Y16120D02*
X43309D01*
X38897Y16080D02*
X43261D01*
X39150Y12646D02*
X43400Y16196D01*
X38880Y16040D02*
X43213D01*
X38930Y15320D02*
X42351D01*
X38890Y15360D02*
X42399D01*
X39010Y15240D02*
X42256D01*
X38970Y15280D02*
X42304D01*
X39090Y15160D02*
X42160D01*
X39050Y15200D02*
X42208D01*
X38862Y16000D02*
X43165D01*
X38844Y15960D02*
X43118D01*
X38827Y15920D02*
X43070D01*
X38809Y15880D02*
X43022D01*
X38792Y15840D02*
X42974D01*
X38774Y15800D02*
X42926D01*
X38756Y15760D02*
X42878D01*
X38739Y15720D02*
X42830D01*
X38721Y15680D02*
X42782D01*
X38704Y15640D02*
X42735D01*
X38690Y15560D02*
X42639D01*
X38686Y15600D02*
X42687D01*
X38770Y15480D02*
X42543D01*
X38730Y15520D02*
X42591D01*
X38850Y15400D02*
X42447D01*
X38810Y15440D02*
X42495D01*
X39150Y15040D02*
X42016D01*
X39150Y15000D02*
X41968D01*
X39150Y15080D02*
X42064D01*
X39150Y14920D02*
X41873D01*
X39150Y14960D02*
X41920D01*
X39186Y16736D02*
X41350Y18900D01*
X39150Y14880D02*
X41825D01*
X39150Y14800D02*
X41729D01*
X39150Y14840D02*
X41777D01*
X39150Y14720D02*
X41633D01*
X39150Y14760D02*
X41681D01*
X39150Y14640D02*
X41537D01*
X39150Y14680D02*
X41585D01*
X39150Y14560D02*
X41442D01*
X39150Y14600D02*
X41489D01*
X39150Y14160D02*
X40963D01*
X39150Y14200D02*
X41011D01*
X39150Y14520D02*
X41394D01*
X39130Y15120D02*
X42112D01*
X39150Y14440D02*
X41298D01*
X39150Y14480D02*
X41346D01*
X38675Y15575D02*
X39150Y15100D01*
X38675Y15575D02*
X39186Y16736D01*
X39150Y14360D02*
X41202D01*
X39150Y14400D02*
X41250D01*
X39150Y14280D02*
X41106D01*
X39150Y14320D02*
X41154D01*
X39150Y14120D02*
X40915D01*
X39150Y14240D02*
X41058D01*
X39150Y14080D02*
X40867D01*
X39150Y12646D02*
X39150Y15100D01*
X39150Y14000D02*
X40771D01*
X39150Y14040D02*
X40819D01*
X39150Y13920D02*
X40675D01*
X39150Y13880D02*
X40627D01*
X39150Y13960D02*
X40723D01*
X39150Y13800D02*
X40532D01*
X39150Y13840D02*
X40580D01*
X39150Y13720D02*
X40436D01*
X39150Y13760D02*
X40484D01*
X39150Y13640D02*
X40340D01*
X39150Y13680D02*
X40388D01*
X39150Y13560D02*
X40244D01*
X39150Y13600D02*
X40292D01*
X39150Y13480D02*
X40149D01*
X39150Y13520D02*
X40196D01*
X39150Y13400D02*
X40053D01*
X39150Y13440D02*
X40101D01*
X39150Y13320D02*
X39957D01*
X39150Y13360D02*
X40005D01*
X39150Y13240D02*
X39861D01*
X39150Y13280D02*
X39909D01*
X39150Y13160D02*
X39765D01*
X39150Y13200D02*
X39813D01*
X39150Y13080D02*
X39670D01*
X39150Y13120D02*
X39718D01*
X39150Y13000D02*
X39574D01*
X39150Y13040D02*
X39622D01*
X39150Y12920D02*
X39478D01*
X39150Y12960D02*
X39526D01*
X39150Y12840D02*
X39382D01*
X39150Y12880D02*
X39430D01*
X39150Y12760D02*
X39287D01*
X39150Y12800D02*
X39335D01*
X39150Y12680D02*
X39191D01*
X39150Y12720D02*
X39239D01*
X60600Y12960D02*
X61900D01*
X60600Y12920D02*
X61900D01*
X60600Y13040D02*
X61900D01*
X60600Y13000D02*
X61900D01*
X60600Y12600D02*
X61900D01*
X60600Y12560D02*
X61900D01*
X60600Y12880D02*
X61900D01*
X60600Y12760D02*
X61900D01*
X60800Y14220D02*
X61850D01*
X61900Y14170D01*
X60780Y14200D02*
X61870D01*
X60740Y14160D02*
X61900D01*
X60700Y14120D02*
X61900D01*
X60660Y14080D02*
X61900D01*
X60620Y14040D02*
X61900D01*
X60600Y13080D02*
X61900D01*
X60600Y12440D02*
X61900D01*
Y12220D02*
Y14170D01*
X60600Y12480D02*
X61900D01*
X60600Y12400D02*
X61900D01*
X60600Y12280D02*
X61900D01*
X60600Y12240D02*
X61900D01*
X60600Y12360D02*
X61900D01*
X60600Y12320D02*
X61900D01*
X60610Y12160D02*
X61840D01*
X61750Y12070D02*
X61900Y12220D01*
X60600Y12200D02*
X61880D01*
X60600Y12170D02*
X60700Y12070D01*
X60690Y12080D02*
X61760D01*
X60700Y12070D02*
X61750D01*
X60650Y12120D02*
X61800D01*
X60600Y13640D02*
X61900D01*
X60600Y13600D02*
X61900D01*
X60600Y13720D02*
X61900D01*
X60600Y13680D02*
X61900D01*
X60600Y13480D02*
X61900D01*
X60600Y13440D02*
X61900D01*
X60600Y13560D02*
X61900D01*
X60600Y13520D02*
X61900D01*
X60600Y13960D02*
X61900D01*
X60600Y13920D02*
X61900D01*
X60600Y14020D02*
X60800Y14220D01*
X60600Y14000D02*
X61900D01*
X60600Y13800D02*
X61900D01*
X60600Y13760D02*
X61900D01*
X60600Y13880D02*
X61900D01*
X60600Y13840D02*
X61900D01*
X60600Y13320D02*
X61900D01*
X60600Y13280D02*
X61900D01*
X60600Y13400D02*
X61900D01*
X60600Y13360D02*
X61900D01*
X60600Y13160D02*
X61900D01*
X60600Y13120D02*
X61900D01*
X60600Y13240D02*
X61900D01*
X60600Y13200D02*
X61900D01*
X60600Y12800D02*
X61900D01*
X60600Y12720D02*
X61900D01*
X60600Y12840D02*
X61900D01*
X60600Y14020D02*
X60600Y12170D01*
X60600Y12640D02*
X61900D01*
X60600Y12520D02*
X61900D01*
X60600Y12680D02*
X61900D01*
X78050Y7400D02*
X78400Y7050D01*
X72550Y6920D02*
X78400D01*
X72550Y6840D02*
X78400D01*
X72550Y6800D02*
X78400D01*
X72550Y6720D02*
X78400D01*
X72550Y6680D02*
X78400D01*
X72550Y6760D02*
X78400D01*
X72700Y7400D02*
X72750D01*
X78050D01*
X72640Y7360D02*
X78090D01*
X72580Y7320D02*
X78130D01*
X72550Y7280D02*
X78170D01*
X72550Y7240D02*
X78210D01*
X72550Y6640D02*
X78400D01*
Y5850D02*
Y7050D01*
X72550Y6600D02*
X78400D01*
X72550Y5960D02*
X78400D01*
X72560Y5840D02*
X78390D01*
X78200Y5650D02*
X78400Y5850D01*
X72550Y5920D02*
X78400D01*
X72600Y5800D02*
X78350D01*
X72640Y5760D02*
X78310D01*
X72550Y5850D02*
Y7300D01*
X72720Y5680D02*
X78230D01*
X72750Y5650D02*
X78200D01*
X72680Y5720D02*
X78270D01*
X72550Y6880D02*
X78400D01*
X72550Y6560D02*
X78400D01*
X72550Y7000D02*
X78400D01*
X72550Y6960D02*
X78400D01*
X72550Y6480D02*
X78400D01*
X72550Y6440D02*
X78400D01*
X72550Y6520D02*
X78400D01*
X72550Y7200D02*
X78250D01*
X72550Y7160D02*
X78290D01*
X72550Y7300D02*
X72700Y7400D01*
X72550Y7080D02*
X78370D01*
X72550Y7040D02*
X78400D01*
X72550Y7120D02*
X78330D01*
X72550Y6320D02*
X78400D01*
X72550Y6280D02*
X78400D01*
X72550Y6400D02*
X78400D01*
X72550Y6360D02*
X78400D01*
X72550Y6200D02*
X78400D01*
X72550Y6160D02*
X78400D01*
X72550Y6240D02*
X78400D01*
X72550Y6080D02*
X78400D01*
X72550Y6040D02*
X78400D01*
X72550Y6120D02*
X78400D01*
X72550Y5880D02*
X78400D01*
X72550Y5850D02*
X72750Y5650D01*
X72550Y6000D02*
X78400D01*
X90540Y8240D02*
X91463D01*
X90580Y8280D02*
X91411D01*
X90500Y8200D02*
X91515D01*
X90420Y8120D02*
X91618D01*
X90460Y8160D02*
X91566D01*
X90380Y8080D02*
X91669D01*
X81500Y8000D02*
X91773D01*
X81540Y8040D02*
X91721D01*
X81460Y7960D02*
X91824D01*
X81420Y7920D02*
X91876D01*
X81380Y7880D02*
X91927D01*
X90860Y8560D02*
X91050D01*
X90900Y8600D02*
X90998D01*
X90820Y8520D02*
X91102D01*
X90780Y8480D02*
X91153D01*
X90350Y8050D02*
X90943Y8643D01*
X90700Y8400D02*
X91256D01*
X90740Y8440D02*
X91205D01*
X90660Y8360D02*
X91308D01*
X90620Y8320D02*
X91360D01*
X81550Y8050D02*
X90350Y8050D01*
X90943Y8643D02*
X93450Y6700D01*
X81070Y5880D02*
X92630D01*
X92350Y5600D02*
X93450Y6700D01*
X81000Y6960D02*
X93115D01*
X81020Y7520D02*
X92392D01*
X81030Y5920D02*
X92670D01*
X81190Y5760D02*
X92510D01*
X81230Y5720D02*
X92470D01*
X81270Y5680D02*
X92430D01*
X81110Y5840D02*
X92590D01*
X81150Y5800D02*
X92550D01*
X81300Y7800D02*
X92031D01*
X81340Y7840D02*
X91979D01*
X81260Y7760D02*
X92082D01*
X81220Y7720D02*
X92134D01*
X81180Y7680D02*
X92185D01*
X81310Y5640D02*
X92390D01*
X81140Y7640D02*
X92237D01*
X81350Y5600D02*
X92350D01*
X81100Y7600D02*
X92289D01*
X81060Y7560D02*
X92340D01*
X81000Y6920D02*
X93166D01*
X81000Y7000D02*
X93063D01*
X81000Y6880D02*
X93218D01*
X81000Y7080D02*
X92960D01*
X81000Y7120D02*
X92908D01*
X81000Y7040D02*
X93011D01*
X81000Y6720D02*
X93424D01*
X81000Y6760D02*
X93373D01*
X81000Y6680D02*
X93430D01*
X81000Y6840D02*
X93269D01*
X81000Y6800D02*
X93321D01*
X81000Y7400D02*
X92547D01*
X81000Y7440D02*
X92495D01*
X81000Y7360D02*
X92598D01*
X81000Y7500D02*
X81550Y8050D01*
X81000Y7480D02*
X92444D01*
X81000Y7200D02*
X92805D01*
X81000Y7240D02*
X92753D01*
X81000Y7160D02*
X92856D01*
X81000Y7320D02*
X92650D01*
X81000Y7280D02*
X92702D01*
X81000Y6560D02*
X93310D01*
X81000Y6520D02*
X93270D01*
X81000Y6480D02*
X93230D01*
X81000Y6640D02*
X93390D01*
X81000Y6600D02*
X93350D01*
X81000Y6360D02*
X93110D01*
X81000Y6320D02*
X93070D01*
X81000Y6280D02*
X93030D01*
X81000Y6440D02*
X93190D01*
X81000Y6400D02*
X93150D01*
X81000Y6200D02*
X92950D01*
X81000Y6160D02*
X92910D01*
X81000Y6120D02*
X92870D01*
X81000Y6240D02*
X92990D01*
X81000Y5950D02*
Y7500D01*
Y6000D02*
X92750D01*
X81000Y5960D02*
X92710D01*
X81000Y5950D02*
X81350Y5600D01*
X81000Y6080D02*
X92830D01*
X81000Y6040D02*
X92790D01*
X30750Y51480D02*
X36850D01*
X31200Y51550D02*
X36850D01*
Y51150D02*
Y51550D01*
X30750Y51400D02*
X36850D01*
X30750Y51440D02*
X36850D01*
X30750Y51360D02*
X36850D01*
X30750Y51160D02*
X36850D01*
X30750Y51200D02*
X36850D01*
X36500Y50800D02*
X36850Y51150D01*
X30750Y51280D02*
X36850D01*
X30750Y51320D02*
X36850D01*
X30750Y51240D02*
X36850D01*
X31000Y51750D02*
X31250Y52150D01*
X31000Y51750D02*
X31200Y51550D01*
X30750Y51120D02*
X36820D01*
X30750Y51080D02*
X36780D01*
X30750Y51040D02*
X36740D01*
X30750Y51000D02*
X36700D01*
X30750Y50960D02*
X36660D01*
X30750Y50920D02*
X36620D01*
X32800Y50800D02*
X36500D01*
X30750Y50880D02*
X36580D01*
X30750Y50840D02*
X36540D01*
X30750Y50800D02*
X32800D01*
X30750Y50640D02*
X32640D01*
X30750Y50600D02*
X32600D01*
X30750Y50560D02*
X32560D01*
X30750Y50760D02*
X32760D01*
X30750Y50720D02*
X32720D01*
X30750Y50680D02*
X32680D01*
X30750Y50400D02*
X32400D01*
X30750Y50360D02*
X32360D01*
X30750Y50320D02*
X32320D01*
X30750Y50520D02*
X32520D01*
X30750Y50480D02*
X32480D01*
X30750Y50440D02*
X32440D01*
X30750Y50160D02*
X32160D01*
X30750Y50120D02*
X32120D01*
X30750Y50080D02*
X32080D01*
X30750Y50280D02*
X32280D01*
X30750Y50240D02*
X32240D01*
X30750Y50200D02*
X32200D01*
X30750Y49600D02*
X31600D01*
X30750Y49560D02*
X31560D01*
X30750Y49440D02*
X31440D01*
X30750Y50040D02*
X32040D01*
X30750Y49680D02*
X31680D01*
X30750Y49640D02*
X31640D01*
X30700Y52150D02*
X31250D01*
X30670Y52120D02*
X31231D01*
X30690Y51560D02*
X31190D01*
X30630Y52080D02*
X31206D01*
X30590Y52040D02*
X31181D01*
X30550Y52000D02*
X31156D01*
X30750Y49920D02*
X31920D01*
X30750Y49880D02*
X31880D01*
X30750Y49840D02*
X31840D01*
X30730Y51520D02*
X36850D01*
X30750Y50000D02*
X32000D01*
X30750Y49960D02*
X31960D01*
X30510Y51960D02*
X31131D01*
X30470Y51920D02*
X31106D01*
X30430Y51880D02*
X31081D01*
X30410Y51840D02*
X31056D01*
X30400Y51850D02*
X30700Y52150D01*
X30400Y51850D02*
X30750Y51500D01*
X30610Y51640D02*
X31110D01*
X30570Y51680D02*
X31070D01*
X30650Y51600D02*
X31150D01*
X30450Y51800D02*
X31031D01*
X30490Y51760D02*
X31006D01*
X30530Y51720D02*
X31030D01*
X30750Y49720D02*
X31720D01*
X30750Y49520D02*
X31520D01*
X30750Y49480D02*
X31480D01*
X30750Y49800D02*
X31800D01*
X30750Y49760D02*
X31760D01*
X30750Y48750D02*
X32800Y50800D01*
X30750Y49280D02*
X31280D01*
X30750Y49240D02*
X31240D01*
X30750Y49200D02*
X31200D01*
X30750Y49400D02*
X31400D01*
X30750Y49360D02*
X31360D01*
X30750Y49320D02*
X31320D01*
X30750Y49080D02*
X31080D01*
X30750Y49040D02*
X31040D01*
X30750Y49000D02*
X31000D01*
X30750Y49160D02*
X31160D01*
X30750Y49120D02*
X31120D01*
X30750Y48750D02*
X30750Y51500D01*
X30750Y48880D02*
X30880D01*
X30750Y48840D02*
X30840D01*
X30750Y48800D02*
X30800D01*
X30750Y48960D02*
X30960D01*
X30750Y48920D02*
X30920D01*
X27520Y50480D02*
X28750D01*
X27560Y50440D02*
X28750D01*
X27440Y50560D02*
X28750D01*
X27480Y50520D02*
X28750D01*
X27640Y50360D02*
X28750D01*
X27680Y50320D02*
X28750D01*
X27600Y50400D02*
X28750D01*
X28600Y51700D02*
X28750Y51550D01*
X27280Y50720D02*
X28750D01*
X27200Y50800D02*
X28750D01*
X27240Y50760D02*
X28750D01*
X27360Y50640D02*
X28750D01*
X27400Y50600D02*
X28750D01*
X27320Y50680D02*
X28750D01*
X27800Y50200D02*
X28750D01*
X27840Y50160D02*
X28750D01*
X27720Y50280D02*
X28750D01*
X27760Y50240D02*
X28750D01*
X27920Y50080D02*
X28750D01*
X27960Y50040D02*
X28750D01*
X27880Y50120D02*
X28750D01*
X28040Y49960D02*
X28750D01*
Y49850D02*
Y51550D01*
X28000Y50000D02*
X28750D01*
X27200Y50800D02*
X28150Y49850D01*
X28120Y49880D02*
X28750D01*
X28150Y49850D02*
X28750D01*
X28080Y49920D02*
X28750D01*
X26300Y51440D02*
X28750D01*
X26300Y51400D02*
X28750D01*
X26300Y51520D02*
X28750D01*
X26300Y51480D02*
X28750D01*
X26300Y51280D02*
X28750D01*
X26300Y51240D02*
X28750D01*
X26300Y51360D02*
X28750D01*
X26450Y51700D02*
X28600D01*
X26430Y51680D02*
X28620D01*
X26390Y51640D02*
X28660D01*
X26300Y51550D02*
X26450Y51700D01*
X26350Y51600D02*
X28700D01*
X26310Y51560D02*
X28740D01*
X26300Y51320D02*
X28750D01*
X26300Y51120D02*
X28750D01*
X26300Y51080D02*
X28750D01*
X26300Y51200D02*
X28750D01*
X26300Y51160D02*
X28750D01*
X26300Y51000D02*
X28750D01*
X26420Y50880D02*
X28750D01*
X26300Y51040D02*
X28750D01*
X26340Y50960D02*
X28750D01*
X26300Y51000D02*
X26500Y50800D01*
X26300Y51000D02*
Y51550D01*
X26460Y50840D02*
X28750D01*
X26500Y50800D02*
X27200D01*
X26380Y50920D02*
X28750D01*
X51450Y50550D02*
X53150Y48850D01*
X50950Y47080D02*
X53150D01*
X50950Y47040D02*
X53150D01*
X50950Y46960D02*
X53150D01*
X50950Y47000D02*
X53150D01*
X50950Y46880D02*
X53150D01*
X50950Y46840D02*
X53150D01*
X50950Y46920D02*
X53150D01*
X50950Y46760D02*
X53150D01*
X50950Y46800D02*
X53150D01*
X50950Y46440D02*
X53150D01*
X53150Y44577D02*
X53150Y48850D01*
X50950Y46400D02*
X53150D01*
X50950Y46320D02*
X53150D01*
X50950Y46360D02*
X53150D01*
X50950Y46680D02*
X53150D01*
X50950Y46720D02*
X53150D01*
X50950Y46480D02*
X53150D01*
X50950Y46520D02*
X53150D01*
X50570Y47480D02*
X53150D01*
X50610Y47440D02*
X53150D01*
X50530Y47520D02*
X53150D01*
X50690Y47360D02*
X53150D01*
X50650Y47400D02*
X53150D01*
X50370Y47680D02*
X53150D01*
X50410Y47640D02*
X53150D01*
X50330Y47720D02*
X53150D01*
X50490Y47560D02*
X53150D01*
X50450Y47600D02*
X53150D01*
X50930Y47120D02*
X53150D01*
X50950Y46640D02*
X53150D01*
X50890Y47160D02*
X53150D01*
X50950Y46560D02*
X53150D01*
X50950Y46600D02*
X53150D01*
X50770Y47280D02*
X53150D01*
X50730Y47320D02*
X53150D01*
X50850Y47200D02*
X53150D01*
X50810Y47240D02*
X53150D01*
X50950Y45320D02*
X53150D01*
X50950Y45280D02*
X53150D01*
X50950Y45360D02*
X53150D01*
X50950Y45200D02*
X53150D01*
X50950Y45240D02*
X53150D01*
X50950Y45520D02*
X53150D01*
X50950Y45480D02*
X53150D01*
X50950Y45560D02*
X53150D01*
X50950Y45400D02*
X53150D01*
X50950Y45440D02*
X53150D01*
X50950Y44960D02*
X53150D01*
X50950Y44920D02*
X53150D01*
X50950Y45000D02*
X53150D01*
X50950Y44840D02*
X53150D01*
X50950Y44880D02*
X53150D01*
X50950Y45120D02*
X53150D01*
X50950Y45160D02*
X53150D01*
X50950Y45040D02*
X53150D01*
X50950Y45080D02*
X53150D01*
X50950Y46080D02*
X53150D01*
X50950Y46040D02*
X53150D01*
X50950Y46120D02*
X53150D01*
X50950Y45960D02*
X53150D01*
X50950Y46000D02*
X53150D01*
X50950Y46240D02*
X53150D01*
X50950Y46280D02*
X53150D01*
X50950Y46160D02*
X53150D01*
X50950Y46200D02*
X53150D01*
X50950Y45880D02*
X53150D01*
X50950Y45840D02*
X53150D01*
X50950Y45920D02*
X53150D01*
X50950Y45760D02*
X53150D01*
X50950Y45800D02*
X53150D01*
X50950Y45680D02*
X53150D01*
X50950Y45720D02*
X53150D01*
X50950Y45600D02*
X53150D01*
X50950Y45640D02*
X53150D01*
X52700Y44300D02*
X53150Y44577D01*
X51400Y44240D02*
X52700D01*
X51400Y44200D02*
X52700D01*
X51400Y44120D02*
X52700D01*
X51400Y44160D02*
X52700D01*
X51400Y44040D02*
X52700D01*
X51400Y44000D02*
X52700D01*
X51400Y44080D02*
X52700D01*
X51400Y43920D02*
X52700D01*
X51400Y43960D02*
X52700D01*
X51400Y43680D02*
X52700D01*
X51400Y43640D02*
X52700D01*
X51400Y43720D02*
X52700D01*
X51400Y43480D02*
X52700D01*
X51400Y43520D02*
X52700D01*
X51400Y43840D02*
X52700D01*
X51400Y43880D02*
X52700D01*
X51400Y43760D02*
X52700D01*
X51400Y43800D02*
X52700D01*
X50950Y44760D02*
X53150D01*
X50950Y44720D02*
X53150D01*
X50950Y44800D02*
X53150D01*
X51050Y44600D02*
X53150D01*
X50970Y44680D02*
X53150D01*
X50950Y47100D02*
X50950Y44700D01*
X51010Y44640D02*
X53150D01*
X50300Y47750D02*
X50950Y47100D01*
X51130Y44520D02*
X53057D01*
X51090Y44560D02*
X53123D01*
X51210Y44440D02*
X52927D01*
X51250Y44400D02*
X52863D01*
X51170Y44480D02*
X52993D01*
X51330Y44320D02*
X52733D01*
X51290Y44360D02*
X52797D01*
X51370Y44280D02*
X52700D01*
X50950Y44700D02*
X51400Y44250D01*
X51400Y43560D02*
X52700D01*
X51400Y43600D02*
X52700D01*
X51400Y43200D02*
X52700D01*
X51400Y43160D02*
X52700D01*
X51400Y43240D02*
X52700D01*
X51400Y43080D02*
X52700D01*
X51400Y43120D02*
X52700D01*
X51400Y43400D02*
X52700D01*
X51400Y43360D02*
X52700D01*
X51400Y43440D02*
X52700D01*
X51400Y43280D02*
X52700D01*
X51400Y43320D02*
X52700D01*
X51400Y42840D02*
X52700D01*
X51400Y42800D02*
X52700D01*
X51400Y42880D02*
X52700D01*
X51400Y42720D02*
X52700D01*
X51400Y42760D02*
X52700D01*
X51400Y43000D02*
X52700D01*
X51400Y43040D02*
X52700D01*
X51400Y42920D02*
X52700D01*
X51400Y42960D02*
X52700D01*
X51400Y42480D02*
X52700D01*
X51400Y42440D02*
X52700D01*
X51400Y42520D02*
X52700D01*
X51400Y42360D02*
X52700D01*
X51400Y42400D02*
X52700D01*
X51400Y42640D02*
X52700D01*
X51400Y42680D02*
X52700D01*
X51400Y42560D02*
X52700D01*
X51400Y42600D02*
X52700D01*
X51400Y42120D02*
X52700D01*
X51400Y42080D02*
X52700D01*
X51400Y42160D02*
X52700D01*
X51400Y42000D02*
X52700D01*
X51400Y42040D02*
X52700D01*
X51400Y42280D02*
X52700D01*
X51400Y42320D02*
X52700D01*
X51400Y42200D02*
X52700D01*
X51400Y42240D02*
X52700D01*
X51400Y41920D02*
X52700D01*
X51400Y41880D02*
X52700D01*
X51400Y41960D02*
X52700D01*
X51400Y41800D02*
X52700D01*
X51400Y41840D02*
X52700D01*
X51400Y41760D02*
X52700D01*
X51400Y41720D02*
X52700D01*
X51400Y41700D02*
X51400Y44250D01*
X51380Y41680D02*
X52700D01*
X51340Y41640D02*
X52700D01*
X51140Y41440D02*
X52700D01*
X52700Y44300D02*
X52700Y40741D01*
X51100Y41400D02*
X52700D01*
X51909Y39950D02*
X52700Y40741D01*
X51060Y41360D02*
X52700D01*
X51300Y41600D02*
X52700D01*
X51260Y41560D02*
X52700D01*
X51220Y41520D02*
X52700D01*
X51180Y41480D02*
X52700D01*
X51020Y41320D02*
X52700D01*
X50980Y41280D02*
X52700D01*
X50940Y41240D02*
X52700D01*
X50900Y41200D02*
X52700D01*
X50860Y41160D02*
X52700D01*
X50820Y41120D02*
X52700D01*
X50800Y41100D02*
X51400Y41700D01*
X46600Y41100D02*
X50800Y41100D01*
X46580Y41080D02*
X52700D01*
X46540Y41040D02*
X52700D01*
X46500Y41000D02*
X52700D01*
X46460Y40960D02*
X52700D01*
X46420Y40920D02*
X52700D01*
X46380Y40880D02*
X52700D01*
X46340Y40840D02*
X52700D01*
X46300Y40800D02*
X52700D01*
X46260Y40760D02*
X52700D01*
X48750Y34550D02*
X49100Y34200D01*
X47750Y39950D02*
X51909D01*
X47350Y33200D02*
X49100D01*
X47390Y33160D02*
X49100D01*
X47310Y33240D02*
X49100D01*
X47470Y33080D02*
X49100D01*
X47430Y33120D02*
X49100D01*
X47150Y33400D02*
X49100D01*
X47190Y33360D02*
X49100D01*
X47110Y33440D02*
X49100D01*
X47270Y33280D02*
X49100D01*
X47230Y33320D02*
X49100D01*
X47710Y32840D02*
X49100D01*
Y32800D02*
Y34200D01*
X47670Y32880D02*
X49100D01*
X48950Y32650D02*
X49100Y32800D01*
X47750D02*
X49100D01*
X47550Y33000D02*
X49100D01*
X47510Y33040D02*
X49100D01*
X47630Y32920D02*
X49100D01*
X47590Y32960D02*
X49100D01*
X46550Y34000D02*
X49100D01*
X46590Y33960D02*
X49100D01*
X46510Y34040D02*
X49100D01*
X46670Y33880D02*
X49100D01*
X46630Y33920D02*
X49100D01*
X46390Y34160D02*
X49100D01*
X46350Y34200D02*
X49100D01*
X46470Y34080D02*
X49100D01*
X46430Y34120D02*
X49100D01*
X46950Y33600D02*
X49100D01*
X46990Y33560D02*
X49100D01*
X46910Y33640D02*
X49100D01*
X47070Y33480D02*
X49100D01*
X47030Y33520D02*
X49100D01*
X46750Y33800D02*
X49100D01*
X46710Y33840D02*
X49100D01*
X46870Y33680D02*
X49100D01*
X46830Y33720D02*
X49100D01*
X47150Y39350D02*
X47750Y39950D01*
X46250Y37760D02*
X47150D01*
X46250Y37720D02*
X47150D01*
X46250Y37640D02*
X47150D01*
X46250Y37680D02*
X47150D01*
X46250Y37560D02*
X47150D01*
X46250Y37520D02*
X47150D01*
X46250Y37600D02*
X47150D01*
X46250Y37440D02*
X47150D01*
X46250Y37480D02*
X47150D01*
X46250Y37240D02*
X47150D01*
X47150Y39350D02*
X47150Y35350D01*
X46250Y37200D02*
X47150D01*
X46250Y37120D02*
X47150D01*
X46250Y37160D02*
X47150D01*
X46250Y37360D02*
X47150D01*
X46250Y37400D02*
X47150D01*
X46250Y37280D02*
X47150D01*
X46250Y37320D02*
X47150D01*
X46250Y36840D02*
X47150D01*
X46250Y36800D02*
X47150D01*
X46250Y36880D02*
X47150D01*
X46250Y36720D02*
X47150D01*
X46250Y36760D02*
X47150D01*
X46250Y37040D02*
X47150D01*
X46250Y37000D02*
X47150D01*
X46250Y37080D02*
X47150D01*
X46250Y36920D02*
X47150D01*
X46250Y36960D02*
X47150D01*
X46250Y36480D02*
X47150D01*
X46250Y36440D02*
X47150D01*
X46250Y36520D02*
X47150D01*
X46250Y36360D02*
X47150D01*
X46250Y36400D02*
X47150D01*
X46250Y36640D02*
X47150D01*
X46250Y36680D02*
X47150D01*
X46250Y36560D02*
X47150D01*
X46250Y36600D02*
X47150D01*
X46250Y35760D02*
X47150D01*
X46250Y35720D02*
X47150D01*
X46250Y35800D02*
X47150D01*
X47150Y35350D02*
X47216Y35284D01*
X46250Y35960D02*
X47150D01*
X46250Y35920D02*
X47150D01*
X46250Y36240D02*
X47150D01*
X46250Y35840D02*
X47150D01*
X46250Y35880D02*
X47150D01*
X46310Y34240D02*
X49060D01*
X46790Y33760D02*
X49100D01*
X46270Y34280D02*
X49020D01*
X47830Y32720D02*
X49020D01*
X47790Y32760D02*
X49060D01*
X47950Y34550D02*
X48750Y34550D01*
X47284Y35216D02*
X47950Y34550D01*
X47900Y32650D02*
X48950D01*
X47870Y32680D02*
X48980D01*
X46250Y35680D02*
X47150D01*
X46250Y35640D02*
X47150D01*
X46250Y36000D02*
X47150D01*
X46250Y35560D02*
X47150D01*
X46250Y35600D02*
X47150D01*
X46250Y36280D02*
X47150D01*
X46250Y36320D02*
X47150D01*
X46250Y36040D02*
X47150D01*
X46250Y36080D02*
X47150D01*
X46250Y35320D02*
X47180D01*
X46250Y35280D02*
X47219D01*
X46250Y35360D02*
X47150D01*
X46250Y35200D02*
X47300D01*
X46250Y35240D02*
X47254D01*
X46250Y35480D02*
X47150D01*
X46250Y35520D02*
X47150D01*
X46250Y35400D02*
X47150D01*
X46250Y35440D02*
X47150D01*
X39120Y51280D02*
X45320D01*
X39160Y51240D02*
X45360D01*
X39080Y51320D02*
X45280D01*
X39240Y51160D02*
X45440D01*
X39200Y51200D02*
X45400D01*
X39006Y52280D02*
X44320D01*
X38975Y52240D02*
X44360D01*
X38960Y51440D02*
X45160D01*
X39040Y51360D02*
X45240D01*
X39000Y51400D02*
X45200D01*
X39480Y50920D02*
X45680D01*
X41339Y55261D02*
X46050Y50550D01*
X39440Y50960D02*
X45640D01*
X39560Y50840D02*
X45760D01*
X39520Y50880D02*
X45720D01*
X39320Y51080D02*
X45520D01*
X39280Y51120D02*
X45480D01*
X39400Y51000D02*
X45600D01*
X39360Y51040D02*
X45560D01*
X38787Y52000D02*
X44600D01*
X38756Y51960D02*
X44640D01*
X38724Y51920D02*
X44680D01*
X38693Y51880D02*
X44720D01*
X38662Y51840D02*
X44760D01*
X38943Y52200D02*
X44400D01*
X38912Y52160D02*
X44440D01*
X38881Y52120D02*
X44480D01*
X38850Y52080D02*
X44520D01*
X38818Y52040D02*
X44560D01*
X38800Y51600D02*
X45000D01*
X38840Y51560D02*
X45040D01*
X38760Y51640D02*
X44960D01*
X38920Y51480D02*
X45120D01*
X38880Y51520D02*
X45080D01*
X38640Y51760D02*
X44840D01*
X38630Y51800D02*
X44800D01*
X38720Y51680D02*
X44920D01*
X38680Y51720D02*
X44880D01*
X40520Y49880D02*
X52120D01*
X40560Y49840D02*
X52160D01*
X40480Y49920D02*
X52080D01*
X40640Y49760D02*
X52240D01*
X40600Y49800D02*
X52200D01*
X46050Y50550D02*
X51450D01*
X40360Y50040D02*
X51960D01*
X40320Y50080D02*
X51920D01*
X40440Y49960D02*
X52040D01*
X40400Y50000D02*
X52000D01*
X40880Y49520D02*
X52480D01*
X40920Y49480D02*
X52520D01*
X40840Y49560D02*
X52440D01*
X41000Y49400D02*
X52600D01*
X40960Y49440D02*
X52560D01*
X40720Y49680D02*
X52320D01*
X40680Y49720D02*
X52280D01*
X40800Y49600D02*
X52400D01*
X40760Y49640D02*
X52360D01*
X39800Y50600D02*
X46000D01*
X39840Y50560D02*
X46040D01*
X39760Y50640D02*
X45960D01*
X39920Y50480D02*
X51520D01*
X39880Y50520D02*
X51480D01*
X39640Y50760D02*
X45840D01*
X39600Y50800D02*
X45800D01*
X39720Y50680D02*
X45920D01*
X39680Y50720D02*
X45880D01*
X40160Y50240D02*
X51760D01*
X40200Y50200D02*
X51800D01*
X40120Y50280D02*
X51720D01*
X40280Y50120D02*
X51880D01*
X40240Y50160D02*
X51840D01*
X40000Y50400D02*
X51600D01*
X39960Y50440D02*
X51560D01*
X40080Y50320D02*
X51680D01*
X40040Y50360D02*
X51640D01*
X41166Y55040D02*
X41560D01*
X41135Y55000D02*
X41600D01*
X41103Y54960D02*
X41640D01*
X41072Y54920D02*
X41680D01*
X41041Y54880D02*
X41720D01*
X41323Y55240D02*
X41360D01*
X41291Y55200D02*
X41400D01*
X41260Y55160D02*
X41440D01*
X41229Y55120D02*
X41480D01*
X41197Y55080D02*
X41520D01*
X40884Y54680D02*
X41920D01*
X40853Y54640D02*
X41960D01*
X40822Y54600D02*
X42000D01*
X40790Y54560D02*
X42040D01*
X40759Y54520D02*
X42080D01*
X41010Y54840D02*
X41760D01*
X40978Y54800D02*
X41800D01*
X40947Y54760D02*
X41840D01*
X40916Y54720D02*
X41880D01*
X40571Y54280D02*
X42320D01*
X40540Y54240D02*
X42360D01*
X40509Y54200D02*
X42400D01*
X40477Y54160D02*
X42440D01*
X40446Y54120D02*
X42480D01*
X40728Y54480D02*
X42120D01*
X40697Y54440D02*
X42160D01*
X40665Y54400D02*
X42200D01*
X40634Y54360D02*
X42240D01*
X40603Y54320D02*
X42280D01*
X40321Y53960D02*
X42640D01*
X40290Y53920D02*
X42680D01*
X40258Y53880D02*
X42720D01*
X40227Y53840D02*
X42760D01*
X40196Y53800D02*
X42800D01*
X40415Y54080D02*
X42520D01*
X38617Y51783D02*
X41339Y55261D01*
X40383Y54040D02*
X42560D01*
X40352Y54000D02*
X42600D01*
X40008Y53560D02*
X43040D01*
X39977Y53520D02*
X43080D01*
X39945Y53480D02*
X43120D01*
X39914Y53440D02*
X43160D01*
X39883Y53400D02*
X43200D01*
X40164Y53760D02*
X42840D01*
X40133Y53720D02*
X42880D01*
X40102Y53680D02*
X42920D01*
X40070Y53640D02*
X42960D01*
X40039Y53600D02*
X43000D01*
X39726Y53200D02*
X43400D01*
X39695Y53160D02*
X43440D01*
X39663Y53120D02*
X43480D01*
X39632Y53080D02*
X43520D01*
X39601Y53040D02*
X43560D01*
X39851Y53360D02*
X43240D01*
X39820Y53320D02*
X43280D01*
X39789Y53280D02*
X43320D01*
X39757Y53240D02*
X43360D01*
X39444Y52840D02*
X43760D01*
X39413Y52800D02*
X43800D01*
X39382Y52760D02*
X43840D01*
X39350Y52720D02*
X43880D01*
X39319Y52680D02*
X43920D01*
X39570Y53000D02*
X43600D01*
X39538Y52960D02*
X43640D01*
X39507Y52920D02*
X43680D01*
X39476Y52880D02*
X43720D01*
X39163Y52480D02*
X44120D01*
X39131Y52440D02*
X44160D01*
X39100Y52400D02*
X44200D01*
X39069Y52360D02*
X44240D01*
X39037Y52320D02*
X44280D01*
X39288Y52640D02*
X43960D01*
X39257Y52600D02*
X44000D01*
X39225Y52560D02*
X44040D01*
X39194Y52520D02*
X44080D01*
X42040Y48360D02*
X53150D01*
X42080Y48320D02*
X53150D01*
X42000Y48400D02*
X53150D01*
X42160Y48240D02*
X53150D01*
X42120Y48280D02*
X53150D01*
X41840Y48560D02*
X53150D01*
X41880Y48520D02*
X53150D01*
X41800Y48600D02*
X53150D01*
X41960Y48440D02*
X53150D01*
X41920Y48480D02*
X53150D01*
X42400Y48000D02*
X53150D01*
X42440Y47960D02*
X53150D01*
X42360Y48040D02*
X53150D01*
X42520Y47880D02*
X53150D01*
X42480Y47920D02*
X53150D01*
X42240Y48160D02*
X53150D01*
X42200Y48200D02*
X53150D01*
X42320Y48080D02*
X53150D01*
X42280Y48120D02*
X53150D01*
X41280Y49120D02*
X52880D01*
X41320Y49080D02*
X52920D01*
X41240Y49160D02*
X52840D01*
X41400Y49000D02*
X53000D01*
X41360Y49040D02*
X52960D01*
X41080Y49320D02*
X52680D01*
X41120Y49280D02*
X52720D01*
X41040Y49360D02*
X52640D01*
X41200Y49200D02*
X52800D01*
X41160Y49240D02*
X52760D01*
X41640Y48760D02*
X53150D01*
X41680Y48720D02*
X53150D01*
X41600Y48800D02*
X53150D01*
X41760Y48640D02*
X53150D01*
X41720Y48680D02*
X53150D01*
X41480Y48920D02*
X53080D01*
X41440Y48960D02*
X53040D01*
X41560Y48840D02*
X53150D01*
X41520Y48880D02*
X53120D01*
X46220Y40720D02*
X52679D01*
X46180Y40680D02*
X52639D01*
X46140Y40640D02*
X52599D01*
X46100Y40600D02*
X52559D01*
X46060Y40560D02*
X52519D01*
X46250Y34760D02*
X47740D01*
X46250Y34720D02*
X47780D01*
X46020Y40520D02*
X52479D01*
X46250Y34640D02*
X47860D01*
X46250Y34680D02*
X47820D01*
X46250Y34440D02*
X48860D01*
X46250Y34400D02*
X48900D01*
X46250Y34480D02*
X48820D01*
X46250Y34320D02*
X48980D01*
X46250Y34360D02*
X48940D01*
X46250Y34560D02*
X47940D01*
X46250Y34600D02*
X47900D01*
X46250Y34300D02*
X47900Y32650D01*
X46250Y34520D02*
X48780D01*
X42600Y47800D02*
X53150D01*
X42640Y47760D02*
X53150D01*
X42560Y47840D02*
X53150D01*
X45980Y40480D02*
X52439D01*
X45940Y40440D02*
X52399D01*
X45900Y40400D02*
X52359D01*
X42650Y47750D02*
X50300D01*
X45860Y40360D02*
X52319D01*
X45820Y40320D02*
X52279D01*
X45780Y40280D02*
X52239D01*
X45740Y40240D02*
X52199D01*
X45700Y40200D02*
X52159D01*
X45660Y40160D02*
X52119D01*
X45620Y40120D02*
X52079D01*
X45580Y40080D02*
X52039D01*
X45540Y40040D02*
X51999D01*
X45500Y40000D02*
X51959D01*
X45460Y39960D02*
X51919D01*
X45420Y39920D02*
X47720D01*
X45380Y39880D02*
X47680D01*
X45340Y39840D02*
X47640D01*
X45300Y39800D02*
X47600D01*
X45260Y39760D02*
X47560D01*
X45220Y39720D02*
X47520D01*
X45180Y39680D02*
X47480D01*
X45140Y39640D02*
X47440D01*
X45100Y39600D02*
X47400D01*
X45060Y39560D02*
X47360D01*
X45020Y39520D02*
X47320D01*
X44980Y39480D02*
X47280D01*
X44950Y38880D02*
X47150D01*
X44950Y38800D02*
X47150D01*
X44950Y38840D02*
X47150D01*
X44950Y38720D02*
X47150D01*
X44950Y38760D02*
X47150D01*
X44950Y38600D02*
X47150D01*
X44950Y38680D02*
X47150D01*
X44950Y39400D02*
X47200D01*
X44950Y39360D02*
X47160D01*
X44950Y39440D02*
X47240D01*
X44950Y39200D02*
X47150D01*
X44950Y39240D02*
X47150D01*
X44950Y39450D02*
X46600Y41100D01*
X38617Y51783D02*
X42650Y47750D01*
X44950Y39280D02*
X47150D01*
X44950Y39320D02*
X47150D01*
X44950Y39000D02*
X47150D01*
X44950Y38960D02*
X47150D01*
X44950Y39040D02*
X47150D01*
X44950Y38640D02*
X47150D01*
X44950Y38920D02*
X47150D01*
X44950Y39160D02*
X47150D01*
X44950Y39450D02*
X44950Y38350D01*
X44950Y39080D02*
X47150D01*
X44950Y39120D02*
X47150D01*
X46250Y36160D02*
X47150D01*
X46250Y36120D02*
X47150D01*
X46250Y36200D02*
X47150D01*
X46250Y35120D02*
X47380D01*
X46250Y35160D02*
X47340D01*
X46049Y37920D02*
X47150D01*
X46099Y37880D02*
X47150D01*
X45999Y37960D02*
X47150D01*
X46200Y37800D02*
X47150D01*
X46150Y37840D02*
X47150D01*
X46250Y34920D02*
X47580D01*
X46250Y34880D02*
X47620D01*
X46250Y34960D02*
X47540D01*
X46250Y34800D02*
X47700D01*
X46250Y34840D02*
X47660D01*
X46250Y35080D02*
X47420D01*
X46250Y34300D02*
X46250Y37760D01*
X46250Y35000D02*
X47500D01*
X46250Y35040D02*
X47460D01*
X44950Y38360D02*
X47150D01*
X44980Y38320D02*
X47150D01*
X44950Y38400D02*
X47150D01*
X45060Y38240D02*
X47150D01*
X45020Y38280D02*
X47150D01*
X44950Y38520D02*
X47150D01*
X44950Y38560D02*
X47150D01*
X44950Y38440D02*
X47150D01*
X44950Y38480D02*
X47150D01*
X45140Y38160D02*
X47150D01*
X45797Y38120D02*
X47150D01*
X45100Y38200D02*
X47150D01*
X45948Y38000D02*
X47150D01*
X45848Y38080D02*
X47150D01*
X45151Y38149D02*
X45768Y38143D01*
X44950Y38350D02*
X45151Y38149D01*
X45898Y38040D02*
X47150D01*
X45768Y38143D02*
X46250Y37760D01*
X11200Y12000D02*
X11600Y11600D01*
X9210Y11560D02*
X11600D01*
X9250Y11600D02*
X11600D01*
X9130Y11480D02*
X11600D01*
X9170Y11520D02*
X11600D01*
X9050Y11400D02*
X11600D01*
X9090Y11440D02*
X11600D01*
X8970Y11320D02*
X11600D01*
X9010Y11360D02*
X11600D01*
X8890Y11240D02*
X11600D01*
X8930Y11280D02*
X11600D01*
X8850Y11200D02*
X11600D01*
X8610Y10960D02*
X11600D01*
X8530Y10880D02*
X11600D01*
X8570Y10920D02*
X11600D01*
X8450Y10800D02*
X11600D01*
X8490Y10840D02*
X11600D01*
X9610Y11960D02*
X11240D01*
X9650Y12000D02*
X11200D01*
X9530Y11880D02*
X11320D01*
X9570Y11920D02*
X11280D01*
X9450Y11800D02*
X11400D01*
X9490Y11840D02*
X11360D01*
X9410Y11760D02*
X11440D01*
X9100Y11450D02*
X9650Y12000D01*
X9330Y11680D02*
X11520D01*
X9370Y11720D02*
X11480D01*
X8810Y11160D02*
X11600D01*
X9290Y11640D02*
X11560D01*
X8730Y11080D02*
X11600D01*
X8770Y11120D02*
X11600D01*
X8650Y11000D02*
X11600D01*
X8690Y11040D02*
X11600D01*
X8370Y10720D02*
X11600D01*
X8330Y10680D02*
X11600D01*
X8410Y10760D02*
X11600D01*
X11600Y9850D02*
X11600Y11600D01*
X8290Y10640D02*
X11600D01*
X8210Y10560D02*
X11600D01*
X8250Y10600D02*
X11600D01*
X8130Y10480D02*
X11600D01*
X8170Y10520D02*
X11600D01*
X8050Y10400D02*
X11600D01*
X8090Y10440D02*
X11600D01*
X7970Y10320D02*
X11600D01*
X8010Y10360D02*
X11600D01*
X7890Y10240D02*
X11600D01*
X7930Y10280D02*
X11600D01*
X7810Y10160D02*
X11600D01*
X7850Y10200D02*
X11600D01*
X7730Y10080D02*
X11600D01*
X7770Y10120D02*
X11600D01*
X7700Y10050D02*
X9100Y11450D01*
X5250Y10050D02*
X7700Y10050D01*
X5200Y10000D02*
X11600D01*
X5240Y10040D02*
X11600D01*
X5120Y9920D02*
X11600D01*
X5160Y9960D02*
X11600D01*
X5160Y7240D02*
X8990D01*
X5200Y7200D02*
X8950D01*
X8950Y7200D02*
X11600Y9850D01*
X5200Y7200D02*
X8950Y7200D01*
X5080Y9880D02*
X11600D01*
X5040Y9840D02*
X11590D01*
X5080Y7320D02*
X9070D01*
X5120Y7280D02*
X9030D01*
X5000Y9800D02*
X11550D01*
X4960Y9760D02*
X11510D01*
X4950Y9720D02*
X11470D01*
X4950Y9680D02*
X11430D01*
X4950Y9640D02*
X11390D01*
X4950Y9600D02*
X11350D01*
X4950Y9560D02*
X11310D01*
X4950Y9520D02*
X11270D01*
X4950Y9480D02*
X11230D01*
X4950Y9280D02*
X11030D01*
X4950Y9240D02*
X10990D01*
X4950Y9200D02*
X10950D01*
X4950Y9160D02*
X10910D01*
X4950Y9440D02*
X11190D01*
X4950Y9400D02*
X11150D01*
X4950Y9360D02*
X11110D01*
X4950Y9320D02*
X11070D01*
X4950Y9000D02*
X10750D01*
X4950Y8960D02*
X10710D01*
X4950Y8920D02*
X10670D01*
X4950Y8880D02*
X10630D01*
X4950Y9120D02*
X10870D01*
X4950Y9750D02*
X5250Y10050D01*
X4950Y9080D02*
X10830D01*
X4950Y9040D02*
X10790D01*
X4950Y8680D02*
X10430D01*
X4950Y8640D02*
X10390D01*
X4950Y8600D02*
X10350D01*
X4950Y8560D02*
X10310D01*
X4950Y8840D02*
X10590D01*
X4950Y8800D02*
X10550D01*
X4950Y8760D02*
X10510D01*
X4950Y8720D02*
X10470D01*
X4950Y8360D02*
X10110D01*
X4950Y8320D02*
X10070D01*
X4950Y8280D02*
X10030D01*
X4950Y8240D02*
X9990D01*
X4950Y8520D02*
X10270D01*
X4950Y8480D02*
X10230D01*
X4950Y8440D02*
X10190D01*
X4950Y8400D02*
X10150D01*
X4950Y8040D02*
X9790D01*
X4950Y8000D02*
X9750D01*
X4950Y7960D02*
X9710D01*
X4950Y7920D02*
X9670D01*
X4950Y8200D02*
X9950D01*
X4950Y8160D02*
X9910D01*
X4950Y8120D02*
X9870D01*
X4950Y8080D02*
X9830D01*
X4950Y7760D02*
X9510D01*
X4950Y7720D02*
X9470D01*
X4950Y7680D02*
X9430D01*
X4950Y7640D02*
X9390D01*
X4950Y7880D02*
X9630D01*
X4950Y7840D02*
X9590D01*
X4950Y7800D02*
X9550D01*
X4950Y7450D02*
Y9750D01*
X4960Y7440D02*
X9190D01*
X5000Y7400D02*
X9150D01*
X5040Y7360D02*
X9110D01*
X4950Y7450D02*
X5200Y7200D01*
X4950Y7600D02*
X9350D01*
X4950Y7560D02*
X9310D01*
X4950Y7520D02*
X9270D01*
X4950Y7480D02*
X9230D01*
X8860Y32240D02*
X9960D01*
X8820Y32280D02*
X9960D01*
X8900Y32200D02*
X9960D01*
X8740Y32360D02*
X9960D01*
X8700Y32400D02*
X9960D01*
X8780Y32320D02*
X9960D01*
X8910Y32040D02*
X9960D01*
X8910Y32080D02*
X9960D01*
X8910Y32000D02*
X9960D01*
X8910Y32160D02*
X9960D01*
X8910Y32120D02*
X9960D01*
X8340Y32760D02*
X9960D01*
X8300Y32800D02*
X9960D01*
X8380Y32720D02*
X9960D01*
X8660Y35040D02*
X9960Y33740D01*
X8260Y32840D02*
X9960D01*
X8540Y32560D02*
X9960D01*
X8500Y32600D02*
X9960D01*
X8660Y32440D02*
X9960D01*
X8420Y32680D02*
X9960D01*
X8460Y32640D02*
X9960D01*
X8910Y30120D02*
X9960D01*
X8910Y30160D02*
X9960D01*
X8910Y30080D02*
X9960D01*
X8910Y30240D02*
X9960D01*
X8910Y30280D02*
X9960D01*
X8910Y30200D02*
X9960D01*
X8910Y29920D02*
X9960D01*
X8910Y29960D02*
X9960D01*
X8910Y29880D02*
X9960D01*
X8910Y30040D02*
X9960D01*
X8910Y30000D02*
X9960D01*
X8910Y31840D02*
X9960D01*
X8910Y31880D02*
X9960D01*
X8910Y31800D02*
X9960D01*
X8910Y31960D02*
X9960D01*
X8910Y31920D02*
X9960D01*
X8910Y30360D02*
X9960D01*
X8910Y31680D02*
X9960D01*
X8910Y30320D02*
X9960D01*
X8910Y31760D02*
X9960D01*
X8910Y31720D02*
X9960D01*
X8910Y31480D02*
X9960D01*
X8910Y31520D02*
X9960D01*
X8910Y31440D02*
X9960D01*
X8910Y31600D02*
X9960D01*
X8910Y31640D02*
X9960D01*
X8910Y31560D02*
X9960D01*
X8910Y31280D02*
X9960D01*
X8910Y31320D02*
X9960D01*
X8910Y31240D02*
X9960D01*
X8910Y31400D02*
X9960D01*
X8910Y31360D02*
X9960D01*
X6710Y39440D02*
X8360D01*
X6670Y39400D02*
X8400D01*
X6630Y39360D02*
X8440D01*
X6760Y39490D02*
X8310Y39490D01*
X6750Y39480D02*
X8320D01*
X8580Y32520D02*
X9960D01*
X8260Y32840D02*
X8910Y32190D01*
X8620Y32480D02*
X9960D01*
X8310Y39490D02*
X8660Y39140D01*
X8660Y35040D02*
X8660Y39140D01*
X8910Y30640D02*
X9960D01*
X8910Y30680D02*
X9960D01*
X8910Y30600D02*
X9960D01*
X8910Y30760D02*
X9960D01*
X8910Y30800D02*
X9960D01*
X8910Y30720D02*
X9960D01*
X8910Y30440D02*
X9960D01*
X8910Y30480D02*
X9960D01*
X8910Y30400D02*
X9960D01*
X8910Y30560D02*
X9960D01*
X8910Y30520D02*
X9960D01*
X8910Y31080D02*
X9960D01*
X8910Y31120D02*
X9960D01*
X8910Y31040D02*
X9960D01*
X8910Y31200D02*
X9960D01*
X8910Y31160D02*
X9960D01*
X8910Y30880D02*
X9960D01*
X8910Y30920D02*
X9960D01*
X8910Y30840D02*
X9960D01*
X8910Y31000D02*
X9960D01*
X8910Y30960D02*
X9960D01*
X8910Y29720D02*
X9960D01*
X8900Y29680D02*
X9960D01*
X8860Y29640D02*
X9960D01*
X8910Y29800D02*
X9960D01*
X8910Y29840D02*
X9960D01*
X8910Y29760D02*
X9960D01*
X8740Y29520D02*
X9960D01*
X8700Y29480D02*
X9960D01*
X8660Y29440D02*
X9960D01*
X8820Y29600D02*
X9960D01*
X8780Y29560D02*
X9960D01*
X8540Y29320D02*
X9960D01*
X8500Y29280D02*
X9960D01*
X8460Y29240D02*
X9960D01*
X8620Y29400D02*
X9960D01*
X8580Y29360D02*
X9960D01*
X7140Y29120D02*
X9960D01*
X7100Y29080D02*
X9960D01*
X7060Y29040D02*
X9960D01*
X8420Y29200D02*
X9960D01*
X8380Y29160D02*
X9960D01*
X6910Y28840D02*
X9960D01*
X6910Y28880D02*
X9960D01*
X6910Y28800D02*
X9960D01*
X7020Y29000D02*
X9960D01*
X6980Y28960D02*
X9960D01*
X6940Y28920D02*
X9960D01*
X6910Y27400D02*
X9960D01*
X6910Y28680D02*
X9960D01*
X6910Y27360D02*
X9960D01*
X6910Y28760D02*
X9960D01*
X6910Y28720D02*
X9960D01*
X6910Y28520D02*
X9960D01*
X6910Y28560D02*
X9960D01*
X6910Y28480D02*
X9960D01*
X6910Y28640D02*
X9960D01*
X6910Y28600D02*
X9960D01*
X6910Y28320D02*
X9960D01*
X6910Y28360D02*
X9960D01*
X6910Y28280D02*
X9960D01*
X6910Y28440D02*
X9960D01*
X6910Y28400D02*
X9960D01*
X6910Y28000D02*
X9960D01*
X6910Y28040D02*
X9960D01*
X6910Y27960D02*
X9960D01*
X8910Y29690D02*
Y32190D01*
X8360Y29140D02*
X8910Y29690D01*
X7160Y29140D02*
X8360Y29140D01*
X9960Y33740D02*
X9960Y26990D01*
X6910Y27720D02*
X9960D01*
X6910Y27680D02*
X9960D01*
X6910Y27800D02*
X9960D01*
X6910Y27760D02*
X9960D01*
X6910Y28160D02*
X9960D01*
X6910Y28200D02*
X9960D01*
X6910Y28120D02*
X9960D01*
X6910Y28890D02*
X7160Y29140D01*
X6910Y28240D02*
X9960D01*
X6910Y27920D02*
X9960D01*
X6910Y28080D02*
X9960D01*
X6910Y27880D02*
X9960D01*
X6910Y28890D02*
X6910Y27240D01*
Y27840D02*
X9960D01*
X7070Y27080D02*
X9960D01*
X7030Y27120D02*
X9960D01*
X7110Y27040D02*
X9960D01*
X6950Y27200D02*
X9960D01*
X6990Y27160D02*
X9960D01*
X9860Y26890D02*
X9960Y26990D01*
X7150Y27000D02*
X9960D01*
X7190Y26960D02*
X9930D01*
X7230Y26920D02*
X9890D01*
X7260Y26890D02*
X9860D01*
X6910Y27520D02*
X9960D01*
X6910Y27560D02*
X9960D01*
X6910Y27480D02*
X9960D01*
X6910Y27640D02*
X9960D01*
X6910Y27600D02*
X9960D01*
X6910Y27320D02*
X9960D01*
X6910Y27440D02*
X9960D01*
X6910Y27280D02*
X9960D01*
X6910Y27240D02*
X9960D01*
X6910Y27240D02*
X7260Y26890D01*
X6410Y38560D02*
X8660D01*
X6410Y38600D02*
X8660D01*
X6410Y38520D02*
X8660D01*
X6410Y38680D02*
X8660D01*
X6410Y38720D02*
X8660D01*
X6410Y38640D02*
X8660D01*
X6410Y38360D02*
X8660D01*
X6410Y38400D02*
X8660D01*
X6410Y38320D02*
X8660D01*
X6410Y38480D02*
X8660D01*
X6410Y38440D02*
X8660D01*
X6410Y39000D02*
X8660D01*
X6410Y39040D02*
X8660D01*
X6410Y38960D02*
X8660D01*
X6410Y39120D02*
X8660D01*
X6410Y39080D02*
X8660D01*
X6410Y38800D02*
X8660D01*
X6410Y38840D02*
X8660D01*
X6410Y38760D02*
X8660D01*
X6410Y38920D02*
X8660D01*
X6410Y38880D02*
X8660D01*
X6410Y38240D02*
X8660D01*
X6410Y38280D02*
X8660D01*
X6410Y38200D02*
X8660D01*
X6410Y38120D02*
X8660D01*
X6410Y38160D02*
X8660D01*
X6410Y38080D02*
X8660D01*
X6410Y37920D02*
X8660D01*
X6410Y37960D02*
X8660D01*
X6410Y37880D02*
X8660D01*
X6410Y38040D02*
X8660D01*
X6410Y38000D02*
X8660D01*
X6410Y37720D02*
X8660D01*
X6410Y37760D02*
X8660D01*
X6410Y37680D02*
X8660D01*
X6410Y37840D02*
X8660D01*
X6410Y37800D02*
X8660D01*
X6410Y36560D02*
X8660D01*
X6410Y36600D02*
X8660D01*
X6410Y36480D02*
X8660D01*
X6410Y37640D02*
X8660D01*
X6410Y37600D02*
X8660D01*
X6510Y39240D02*
X8560D01*
X6470Y39200D02*
X8600D01*
X6430Y39160D02*
X8640D01*
X6590Y39320D02*
X8480D01*
X6410Y39140D02*
X6760Y39490D01*
X6550Y39280D02*
X8520D01*
X6410Y37440D02*
X8660D01*
X6410Y37480D02*
X8660D01*
X6410Y37400D02*
X8660D01*
X6410Y37560D02*
X8660D01*
X6410Y37520D02*
X8660D01*
X6410Y37240D02*
X8660D01*
X6410Y37280D02*
X8660D01*
X6410Y37200D02*
X8660D01*
X6410Y37360D02*
X8660D01*
X6410Y37320D02*
X8660D01*
X6410Y37040D02*
X8660D01*
X6410Y37080D02*
X8660D01*
X6410Y37000D02*
X8660D01*
X6410Y37160D02*
X8660D01*
X6410Y37120D02*
X8660D01*
X6410Y36280D02*
X8660D01*
X6410Y36320D02*
X8660D01*
X6410Y36240D02*
X8660D01*
X6410Y36400D02*
X8660D01*
X6410Y36440D02*
X8660D01*
X6410Y36360D02*
X8660D01*
X6410Y36160D02*
X8660D01*
X6410Y36200D02*
X8660D01*
X6410Y36120D02*
X8660D01*
X6410Y36080D02*
X8660D01*
X6410Y36040D02*
X8660D01*
X6410Y36840D02*
X8660D01*
X6410Y36880D02*
X8660D01*
X6410Y36800D02*
X8660D01*
X6410Y36960D02*
X8660D01*
X6410Y36920D02*
X8660D01*
X6410Y36640D02*
X8660D01*
X6410Y36680D02*
X8660D01*
X6410Y36520D02*
X8660D01*
X6410Y36760D02*
X8660D01*
X6410Y36720D02*
X8660D01*
X6410Y33960D02*
X9740D01*
X6410Y34000D02*
X9700D01*
X6410Y33920D02*
X9780D01*
X6410Y34080D02*
X9620D01*
X6410Y34120D02*
X9580D01*
X6410Y34040D02*
X9660D01*
X6410Y33760D02*
X9940D01*
X6410Y33800D02*
X9900D01*
X6410Y33720D02*
X9960D01*
X6410Y33880D02*
X9820D01*
X6410Y33840D02*
X9860D01*
X6410Y34400D02*
X9300D01*
X6410Y34440D02*
X9260D01*
X6410Y34360D02*
X9340D01*
X6410Y34520D02*
X9180D01*
X6410Y34480D02*
X9220D01*
X6410Y34200D02*
X9500D01*
X6410Y34240D02*
X9460D01*
X6410Y34160D02*
X9540D01*
X6410Y34320D02*
X9380D01*
X6410Y34280D02*
X9420D01*
X6410Y33120D02*
X9960D01*
X6410Y33160D02*
X9960D01*
X6410Y33080D02*
X9960D01*
X6410Y33240D02*
X9960D01*
X6410Y33280D02*
X9960D01*
X6410Y33200D02*
X9960D01*
X6530Y32920D02*
X9960D01*
X6490Y32960D02*
X9960D01*
X6570Y32880D02*
X9960D01*
X6410Y33040D02*
X9960D01*
X6450Y33000D02*
X9960D01*
X6410Y33560D02*
X9960D01*
X6410Y33600D02*
X9960D01*
X6410Y33520D02*
X9960D01*
X6410Y33680D02*
X9960D01*
X6410Y33640D02*
X9960D01*
X6410Y33360D02*
X9960D01*
X6410Y33400D02*
X9960D01*
X6410Y33320D02*
X9960D01*
X6410Y33480D02*
X9960D01*
X6410Y33440D02*
X9960D01*
X6410Y35480D02*
X8660D01*
X6410Y35520D02*
X8660D01*
X6410Y35440D02*
X8660D01*
X6410Y35600D02*
X8660D01*
X6410Y35640D02*
X8660D01*
X6410Y35560D02*
X8660D01*
X6410Y35280D02*
X8660D01*
X6410Y35320D02*
X8660D01*
X6410Y35240D02*
X8660D01*
X6410Y35400D02*
X8660D01*
X6410Y35360D02*
X8660D01*
X6410Y35880D02*
X8660D01*
X6410Y35920D02*
X8660D01*
X6410Y35840D02*
X8660D01*
X6410Y36000D02*
X8660D01*
X6410Y35960D02*
X8660D01*
X6410Y35760D02*
X8660D01*
X6410Y35800D02*
X8660D01*
X6410Y35720D02*
X8660D01*
X6410Y33040D02*
X6410Y39140D01*
X6410Y35680D02*
X8660D01*
X6410Y35040D02*
X8660D01*
X6410Y35080D02*
X8660D01*
X6410Y35000D02*
X8700D01*
X6410Y35200D02*
X8660D01*
X6410Y35160D02*
X8660D01*
X6410Y34920D02*
X8780D01*
X6410Y34960D02*
X8740D01*
X6410Y34880D02*
X8820D01*
X6610Y32840D02*
X8260D01*
X6610D02*
X8260D01*
X6410Y34760D02*
X8940D01*
X6410Y34800D02*
X8900D01*
X6410Y34720D02*
X8980D01*
X6410Y35120D02*
X8660D01*
X6410Y34840D02*
X8860D01*
X6410Y34600D02*
X9100D01*
X6410Y34640D02*
X9060D01*
X6410Y34560D02*
X9140D01*
X6410Y34680D02*
X9020D01*
X6410Y33040D02*
X6610Y32840D01*
X7800Y32010D02*
X8050Y31760D01*
X3960Y31920D02*
X7890D01*
X8050Y30810D02*
Y31760D01*
X3920Y31880D02*
X7930D01*
X3900Y30920D02*
X8050D01*
X3900Y30880D02*
X8050D01*
X7850Y30610D02*
X8050Y30810D01*
X3900Y30840D02*
X8050D01*
X3900Y30680D02*
X7920D01*
X4050Y32010D02*
X7800D01*
X4040Y32000D02*
X7810D01*
X4000Y31960D02*
X7850D01*
X3900Y30640D02*
X7880D01*
X6700Y30610D02*
X7850Y30610D01*
X3900Y30600D02*
X6690D01*
X3900Y30560D02*
X6650D01*
X3900Y30520D02*
X6610D01*
X3900Y30440D02*
X6530D01*
X3900Y30320D02*
X6410D01*
X6200Y30110D02*
X6700Y30610D01*
X3900Y30280D02*
X6370D01*
X3900Y30240D02*
X6330D01*
X3900Y30120D02*
X6210D01*
X5850Y29760D02*
X6200Y30110D01*
X3900Y30200D02*
X6290D01*
X3900Y30160D02*
X6250D01*
X3950Y29960D02*
X6050D01*
X3990Y29920D02*
X6010D01*
X3900Y30040D02*
X6130D01*
X3910Y30000D02*
X6090D01*
X4110Y29800D02*
X5890D01*
X4150Y29760D02*
X5850D01*
X4030Y29880D02*
X5970D01*
X4070Y29840D02*
X5930D01*
X3900Y31440D02*
X8050D01*
X3900Y31480D02*
X8050D01*
X3900Y31400D02*
X8050D01*
X3900Y31560D02*
X8050D01*
X3900Y31520D02*
X8050D01*
X3900Y31280D02*
X8050D01*
X3900Y31240D02*
X8050D01*
X3900Y31360D02*
X8050D01*
X3900Y31320D02*
X8050D01*
X3900Y31800D02*
X8010D01*
X3900Y31760D02*
X8050D01*
X3900Y31860D02*
X4050Y32010D01*
X3900Y31840D02*
X7970D01*
X3900Y31640D02*
X8050D01*
X3900Y31600D02*
X8050D01*
X3900Y31720D02*
X8050D01*
X3900Y31680D02*
X8050D01*
X3900Y31120D02*
X8050D01*
X3900Y31080D02*
X8050D01*
X3900Y31200D02*
X8050D01*
X3900Y31160D02*
X8050D01*
X3900Y30960D02*
X8050D01*
X3900Y30800D02*
X8040D01*
X3900Y31040D02*
X8050D01*
X3900Y31000D02*
X8050D01*
X3900Y30720D02*
X7960D01*
X3900Y30480D02*
X6570D01*
X3900Y30760D02*
X8000D01*
X3900Y31860D02*
X3900Y30010D01*
Y30080D02*
X6170D01*
X3900Y30010D02*
X4150Y29760D01*
X3900Y30400D02*
X6490D01*
X3900Y30360D02*
X6450D01*
D43*
X74100Y18100D02*
Y19150D01*
X73550Y17550D02*
X74100Y18100D01*
X73679Y19571D02*
X74100Y19150D01*
X72194Y19571D02*
X73679D01*
X72194Y18606D02*
X72200Y18600D01*
Y18100D02*
Y18600D01*
X71818Y21146D02*
X72614D01*
X73028Y21560D02*
X74106D01*
X72614Y21146D02*
X73028Y21560D01*
X70541Y21146D02*
X71818D01*
X72194Y20770D01*
Y19571D02*
Y20770D01*
X69950Y22050D02*
X70100Y21900D01*
Y21587D02*
Y21900D01*
Y21587D02*
X70541Y21146D01*
X70406Y18500D02*
X70450Y18456D01*
Y18000D02*
Y18456D01*
X67350Y17982D02*
X68039D01*
X66589Y17693D02*
X67061D01*
X66473Y17577D02*
X66589Y17693D01*
X67061D02*
X67350Y17982D01*
X66354Y17577D02*
X66473D01*
X68039Y17982D02*
X68591Y17430D01*
Y17322D02*
Y17430D01*
X66485Y16614D02*
X67096D01*
X67803Y17322D01*
X66483Y16613D02*
X66485Y16614D01*
X66449Y16637D02*
X66473Y16613D01*
X68197Y16239D02*
X68258Y16300D01*
X69765D02*
X69850Y16385D01*
X68258Y16300D02*
X69765D01*
X65750Y19150D02*
X65777D01*
X65945Y18650D02*
X66441D01*
X66458Y18667D01*
X65769Y18826D02*
Y19131D01*
X65750Y19150D02*
X65769Y19131D01*
Y18826D02*
X65945Y18650D01*
X66342Y18782D02*
X66458Y18667D01*
X64278Y19150D02*
X65750D01*
X65533Y16637D02*
X66449D01*
X64904Y18121D02*
X65455Y17571D01*
X66348D01*
X66354Y17577D01*
X65404Y16767D02*
X65533Y16637D01*
X65310Y16767D02*
X65404D01*
X65244Y16833D02*
Y16863D01*
Y16833D02*
X65310Y16767D01*
X79965Y19050D02*
X80050Y19135D01*
X79400Y19050D02*
X79965D01*
X79956Y20194D02*
X80050Y20100D01*
X79256Y20194D02*
X79956D01*
X79216Y20233D02*
X79256Y20194D01*
X80891Y19266D02*
X81034D01*
X80176Y19981D02*
X80891Y19266D01*
X81034D02*
X81150Y19150D01*
X82250Y14606D02*
X82550D01*
X82220Y14506D02*
X82250Y14535D01*
X80408Y14448D02*
X80466Y14506D01*
X82220D01*
X81520Y16220D02*
X82240Y15500D01*
X78410D02*
X79130Y16220D01*
X81520D01*
X82240Y15500D02*
X82250D01*
X78400D02*
X78410D01*
X67250Y13768D02*
X69800D01*
X70250Y12817D02*
X70260Y12806D01*
X70127Y12929D02*
Y13450D01*
X69810Y13768D02*
X70127Y13450D01*
X69800Y13768D02*
X69810D01*
X68544Y11091D02*
Y11971D01*
X69406Y12833D01*
X68544Y11091D02*
X68651D01*
X69791D01*
X67250Y11082D02*
X68525D01*
X68525Y11082D01*
X69744Y11139D02*
X69800Y11082D01*
X69406Y12833D02*
Y12863D01*
X70127Y12929D02*
X70194Y12863D01*
X70805Y11997D02*
X71900Y13092D01*
X70600Y11978D02*
X70619Y11997D01*
X71900Y13092D02*
Y13122D01*
X70619Y11997D02*
X70805D01*
X69800Y11937D02*
X69822Y11959D01*
X70581D01*
X70600Y11978D01*
X72527Y11374D02*
Y13784D01*
X72476Y11322D02*
X72527Y11374D01*
X72476Y11198D02*
Y11322D01*
X72360Y11082D02*
X72476Y11198D01*
X72350Y11082D02*
X72360D01*
X72294Y14047D02*
X72360Y13981D01*
Y13951D02*
Y13981D01*
Y13951D02*
X72527Y13784D01*
X74106Y21559D02*
X74894D01*
X74119Y23131D02*
X74544Y22705D01*
X74119Y23131D02*
Y23970D01*
X74544Y22686D02*
Y22705D01*
X74100Y23989D02*
Y24085D01*
Y23989D02*
X74119Y23970D01*
X76041Y22925D02*
Y24065D01*
Y22925D02*
X76173Y22794D01*
Y22686D02*
Y22794D01*
X75187Y24132D02*
Y24521D01*
X74100Y25050D02*
X74659D01*
X75187Y24521D01*
Y24132D02*
X75254Y24065D01*
X76219Y25148D02*
X77165Y24201D01*
X75647Y25148D02*
X76219D01*
X77277Y24201D02*
X77400Y24078D01*
X77165Y24201D02*
X77277D01*
X75250Y26450D02*
X75264Y26436D01*
X75718D01*
X76989Y25166D01*
X77284D02*
X77400Y25050D01*
X76989Y25166D02*
X77284D01*
X77400Y24078D02*
X78183D01*
X56705Y39294D02*
X56726D01*
X57489Y40057D01*
Y40650D01*
X58150Y41311D01*
X54150Y37539D02*
X54950D01*
X56705Y39294D01*
X58150Y41311D02*
Y41945D01*
X57192Y42687D02*
X57300D01*
X57125Y42754D02*
X57192Y42687D01*
X57325Y42646D02*
Y43686D01*
X57350Y43711D01*
X57300Y42621D02*
X57325Y42646D01*
X56130Y43711D02*
X57350D01*
X54343Y42640D02*
X55413Y43709D01*
X56132D01*
X54222Y42640D02*
X54343D01*
X77550Y26600D02*
X78500Y25650D01*
Y25050D02*
Y25650D01*
X60982Y35509D02*
X61400Y35926D01*
X60982Y34190D02*
X61290Y33882D01*
X60982Y34190D02*
Y35509D01*
X61290Y33882D02*
X61300D01*
X61400Y35926D02*
Y36016D01*
X63218Y51313D02*
X63466Y51066D01*
Y50125D02*
Y51066D01*
X63100Y49760D02*
X63466Y50125D01*
X62649Y51313D02*
X63218D01*
X63100Y32202D02*
Y49760D01*
X92759Y43591D02*
X93809D01*
X94400Y43000D01*
X62630Y51332D02*
X62649Y51313D01*
X63100Y32202D02*
X63952Y31350D01*
X61800Y50550D02*
X62538Y49812D01*
Y31964D02*
Y49812D01*
X61800Y50550D02*
Y51400D01*
X64390Y16796D02*
X64456Y16863D01*
X63450Y16300D02*
X63533D01*
X64390Y16767D02*
Y16796D01*
X63576Y16342D02*
X63966D01*
X64390Y16767D01*
X63533Y16300D02*
X63576Y16342D01*
X63450Y16300D02*
Y16863D01*
Y17368D01*
Y15235D02*
X64278D01*
X63450Y14489D02*
Y15235D01*
X62885D02*
X63450D01*
X78500Y25050D02*
X79600D01*
X79600Y25050D01*
X78200Y23269D02*
Y24085D01*
X78500D02*
X79600D01*
X78200D02*
X78500D01*
X78500Y24085D02*
X78500Y24085D01*
X79600D02*
X79600Y24085D01*
X76671Y21740D02*
X78200Y23269D01*
Y24085D02*
X78200Y24085D01*
X76671Y21740D02*
X76671D01*
X76604Y21673D02*
X76671Y21740D01*
X80050Y19135D02*
X80060Y19126D01*
X75777Y21525D02*
X75817Y21565D01*
X74544Y22686D02*
X76173D01*
X76604Y21565D02*
Y21673D01*
X81150Y19150D02*
X82333D01*
X73020Y25056D02*
X73030D01*
X70695Y27677D02*
X71070D01*
X70550Y27822D02*
X70695Y27677D01*
X73178Y24178D02*
X73934Y24934D01*
X73984D01*
X74100Y25050D01*
X61500Y13850D02*
X62885Y15235D01*
X63450Y14489D02*
X63453D01*
X86500Y34884D02*
X87327D01*
X87590Y35147D01*
X87600D01*
X62569Y29816D02*
X62588Y29797D01*
X62569Y29816D02*
Y30431D01*
X61656Y30659D02*
X62341D01*
X62569Y30431D01*
X60883Y28700D02*
X62119Y27465D01*
X59145Y29277D02*
X59722Y28700D01*
X60883D01*
X59145Y29277D02*
Y30718D01*
X62119Y18252D02*
Y27465D01*
Y18252D02*
X62937Y17433D01*
X60869Y30659D02*
X61656D01*
X59126Y30809D02*
X59145Y30790D01*
Y30719D02*
Y30790D01*
Y30719D02*
X59145Y30718D01*
X104607Y12200D02*
X104700D01*
X104057Y12750D02*
X104607Y12200D01*
X100350Y12750D02*
X104057D01*
X99300Y13800D02*
X100350Y12750D01*
X86527Y15150D02*
X86622Y15245D01*
X98513D02*
X99300Y14458D01*
X86622Y15245D02*
X98513D01*
X86500Y15150D02*
X86527D01*
X86157Y15807D02*
X98799D01*
X99899Y13954D02*
Y14707D01*
X98799Y15807D02*
X99899Y14707D01*
X99300Y13800D02*
Y14458D01*
X84900Y14550D02*
X86157Y15807D01*
X99899Y13954D02*
X100516Y13337D01*
X104287D01*
X106250Y15300D01*
X77100Y15500D02*
X77102Y15502D01*
X78398D02*
X78400Y15500D01*
X77102Y15502D02*
X78398D01*
X77050Y15550D02*
X77100Y15500D01*
X74950Y15550D02*
X77050D01*
X82250Y15500D02*
X82300Y15550D01*
X83150D01*
X69794Y11944D02*
X69800Y11937D01*
X105050Y28814D02*
X106250Y27614D01*
Y15300D02*
Y27614D01*
X69529Y20043D02*
Y20612D01*
X64772Y18121D02*
X64904D01*
X64278Y15235D02*
X64850Y15808D01*
Y15837D01*
X63450Y19366D02*
X64263Y20179D01*
X64682D01*
X65896Y21393D02*
Y23185D01*
X64682Y20179D02*
X65896Y21393D01*
X63460Y18332D02*
X64278Y19150D01*
X69945Y26573D02*
X69947Y26571D01*
Y25053D02*
Y26571D01*
Y25053D02*
X69950Y25050D01*
X65006Y23888D02*
Y26600D01*
X63450Y22332D02*
X65006Y23888D01*
X61362Y33820D02*
X61815D01*
X61991Y33644D01*
X61263Y33919D02*
X61362Y33820D01*
X61991Y31827D02*
Y33644D01*
X62538Y31964D02*
X63750Y30752D01*
X70991Y31350D02*
X71383Y30957D01*
X63952Y31350D02*
X70991D01*
X63750Y29750D02*
Y30752D01*
X63116Y24846D02*
Y30702D01*
X61991Y31827D02*
X63116Y30702D01*
X64060Y29440D02*
X65500D01*
X63750Y29750D02*
X64060Y29440D01*
X63116Y24846D02*
X63393Y24570D01*
Y24357D02*
X63450Y24300D01*
X63393Y24357D02*
Y24570D01*
X61800Y51400D02*
X62200Y51800D01*
X63704D01*
X64240Y51264D02*
X64250D01*
X63704Y51800D02*
X64240Y51264D01*
X68378Y25072D02*
X68450Y25000D01*
X61386Y37998D02*
X61400Y37984D01*
X58927Y37998D02*
X61386D01*
X58914Y38011D02*
X58927Y37998D01*
X60441Y30659D02*
X60869D01*
X60100Y31000D02*
X60441Y30659D01*
X60100Y31000D02*
Y34069D01*
X58914Y35256D02*
X60100Y34069D01*
X66950Y29100D02*
Y29550D01*
X70900Y24085D02*
X70900Y24085D01*
Y23032D02*
Y24085D01*
Y23032D02*
X70900Y23032D01*
X69950Y24050D02*
X69968Y24068D01*
X70882D01*
X70900Y24085D01*
X63385Y17433D02*
X63450Y17368D01*
X62937Y17433D02*
X63385D01*
X62750Y23600D02*
X63450Y24300D01*
X61258Y31746D02*
X61263Y31741D01*
X61258Y31746D02*
Y32876D01*
X61300Y32918D01*
X56905Y27913D02*
X57700D01*
X57300Y30111D02*
X57320D01*
X57465Y29966D01*
Y29946D02*
Y29966D01*
Y29946D02*
X57700Y29711D01*
Y27913D02*
Y29711D01*
X56653Y27802D02*
X56784D01*
X55352Y26501D02*
X56653Y27802D01*
X52987Y28784D02*
X55242Y26529D01*
X57700Y27913D02*
X58839D01*
X56784Y27802D02*
X56900Y27918D01*
X57875Y31489D02*
X58450D01*
X57300D02*
X57875D01*
X58450Y28991D02*
Y30111D01*
X56900Y27918D02*
X56905Y27913D01*
X58839D02*
X58844Y27909D01*
X54307Y16695D02*
X55352Y17740D01*
Y26529D01*
X50761Y16695D02*
X54307D01*
X49891Y17566D02*
X50761Y16695D01*
X49891Y17566D02*
Y19250D01*
X68490Y25093D02*
X68500Y25104D01*
X69810Y10118D02*
X70659Y10967D01*
X71067D02*
X71200Y11100D01*
X69800Y10118D02*
X69810D01*
X70659Y10967D02*
X71067D01*
X71050Y11100D02*
X71068Y11082D01*
X68532Y14732D02*
X68650Y14850D01*
X71068Y11082D02*
X71075D01*
X74850Y14550D02*
X74950Y14650D01*
X73450Y13050D02*
Y14074D01*
X73926Y14550D02*
X74850D01*
X73450Y14074D02*
X73926Y14550D01*
X69800Y11082D02*
X69918D01*
X69950Y11050D01*
X86250Y42828D02*
X87077D01*
X87400Y42505D01*
Y42500D02*
Y42505D01*
X86250Y41450D02*
X86275Y41475D01*
X87375D01*
X87400Y41500D01*
X71383Y29567D02*
Y30957D01*
X71700Y29250D02*
X75300D01*
X76100Y28450D01*
X71383Y29567D02*
X71700Y29250D01*
X81857Y6934D02*
X81896Y6973D01*
X92523Y9273D02*
X92550Y9300D01*
X103150Y41582D02*
Y42875D01*
Y41582D02*
X103400Y41332D01*
X86025Y53432D02*
X86764D01*
X86025Y52468D02*
X87051D01*
X82800Y44300D02*
X82900Y44400D01*
Y44413D01*
X85800Y52468D02*
X86025D01*
X87051D02*
X87400Y52119D01*
Y52050D02*
Y52119D01*
X87352Y54021D02*
X87479D01*
X85800Y53432D02*
X86025D01*
X86764D02*
X87352Y54021D01*
X87479D02*
X87500Y54000D01*
X87560Y52435D02*
X87729D01*
X87503Y52378D02*
X87560Y52435D01*
X87548Y54021D02*
Y54098D01*
X87550Y54100D01*
X94852Y52718D02*
X95750D01*
X94350Y52216D02*
X94852Y52718D01*
X94350Y52200D02*
Y52216D01*
X94300Y54224D02*
X94841Y53682D01*
X95750D01*
X94300Y54224D02*
Y54250D01*
X63391Y21334D02*
X63400D01*
X62750Y21976D02*
Y23600D01*
Y21976D02*
X63391Y21334D01*
X69491Y20650D02*
X69529Y20612D01*
X70300Y30461D02*
X70550Y30211D01*
X70300Y30461D02*
Y30550D01*
X70550Y29200D02*
Y30211D01*
X69350Y29200D02*
X70550D01*
X68050D02*
X69350D01*
X66950Y25050D02*
X66972Y25072D01*
X68378D01*
X57351Y42672D02*
X58940D01*
X57300Y41900D02*
Y42621D01*
X59113Y42696D02*
X60746D01*
X61550Y43500D01*
X58940Y42672D02*
X59050Y42782D01*
X57366Y45123D02*
X57400Y45089D01*
X57366Y45123D02*
Y45810D01*
X56164Y40703D02*
Y42314D01*
X56200Y42350D01*
X56111Y40650D02*
X56164Y40703D01*
D44*
X62650Y11350D02*
X66871Y15571D01*
X73671D02*
X75817Y17717D01*
X66871Y15571D02*
X73671D01*
X77446Y17954D02*
Y19150D01*
X78300Y17100D02*
X79700D01*
X77446Y17954D02*
X78300Y17100D01*
X79700Y18065D02*
X79716Y18048D01*
X81134D01*
X81150Y18032D01*
X80802Y15517D02*
Y15531D01*
Y15517D02*
X80819Y15500D01*
X81250D01*
X79193Y14535D02*
X79427D01*
X80371Y13357D02*
X80440D01*
X78400Y14535D02*
X79193D01*
X80371Y13357D01*
X80440D02*
X80456Y13341D01*
Y13233D02*
Y13341D01*
X78450Y13330D02*
X78516Y13265D01*
X78450Y13330D02*
X79187D01*
X79208Y13351D01*
X82550Y14606D02*
X84700D01*
X80046Y12167D02*
Y12436D01*
X79208Y13274D02*
Y13351D01*
Y13274D02*
X80046Y12436D01*
Y12167D02*
X80063Y12150D01*
X78694Y11150D02*
X80622D01*
X78460Y11384D02*
Y12366D01*
Y11384D02*
X78694Y11150D01*
X78441Y12375D02*
X78450Y12366D01*
X77109Y12375D02*
X78441D01*
X80622Y11150D02*
X80856Y11384D01*
Y11791D01*
X79427Y14535D02*
X80015Y15123D01*
X69810Y13768D02*
X71227D01*
X71460Y14001D01*
X71506Y14018D02*
Y14047D01*
X71490Y14001D02*
X71506Y14018D01*
X71460Y14001D02*
X71490D01*
X86650Y25000D02*
X86684Y25034D01*
X87751D01*
X88281Y24504D01*
X88362D02*
X88400Y24466D01*
X88281Y24504D02*
X88362D01*
X75777Y21525D02*
X75817Y21485D01*
X61222Y11350D02*
X62650D01*
X74100Y20150D02*
X74832D01*
X75817Y19164D01*
Y17717D02*
Y19164D01*
Y21485D01*
X80490Y17043D02*
X81125D01*
X80487Y17046D02*
X80490Y17043D01*
X81125D02*
X81150Y17068D01*
X77900Y21150D02*
X78814D01*
X78822Y21159D01*
X82399Y20049D02*
X82785D01*
X83019Y18267D02*
Y19814D01*
X82785Y20049D02*
X83019Y19814D01*
X82333Y20115D02*
X82399Y20049D01*
X82350Y21148D02*
X83224D01*
X82350D02*
Y21168D01*
Y20328D02*
Y21148D01*
X81150Y18032D02*
X82785D01*
X83019Y18267D01*
X72297Y25779D02*
Y26450D01*
Y25779D02*
X73020Y25056D01*
X103975Y20490D02*
X104000Y20465D01*
X103975Y20490D02*
Y21625D01*
X103950Y21650D02*
X103975Y21625D01*
X84756Y14550D02*
X84900D01*
X81609Y7212D02*
Y11271D01*
X82988Y12650D02*
X84900D01*
X81609Y11271D02*
X82988Y12650D01*
X84700Y14606D02*
X84756Y14550D01*
X67891Y14732D02*
X68532D01*
X67250D02*
X67891D01*
X67879Y10118D02*
X68525D01*
X67232D02*
X67879D01*
X77100Y13933D02*
Y14535D01*
Y13330D02*
Y13933D01*
X81609Y7212D02*
X81609Y7212D01*
Y6996D02*
Y7212D01*
X70900Y25810D02*
X70913Y25824D01*
X70900Y25050D02*
Y25810D01*
X68500Y25104D02*
Y26300D01*
X70900Y22068D02*
X70932Y22100D01*
X71550D01*
X77100Y13330D02*
X78450D01*
X69800Y14732D02*
X69818Y14750D01*
X70900D01*
X71018Y10118D02*
X72350D01*
X72350Y10118D02*
X72378Y10146D01*
X73195D01*
X73197Y10144D01*
X71000Y10100D02*
X71018Y10118D01*
X70999Y10183D02*
X71065Y10118D01*
X72350Y10118D02*
X72350Y10118D01*
X70999Y11017D02*
X71000Y11017D01*
Y11050D01*
X70999Y10183D02*
Y10199D01*
X72317Y10183D02*
X72350Y10150D01*
X71065Y10118D02*
X71075D01*
X80015Y15355D02*
X80015Y15356D01*
X80015Y15123D02*
Y15355D01*
X80856Y11791D02*
X80861Y11786D01*
X77100Y12366D02*
X77109Y12375D01*
X74900Y11117D02*
X75817D01*
X77000Y12300D01*
X72350Y11082D02*
X73232D01*
X68525Y10118D02*
X68525Y10118D01*
X67200Y10150D02*
X67232Y10118D01*
X74163Y12151D02*
X74856Y12844D01*
X73501Y12151D02*
X74163D01*
X74856Y12844D02*
Y13042D01*
X74900Y13086D01*
X73450Y11300D02*
Y12085D01*
X73232Y11082D02*
X73450Y11300D01*
X87384Y23450D02*
X88400Y24466D01*
X83403Y21129D02*
X85724Y23450D01*
X87384D01*
X83224Y21148D02*
X83300Y21072D01*
X77920Y6934D02*
X78054D01*
D46*
X55097Y32200D02*
X55200D01*
X54800D02*
X55097D01*
X56208Y29601D02*
X56900Y28909D01*
Y28882D02*
Y28909D01*
X56208Y29601D02*
Y31192D01*
X92753Y43596D02*
X92759Y43591D01*
X39726Y11677D02*
X59977D01*
X61222Y11350D02*
Y12778D01*
X59977Y11677D02*
X61150Y12850D01*
X61222Y12778D01*
Y8342D02*
Y11350D01*
X71070Y27677D02*
X72297Y26450D01*
X73281D01*
X62630Y6934D02*
X68981D01*
X61222Y8342D02*
X62630Y6934D01*
X55000Y32400D02*
X55097Y32497D01*
X55200Y32200D02*
X56208Y31192D01*
X52976Y30375D02*
X54800Y32200D01*
X54956Y28784D02*
Y30384D01*
X52100Y28200D02*
X54222Y26078D01*
Y19250D02*
Y26078D01*
X52100Y28200D02*
Y29496D01*
X55097Y32497D02*
Y33993D01*
X54156Y34344D02*
X54746D01*
X55097Y33993D01*
X54150Y34350D02*
X54156Y34344D01*
X52100Y29496D02*
X52987Y30384D01*
D47*
X7472Y31213D02*
X7500Y31241D01*
D48*
X105050Y52491D02*
D03*
X105050Y33491D02*
D03*
Y35050D02*
D03*
Y28814D02*
D03*
Y30373D02*
D03*
Y31932D02*
D03*
X19797Y56600D02*
D03*
X25703D02*
D03*
X9797D02*
D03*
X15703D02*
D03*
X5650Y57800D02*
D03*
X4150Y53003D02*
D03*
Y47097D02*
D03*
X7500Y53003D02*
D03*
Y47097D02*
D03*
Y44653D02*
D03*
Y38747D02*
D03*
X4150Y44653D02*
D03*
Y38747D02*
D03*
X4550Y34359D02*
D03*
X14741Y5481D02*
D03*
Y11386D02*
D03*
X10991D02*
D03*
Y5481D02*
D03*
X7500Y27553D02*
D03*
Y21647D02*
D03*
X4150Y27553D02*
D03*
Y21647D02*
D03*
X7500Y19203D02*
D03*
Y13297D02*
D03*
X4150Y19203D02*
D03*
Y13297D02*
D03*
X5500Y9430D02*
D03*
D49*
X105050Y54050D02*
D03*
X105050Y36609D02*
D03*
X5650Y56241D02*
D03*
X4550Y31241D02*
D03*
X5500Y7870D02*
D03*
D50*
X90800Y36351D02*
D03*
Y34973D02*
D03*
X86500Y36262D02*
D03*
Y34884D02*
D03*
X86250Y42828D02*
D03*
Y41450D02*
D03*
X90800Y30755D02*
D03*
Y32133D02*
D03*
X79900Y32028D02*
D03*
Y33996D02*
D03*
X73281Y26450D02*
D03*
X75250D02*
D03*
X92450Y10689D02*
D03*
Y9311D02*
D03*
X96514Y12200D02*
D03*
X98483D02*
D03*
X101350Y10689D02*
D03*
Y9311D02*
D03*
X91700Y58100D02*
D03*
Y59478D02*
D03*
X79150Y59268D02*
D03*
Y57300D02*
D03*
X70300Y30550D02*
D03*
X68331D02*
D03*
X66436D02*
D03*
X64467D02*
D03*
X97750Y21039D02*
D03*
Y19661D02*
D03*
X93650Y21039D02*
D03*
Y19661D02*
D03*
X97400Y26900D02*
D03*
Y24931D02*
D03*
X86750Y19366D02*
D03*
Y21334D02*
D03*
X74900Y13086D02*
D03*
Y11117D02*
D03*
X56966Y19750D02*
D03*
X58934D02*
D03*
X56056Y9234D02*
D03*
X53103D02*
D03*
X45616Y41900D02*
D03*
X47584D02*
D03*
X58914Y38011D02*
D03*
X58914Y35256D02*
D03*
X54150Y37539D02*
D03*
Y38602D02*
D03*
Y34350D02*
D03*
Y33287D02*
D03*
X54956Y30384D02*
D03*
X52987D02*
D03*
X54956Y28784D02*
D03*
X52987D02*
D03*
X61650Y47464D02*
D03*
Y49433D02*
D03*
Y45586D02*
D03*
Y43617D02*
D03*
X74950Y14550D02*
D03*
Y15550D02*
D03*
X50869Y35974D02*
D03*
Y38926D02*
D03*
X48185Y36074D02*
D03*
Y39026D02*
D03*
X45300Y36074D02*
D03*
Y39026D02*
D03*
X64250Y53233D02*
D03*
Y51264D02*
D03*
X61400Y37984D02*
D03*
Y36016D02*
D03*
X94300Y52166D02*
D03*
Y54134D02*
D03*
X91850Y54184D02*
D03*
Y52216D02*
D03*
X80050Y44116D02*
D03*
Y46084D02*
D03*
X92753Y41628D02*
D03*
Y43596D02*
D03*
X90493D02*
D03*
Y41628D02*
D03*
X91350Y47789D02*
D03*
Y46411D02*
D03*
X94150Y31996D02*
D03*
Y30028D02*
D03*
X93800Y36481D02*
D03*
Y34512D02*
D03*
X101100Y19466D02*
D03*
Y21434D02*
D03*
D51*
X87336Y46900D02*
D03*
X85564D02*
D03*
X87396Y31336D02*
D03*
X85625D02*
D03*
X77550Y26600D02*
D03*
X72350Y22900D02*
D03*
X104700Y12200D02*
D03*
X99728Y55533D02*
D03*
X97345D02*
D03*
X102275Y53993D02*
D03*
X97113D02*
D03*
X88200Y58700D02*
D03*
X86428D02*
D03*
X69945Y26573D02*
D03*
X100600Y36000D02*
D03*
X100750Y30450D02*
D03*
X93739Y24725D02*
D03*
Y26497D02*
D03*
X83403Y21129D02*
D03*
X84900Y14550D02*
D03*
Y12650D02*
D03*
X76750Y17200D02*
D03*
X73656Y17550D02*
D03*
X65150Y21850D02*
D03*
X64772Y18121D02*
D03*
X42900Y12600D02*
D03*
X23231Y15342D02*
D03*
X53850Y40100D02*
D03*
X23300Y51900D02*
D03*
X60586Y27208D02*
D03*
X100600Y44600D02*
D03*
X103350Y41700D02*
D03*
D52*
X82750Y34712D02*
D03*
Y30775D02*
D03*
X76219Y30500D02*
D03*
X72281D02*
D03*
X106900Y10750D02*
D03*
X105837Y44534D02*
D03*
Y42566D02*
D03*
X101971Y59518D02*
D03*
X98034D02*
D03*
X95600Y61637D02*
D03*
Y57700D02*
D03*
X82000Y61550D02*
D03*
Y57613D02*
D03*
X103950Y21650D02*
D03*
Y17713D02*
D03*
X89850Y21550D02*
D03*
Y17613D02*
D03*
X60586Y21720D02*
D03*
Y25657D02*
D03*
X39750Y3031D02*
D03*
Y6969D02*
D03*
X42050D02*
D03*
Y3031D02*
D03*
X27035Y19546D02*
D03*
Y15609D02*
D03*
X48185Y32971D02*
D03*
Y29034D02*
D03*
X45433Y29113D02*
D03*
Y33050D02*
D03*
X72016Y56028D02*
D03*
Y52091D02*
D03*
X69266Y56028D02*
D03*
Y52091D02*
D03*
X66516Y56028D02*
D03*
Y52091D02*
D03*
X60750Y52250D02*
D03*
Y56187D02*
D03*
X26600Y47813D02*
D03*
Y51750D02*
D03*
X81857Y6934D02*
D03*
X77920D02*
D03*
X68981D02*
D03*
X72919D02*
D03*
X76219Y28250D02*
D03*
X72281D02*
D03*
X51069Y29048D02*
D03*
Y32985D02*
D03*
X40000Y59331D02*
D03*
Y63268D02*
D03*
X42300Y63268D02*
D03*
Y59331D02*
D03*
X106950Y14100D02*
D03*
X103013D02*
D03*
X103132Y47450D02*
D03*
X107069D02*
D03*
X82900Y44413D02*
D03*
Y48350D02*
D03*
X96900Y45600D02*
D03*
Y41663D02*
D03*
X100600Y41713D02*
D03*
Y37776D02*
D03*
X97150Y32512D02*
D03*
Y36449D02*
D03*
D53*
X79820Y36812D02*
D03*
X82773D02*
D03*
X83403Y41638D02*
D03*
X80450D02*
D03*
D54*
X80969Y25150D02*
D03*
X83331Y25150D02*
D03*
X79569Y52300D02*
D03*
X81931Y52300D02*
D03*
X54222Y19250D02*
D03*
X52057D02*
D03*
X49891D02*
D03*
X49891Y42640D02*
D03*
X52057D02*
D03*
X54222D02*
D03*
D55*
X77446Y19150D02*
D03*
X69950Y22050D02*
D03*
D56*
X77446Y20150D02*
D03*
X74100Y20150D02*
D03*
Y19150D02*
D03*
X87503Y54346D02*
D03*
Y52378D02*
D03*
X66950Y24050D02*
D03*
X69950Y24050D02*
D03*
X66950Y25050D02*
D03*
X69950Y25050D02*
D03*
X66950Y22050D02*
D03*
X66950Y23050D02*
D03*
X69950Y23050D02*
D03*
X88400Y24466D02*
D03*
Y26434D02*
D03*
X63450Y19366D02*
D03*
Y20350D02*
D03*
Y21334D02*
D03*
Y24300D02*
D03*
Y23316D02*
D03*
Y22332D02*
D03*
D57*
X106900Y9766D02*
D03*
D58*
X51181Y64961D02*
D03*
X106299D02*
D03*
Y1969D02*
D03*
X51181D02*
D03*
X1969D02*
D03*
Y64961D02*
D03*
D59*
X65794Y28750D02*
D03*
X65006D02*
D03*
X65794Y26600D02*
D03*
X65006D02*
D03*
D60*
X36400Y19850D02*
D03*
X36400Y15913D02*
D03*
X36400Y35819D02*
D03*
X36400Y31881D02*
D03*
X36400Y51787D02*
D03*
X36400Y47850D02*
D03*
D61*
X57000Y24969D02*
D03*
Y23000D02*
D03*
X51825Y24969D02*
D03*
Y23000D02*
D03*
X46650Y24969D02*
D03*
Y23000D02*
D03*
X57000Y55068D02*
D03*
Y53100D02*
D03*
X51825Y55068D02*
D03*
Y53100D02*
D03*
X46650Y55068D02*
D03*
Y53100D02*
D03*
X11900Y41356D02*
D03*
X13947D02*
D03*
X11900Y46261D02*
D03*
X13947D02*
D03*
X11900Y51165D02*
D03*
X13947D02*
D03*
X11900Y25050D02*
D03*
X13947D02*
D03*
X11853Y15400D02*
D03*
X13900D02*
D03*
X11900Y20263D02*
D03*
X13947D02*
D03*
D62*
X25619Y62000D02*
D03*
X21800D02*
D03*
X13690D02*
D03*
X9871D02*
D03*
D63*
X22709Y36354D02*
D03*
X27630Y36354D02*
D03*
Y31433D02*
D03*
X22709D02*
D03*
X75713Y41000D02*
D03*
Y35094D02*
D03*
X64887D02*
D03*
Y41000D02*
D03*
Y48874D02*
D03*
X75713D02*
D03*
Y46906D02*
D03*
Y39032D02*
D03*
Y37063D02*
D03*
Y33126D02*
D03*
X64887D02*
D03*
D64*
X11054Y30700D02*
D03*
X19912Y36405D02*
D03*
D65*
X19912Y30700D02*
D03*
X11054Y36405D02*
D03*
D66*
X72200Y18100D02*
D03*
X70450Y17900D02*
D03*
X79400Y19050D02*
D03*
X81350Y15500D02*
D03*
X79208Y13351D02*
D03*
X58150Y41945D02*
D03*
X82850Y51800D02*
D03*
Y52550D02*
D03*
X82450Y53150D02*
D03*
X81600Y53250D02*
D03*
X79900Y53200D02*
D03*
X79200D02*
D03*
X78600Y52900D02*
D03*
X78535Y52243D02*
D03*
X78900Y51750D02*
D03*
X76650Y49350D02*
D03*
X76000Y49900D02*
D03*
X75350D02*
D03*
X76700Y47050D02*
D03*
X76050Y47800D02*
D03*
X75200Y47700D02*
D03*
X76700Y41550D02*
D03*
X76000Y42100D02*
D03*
X75150Y41950D02*
D03*
X75300Y39800D02*
D03*
X76750Y39100D02*
D03*
X76300Y39850D02*
D03*
X76500Y32150D02*
D03*
X75650Y31950D02*
D03*
X75000Y32150D02*
D03*
X76400Y34300D02*
D03*
X76600Y35700D02*
D03*
X76700Y37550D02*
D03*
X76666Y36618D02*
D03*
X84387Y25577D02*
D03*
X84462Y24969D02*
D03*
X84034Y24504D02*
D03*
X82773Y25870D02*
D03*
X81450Y26100D02*
D03*
X81380Y24276D02*
D03*
X80625Y24110D02*
D03*
X80185Y25787D02*
D03*
X80749Y26202D02*
D03*
X65700Y34450D02*
D03*
X65800Y35450D02*
D03*
X65650Y41533D02*
D03*
X65800Y40850D02*
D03*
X65440Y40201D02*
D03*
X64655Y40132D02*
D03*
X64350Y48100D02*
D03*
X63950Y48650D02*
D03*
X62630Y51332D02*
D03*
X48622Y28374D02*
D03*
X47976Y28268D02*
D03*
X47500Y28800D02*
D03*
X51950Y25700D02*
D03*
X51094Y25560D02*
D03*
X50950Y24850D02*
D03*
X47664Y24647D02*
D03*
Y25513D02*
D03*
X47240Y26053D02*
D03*
X51800Y20350D02*
D03*
X51150Y20300D02*
D03*
X52450Y41550D02*
D03*
X51550D02*
D03*
X52450Y43700D02*
D03*
X51700D02*
D03*
X48700Y42700D02*
D03*
X48899Y43320D02*
D03*
X59950Y52050D02*
D03*
X60200Y52750D02*
D03*
X60850Y52950D02*
D03*
X61301Y55651D02*
D03*
X61400Y56500D02*
D03*
X60200Y55700D02*
D03*
X60741Y56918D02*
D03*
X60102Y56490D02*
D03*
X56039Y55114D02*
D03*
X56639Y55863D02*
D03*
X57679Y55771D02*
D03*
X57850Y54918D02*
D03*
X50864Y55114D02*
D03*
X51464Y55863D02*
D03*
X52504Y55771D02*
D03*
X52675Y54918D02*
D03*
X47500D02*
D03*
X47329Y55771D02*
D03*
X46289Y55863D02*
D03*
X45689Y55114D02*
D03*
X56150Y53250D02*
D03*
X56250Y52600D02*
D03*
X57150Y52300D02*
D03*
X58050Y52950D02*
D03*
X52800D02*
D03*
X51900Y52300D02*
D03*
X51000Y52600D02*
D03*
X50900Y53250D02*
D03*
X45900Y52500D02*
D03*
X45600Y53200D02*
D03*
X47621Y53201D02*
D03*
X38050Y16500D02*
D03*
X38000Y15750D02*
D03*
X37650Y15000D02*
D03*
X36900Y14600D02*
D03*
X36100D02*
D03*
X35250Y14900D02*
D03*
X35050Y15550D02*
D03*
X35000Y16350D02*
D03*
X36871Y21360D02*
D03*
X36043Y21432D02*
D03*
X35278Y21032D02*
D03*
X34742Y20324D02*
D03*
X34700Y19500D02*
D03*
X37050Y30650D02*
D03*
X36200Y30600D02*
D03*
X35500Y30700D02*
D03*
X35050Y31500D02*
D03*
Y32300D02*
D03*
X35550Y52950D02*
D03*
X34954Y52469D02*
D03*
X34929Y51653D02*
D03*
X35383Y51056D02*
D03*
X37250Y50950D02*
D03*
X37747Y51520D02*
D03*
X37600Y52400D02*
D03*
X37200Y53000D02*
D03*
X36252Y53159D02*
D03*
X27050Y47250D02*
D03*
X27350Y48000D02*
D03*
X26950Y48500D02*
D03*
X26365Y52491D02*
D03*
X27065Y52441D02*
D03*
X27315Y51791D02*
D03*
X27115Y51091D02*
D03*
X26465Y50941D02*
D03*
X25865Y51341D02*
D03*
X25815Y52091D02*
D03*
X27301Y32213D02*
D03*
X28126Y32155D02*
D03*
X28345Y31474D02*
D03*
X28145Y30774D02*
D03*
X27495Y30624D02*
D03*
X26895Y31024D02*
D03*
X26845Y31774D02*
D03*
X26250Y15950D02*
D03*
X26300Y15200D02*
D03*
X26900Y14800D02*
D03*
X27550Y14950D02*
D03*
X27750Y15650D02*
D03*
X27500Y16300D02*
D03*
X26800Y16350D02*
D03*
X27850Y19350D02*
D03*
X27600Y20150D02*
D03*
X26800Y20400D02*
D03*
X8550Y38900D02*
D03*
X8250Y37950D02*
D03*
X7350Y37750D02*
D03*
X6600Y38200D02*
D03*
X6550Y38900D02*
D03*
X15000Y4450D02*
D03*
X14100Y4600D02*
D03*
X13700Y5250D02*
D03*
X13600Y5800D02*
D03*
X10700Y4550D02*
D03*
X11350Y4600D02*
D03*
X11950Y4950D02*
D03*
X12050Y5650D02*
D03*
X15600Y12300D02*
D03*
X14850Y12550D02*
D03*
X14000Y12400D02*
D03*
X13500Y11900D02*
D03*
X11250Y10350D02*
D03*
X10450Y10450D02*
D03*
X9950Y10900D02*
D03*
X9800Y11550D02*
D03*
X6564Y7425D02*
D03*
X6710Y8043D02*
D03*
X6719Y8690D02*
D03*
X6716Y9329D02*
D03*
X6463Y9857D02*
D03*
X8550Y27100D02*
D03*
X8500Y27800D02*
D03*
X8000Y28450D02*
D03*
X7250Y28600D02*
D03*
X5555Y31852D02*
D03*
X5801Y31055D02*
D03*
X5501Y30258D02*
D03*
X4700Y30150D02*
D03*
X11977Y30443D02*
D03*
X11930Y31085D02*
D03*
X11450Y31450D02*
D03*
X10850D02*
D03*
X10854Y35464D02*
D03*
X11556Y35538D02*
D03*
X12105Y35879D02*
D03*
X12233Y36465D02*
D03*
X23100Y37350D02*
D03*
X22400Y37300D02*
D03*
X21850Y36800D02*
D03*
X21750Y36050D02*
D03*
X20838Y36311D02*
D03*
X20319Y37042D02*
D03*
X19452D02*
D03*
X18945Y36275D02*
D03*
X26740Y56229D02*
D03*
X26700Y57050D02*
D03*
X26112Y57552D02*
D03*
X25400Y57600D02*
D03*
X19950Y55550D02*
D03*
X19150Y55600D02*
D03*
X18800Y56250D02*
D03*
X18850Y56950D02*
D03*
X16656Y56900D02*
D03*
X16591Y56092D02*
D03*
X16063Y55667D02*
D03*
X15285Y55646D02*
D03*
X25662Y63153D02*
D03*
X26326Y63024D02*
D03*
X26369Y62350D02*
D03*
X26416Y61754D02*
D03*
X26277Y61130D02*
D03*
X25712Y60896D02*
D03*
X25082Y61065D02*
D03*
X24854Y61680D02*
D03*
Y62324D02*
D03*
X25057Y62989D02*
D03*
X21238D02*
D03*
X21035Y62324D02*
D03*
Y61680D02*
D03*
X21263Y61065D02*
D03*
X21893Y60896D02*
D03*
X22458Y61130D02*
D03*
X22597Y61754D02*
D03*
X22550Y62350D02*
D03*
X22508Y63024D02*
D03*
X21843Y63153D02*
D03*
X14242Y50376D02*
D03*
X14734Y50795D02*
D03*
X14753Y51433D02*
D03*
X13632Y50332D02*
D03*
X14297Y47026D02*
D03*
X14797Y46476D02*
D03*
X14597Y45676D02*
D03*
X13997Y45426D02*
D03*
X14833Y41084D02*
D03*
X13732Y42206D02*
D03*
X14370Y42187D02*
D03*
X14789Y41695D02*
D03*
X11562Y42191D02*
D03*
X11069Y41773D02*
D03*
X11050Y41135D02*
D03*
X12172Y42236D02*
D03*
X11850Y47096D02*
D03*
X11250Y46846D02*
D03*
X11050Y46046D02*
D03*
X11550Y45496D02*
D03*
X20236Y31535D02*
D03*
X20915Y31314D02*
D03*
X21053Y30737D02*
D03*
X20804Y30048D02*
D03*
X20153Y29937D02*
D03*
X19514Y29915D02*
D03*
X18835Y30136D02*
D03*
X18697Y30713D02*
D03*
X18946Y31402D02*
D03*
X19597Y31513D02*
D03*
X21715Y31430D02*
D03*
X22688Y30404D02*
D03*
X22000Y30754D02*
D03*
X22125Y32154D02*
D03*
X22842Y32344D02*
D03*
X13883Y25835D02*
D03*
X14562Y25614D02*
D03*
X14700Y25037D02*
D03*
X14451Y24348D02*
D03*
X13800Y24237D02*
D03*
Y19450D02*
D03*
X14451Y19561D02*
D03*
X14700Y20250D02*
D03*
X14562Y20827D02*
D03*
X13883Y21048D02*
D03*
X13650Y16250D02*
D03*
X14258Y16297D02*
D03*
X14700Y15950D02*
D03*
X14800Y15350D02*
D03*
X10891Y25315D02*
D03*
X11058Y24653D02*
D03*
X11499Y24220D02*
D03*
X12161Y24083D02*
D03*
X11947Y21113D02*
D03*
X11347Y20863D02*
D03*
X11047Y20163D02*
D03*
X11397Y19663D02*
D03*
X12079Y19345D02*
D03*
X12032Y14483D02*
D03*
X11350Y14800D02*
D03*
X11000Y15300D02*
D03*
X11300Y16000D02*
D03*
X11900Y16250D02*
D03*
X8607Y13167D02*
D03*
X8153Y14056D02*
D03*
X7336Y14210D02*
D03*
X6650Y13650D02*
D03*
X6550Y12950D02*
D03*
X5150Y13000D02*
D03*
X5100Y13550D02*
D03*
X4600Y14100D02*
D03*
X3900Y14200D02*
D03*
X6650Y21897D02*
D03*
Y21097D02*
D03*
X7300Y20697D02*
D03*
X8100Y20847D02*
D03*
X8400Y21597D02*
D03*
X6600Y18897D02*
D03*
X6650Y19547D02*
D03*
X7100Y19997D02*
D03*
X7800D02*
D03*
X8350Y19597D02*
D03*
X8400Y18947D02*
D03*
X3300Y21924D02*
D03*
Y21124D02*
D03*
X3950Y20724D02*
D03*
X4750Y20874D02*
D03*
X5050Y21624D02*
D03*
X3250Y18924D02*
D03*
X3300Y19574D02*
D03*
X3750Y20024D02*
D03*
X4450D02*
D03*
X5000Y19624D02*
D03*
X5050Y18974D02*
D03*
X3153Y26964D02*
D03*
X3096Y27727D02*
D03*
X3450Y28250D02*
D03*
X4170Y28578D02*
D03*
X3450Y34000D02*
D03*
X3500Y34618D02*
D03*
X3770Y35121D02*
D03*
X4250Y35450D02*
D03*
X4350Y37750D02*
D03*
X3550Y37900D02*
D03*
X3100Y38450D02*
D03*
X3000Y39100D02*
D03*
X6650Y47400D02*
D03*
Y46600D02*
D03*
X7300Y46200D02*
D03*
X8100Y46350D02*
D03*
X8400Y47100D02*
D03*
X6600Y44400D02*
D03*
X6650Y45050D02*
D03*
X7100Y45500D02*
D03*
X7800D02*
D03*
X8350Y45100D02*
D03*
X8400Y44450D02*
D03*
X5050D02*
D03*
X5000Y45100D02*
D03*
X4450Y45500D02*
D03*
X3750D02*
D03*
X3300Y45050D02*
D03*
X3250Y44400D02*
D03*
X5050Y47100D02*
D03*
X4750Y46350D02*
D03*
X3950Y46200D02*
D03*
X3300Y46600D02*
D03*
Y47400D02*
D03*
X11550Y50400D02*
D03*
X11050Y50950D02*
D03*
X11250Y51750D02*
D03*
X11850Y52000D02*
D03*
X5050Y53600D02*
D03*
X5150Y52650D02*
D03*
X4300Y52000D02*
D03*
X3350Y52500D02*
D03*
X3200Y53350D02*
D03*
X6450Y53500D02*
D03*
X6550Y52750D02*
D03*
X6950Y52150D02*
D03*
X7900D02*
D03*
X8500Y52750D02*
D03*
Y53500D02*
D03*
X9600Y55700D02*
D03*
X10400Y55800D02*
D03*
X10700Y56350D02*
D03*
X10750Y56900D02*
D03*
X14100Y60800D02*
D03*
X13550Y60900D02*
D03*
X13000Y61050D02*
D03*
X12850Y61600D02*
D03*
Y62150D02*
D03*
X12900Y62650D02*
D03*
X13350Y63050D02*
D03*
X13950Y63100D02*
D03*
X10650Y63000D02*
D03*
X9475Y60981D02*
D03*
X10118Y60949D02*
D03*
X10655Y61203D02*
D03*
X10696Y61834D02*
D03*
X10732Y62432D02*
D03*
X10037Y63054D02*
D03*
X9370Y63002D02*
D03*
X6100Y58800D02*
D03*
X5150D02*
D03*
X6750Y58200D02*
D03*
Y57613D02*
D03*
Y57025D02*
D03*
Y56438D02*
D03*
Y55850D02*
D03*
X4500D02*
D03*
Y56438D02*
D03*
Y57025D02*
D03*
Y57613D02*
D03*
Y58200D02*
D03*
X80487Y17046D02*
D03*
X62588Y29797D02*
D03*
X86500Y15150D02*
D03*
X83150Y15550D02*
D03*
X70600Y11978D02*
D03*
X67879Y10118D02*
D03*
X77900Y21150D02*
D03*
X77100Y13933D02*
D03*
X67891Y14732D02*
D03*
X70913Y25824D02*
D03*
X59126Y30809D02*
D03*
X69513Y20039D02*
D03*
X71550Y22100D02*
D03*
X68500Y26300D02*
D03*
X73197Y10144D02*
D03*
X70950Y14750D02*
D03*
X63453Y14489D02*
D03*
X66950Y29550D02*
D03*
X65750Y19150D02*
D03*
D67*
X57875Y31489D02*
D03*
X59100Y41150D02*
D03*
X57366Y45810D02*
D03*
D68*
X64456Y16863D02*
D03*
X65244D02*
D03*
X64850Y15937D02*
D03*
X78429Y20233D02*
D03*
X78822Y21159D02*
D03*
X79216Y20233D02*
D03*
X69800Y11937D02*
D03*
X70194Y12863D02*
D03*
X69406D02*
D03*
X71900Y13122D02*
D03*
X72294Y14047D02*
D03*
X71506D02*
D03*
D69*
X81150Y19150D02*
D03*
Y20115D02*
D03*
X82333D02*
D03*
Y19150D02*
D03*
X82350Y21168D02*
D03*
Y22132D02*
D03*
X80250Y21168D02*
D03*
Y22132D02*
D03*
X80050Y20100D02*
D03*
Y19135D02*
D03*
X79700Y18065D02*
D03*
Y17100D02*
D03*
X81150Y17068D02*
D03*
Y18032D02*
D03*
X82250Y15500D02*
D03*
Y14535D02*
D03*
X77100Y15500D02*
D03*
Y14535D02*
D03*
X78400Y15500D02*
D03*
Y14535D02*
D03*
X77100Y13330D02*
D03*
Y12366D02*
D03*
X66950Y28950D02*
D03*
Y27985D02*
D03*
X68490Y23008D02*
D03*
Y22043D02*
D03*
X68490Y25093D02*
D03*
Y24129D02*
D03*
X70900Y25050D02*
D03*
Y24085D02*
D03*
X73030Y24092D02*
D03*
Y25056D02*
D03*
X74100Y25050D02*
D03*
Y24085D02*
D03*
X67550Y18685D02*
D03*
Y19650D02*
D03*
X66458Y19631D02*
D03*
Y18667D02*
D03*
X69850Y17350D02*
D03*
Y16385D02*
D03*
X66473Y16613D02*
D03*
Y17577D02*
D03*
X73450Y13050D02*
D03*
Y12085D02*
D03*
X72350Y10118D02*
D03*
Y11082D02*
D03*
X71075Y10118D02*
D03*
Y11082D02*
D03*
X69800Y10118D02*
D03*
Y11082D02*
D03*
Y14732D02*
D03*
Y13768D02*
D03*
X68525Y14732D02*
D03*
Y13768D02*
D03*
X103300Y9668D02*
D03*
Y10632D02*
D03*
X104650Y10632D02*
D03*
Y9668D02*
D03*
X95350Y9468D02*
D03*
Y10432D02*
D03*
X94050Y10432D02*
D03*
Y9468D02*
D03*
X77400Y25050D02*
D03*
Y24085D02*
D03*
X78500Y24085D02*
D03*
Y25050D02*
D03*
X79600Y24085D02*
D03*
Y25050D02*
D03*
X67250Y10118D02*
D03*
Y11082D02*
D03*
X86650Y25000D02*
D03*
Y25965D02*
D03*
X97239Y34679D02*
D03*
Y33714D02*
D03*
X96164Y34679D02*
D03*
Y33714D02*
D03*
X98314Y34679D02*
D03*
Y33714D02*
D03*
X87600Y35147D02*
D03*
Y36112D02*
D03*
X87450Y41500D02*
D03*
Y42465D02*
D03*
X86025Y52481D02*
D03*
Y53446D02*
D03*
X94400Y42035D02*
D03*
Y43000D02*
D03*
X61300Y32918D02*
D03*
Y33882D02*
D03*
X56900Y28882D02*
D03*
Y27918D02*
D03*
X63450Y17468D02*
D03*
Y18432D02*
D03*
Y15335D02*
D03*
Y16300D02*
D03*
X104000Y20465D02*
D03*
Y19500D02*
D03*
X70900Y22068D02*
D03*
Y23032D02*
D03*
X72194Y19571D02*
D03*
Y18606D02*
D03*
X78450Y13330D02*
D03*
Y12366D02*
D03*
X67250Y14732D02*
D03*
Y13768D02*
D03*
X68525Y10118D02*
D03*
Y11082D02*
D03*
X95750Y53682D02*
D03*
Y52718D02*
D03*
X59100Y42682D02*
D03*
Y41718D02*
D03*
D70*
X80015Y15531D02*
D03*
X80802D02*
D03*
X80408Y14448D02*
D03*
X80850Y12150D02*
D03*
X80063D02*
D03*
X80456Y13233D02*
D03*
X69250Y18500D02*
D03*
X68463D02*
D03*
X68856Y19583D02*
D03*
X68197Y16239D02*
D03*
X68591Y17322D02*
D03*
X67803D02*
D03*
X76211Y22647D02*
D03*
X76604Y21565D02*
D03*
X75817D02*
D03*
X74500Y22641D02*
D03*
X74894Y21559D02*
D03*
X74106D02*
D03*
X75647Y25148D02*
D03*
X76041Y24065D02*
D03*
X75254D02*
D03*
X61656Y30659D02*
D03*
X60869D02*
D03*
X61263Y31741D02*
D03*
X58450Y28991D02*
D03*
X58056Y27909D02*
D03*
X58844D02*
D03*
X71194Y18500D02*
D03*
X70406D02*
D03*
X70800Y19583D02*
D03*
D71*
X68050Y27672D02*
D03*
Y29050D02*
D03*
X69350Y27672D02*
D03*
Y29050D02*
D03*
X70550Y27672D02*
D03*
Y29050D02*
D03*
X57350Y45089D02*
D03*
Y43711D02*
D03*
X58450Y31489D02*
D03*
Y30111D02*
D03*
X57300D02*
D03*
Y31489D02*
D03*
D72*
X68527Y20650D02*
D03*
X69491D02*
D03*
D73*
X98450Y10329D02*
D03*
X96650D02*
D03*
D74*
X97550Y7709D02*
D03*
D75*
X56217Y42294D02*
D03*
X57300Y41900D02*
D03*
Y42687D02*
D03*
D76*
X57489Y40650D02*
D03*
X56111D02*
D03*
D77*
X7500Y33406D02*
D03*
Y31241D02*
D03*
D78*
X70837Y19603D02*
X70869Y19571D01*
X72194D01*
X69250Y18500D02*
Y18608D01*
X70224Y19583D01*
X70800D01*
D79*
X51716Y1811D02*
X105612D01*
X1969Y64961D02*
X2498D01*
X3342Y65804D01*
X49808D01*
X50652Y64961D01*
X51710D01*
X52472Y65722D01*
X105009D01*
X105770Y64961D02*
X106299D01*
X105009Y65722D02*
X105770Y64961D01*
X6183Y1550D02*
X6183Y1550D01*
X1969Y1969D02*
X2343Y1594D01*
X3371D01*
X3415Y1550D01*
X6183D01*
X6183Y1550D02*
X40568D01*
X42050Y3031D01*
M02*
