G04*
G04 #@! TF.GenerationSoftware,Altium Limited,Altium Designer,20.0.13 (296)*
G04*
G04 Layer_Color=8388736*
%FSLAX24Y24*%
%MOIN*%
G70*
G01*
G75*
%ADD21C,0.1280*%
%ADD22R,0.1280X0.1280*%
%ADD23C,0.0710*%
%ADD24C,0.0867*%
%ADD25C,0.0789*%
%ADD26C,0.1064*%
%ADD27C,0.1300*%
%ADD28R,0.0680X0.0680*%
%ADD29C,0.0680*%
%ADD30R,0.0789X0.0789*%
%ADD31C,0.0080*%
%ADD32C,0.2836*%
%ADD33C,0.0671*%
%ADD34C,0.1880*%
%ADD35C,0.0986*%
%ADD36R,0.0946X0.1458*%
%ADD37C,0.1261*%
%ADD38C,0.0946*%
%ADD39R,0.1482X0.0946*%
%ADD40C,0.0480*%
%ADD41C,0.0300*%
D21*
X105050Y52491D02*
D03*
X105050Y33491D02*
D03*
Y35050D02*
D03*
Y28814D02*
D03*
Y30373D02*
D03*
Y31932D02*
D03*
X19797Y56600D02*
D03*
X25703D02*
D03*
X9797D02*
D03*
X15703D02*
D03*
X5650Y57800D02*
D03*
X4150Y53003D02*
D03*
Y47097D02*
D03*
X7500Y53003D02*
D03*
Y47097D02*
D03*
Y44653D02*
D03*
Y38747D02*
D03*
X4150Y44653D02*
D03*
Y38747D02*
D03*
X4550Y34359D02*
D03*
X14741Y5481D02*
D03*
Y11386D02*
D03*
X10991D02*
D03*
Y5481D02*
D03*
X7500Y27553D02*
D03*
Y21647D02*
D03*
X4150Y27553D02*
D03*
Y21647D02*
D03*
X7500Y19203D02*
D03*
Y13297D02*
D03*
X4150Y19203D02*
D03*
Y13297D02*
D03*
X5500Y9430D02*
D03*
D22*
X105050Y54050D02*
D03*
X105050Y36609D02*
D03*
X5650Y56241D02*
D03*
X4550Y31241D02*
D03*
X5500Y7870D02*
D03*
D23*
X90800Y36351D02*
D03*
Y34973D02*
D03*
X86500Y36262D02*
D03*
Y34884D02*
D03*
X86250Y42828D02*
D03*
Y41450D02*
D03*
X90800Y30755D02*
D03*
Y32133D02*
D03*
X79900Y32028D02*
D03*
Y33996D02*
D03*
X73281Y26450D02*
D03*
X75250D02*
D03*
X92450Y10689D02*
D03*
Y9311D02*
D03*
X96514Y12200D02*
D03*
X98483D02*
D03*
X101350Y10689D02*
D03*
Y9311D02*
D03*
X91700Y58100D02*
D03*
Y59478D02*
D03*
X79150Y59268D02*
D03*
Y57300D02*
D03*
X70300Y30550D02*
D03*
X68331D02*
D03*
X66436D02*
D03*
X64467D02*
D03*
X97750Y21039D02*
D03*
Y19661D02*
D03*
X93650Y21039D02*
D03*
Y19661D02*
D03*
X97400Y26900D02*
D03*
Y24931D02*
D03*
X86750Y19366D02*
D03*
Y21334D02*
D03*
X74900Y13086D02*
D03*
Y11117D02*
D03*
X56966Y19750D02*
D03*
X58934D02*
D03*
X56056Y9234D02*
D03*
X53103D02*
D03*
X45616Y41900D02*
D03*
X47584D02*
D03*
X58914Y38011D02*
D03*
X58914Y35256D02*
D03*
X54150Y37539D02*
D03*
Y38602D02*
D03*
Y34350D02*
D03*
Y33287D02*
D03*
X54956Y30384D02*
D03*
X52987D02*
D03*
X54956Y28784D02*
D03*
X52987D02*
D03*
X61650Y47464D02*
D03*
Y49433D02*
D03*
Y45586D02*
D03*
Y43617D02*
D03*
X74950Y14550D02*
D03*
Y15550D02*
D03*
X50869Y35974D02*
D03*
Y38926D02*
D03*
X48185Y36074D02*
D03*
Y39026D02*
D03*
X45300Y36074D02*
D03*
Y39026D02*
D03*
X64250Y53233D02*
D03*
Y51264D02*
D03*
X61400Y37984D02*
D03*
Y36016D02*
D03*
X94300Y52166D02*
D03*
Y54134D02*
D03*
X91850Y54184D02*
D03*
Y52216D02*
D03*
X80050Y44116D02*
D03*
Y46084D02*
D03*
X92753Y41628D02*
D03*
Y43596D02*
D03*
X90493D02*
D03*
Y41628D02*
D03*
X91350Y47789D02*
D03*
Y46411D02*
D03*
X94150Y31996D02*
D03*
Y30028D02*
D03*
X93800Y36481D02*
D03*
Y34512D02*
D03*
X101100Y19466D02*
D03*
Y21434D02*
D03*
D24*
X87336Y46900D02*
D03*
X85564D02*
D03*
X87396Y31336D02*
D03*
X85625D02*
D03*
X77550Y26600D02*
D03*
X72350Y22900D02*
D03*
X104700Y12200D02*
D03*
X99728Y55533D02*
D03*
X97345D02*
D03*
X102275Y53993D02*
D03*
X97113D02*
D03*
X88200Y58700D02*
D03*
X86428D02*
D03*
X69945Y26573D02*
D03*
X100600Y36000D02*
D03*
X100750Y30450D02*
D03*
X93739Y24725D02*
D03*
Y26497D02*
D03*
X83403Y21129D02*
D03*
X84900Y14550D02*
D03*
Y12650D02*
D03*
X76750Y17200D02*
D03*
X73656Y17550D02*
D03*
X65150Y21850D02*
D03*
X64772Y18121D02*
D03*
X42900Y12600D02*
D03*
X23231Y15342D02*
D03*
X53850Y40100D02*
D03*
X23300Y51900D02*
D03*
X60586Y27208D02*
D03*
X100600Y44600D02*
D03*
X103350Y41700D02*
D03*
D25*
X82750Y34712D02*
D03*
Y30775D02*
D03*
X76219Y30500D02*
D03*
X72281D02*
D03*
X106900Y10750D02*
D03*
X105837Y44534D02*
D03*
Y42566D02*
D03*
X101971Y59518D02*
D03*
X98034D02*
D03*
X95600Y61637D02*
D03*
Y57700D02*
D03*
X82000Y61550D02*
D03*
Y57613D02*
D03*
X103950Y21650D02*
D03*
Y17713D02*
D03*
X89850Y21550D02*
D03*
Y17613D02*
D03*
X60586Y21720D02*
D03*
Y25657D02*
D03*
X39750Y3031D02*
D03*
Y6969D02*
D03*
X42050D02*
D03*
Y3031D02*
D03*
X27035Y19546D02*
D03*
Y15609D02*
D03*
X48185Y32971D02*
D03*
Y29034D02*
D03*
X45433Y29113D02*
D03*
Y33050D02*
D03*
X72016Y56028D02*
D03*
Y52091D02*
D03*
X69266Y56028D02*
D03*
Y52091D02*
D03*
X66516Y56028D02*
D03*
Y52091D02*
D03*
X60750Y52250D02*
D03*
Y56187D02*
D03*
X26600Y47813D02*
D03*
Y51750D02*
D03*
X81857Y6934D02*
D03*
X77920D02*
D03*
X68981D02*
D03*
X72919D02*
D03*
X76219Y28250D02*
D03*
X72281D02*
D03*
X51069Y29048D02*
D03*
Y32985D02*
D03*
X40000Y59331D02*
D03*
Y63268D02*
D03*
X42300Y63268D02*
D03*
Y59331D02*
D03*
X106950Y14100D02*
D03*
X103013D02*
D03*
X103132Y47450D02*
D03*
X107069D02*
D03*
X82900Y44413D02*
D03*
Y48350D02*
D03*
X96900Y45600D02*
D03*
Y41663D02*
D03*
X100600Y41713D02*
D03*
Y37776D02*
D03*
X97150Y32512D02*
D03*
Y36449D02*
D03*
D26*
X79820Y36812D02*
D03*
X82773D02*
D03*
X83403Y41638D02*
D03*
X80450D02*
D03*
D27*
X80969Y25150D02*
D03*
X83331Y25150D02*
D03*
X79569Y52300D02*
D03*
X81931Y52300D02*
D03*
X54222Y19250D02*
D03*
X52057D02*
D03*
X49891D02*
D03*
X49891Y42640D02*
D03*
X52057D02*
D03*
X54222D02*
D03*
D28*
X77446Y19150D02*
D03*
X69950Y22050D02*
D03*
D29*
X77446Y20150D02*
D03*
X74100Y20150D02*
D03*
Y19150D02*
D03*
X87503Y54346D02*
D03*
Y52378D02*
D03*
X66950Y24050D02*
D03*
X69950Y24050D02*
D03*
X66950Y25050D02*
D03*
X69950Y25050D02*
D03*
X66950Y22050D02*
D03*
X66950Y23050D02*
D03*
X69950Y23050D02*
D03*
X88400Y24466D02*
D03*
Y26434D02*
D03*
X63450Y19366D02*
D03*
Y20350D02*
D03*
Y21334D02*
D03*
Y24300D02*
D03*
Y23316D02*
D03*
Y22332D02*
D03*
D30*
X106900Y9766D02*
D03*
D31*
X105837Y43550D02*
D03*
X4550Y32800D02*
D03*
X49551Y14909D02*
D03*
X55457D02*
D03*
X55457Y46890D02*
D03*
X49551D02*
D03*
D32*
X51181Y64961D02*
D03*
X106299D02*
D03*
Y1969D02*
D03*
X51181D02*
D03*
X1969D02*
D03*
Y64961D02*
D03*
D33*
X65794Y28750D02*
D03*
X65006D02*
D03*
X65794Y26600D02*
D03*
X65006D02*
D03*
D34*
X36400Y19850D02*
D03*
X36400Y15913D02*
D03*
X36400Y35819D02*
D03*
X36400Y31881D02*
D03*
X36400Y51787D02*
D03*
X36400Y47850D02*
D03*
D35*
X57000Y24969D02*
D03*
Y23000D02*
D03*
X51825Y24969D02*
D03*
Y23000D02*
D03*
X46650Y24969D02*
D03*
Y23000D02*
D03*
X57000Y55068D02*
D03*
Y53100D02*
D03*
X51825Y55068D02*
D03*
Y53100D02*
D03*
X46650Y55068D02*
D03*
Y53100D02*
D03*
X11900Y41356D02*
D03*
X13947D02*
D03*
X11900Y46261D02*
D03*
X13947D02*
D03*
X11900Y51165D02*
D03*
X13947D02*
D03*
X11900Y25050D02*
D03*
X13947D02*
D03*
X11853Y15400D02*
D03*
X13900D02*
D03*
X11900Y20263D02*
D03*
X13947D02*
D03*
D36*
X25619Y62000D02*
D03*
X21800D02*
D03*
X13690D02*
D03*
X9871D02*
D03*
D37*
X22709Y36354D02*
D03*
X27630Y36354D02*
D03*
Y31433D02*
D03*
X22709D02*
D03*
X75713Y41000D02*
D03*
Y35094D02*
D03*
X64887D02*
D03*
Y41000D02*
D03*
Y48874D02*
D03*
X75713D02*
D03*
Y46906D02*
D03*
Y39032D02*
D03*
Y37063D02*
D03*
Y33126D02*
D03*
X64887D02*
D03*
D38*
X11054Y30700D02*
D03*
X19912Y36405D02*
D03*
D39*
X19912Y30700D02*
D03*
X11054Y36405D02*
D03*
D40*
X58150Y41945D02*
D03*
X69513Y20039D02*
D03*
X66950Y29550D02*
D03*
X65750Y19150D02*
D03*
D41*
X59100Y41150D02*
D03*
X57366Y45810D02*
D03*
M02*
