G04*
G04 #@! TF.GenerationSoftware,Altium Limited,Altium Designer,20.0.13 (296)*
G04*
G04 Layer_Color=65535*
%FSLAX24Y24*%
%MOIN*%
G70*
G01*
G75*
%ADD10C,0.0079*%
%ADD11C,0.0059*%
%ADD12C,0.0150*%
%ADD13C,0.0248*%
%ADD14C,0.0197*%
%ADD15C,0.0040*%
%ADD16C,0.0394*%
%ADD17C,0.0020*%
%ADD18C,0.0100*%
%ADD19C,0.0150*%
%ADD20C,0.0098*%
G36*
X8878Y25663D02*
X6122D01*
Y26372D01*
X8878D01*
Y25663D01*
D02*
G37*
G36*
X5528D02*
X2772D01*
Y26372D01*
X5528D01*
Y25663D01*
D02*
G37*
G36*
X8878Y17313D02*
X6122D01*
Y18022D01*
X8878D01*
Y17313D01*
D02*
G37*
G36*
X5528D02*
X2772D01*
Y18022D01*
X5528D01*
Y17313D01*
D02*
G37*
G36*
X12369Y9497D02*
X9613D01*
Y10205D01*
X12369D01*
Y9497D01*
D02*
G37*
G36*
X16119Y6662D02*
X13363D01*
Y7371D01*
X16119D01*
Y6662D01*
D02*
G37*
G36*
X21687Y55222D02*
X20978D01*
Y57978D01*
X21687D01*
Y55222D01*
D02*
G37*
G36*
X11687D02*
X10978D01*
Y57978D01*
X11687D01*
Y55222D01*
D02*
G37*
G36*
X8878Y51113D02*
X6122D01*
Y51822D01*
X8878D01*
Y51113D01*
D02*
G37*
G36*
X5528D02*
X2772D01*
Y51822D01*
X5528D01*
Y51113D01*
D02*
G37*
G36*
X8878Y42763D02*
X6122D01*
Y43472D01*
X8878D01*
Y42763D01*
D02*
G37*
G36*
X5528D02*
X2772D01*
Y43472D01*
X5528D01*
Y42763D01*
D02*
G37*
G36*
X108250Y54674D02*
X108170Y54623D01*
X108170D01*
X108168Y54622D01*
X108167Y54621D01*
X108165Y54619D01*
X108158Y54616D01*
X108151Y54611D01*
X108142Y54604D01*
X108133Y54598D01*
X108125Y54592D01*
X108117Y54587D01*
X108117Y54586D01*
X108115Y54584D01*
X108111Y54582D01*
X108107Y54578D01*
X108099Y54569D01*
X108095Y54565D01*
X108092Y54561D01*
X108091Y54560D01*
X108091Y54559D01*
X108090Y54557D01*
X108088Y54553D01*
X108086Y54550D01*
X108085Y54546D01*
X108082Y54537D01*
Y54537D01*
X108081Y54536D01*
Y54533D01*
X108081Y54531D01*
X108080Y54527D01*
Y54522D01*
X108080Y54516D01*
Y54451D01*
X108250D01*
Y54400D01*
X107866D01*
Y54578D01*
X107866Y54582D01*
Y54587D01*
X107867Y54599D01*
X107869Y54611D01*
X107870Y54624D01*
X107873Y54637D01*
X107875Y54643D01*
X107876Y54648D01*
Y54648D01*
X107877Y54649D01*
X107879Y54652D01*
X107881Y54657D01*
X107885Y54663D01*
X107890Y54670D01*
X107896Y54677D01*
X107904Y54684D01*
X107913Y54690D01*
X107914D01*
X107914Y54691D01*
X107918Y54693D01*
X107923Y54695D01*
X107930Y54699D01*
X107939Y54702D01*
X107949Y54704D01*
X107959Y54706D01*
X107971Y54707D01*
X107971D01*
X107972D01*
X107975D01*
X107977Y54706D01*
X107981D01*
X107985Y54705D01*
X107995Y54703D01*
X108006Y54700D01*
X108017Y54695D01*
X108029Y54689D01*
X108035Y54684D01*
X108040Y54680D01*
X108041Y54679D01*
X108041Y54679D01*
X108043Y54677D01*
X108045Y54675D01*
X108047Y54672D01*
X108049Y54669D01*
X108052Y54664D01*
X108055Y54660D01*
X108058Y54654D01*
X108061Y54648D01*
X108064Y54642D01*
X108067Y54634D01*
X108069Y54626D01*
X108072Y54618D01*
X108074Y54608D01*
X108075Y54598D01*
X108076Y54599D01*
X108077Y54602D01*
X108079Y54605D01*
X108081Y54609D01*
X108087Y54619D01*
X108091Y54624D01*
X108095Y54629D01*
X108096Y54630D01*
X108098Y54633D01*
X108103Y54637D01*
X108108Y54643D01*
X108116Y54649D01*
X108125Y54656D01*
X108135Y54663D01*
X108146Y54671D01*
X108250Y54737D01*
Y54674D01*
D02*
G37*
G36*
Y54246D02*
Y54196D01*
X107958Y54115D01*
X107957D01*
X107956Y54115D01*
X107954Y54114D01*
X107951Y54114D01*
X107945Y54112D01*
X107938Y54110D01*
X107930Y54108D01*
X107923Y54106D01*
X107917Y54104D01*
X107914Y54104D01*
X107913Y54103D01*
X107913D01*
X107914Y54103D01*
X107917Y54102D01*
X107922Y54101D01*
X107928Y54099D01*
X107935Y54098D01*
X107943Y54095D01*
X107950Y54094D01*
X107958Y54092D01*
X108250Y54011D01*
Y53957D01*
X107866Y53857D01*
Y53910D01*
X108118Y53967D01*
X108118D01*
X108120Y53967D01*
X108122Y53968D01*
X108125Y53968D01*
X108128Y53969D01*
X108132Y53970D01*
X108137Y53971D01*
X108143Y53972D01*
X108155Y53975D01*
X108168Y53978D01*
X108182Y53981D01*
X108197Y53983D01*
X108196D01*
X108194Y53984D01*
X108191Y53985D01*
X108187Y53986D01*
X108182Y53987D01*
X108177Y53988D01*
X108165Y53991D01*
X108152Y53994D01*
X108146Y53996D01*
X108141Y53997D01*
X108136Y53998D01*
X108131Y53999D01*
X108128Y54001D01*
X108126Y54001D01*
X107866Y54074D01*
Y54135D01*
X108061Y54190D01*
X108061D01*
X108064Y54191D01*
X108068Y54192D01*
X108073Y54193D01*
X108080Y54195D01*
X108087Y54197D01*
X108095Y54199D01*
X108105Y54201D01*
X108115Y54204D01*
X108126Y54206D01*
X108148Y54211D01*
X108172Y54216D01*
X108197Y54220D01*
X108196D01*
X108195Y54221D01*
X108193D01*
X108190Y54222D01*
X108187Y54223D01*
X108183Y54224D01*
X108178Y54224D01*
X108172Y54226D01*
X108160Y54229D01*
X108146Y54232D01*
X108130Y54235D01*
X108113Y54240D01*
X107866Y54300D01*
Y54351D01*
X108250Y54246D01*
D02*
G37*
G36*
X107986Y53827D02*
X107990Y53826D01*
X107995Y53826D01*
X108000Y53825D01*
X108006Y53824D01*
X108019Y53820D01*
X108026Y53817D01*
X108033Y53814D01*
X108040Y53810D01*
X108047Y53806D01*
X108054Y53801D01*
X108060Y53796D01*
X108061Y53795D01*
X108062Y53794D01*
X108064Y53792D01*
X108065Y53790D01*
X108068Y53786D01*
X108071Y53782D01*
X108074Y53776D01*
X108077Y53770D01*
X108080Y53763D01*
X108083Y53755D01*
X108086Y53746D01*
X108089Y53735D01*
X108091Y53724D01*
X108092Y53712D01*
X108093Y53698D01*
X108094Y53684D01*
Y53585D01*
X108250D01*
Y53534D01*
X107866D01*
Y53692D01*
X107866Y53700D01*
X107867Y53710D01*
X107868Y53720D01*
X107869Y53729D01*
X107870Y53738D01*
Y53739D01*
X107871Y53743D01*
X107872Y53748D01*
X107874Y53754D01*
X107876Y53761D01*
X107880Y53769D01*
X107884Y53777D01*
X107888Y53785D01*
X107889Y53786D01*
X107890Y53788D01*
X107894Y53791D01*
X107898Y53796D01*
X107903Y53801D01*
X107909Y53806D01*
X107916Y53811D01*
X107925Y53816D01*
X107926Y53816D01*
X107929Y53817D01*
X107934Y53820D01*
X107940Y53822D01*
X107948Y53824D01*
X107957Y53826D01*
X107967Y53827D01*
X107977Y53827D01*
X107978D01*
X107980D01*
X107982D01*
X107986Y53827D01*
D02*
G37*
G36*
X108087Y53186D02*
X108250D01*
Y53135D01*
X108087D01*
X107866Y52987D01*
Y53048D01*
X107982Y53124D01*
X107983D01*
X107984Y53125D01*
X107986Y53126D01*
X107988Y53127D01*
X107991Y53129D01*
X107994Y53131D01*
X108002Y53136D01*
X108012Y53143D01*
X108024Y53149D01*
X108035Y53156D01*
X108047Y53163D01*
X108047D01*
X108046Y53164D01*
X108044Y53165D01*
X108042Y53166D01*
X108039Y53168D01*
X108036Y53170D01*
X108027Y53175D01*
X108017Y53181D01*
X108006Y53189D01*
X107993Y53197D01*
X107979Y53206D01*
X107866Y53280D01*
Y53339D01*
X108087Y53186D01*
D02*
G37*
G36*
X108250Y52726D02*
X107866D01*
Y52777D01*
X108204D01*
Y52967D01*
X108250D01*
Y52726D01*
D02*
G37*
G36*
X107986Y52663D02*
X107990Y52662D01*
X107995Y52662D01*
X108000Y52661D01*
X108006Y52660D01*
X108019Y52656D01*
X108026Y52654D01*
X108033Y52650D01*
X108040Y52646D01*
X108047Y52642D01*
X108054Y52638D01*
X108060Y52632D01*
X108061Y52631D01*
X108062Y52630D01*
X108064Y52629D01*
X108065Y52626D01*
X108068Y52623D01*
X108071Y52618D01*
X108074Y52613D01*
X108077Y52606D01*
X108080Y52599D01*
X108083Y52591D01*
X108086Y52582D01*
X108089Y52571D01*
X108091Y52560D01*
X108092Y52548D01*
X108093Y52534D01*
X108094Y52520D01*
Y52422D01*
X108250D01*
Y52371D01*
X107866D01*
Y52528D01*
X107866Y52536D01*
X107867Y52546D01*
X107868Y52556D01*
X107869Y52565D01*
X107870Y52574D01*
Y52575D01*
X107871Y52579D01*
X107872Y52584D01*
X107874Y52590D01*
X107876Y52598D01*
X107880Y52605D01*
X107884Y52614D01*
X107888Y52621D01*
X107889Y52622D01*
X107890Y52624D01*
X107894Y52628D01*
X107898Y52632D01*
X107903Y52637D01*
X107909Y52642D01*
X107916Y52647D01*
X107925Y52652D01*
X107926Y52652D01*
X107929Y52654D01*
X107934Y52656D01*
X107940Y52658D01*
X107948Y52660D01*
X107957Y52662D01*
X107967Y52663D01*
X107977Y52664D01*
X107978D01*
X107980D01*
X107982D01*
X107986Y52663D01*
D02*
G37*
G36*
Y52305D02*
X107990Y52305D01*
X107995Y52304D01*
X108000Y52303D01*
X108006Y52302D01*
X108019Y52298D01*
X108026Y52296D01*
X108033Y52292D01*
X108040Y52288D01*
X108047Y52285D01*
X108054Y52280D01*
X108060Y52274D01*
X108061Y52273D01*
X108062Y52272D01*
X108064Y52271D01*
X108065Y52268D01*
X108068Y52265D01*
X108071Y52260D01*
X108074Y52255D01*
X108077Y52248D01*
X108080Y52241D01*
X108083Y52233D01*
X108086Y52224D01*
X108089Y52213D01*
X108091Y52202D01*
X108092Y52190D01*
X108093Y52176D01*
X108094Y52162D01*
Y52064D01*
X108250D01*
Y52013D01*
X107866D01*
Y52170D01*
X107866Y52179D01*
X107867Y52188D01*
X107868Y52198D01*
X107869Y52207D01*
X107870Y52216D01*
Y52217D01*
X107871Y52221D01*
X107872Y52226D01*
X107874Y52232D01*
X107876Y52240D01*
X107880Y52247D01*
X107884Y52256D01*
X107888Y52263D01*
X107889Y52264D01*
X107890Y52266D01*
X107894Y52270D01*
X107898Y52274D01*
X107903Y52279D01*
X107909Y52284D01*
X107916Y52290D01*
X107925Y52294D01*
X107926Y52295D01*
X107929Y52296D01*
X107934Y52298D01*
X107940Y52300D01*
X107948Y52302D01*
X107957Y52304D01*
X107967Y52305D01*
X107977Y52306D01*
X107978D01*
X107980D01*
X107982D01*
X107986Y52305D01*
D02*
G37*
G36*
X108102Y51927D02*
X108108D01*
X108115Y51927D01*
X108121Y51926D01*
X108136Y51924D01*
X108152Y51922D01*
X108167Y51919D01*
X108174Y51917D01*
X108181Y51914D01*
X108181D01*
X108182Y51914D01*
X108184Y51913D01*
X108186Y51912D01*
X108192Y51908D01*
X108200Y51903D01*
X108209Y51897D01*
X108218Y51889D01*
X108227Y51879D01*
X108236Y51867D01*
Y51866D01*
X108237Y51865D01*
X108237Y51863D01*
X108239Y51860D01*
X108241Y51857D01*
X108242Y51853D01*
X108244Y51848D01*
X108246Y51843D01*
X108248Y51837D01*
X108250Y51830D01*
X108252Y51823D01*
X108253Y51814D01*
X108254Y51806D01*
X108256Y51797D01*
X108257Y51777D01*
Y51772D01*
X108256Y51768D01*
Y51764D01*
X108256Y51758D01*
X108255Y51752D01*
X108254Y51746D01*
X108252Y51732D01*
X108249Y51717D01*
X108244Y51703D01*
X108238Y51689D01*
Y51688D01*
X108237Y51687D01*
X108236Y51686D01*
X108235Y51683D01*
X108231Y51677D01*
X108224Y51670D01*
X108217Y51662D01*
X108208Y51654D01*
X108197Y51646D01*
X108185Y51640D01*
X108184D01*
X108183Y51640D01*
X108181Y51639D01*
X108178Y51638D01*
X108175Y51637D01*
X108170Y51636D01*
X108165Y51634D01*
X108159Y51633D01*
X108152Y51632D01*
X108145Y51630D01*
X108137Y51629D01*
X108129Y51628D01*
X108120Y51627D01*
X108110Y51626D01*
X108099Y51626D01*
X108088D01*
X107866D01*
Y51677D01*
X108088D01*
X108089D01*
X108090D01*
X108093D01*
X108096D01*
X108100Y51677D01*
X108105D01*
X108116Y51678D01*
X108128Y51679D01*
X108140Y51681D01*
X108152Y51683D01*
X108157Y51684D01*
X108162Y51686D01*
X108163Y51686D01*
X108166Y51687D01*
X108170Y51690D01*
X108175Y51693D01*
X108181Y51697D01*
X108187Y51703D01*
X108193Y51710D01*
X108198Y51717D01*
X108198Y51718D01*
X108200Y51721D01*
X108202Y51726D01*
X108204Y51733D01*
X108207Y51741D01*
X108208Y51751D01*
X108210Y51761D01*
X108211Y51773D01*
Y51778D01*
X108210Y51782D01*
Y51787D01*
X108209Y51792D01*
X108207Y51804D01*
X108204Y51817D01*
X108200Y51830D01*
X108194Y51842D01*
X108190Y51848D01*
X108186Y51853D01*
X108185Y51853D01*
X108185Y51854D01*
X108183Y51855D01*
X108181Y51857D01*
X108177Y51858D01*
X108174Y51860D01*
X108169Y51863D01*
X108164Y51865D01*
X108158Y51867D01*
X108151Y51869D01*
X108142Y51871D01*
X108133Y51873D01*
X108123Y51874D01*
X108113Y51875D01*
X108101Y51877D01*
X108088D01*
X107866D01*
Y51928D01*
X108088D01*
X108089D01*
X108091D01*
X108093D01*
X108097D01*
X108102Y51927D01*
D02*
G37*
G36*
X108153Y51554D02*
X108161Y51553D01*
X108170Y51551D01*
X108180Y51548D01*
X108190Y51544D01*
X108200Y51537D01*
X108201D01*
X108201Y51537D01*
X108204Y51534D01*
X108209Y51530D01*
X108215Y51525D01*
X108222Y51518D01*
X108229Y51509D01*
X108236Y51499D01*
X108242Y51487D01*
Y51486D01*
X108242Y51485D01*
X108243Y51484D01*
X108244Y51481D01*
X108245Y51478D01*
X108247Y51474D01*
X108249Y51465D01*
X108252Y51455D01*
X108254Y51442D01*
X108256Y51428D01*
X108257Y51413D01*
Y51404D01*
X108256Y51400D01*
Y51395D01*
X108256Y51389D01*
X108255Y51383D01*
X108253Y51369D01*
X108251Y51354D01*
X108247Y51340D01*
X108242Y51326D01*
Y51325D01*
X108241Y51324D01*
X108240Y51323D01*
X108239Y51320D01*
X108236Y51314D01*
X108231Y51306D01*
X108224Y51297D01*
X108216Y51288D01*
X108207Y51279D01*
X108196Y51271D01*
X108196D01*
X108195Y51269D01*
X108193Y51269D01*
X108191Y51267D01*
X108188Y51266D01*
X108185Y51264D01*
X108176Y51261D01*
X108166Y51257D01*
X108154Y51253D01*
X108141Y51251D01*
X108127Y51250D01*
X108122Y51298D01*
X108123D01*
X108123D01*
X108125Y51298D01*
X108127D01*
X108132Y51299D01*
X108140Y51301D01*
X108147Y51303D01*
X108155Y51305D01*
X108163Y51309D01*
X108170Y51313D01*
X108171Y51314D01*
X108173Y51315D01*
X108177Y51318D01*
X108181Y51323D01*
X108186Y51328D01*
X108191Y51334D01*
X108196Y51343D01*
X108200Y51352D01*
Y51352D01*
X108201Y51353D01*
X108201Y51354D01*
X108202Y51356D01*
X108203Y51362D01*
X108206Y51369D01*
X108208Y51378D01*
X108209Y51388D01*
X108211Y51399D01*
X108211Y51411D01*
Y51416D01*
X108211Y51421D01*
X108210Y51428D01*
X108209Y51436D01*
X108208Y51445D01*
X108206Y51454D01*
X108203Y51462D01*
X108202Y51463D01*
X108201Y51466D01*
X108199Y51470D01*
X108197Y51475D01*
X108193Y51480D01*
X108189Y51485D01*
X108185Y51491D01*
X108179Y51495D01*
X108178Y51496D01*
X108176Y51497D01*
X108173Y51499D01*
X108169Y51501D01*
X108165Y51503D01*
X108159Y51505D01*
X108153Y51506D01*
X108146Y51506D01*
X108146D01*
X108143D01*
X108140Y51506D01*
X108135Y51505D01*
X108131Y51504D01*
X108125Y51502D01*
X108120Y51499D01*
X108115Y51495D01*
X108114Y51495D01*
X108112Y51493D01*
X108110Y51491D01*
X108107Y51487D01*
X108103Y51483D01*
X108100Y51476D01*
X108096Y51469D01*
X108092Y51461D01*
X108092Y51460D01*
X108091Y51458D01*
X108090Y51453D01*
X108089Y51450D01*
X108088Y51446D01*
X108086Y51443D01*
X108085Y51438D01*
X108083Y51432D01*
X108082Y51425D01*
X108080Y51419D01*
X108078Y51411D01*
X108076Y51402D01*
X108074Y51393D01*
Y51392D01*
X108073Y51390D01*
X108072Y51388D01*
X108071Y51384D01*
X108070Y51380D01*
X108069Y51375D01*
X108066Y51364D01*
X108062Y51352D01*
X108058Y51339D01*
X108054Y51328D01*
X108052Y51323D01*
X108050Y51318D01*
Y51318D01*
X108049Y51317D01*
X108047Y51314D01*
X108044Y51309D01*
X108040Y51303D01*
X108035Y51297D01*
X108029Y51290D01*
X108021Y51283D01*
X108014Y51278D01*
X108012Y51277D01*
X108010Y51276D01*
X108005Y51273D01*
X108000Y51271D01*
X107992Y51269D01*
X107984Y51267D01*
X107975Y51265D01*
X107966Y51264D01*
X107965D01*
X107965D01*
X107963D01*
X107961D01*
X107955Y51266D01*
X107948Y51267D01*
X107940Y51268D01*
X107930Y51271D01*
X107921Y51275D01*
X107911Y51281D01*
X107911D01*
X107910Y51281D01*
X107907Y51284D01*
X107903Y51288D01*
X107897Y51293D01*
X107891Y51299D01*
X107884Y51308D01*
X107878Y51318D01*
X107873Y51329D01*
Y51329D01*
X107872Y51330D01*
X107871Y51332D01*
X107870Y51334D01*
X107869Y51337D01*
X107868Y51341D01*
X107866Y51349D01*
X107864Y51360D01*
X107861Y51372D01*
X107860Y51385D01*
X107859Y51399D01*
Y51407D01*
X107860Y51410D01*
Y51414D01*
X107861Y51425D01*
X107863Y51436D01*
X107865Y51449D01*
X107869Y51462D01*
X107873Y51474D01*
Y51475D01*
X107874Y51476D01*
X107875Y51478D01*
X107876Y51480D01*
X107879Y51485D01*
X107884Y51493D01*
X107889Y51501D01*
X107896Y51509D01*
X107905Y51517D01*
X107914Y51524D01*
X107915D01*
X107915Y51525D01*
X107917Y51526D01*
X107919Y51527D01*
X107924Y51530D01*
X107931Y51533D01*
X107940Y51537D01*
X107951Y51540D01*
X107962Y51542D01*
X107974Y51544D01*
X107978Y51495D01*
X107977D01*
X107976D01*
X107975Y51494D01*
X107972Y51494D01*
X107966Y51492D01*
X107958Y51490D01*
X107949Y51486D01*
X107940Y51481D01*
X107931Y51475D01*
X107924Y51468D01*
X107923Y51466D01*
X107921Y51464D01*
X107918Y51458D01*
X107914Y51451D01*
X107911Y51441D01*
X107908Y51430D01*
X107905Y51417D01*
X107905Y51401D01*
Y51393D01*
X107905Y51390D01*
X107906Y51385D01*
X107907Y51375D01*
X107909Y51364D01*
X107912Y51353D01*
X107916Y51343D01*
X107919Y51338D01*
X107922Y51334D01*
X107923Y51333D01*
X107925Y51330D01*
X107929Y51327D01*
X107933Y51324D01*
X107939Y51320D01*
X107946Y51317D01*
X107954Y51314D01*
X107963Y51313D01*
X107964D01*
X107966D01*
X107970Y51314D01*
X107974Y51315D01*
X107980Y51317D01*
X107985Y51319D01*
X107991Y51323D01*
X107996Y51328D01*
X107997Y51328D01*
X107999Y51331D01*
X108000Y51333D01*
X108001Y51335D01*
X108003Y51339D01*
X108005Y51343D01*
X108007Y51348D01*
X108009Y51353D01*
X108011Y51359D01*
X108014Y51367D01*
X108016Y51374D01*
X108019Y51383D01*
X108021Y51393D01*
X108024Y51404D01*
Y51405D01*
X108025Y51407D01*
X108025Y51410D01*
X108026Y51414D01*
X108027Y51419D01*
X108029Y51425D01*
X108031Y51431D01*
X108032Y51438D01*
X108036Y51453D01*
X108040Y51466D01*
X108042Y51473D01*
X108045Y51479D01*
X108046Y51485D01*
X108049Y51489D01*
Y51490D01*
X108049Y51491D01*
X108050Y51493D01*
X108051Y51495D01*
X108055Y51501D01*
X108059Y51508D01*
X108065Y51516D01*
X108072Y51525D01*
X108080Y51532D01*
X108088Y51539D01*
X108089Y51540D01*
X108092Y51542D01*
X108097Y51544D01*
X108103Y51547D01*
X108111Y51550D01*
X108121Y51553D01*
X108131Y51555D01*
X108142Y51555D01*
X108143D01*
X108143D01*
X108145D01*
X108147D01*
X108153Y51554D01*
D02*
G37*
G36*
X75084Y19723D02*
X74848D01*
X74848Y19722D01*
X74850Y19720D01*
X74853Y19718D01*
X74856Y19713D01*
X74860Y19708D01*
X74864Y19702D01*
X74869Y19695D01*
X74874Y19688D01*
Y19687D01*
X74874Y19687D01*
X74876Y19684D01*
X74878Y19680D01*
X74881Y19674D01*
X74884Y19668D01*
X74887Y19662D01*
X74890Y19655D01*
X74892Y19649D01*
X74857D01*
Y19649D01*
X74856Y19650D01*
X74855Y19652D01*
X74854Y19654D01*
X74853Y19656D01*
X74851Y19660D01*
X74847Y19667D01*
X74842Y19676D01*
X74836Y19684D01*
X74829Y19694D01*
X74821Y19703D01*
X74821Y19703D01*
X74820Y19704D01*
X74819Y19705D01*
X74818Y19707D01*
X74813Y19711D01*
X74808Y19716D01*
X74802Y19721D01*
X74795Y19727D01*
X74788Y19732D01*
X74781Y19736D01*
Y19760D01*
X75084D01*
Y19723D01*
D02*
G37*
G36*
Y19380D02*
X75084D01*
X75082D01*
X75079D01*
X75076Y19380D01*
X75072Y19381D01*
X75068Y19382D01*
X75063Y19382D01*
X75058Y19384D01*
X75058D01*
X75058Y19385D01*
X75055Y19386D01*
X75051Y19387D01*
X75046Y19390D01*
X75040Y19393D01*
X75033Y19398D01*
X75026Y19403D01*
X75018Y19409D01*
X75018D01*
X75017Y19410D01*
X75015Y19412D01*
X75011Y19416D01*
X75005Y19421D01*
X74999Y19428D01*
X74991Y19436D01*
X74982Y19446D01*
X74973Y19457D01*
X74972Y19458D01*
X74971Y19459D01*
X74969Y19462D01*
X74966Y19465D01*
X74963Y19469D01*
X74959Y19474D01*
X74954Y19479D01*
X74950Y19484D01*
X74939Y19495D01*
X74929Y19506D01*
X74923Y19511D01*
X74918Y19516D01*
X74913Y19521D01*
X74909Y19524D01*
X74908D01*
X74908Y19525D01*
X74906Y19526D01*
X74905Y19527D01*
X74900Y19530D01*
X74894Y19533D01*
X74887Y19536D01*
X74880Y19539D01*
X74871Y19541D01*
X74864Y19542D01*
X74863D01*
X74863D01*
X74860Y19542D01*
X74856Y19541D01*
X74851Y19540D01*
X74845Y19538D01*
X74839Y19535D01*
X74833Y19531D01*
X74826Y19526D01*
X74826Y19525D01*
X74824Y19523D01*
X74822Y19520D01*
X74819Y19515D01*
X74816Y19509D01*
X74813Y19502D01*
X74812Y19493D01*
X74811Y19484D01*
Y19482D01*
X74812Y19480D01*
X74812Y19475D01*
X74813Y19469D01*
X74815Y19462D01*
X74818Y19455D01*
X74822Y19448D01*
X74827Y19441D01*
X74828Y19440D01*
X74830Y19438D01*
X74834Y19436D01*
X74839Y19433D01*
X74845Y19430D01*
X74853Y19427D01*
X74862Y19426D01*
X74872Y19425D01*
X74868Y19387D01*
X74868D01*
X74866Y19387D01*
X74864D01*
X74861Y19388D01*
X74857Y19389D01*
X74854Y19389D01*
X74849Y19391D01*
X74844Y19392D01*
X74833Y19396D01*
X74823Y19401D01*
X74818Y19404D01*
X74812Y19408D01*
X74808Y19412D01*
X74803Y19416D01*
X74803Y19417D01*
X74802Y19417D01*
X74801Y19419D01*
X74800Y19421D01*
X74798Y19424D01*
X74796Y19427D01*
X74794Y19430D01*
X74792Y19434D01*
X74790Y19439D01*
X74788Y19445D01*
X74786Y19450D01*
X74784Y19456D01*
X74783Y19463D01*
X74781Y19470D01*
X74781Y19477D01*
X74781Y19485D01*
Y19490D01*
X74781Y19493D01*
X74781Y19496D01*
X74782Y19500D01*
X74783Y19505D01*
X74784Y19510D01*
X74787Y19521D01*
X74791Y19533D01*
X74794Y19538D01*
X74797Y19544D01*
X74801Y19549D01*
X74805Y19554D01*
X74805Y19555D01*
X74806Y19556D01*
X74808Y19556D01*
X74809Y19558D01*
X74812Y19560D01*
X74815Y19563D01*
X74818Y19565D01*
X74822Y19567D01*
X74830Y19572D01*
X74840Y19576D01*
X74846Y19578D01*
X74852Y19579D01*
X74858Y19580D01*
X74864Y19580D01*
X74865D01*
X74868D01*
X74871Y19580D01*
X74876Y19579D01*
X74881Y19578D01*
X74887Y19577D01*
X74894Y19575D01*
X74900Y19572D01*
X74901Y19572D01*
X74903Y19571D01*
X74907Y19569D01*
X74912Y19566D01*
X74917Y19563D01*
X74923Y19559D01*
X74930Y19553D01*
X74937Y19547D01*
X74938Y19546D01*
X74941Y19544D01*
X74943Y19542D01*
X74945Y19540D01*
X74948Y19537D01*
X74951Y19534D01*
X74955Y19530D01*
X74959Y19526D01*
X74963Y19521D01*
X74968Y19516D01*
X74973Y19511D01*
X74978Y19504D01*
X74984Y19497D01*
X74990Y19490D01*
X74991Y19490D01*
X74992Y19489D01*
X74993Y19487D01*
X74995Y19485D01*
X74997Y19483D01*
X75000Y19479D01*
X75006Y19473D01*
X75012Y19465D01*
X75019Y19458D01*
X75024Y19452D01*
X75027Y19449D01*
X75029Y19447D01*
X75029Y19447D01*
X75030Y19445D01*
X75032Y19444D01*
X75035Y19441D01*
X75038Y19439D01*
X75041Y19437D01*
X75048Y19431D01*
Y19580D01*
X75084D01*
Y19380D01*
D02*
G37*
G36*
X74989Y19350D02*
X74992Y19350D01*
X74996Y19349D01*
X75001Y19348D01*
X75006Y19348D01*
X75017Y19345D01*
X75029Y19341D01*
X75035Y19338D01*
X75041Y19334D01*
X75047Y19331D01*
X75053Y19327D01*
X75053Y19326D01*
X75055Y19325D01*
X75056Y19323D01*
X75058Y19321D01*
X75061Y19318D01*
X75065Y19315D01*
X75068Y19310D01*
X75071Y19306D01*
X75075Y19300D01*
X75078Y19294D01*
X75081Y19288D01*
X75084Y19281D01*
X75086Y19273D01*
X75088Y19265D01*
X75089Y19256D01*
X75090Y19247D01*
Y19243D01*
X75089Y19240D01*
X75089Y19237D01*
X75088Y19233D01*
X75088Y19228D01*
X75086Y19223D01*
X75084Y19212D01*
X75080Y19201D01*
X75077Y19195D01*
X75074Y19190D01*
X75071Y19185D01*
X75067Y19179D01*
X75066Y19179D01*
X75066Y19178D01*
X75064Y19177D01*
X75062Y19175D01*
X75060Y19173D01*
X75058Y19171D01*
X75054Y19168D01*
X75050Y19166D01*
X75046Y19164D01*
X75041Y19161D01*
X75031Y19156D01*
X75019Y19152D01*
X75012Y19151D01*
X75005Y19150D01*
X75002Y19189D01*
X75003D01*
X75003D01*
X75005Y19189D01*
X75007Y19190D01*
X75012Y19191D01*
X75018Y19193D01*
X75025Y19195D01*
X75032Y19199D01*
X75039Y19203D01*
X75045Y19209D01*
X75045Y19209D01*
X75047Y19211D01*
X75049Y19215D01*
X75052Y19219D01*
X75055Y19225D01*
X75057Y19231D01*
X75058Y19239D01*
X75059Y19247D01*
Y19250D01*
X75058Y19251D01*
X75058Y19257D01*
X75056Y19263D01*
X75054Y19270D01*
X75051Y19278D01*
X75045Y19285D01*
X75042Y19289D01*
X75039Y19292D01*
X75038Y19293D01*
X75038Y19293D01*
X75037Y19294D01*
X75035Y19296D01*
X75030Y19299D01*
X75024Y19302D01*
X75017Y19305D01*
X75008Y19308D01*
X74997Y19310D01*
X74991Y19311D01*
X74985D01*
X74985D01*
X74984D01*
X74982D01*
X74980Y19311D01*
X74977D01*
X74974Y19310D01*
X74967Y19309D01*
X74959Y19307D01*
X74951Y19304D01*
X74943Y19299D01*
X74935Y19293D01*
X74935D01*
X74934Y19292D01*
X74932Y19290D01*
X74929Y19286D01*
X74926Y19281D01*
X74923Y19274D01*
X74920Y19266D01*
X74917Y19257D01*
X74916Y19252D01*
Y19244D01*
X74917Y19240D01*
X74917Y19236D01*
X74919Y19230D01*
X74920Y19225D01*
X74922Y19219D01*
X74925Y19214D01*
X74925Y19213D01*
X74926Y19212D01*
X74928Y19209D01*
X74930Y19205D01*
X74933Y19202D01*
X74937Y19198D01*
X74941Y19195D01*
X74946Y19192D01*
X74941Y19157D01*
X74786Y19186D01*
Y19336D01*
X74821D01*
Y19215D01*
X74903Y19199D01*
X74902Y19199D01*
X74902Y19200D01*
X74901Y19202D01*
X74900Y19204D01*
X74899Y19206D01*
X74897Y19209D01*
X74893Y19216D01*
X74890Y19225D01*
X74887Y19235D01*
X74885Y19245D01*
X74884Y19251D01*
Y19260D01*
X74884Y19263D01*
X74885Y19266D01*
X74885Y19270D01*
X74886Y19275D01*
X74887Y19279D01*
X74890Y19290D01*
X74892Y19296D01*
X74895Y19301D01*
X74899Y19307D01*
X74902Y19313D01*
X74906Y19318D01*
X74911Y19323D01*
X74912Y19323D01*
X74913Y19324D01*
X74914Y19326D01*
X74916Y19327D01*
X74919Y19330D01*
X74922Y19332D01*
X74926Y19334D01*
X74930Y19337D01*
X74935Y19339D01*
X74940Y19342D01*
X74947Y19344D01*
X74953Y19346D01*
X74959Y19348D01*
X74967Y19349D01*
X74974Y19350D01*
X74982Y19351D01*
X74982D01*
X74984D01*
X74986D01*
X74989Y19350D01*
D02*
G37*
G36*
X106989Y8200D02*
X106943D01*
Y8495D01*
X106942Y8495D01*
X106940Y8493D01*
X106936Y8489D01*
X106931Y8486D01*
X106925Y8481D01*
X106917Y8475D01*
X106908Y8469D01*
X106899Y8463D01*
X106898D01*
X106897Y8463D01*
X106894Y8460D01*
X106889Y8458D01*
X106882Y8454D01*
X106875Y8451D01*
X106866Y8447D01*
X106858Y8443D01*
X106850Y8440D01*
Y8484D01*
X106851D01*
X106852Y8486D01*
X106854Y8486D01*
X106857Y8488D01*
X106860Y8489D01*
X106864Y8492D01*
X106873Y8497D01*
X106884Y8503D01*
X106895Y8511D01*
X106906Y8519D01*
X106918Y8529D01*
X106918Y8529D01*
X106919Y8530D01*
X106920Y8531D01*
X106923Y8533D01*
X106928Y8539D01*
X106934Y8545D01*
X106941Y8553D01*
X106948Y8561D01*
X106954Y8570D01*
X106959Y8579D01*
X106989D01*
Y8200D01*
D02*
G37*
G36*
X107041Y12329D02*
X107046Y12328D01*
X107051Y12328D01*
X107057Y12327D01*
X107063Y12326D01*
X107077Y12322D01*
X107092Y12316D01*
X107099Y12313D01*
X107106Y12309D01*
X107112Y12304D01*
X107118Y12299D01*
X107119Y12298D01*
X107120Y12298D01*
X107121Y12296D01*
X107123Y12293D01*
X107126Y12291D01*
X107129Y12287D01*
X107132Y12283D01*
X107135Y12278D01*
X107140Y12268D01*
X107146Y12255D01*
X107148Y12248D01*
X107149Y12240D01*
X107150Y12233D01*
X107151Y12225D01*
Y12224D01*
Y12221D01*
X107150Y12216D01*
X107150Y12210D01*
X107148Y12204D01*
X107146Y12196D01*
X107144Y12188D01*
X107141Y12180D01*
X107140Y12179D01*
X107139Y12176D01*
X107137Y12172D01*
X107134Y12166D01*
X107129Y12159D01*
X107124Y12151D01*
X107117Y12143D01*
X107110Y12133D01*
X107109Y12132D01*
X107106Y12129D01*
X107103Y12126D01*
X107100Y12124D01*
X107097Y12120D01*
X107093Y12116D01*
X107088Y12112D01*
X107083Y12107D01*
X107077Y12101D01*
X107071Y12095D01*
X107064Y12089D01*
X107056Y12082D01*
X107047Y12075D01*
X107039Y12067D01*
X107038Y12067D01*
X107037Y12066D01*
X107035Y12064D01*
X107032Y12062D01*
X107029Y12059D01*
X107025Y12055D01*
X107016Y12048D01*
X107007Y12040D01*
X106998Y12032D01*
X106991Y12025D01*
X106987Y12022D01*
X106985Y12019D01*
X106984Y12019D01*
X106982Y12017D01*
X106980Y12015D01*
X106978Y12012D01*
X106975Y12008D01*
X106972Y12004D01*
X106965Y11995D01*
X107151D01*
Y11950D01*
X106901D01*
Y11951D01*
Y11953D01*
Y11956D01*
X106901Y11960D01*
X106902Y11965D01*
X106903Y11971D01*
X106904Y11976D01*
X106906Y11982D01*
Y11983D01*
X106907Y11983D01*
X106908Y11987D01*
X106910Y11991D01*
X106913Y11998D01*
X106917Y12006D01*
X106923Y12014D01*
X106929Y12023D01*
X106937Y12032D01*
Y12033D01*
X106938Y12034D01*
X106940Y12037D01*
X106945Y12042D01*
X106952Y12049D01*
X106961Y12057D01*
X106971Y12067D01*
X106984Y12078D01*
X106997Y12089D01*
X106998Y12090D01*
X107000Y12091D01*
X107003Y12094D01*
X107007Y12097D01*
X107012Y12102D01*
X107018Y12107D01*
X107024Y12112D01*
X107031Y12118D01*
X107045Y12131D01*
X107058Y12144D01*
X107065Y12151D01*
X107071Y12157D01*
X107076Y12163D01*
X107081Y12169D01*
Y12170D01*
X107082Y12171D01*
X107083Y12172D01*
X107084Y12174D01*
X107088Y12180D01*
X107092Y12188D01*
X107096Y12196D01*
X107100Y12206D01*
X107102Y12216D01*
X107103Y12226D01*
Y12226D01*
Y12227D01*
X107103Y12230D01*
X107102Y12236D01*
X107100Y12242D01*
X107098Y12249D01*
X107094Y12257D01*
X107089Y12264D01*
X107083Y12272D01*
X107082Y12273D01*
X107079Y12275D01*
X107075Y12278D01*
X107069Y12282D01*
X107062Y12285D01*
X107053Y12289D01*
X107043Y12291D01*
X107031Y12291D01*
X107028D01*
X107026Y12291D01*
X107019Y12290D01*
X107011Y12289D01*
X107003Y12286D01*
X106994Y12283D01*
X106985Y12278D01*
X106977Y12271D01*
X106976Y12270D01*
X106974Y12267D01*
X106970Y12263D01*
X106967Y12256D01*
X106963Y12249D01*
X106960Y12239D01*
X106958Y12228D01*
X106957Y12215D01*
X106909Y12220D01*
Y12221D01*
X106910Y12222D01*
Y12225D01*
X106910Y12229D01*
X106911Y12233D01*
X106913Y12238D01*
X106914Y12244D01*
X106916Y12250D01*
X106920Y12263D01*
X106927Y12277D01*
X106931Y12283D01*
X106935Y12290D01*
X106940Y12296D01*
X106946Y12301D01*
X106946Y12302D01*
X106947Y12302D01*
X106949Y12304D01*
X106952Y12305D01*
X106955Y12308D01*
X106959Y12310D01*
X106963Y12313D01*
X106969Y12315D01*
X106975Y12318D01*
X106981Y12321D01*
X106988Y12323D01*
X106996Y12325D01*
X107004Y12327D01*
X107013Y12328D01*
X107022Y12329D01*
X107032Y12329D01*
X107038D01*
X107041Y12329D01*
D02*
G37*
%LPC*%
G36*
X107971Y54654D02*
X107971D01*
X107970D01*
X107967Y54654D01*
X107962Y54653D01*
X107955Y54652D01*
X107949Y54649D01*
X107941Y54646D01*
X107934Y54641D01*
X107926Y54634D01*
X107926Y54633D01*
X107924Y54631D01*
X107921Y54626D01*
X107918Y54619D01*
X107914Y54611D01*
X107911Y54599D01*
X107909Y54587D01*
X107909Y54572D01*
Y54451D01*
X108036D01*
Y54565D01*
X108035Y54572D01*
X108035Y54579D01*
X108034Y54588D01*
X108033Y54597D01*
X108031Y54606D01*
X108029Y54614D01*
X108029Y54615D01*
X108027Y54617D01*
X108026Y54621D01*
X108024Y54625D01*
X108020Y54630D01*
X108016Y54635D01*
X108011Y54640D01*
X108006Y54644D01*
X108005Y54644D01*
X108003Y54645D01*
X108000Y54647D01*
X107995Y54649D01*
X107990Y54651D01*
X107985Y54653D01*
X107978Y54654D01*
X107971Y54654D01*
D02*
G37*
G36*
X107979Y53775D02*
X107979D01*
X107978D01*
X107975D01*
X107970Y53775D01*
X107965Y53774D01*
X107959Y53772D01*
X107951Y53770D01*
X107945Y53767D01*
X107938Y53763D01*
X107938Y53762D01*
X107935Y53761D01*
X107933Y53758D01*
X107929Y53755D01*
X107925Y53750D01*
X107921Y53744D01*
X107918Y53738D01*
X107915Y53731D01*
Y53730D01*
X107915Y53728D01*
X107914Y53725D01*
X107913Y53720D01*
X107913Y53714D01*
X107912Y53705D01*
X107911Y53695D01*
Y53585D01*
X108049D01*
Y53689D01*
X108048Y53693D01*
Y53696D01*
X108047Y53701D01*
X108046Y53711D01*
X108044Y53723D01*
X108041Y53735D01*
X108036Y53745D01*
X108034Y53750D01*
X108030Y53754D01*
X108029Y53755D01*
X108027Y53757D01*
X108022Y53761D01*
X108017Y53765D01*
X108010Y53769D01*
X108001Y53772D01*
X107991Y53774D01*
X107979Y53775D01*
D02*
G37*
G36*
Y52611D02*
X107979D01*
X107978D01*
X107975D01*
X107970Y52611D01*
X107965Y52610D01*
X107959Y52609D01*
X107951Y52606D01*
X107945Y52603D01*
X107938Y52599D01*
X107938Y52599D01*
X107935Y52597D01*
X107933Y52594D01*
X107929Y52591D01*
X107925Y52586D01*
X107921Y52580D01*
X107918Y52574D01*
X107915Y52567D01*
Y52566D01*
X107915Y52564D01*
X107914Y52561D01*
X107913Y52556D01*
X107913Y52550D01*
X107912Y52541D01*
X107911Y52531D01*
Y52422D01*
X108049D01*
Y52525D01*
X108048Y52529D01*
Y52533D01*
X108047Y52537D01*
X108046Y52548D01*
X108044Y52559D01*
X108041Y52571D01*
X108036Y52581D01*
X108034Y52586D01*
X108030Y52590D01*
X108029Y52591D01*
X108027Y52594D01*
X108022Y52597D01*
X108017Y52601D01*
X108010Y52605D01*
X108001Y52608D01*
X107991Y52610D01*
X107979Y52611D01*
D02*
G37*
G36*
Y52253D02*
X107979D01*
X107978D01*
X107975D01*
X107970Y52253D01*
X107965Y52252D01*
X107959Y52251D01*
X107951Y52248D01*
X107945Y52245D01*
X107938Y52241D01*
X107938Y52241D01*
X107935Y52239D01*
X107933Y52236D01*
X107929Y52233D01*
X107925Y52228D01*
X107921Y52222D01*
X107918Y52216D01*
X107915Y52209D01*
Y52208D01*
X107915Y52206D01*
X107914Y52203D01*
X107913Y52199D01*
X107913Y52192D01*
X107912Y52184D01*
X107911Y52174D01*
Y52064D01*
X108049D01*
Y52167D01*
X108048Y52171D01*
Y52175D01*
X108047Y52179D01*
X108046Y52190D01*
X108044Y52201D01*
X108041Y52213D01*
X108036Y52223D01*
X108034Y52228D01*
X108030Y52232D01*
X108029Y52233D01*
X108027Y52236D01*
X108022Y52239D01*
X108017Y52243D01*
X108010Y52247D01*
X108001Y52250D01*
X107991Y52252D01*
X107979Y52253D01*
D02*
G37*
%LPD*%
D10*
X92375Y35662D02*
G03*
X92375Y35662I-1575J0D01*
G01*
X88075Y35573D02*
G03*
X88075Y35573I-1575J0D01*
G01*
X87825Y42139D02*
G03*
X87825Y42139I-1575J0D01*
G01*
X92375Y31444D02*
G03*
X92375Y31444I-1575J0D01*
G01*
X83931Y30775D02*
G03*
X83931Y30775I-1181J0D01*
G01*
X80687Y33799D02*
G03*
X79113Y33799I-787J0D01*
G01*
Y32225D02*
G03*
X80687Y32225I787J0D01*
G01*
X83954Y36812D02*
G03*
X83954Y36812I-1181J0D01*
G01*
X81631Y41638D02*
G03*
X81631Y41638I-1181J0D01*
G01*
X78337Y26600D02*
G03*
X78337Y26600I-787J0D01*
G01*
X75841Y26450D02*
G03*
X75841Y26450I-591J0D01*
G01*
X73137Y22900D02*
G03*
X73137Y22900I-787J0D01*
G01*
X75903Y18650D02*
G03*
X75399Y18650I-252J0D01*
G01*
X94025Y10000D02*
G03*
X94025Y10000I-1575J0D01*
G01*
X99073Y12200D02*
G03*
X99073Y12200I-591J0D01*
G01*
X102925Y10000D02*
G03*
X102925Y10000I-1575J0D01*
G01*
X105487Y12200D02*
G03*
X105487Y12200I-787J0D01*
G01*
X100515Y55533D02*
G03*
X100515Y55533I-787J0D01*
G01*
X98132D02*
G03*
X98132Y55533I-787J0D01*
G01*
X99574Y53993D02*
G03*
X98786Y53993I-394J-394D01*
G01*
X97999D02*
G03*
X98786Y53993I394J394D01*
G01*
X101149D02*
G03*
X100361Y53993I-394J-394D01*
G01*
X99574D02*
G03*
X100361Y53993I394J394D01*
G01*
X96781Y57700D02*
G03*
X96781Y57700I-1181J0D01*
G01*
X93275Y58789D02*
G03*
X93275Y58789I-1575J0D01*
G01*
X90062Y53362D02*
G03*
X90062Y53362I-2559J0D01*
G01*
X83181Y57613D02*
G03*
X83181Y57613I-1181J0D01*
G01*
X78363Y57497D02*
G03*
X79937Y57497I787J0D01*
G01*
Y59072D02*
G03*
X78363Y59072I-787J0D01*
G01*
X70732Y26573D02*
G03*
X70732Y26573I-787J0D01*
G01*
X68702Y21302D02*
G03*
X68198Y21302I-252J0D01*
G01*
X66384Y28750D02*
G03*
X66384Y28750I-984J0D01*
G01*
X68922Y30550D02*
G03*
X68922Y30550I-591J0D01*
G01*
X65058D02*
G03*
X65058Y30550I-591J0D01*
G01*
X101387Y36000D02*
G03*
X101387Y36000I-787J0D01*
G01*
X101537Y30450D02*
G03*
X101537Y30450I-787J0D01*
G01*
X105131Y17713D02*
G03*
X105131Y17713I-1181J0D01*
G01*
X99325Y20350D02*
G03*
X99325Y20350I-1575J0D01*
G01*
X95225D02*
G03*
X95225Y20350I-1575J0D01*
G01*
X90959Y25450D02*
G03*
X90959Y25450I-2559J0D01*
G01*
X91031Y17613D02*
G03*
X91031Y17613I-1181J0D01*
G01*
X87537Y21137D02*
G03*
X85963Y21137I-787J0D01*
G01*
Y19563D02*
G03*
X87537Y19563I787J0D01*
G01*
X84190Y21129D02*
G03*
X84190Y21129I-787J0D01*
G01*
X85687Y14550D02*
G03*
X85687Y14550I-787J0D01*
G01*
Y12650D02*
G03*
X85687Y12650I-787J0D01*
G01*
X75491Y11117D02*
G03*
X75491Y11117I-591J0D01*
G01*
X77537Y17200D02*
G03*
X77537Y17200I-787J0D01*
G01*
X74443Y17550D02*
G03*
X74443Y17550I-787J0D01*
G01*
X64042Y19268D02*
G03*
X64042Y21432I-477J1082D01*
G01*
X65937Y21850D02*
G03*
X65937Y21850I-787J0D01*
G01*
X65560Y18121D02*
G03*
X65560Y18121I-787J0D01*
G01*
X64042Y22234D02*
G03*
X64042Y24398I-477J1082D01*
G01*
X58737Y18963D02*
G03*
X58737Y20537I0J787D01*
G01*
X57163D02*
G03*
X57163Y18963I0J-787D01*
G01*
X53891Y9234D02*
G03*
X53891Y9234I-787J0D01*
G01*
X43687Y12600D02*
G03*
X43687Y12600I-787J0D01*
G01*
X24018Y15342D02*
G03*
X24018Y15342I-787J0D01*
G01*
X28216Y15609D02*
G03*
X28216Y15609I-1181J0D01*
G01*
X43290Y17881D02*
G03*
X43290Y17881I-6890J0D01*
G01*
Y33850D02*
G03*
X43290Y33850I-6890J0D01*
G01*
X47387Y41113D02*
G03*
X47387Y42687I0J787D01*
G01*
X45813D02*
G03*
X45813Y41113I0J-787D01*
G01*
X54637Y40100D02*
G03*
X54637Y40100I-787J0D01*
G01*
X53578Y30384D02*
G03*
X53578Y30384I-591J0D01*
G01*
Y28784D02*
G03*
X53578Y28784I-591J0D01*
G01*
X46615Y33050D02*
G03*
X46615Y33050I-1181J0D01*
G01*
X62241Y49433D02*
G03*
X62241Y49433I-591J0D01*
G01*
Y43617D02*
G03*
X62241Y43617I-591J0D01*
G01*
X73197Y52091D02*
G03*
X73197Y52091I-1181J0D01*
G01*
X70447D02*
G03*
X70447Y52091I-1181J0D01*
G01*
X67697D02*
G03*
X67697Y52091I-1181J0D01*
G01*
X43290Y49819D02*
G03*
X43290Y49819I-6890J0D01*
G01*
X27781Y51750D02*
G03*
X27781Y51750I-1181J0D01*
G01*
X24087Y51900D02*
G03*
X24087Y51900I-787J0D01*
G01*
X19450Y62008D02*
G03*
X19450Y62008I-63J0D01*
G01*
X16174Y61996D02*
G03*
X16174Y61996I-59J0D01*
G01*
X17745Y62000D02*
G03*
X16957Y62000I-394J0D01*
G01*
X17745D02*
G03*
X18532Y62000I394J0D01*
G01*
X75989Y15050D02*
G03*
X75989Y15050I-1039J0D01*
G01*
X66384Y26600D02*
G03*
X66384Y26600I-984J0D01*
G01*
X51657Y35974D02*
G03*
X51657Y35974I-787J0D01*
G01*
X48972Y36074D02*
G03*
X48972Y36074I-787J0D01*
G01*
X46087D02*
G03*
X46087Y36074I-787J0D01*
G01*
X64841Y53233D02*
G03*
X64841Y53233I-591J0D01*
G01*
X61373Y27208D02*
G03*
X61373Y27208I-787J0D01*
G01*
X80837Y45887D02*
G03*
X79263Y45887I-787J0D01*
G01*
Y44313D02*
G03*
X80837Y44313I787J0D01*
G01*
X84081Y44413D02*
G03*
X84081Y44413I-1181J0D01*
G01*
X98081Y45600D02*
G03*
X98081Y45600I-1181J0D01*
G01*
X92925Y47100D02*
G03*
X92925Y47100I-1575J0D01*
G01*
X98331Y32512D02*
G03*
X98331Y32512I-1181J0D01*
G01*
X101387Y44600D02*
G03*
X101387Y44600I-787J0D01*
G01*
X104137Y41700D02*
G03*
X104137Y41700I-787J0D01*
G01*
X103082Y55404D02*
X107412D01*
Y51137D02*
Y55404D01*
X103082Y51137D02*
Y55404D01*
Y51137D02*
X107412D01*
X89245Y35465D02*
X92355D01*
X90209Y34264D02*
X91509D01*
X89816Y34442D02*
Y35662D01*
X89619Y34638D02*
Y35662D01*
X89422Y34914D02*
Y35662D01*
X91391Y35268D02*
X92316D01*
X91391Y35071D02*
X92257D01*
X91391Y34855D02*
X92158D01*
X91391Y34658D02*
X92020D01*
X89284Y35268D02*
X90209D01*
X89343Y35071D02*
X90209D01*
X89461Y34855D02*
X90209D01*
X89599Y34658D02*
X90209D01*
X89796Y34461D02*
X90209D01*
X90091Y34264D02*
X90209D01*
X90013Y34304D02*
Y35662D01*
X91391Y35268D02*
Y35662D01*
X90209Y35268D02*
Y35662D01*
X92178Y34914D02*
Y35662D01*
X91981Y34638D02*
Y35662D01*
X91784Y34442D02*
Y35662D01*
X91587Y34304D02*
Y35662D01*
X89225D02*
X92375D01*
X90209Y34205D02*
Y35268D01*
X91391Y34205D02*
Y35268D01*
X89127Y37335D02*
X89520D01*
X89324Y37138D02*
Y37532D01*
X84945Y35376D02*
X88055D01*
X85909Y34175D02*
X87209D01*
X85516Y34353D02*
Y35573D01*
X85319Y34549D02*
Y35573D01*
X85122Y34825D02*
Y35573D01*
X87091Y35179D02*
X88016D01*
X87091Y34982D02*
X87957D01*
X87091Y34766D02*
X87858D01*
X87091Y34569D02*
X87720D01*
X84984Y35179D02*
X85909D01*
X85043Y34982D02*
X85909D01*
X85161Y34766D02*
X85909D01*
X85299Y34569D02*
X85909D01*
X85496Y34372D02*
X85909D01*
X85791Y34175D02*
X85909D01*
X85713Y34215D02*
Y35573D01*
X87091Y35179D02*
Y35573D01*
X85909Y35179D02*
Y35573D01*
X87878Y34825D02*
Y35573D01*
X87681Y34549D02*
Y35573D01*
X87484Y34353D02*
Y35573D01*
X87287Y34215D02*
Y35573D01*
X84925D02*
X88075D01*
X85909Y34116D02*
Y35179D01*
X87091Y34116D02*
Y35179D01*
X84827Y37246D02*
X85220D01*
X85024Y37049D02*
Y37443D01*
X84695Y41942D02*
X87805D01*
X85659Y40741D02*
X86959D01*
X85266Y40918D02*
Y42139D01*
X85069Y41115D02*
Y42139D01*
X84872Y41391D02*
Y42139D01*
X86841Y41745D02*
X87766D01*
X86841Y41548D02*
X87707D01*
X86841Y41332D02*
X87608D01*
X86841Y41135D02*
X87470D01*
X84734Y41745D02*
X85659D01*
X84793Y41548D02*
X85659D01*
X84911Y41332D02*
X85659D01*
X85049Y41135D02*
X85659D01*
X85246Y40938D02*
X85659D01*
X85541Y40741D02*
X85659D01*
X85463Y40781D02*
Y42139D01*
X86841Y41745D02*
Y42139D01*
X85659Y41745D02*
Y42139D01*
X87628Y41391D02*
Y42139D01*
X87431Y41115D02*
Y42139D01*
X87234Y40918D02*
Y42139D01*
X87037Y40781D02*
Y42139D01*
X84675D02*
X87825D01*
X85659Y40682D02*
Y41745D01*
X86841Y40682D02*
Y41745D01*
X84577Y43812D02*
X84970D01*
X84774Y43615D02*
Y44009D01*
X89245Y31641D02*
X92355D01*
X90091Y32842D02*
X91391D01*
X91784Y31444D02*
Y32665D01*
X91981Y31444D02*
Y32468D01*
X92178Y31444D02*
Y32192D01*
X89284Y31838D02*
X90209D01*
X89343Y32035D02*
X90209D01*
X89442Y32251D02*
X90209D01*
X89580Y32448D02*
X90209D01*
X91391Y31838D02*
X92316D01*
X91391Y32035D02*
X92257D01*
X91391Y32251D02*
X92139D01*
X91391Y32448D02*
X92001D01*
X91391Y32645D02*
X91804D01*
X91391Y32842D02*
X91509D01*
X91587Y31444D02*
Y32803D01*
X90209Y31444D02*
Y31838D01*
X91391Y31444D02*
Y31838D01*
X89422Y31444D02*
Y32192D01*
X89619Y31444D02*
Y32468D01*
X89816Y31444D02*
Y32665D01*
X90013Y31444D02*
Y32803D01*
X89225Y31444D02*
X92375D01*
X91391Y31838D02*
Y32901D01*
X90209Y31838D02*
Y32901D01*
X92080Y29771D02*
X92473D01*
X92276Y29574D02*
Y29968D01*
X83951Y29574D02*
Y35184D01*
X82762Y33320D02*
X82762Y33557D01*
X82762Y33320D02*
X82919Y33242D01*
X82604Y33084D02*
X82919Y33242D01*
X82762Y32454D02*
X82762Y32690D01*
X82604Y32769D02*
X82919Y32927D01*
X82604Y32769D02*
X82762Y32690D01*
X81549Y29574D02*
X83951D01*
X82604Y33084D02*
X82919Y32927D01*
X81549Y35184D02*
X83951D01*
X81549Y29574D02*
Y35184D01*
X79211Y33110D02*
X80589D01*
X79211Y32914D02*
X80589D01*
X79900Y32520D02*
Y32914D01*
Y33110D02*
Y33504D01*
X78916Y32225D02*
Y33799D01*
X80884Y32225D02*
Y33799D01*
X81218Y36812D02*
X81257Y36851D01*
Y36773D02*
Y36851D01*
X81218Y36812D02*
X81257Y36773D01*
X81139Y36812D02*
X81297Y36930D01*
Y36694D02*
Y36930D01*
X81139Y36812D02*
X81297Y36694D01*
X81060Y36812D02*
X81336Y37009D01*
Y36615D02*
Y37009D01*
X81060Y36812D02*
X81336Y36615D01*
X80982Y36812D02*
X81375Y37088D01*
Y36536D02*
Y37088D01*
X80982Y36812D02*
X81375Y36536D01*
X80903Y36812D02*
X81415Y37166D01*
Y36458D02*
Y37166D01*
X80903Y36812D02*
X81415Y36458D01*
X80273Y36812D02*
X80923D01*
X81415D02*
X82202D01*
X80923Y36418D02*
Y37206D01*
X79249Y37993D02*
X83974D01*
X79249Y35631D02*
Y37993D01*
Y35631D02*
X83974D01*
Y37993D01*
X81966Y41599D02*
X82005Y41638D01*
X81966Y41599D02*
Y41677D01*
X82005Y41638D01*
X81926Y41520D02*
X82084Y41638D01*
X81926Y41520D02*
Y41756D01*
X82084Y41638D01*
X81887Y41441D02*
X82163Y41638D01*
X81887Y41441D02*
Y41835D01*
X82163Y41638D01*
X81848Y41362D02*
X82241Y41638D01*
X81848Y41362D02*
Y41914D01*
X82241Y41638D01*
X81808Y41284D02*
X82320Y41638D01*
X81808Y41284D02*
Y41992D01*
X82320Y41638D01*
X82300D02*
X82950D01*
X81021D02*
X81808D01*
X82300Y41244D02*
Y42032D01*
X79249Y40457D02*
X83974D01*
Y42819D01*
X79249D02*
X83974D01*
X79249Y40457D02*
Y42819D01*
X74447Y30894D02*
X74447Y30106D01*
X74053D02*
Y30894D01*
X74447Y30500D02*
X75431Y30500D01*
X73069Y30500D02*
X74053Y30500D01*
X76809Y31484D02*
X76809Y29516D01*
X71691Y29516D02*
X76809Y29516D01*
X71691Y29516D02*
Y31484D01*
X76809D01*
X84512Y24087D02*
Y26056D01*
X81933Y25386D02*
X82445Y25622D01*
X81933Y25386D02*
X81933Y25780D01*
X82445Y25622D01*
X81973Y25465D02*
X82327Y25622D01*
X81973Y25701D02*
X81973Y25465D01*
X81973Y25701D02*
X82327Y25622D01*
X82012Y25544D02*
X82209Y25622D01*
X82012Y25544D02*
X82012Y25622D01*
X82170Y25622D01*
X82524Y25622D02*
X82839D01*
X81559Y25622D02*
X81894D01*
Y25307D02*
X81894Y25780D01*
X81894Y25307D02*
X82524Y25622D01*
X81894Y25859D02*
X82524Y25622D01*
X81894Y25859D02*
X81894Y25780D01*
X79788Y24087D02*
Y26056D01*
X84512D01*
X79788Y24087D02*
X84512Y24087D01*
X74167Y26450D02*
X74207Y26489D01*
Y26411D02*
Y26489D01*
X74167Y26450D02*
X74207Y26411D01*
X74089Y26450D02*
X74246Y26568D01*
Y26332D02*
Y26568D01*
X74089Y26450D02*
X74246Y26332D01*
X74010Y26450D02*
X74285Y26647D01*
Y26253D02*
Y26647D01*
X74010Y26450D02*
X74285Y26253D01*
X73931Y26450D02*
X74325Y26726D01*
Y26174D02*
Y26726D01*
X73931Y26450D02*
X74325Y26174D01*
X73675Y26450D02*
X73872D01*
X74364D02*
X74797D01*
X73872Y26155D02*
Y26745D01*
X72868Y27041D02*
X75860D01*
X72868Y25859D02*
Y27041D01*
Y25859D02*
X75860D01*
Y27041D01*
X74691Y18650D02*
X75399D01*
X74691D02*
Y18910D01*
Y20398D01*
X76856Y20398D01*
Y18650D02*
Y20398D01*
X75903Y18650D02*
X76856Y18650D01*
X90895Y9803D02*
X94005D01*
X91859Y8602D02*
X93159D01*
X91466Y8780D02*
Y10000D01*
X91269Y8976D02*
Y10000D01*
X91072Y9252D02*
Y10000D01*
X93041Y9606D02*
X93966D01*
X93041Y9409D02*
X93907D01*
X93041Y9193D02*
X93808D01*
X93041Y8996D02*
X93670D01*
X90934Y9606D02*
X91859D01*
X90993Y9409D02*
X91859D01*
X91111Y9193D02*
X91859D01*
X91249Y8996D02*
X91859D01*
X91446Y8799D02*
X91859D01*
X91741Y8602D02*
X91859D01*
X91663Y8642D02*
Y10000D01*
X93041Y9606D02*
Y10000D01*
X91859Y9606D02*
Y10000D01*
X93828Y9252D02*
Y10000D01*
X93631Y8976D02*
Y10000D01*
X93434Y8780D02*
Y10000D01*
X93237Y8642D02*
Y10000D01*
X90875D02*
X94025D01*
X91859Y8543D02*
Y9606D01*
X93041Y8543D02*
Y9606D01*
X90777Y11673D02*
X91170D01*
X90974Y11476D02*
Y11870D01*
X97400Y12200D02*
X97439Y12239D01*
Y12161D02*
Y12239D01*
X97400Y12200D02*
X97439Y12161D01*
X97321Y12200D02*
X97479Y12318D01*
Y12082D02*
Y12318D01*
X97321Y12200D02*
X97479Y12082D01*
X97243Y12200D02*
X97518Y12397D01*
Y12003D02*
Y12397D01*
X97243Y12200D02*
X97518Y12003D01*
X97164Y12200D02*
X97557Y12476D01*
Y11924D02*
Y12476D01*
X97164Y12200D02*
X97557Y11924D01*
X96908Y12200D02*
X97105D01*
X97597D02*
X98030D01*
X97105Y11905D02*
Y12495D01*
X96101Y12791D02*
X99093D01*
X96101Y11609D02*
Y12791D01*
Y11609D02*
X99093D01*
Y12791D01*
X99795Y9803D02*
X102905D01*
X100759Y8602D02*
X102059D01*
X100366Y8780D02*
Y10000D01*
X100169Y8976D02*
Y10000D01*
X99972Y9252D02*
Y10000D01*
X101941Y9606D02*
X102866D01*
X101941Y9409D02*
X102807D01*
X101941Y9193D02*
X102708D01*
X101941Y8996D02*
X102570D01*
X99834Y9606D02*
X100759D01*
X99893Y9409D02*
X100759D01*
X100011Y9193D02*
X100759D01*
X100149Y8996D02*
X100759D01*
X100346Y8799D02*
X100759D01*
X100641Y8602D02*
X100759D01*
X100563Y8642D02*
Y10000D01*
X101941Y9606D02*
Y10000D01*
X100759Y9606D02*
Y10000D01*
X102728Y9252D02*
Y10000D01*
X102531Y8976D02*
Y10000D01*
X102334Y8780D02*
Y10000D01*
X102137Y8642D02*
Y10000D01*
X99775D02*
X102925D01*
X100759Y8543D02*
Y9606D01*
X101941Y8543D02*
Y9606D01*
X99677Y11673D02*
X100070D01*
X99874Y11476D02*
Y11870D01*
X105768Y11242D02*
X105817D01*
X105768D02*
Y11734D01*
X105817Y11242D02*
X106211D01*
Y10553D02*
Y11242D01*
X105817Y10553D02*
X106211D01*
X105817Y10061D02*
Y10553D01*
Y10061D02*
X106211D01*
Y9372D02*
Y10061D01*
X105768Y9372D02*
X106211D01*
X105768Y8781D02*
Y9372D01*
Y8781D02*
X108032D01*
X105768Y11734D02*
X108032D01*
X107018Y41581D02*
Y45519D01*
X107412Y41581D02*
Y45558D01*
X104853Y42936D02*
Y44137D01*
Y45558D02*
X107412Y45558D01*
X104853Y41581D02*
X107412Y41581D01*
X104853Y44727D02*
Y45554D01*
Y44727D02*
X105404D01*
Y44137D02*
Y44727D01*
X104853Y44137D02*
X105404D01*
X104853Y42936D02*
X105404D01*
Y42326D02*
Y42936D01*
X104853Y42326D02*
X105404D01*
X104853Y41578D02*
Y42326D01*
X96621Y53442D02*
X102723D01*
X96621Y54544D02*
X102723D01*
X96621Y53442D02*
Y54544D01*
X102723Y53442D02*
Y54544D01*
X97443Y60305D02*
X102561D01*
X97443Y58731D02*
X102561D01*
X100494Y59518D02*
X101282D01*
X102561Y58731D02*
Y60305D01*
X100494Y59223D02*
Y59813D01*
X97443Y58731D02*
Y60305D01*
X98772Y59518D02*
X99510D01*
Y59223D02*
Y59813D01*
X96801Y56499D02*
Y62109D01*
X95612Y60245D02*
X95612Y60482D01*
X95612Y60245D02*
X95769Y60167D01*
X95454Y60009D02*
X95769Y60167D01*
X95612Y59379D02*
X95612Y59615D01*
X95454Y59694D02*
X95769Y59852D01*
X95454Y59694D02*
X95612Y59615D01*
X94399Y56499D02*
X96801D01*
X95454Y60009D02*
X95769Y59852D01*
X94399Y62109D02*
X96801D01*
X94399Y56499D02*
Y62109D01*
X90145Y58986D02*
X93255D01*
X90991Y60187D02*
X92291D01*
X92684Y58789D02*
Y60009D01*
X92881Y58789D02*
Y59813D01*
X93078Y58789D02*
Y59537D01*
X90184Y59183D02*
X91109D01*
X90243Y59380D02*
X91109D01*
X90342Y59596D02*
X91109D01*
X90480Y59793D02*
X91109D01*
X92291Y59183D02*
X93216D01*
X92291Y59380D02*
X93157D01*
X92291Y59596D02*
X93039D01*
X92291Y59793D02*
X92901D01*
X92291Y59990D02*
X92704D01*
X92291Y60187D02*
X92409D01*
X92487Y58789D02*
Y60147D01*
X91109Y58789D02*
Y59183D01*
X92291Y58789D02*
Y59183D01*
X90322Y58789D02*
Y59537D01*
X90519Y58789D02*
Y59813D01*
X90716Y58789D02*
Y60009D01*
X90913Y58789D02*
Y60147D01*
X90125Y58789D02*
X93275D01*
X92291Y59183D02*
Y60246D01*
X91109Y59183D02*
Y60246D01*
X92980Y57116D02*
X93373D01*
X93176Y56919D02*
Y57313D01*
X88094Y50881D02*
Y51590D01*
X87897Y50842D02*
Y51590D01*
X87700Y50822D02*
Y51590D01*
X87503Y50803D02*
Y51590D01*
X87306Y50822D02*
Y51590D01*
X87109Y50842D02*
Y51590D01*
X86913Y50881D02*
Y51590D01*
X86519Y51000D02*
Y53362D01*
X86322Y51098D02*
Y53362D01*
X86125Y51216D02*
Y53362D01*
X85928Y51354D02*
Y53362D01*
X85731Y51531D02*
Y53362D01*
X85535Y51728D02*
Y53362D01*
X85338Y52004D02*
Y53362D01*
X85141Y52378D02*
Y53362D01*
X88487Y51000D02*
Y53362D01*
X88684Y51098D02*
Y53362D01*
X88881Y51216D02*
Y53362D01*
X89078Y51354D02*
Y53362D01*
X89275Y51511D02*
Y53362D01*
X89472Y51728D02*
Y53362D01*
X89668Y52004D02*
Y53362D01*
X89865Y52378D02*
Y53362D01*
X88290Y52968D02*
X90023D01*
X88290Y52771D02*
X89983D01*
X88290Y52574D02*
X89924D01*
X88290Y52378D02*
X89865D01*
X88290Y52181D02*
X89767D01*
X88290Y51984D02*
X89649D01*
X88290Y51787D02*
X89511D01*
X88094Y53165D02*
Y53362D01*
X87897Y53165D02*
Y53362D01*
X87700Y53165D02*
Y53362D01*
X87503Y53165D02*
Y53362D01*
X87306Y53165D02*
Y53362D01*
X87109Y53165D02*
Y53362D01*
X86913Y53165D02*
Y53362D01*
X84983Y52968D02*
X86716D01*
X85023Y52771D02*
X86716D01*
X85082Y52574D02*
X86716D01*
X85141Y52378D02*
X86716D01*
X85239Y52181D02*
X86716D01*
X85357Y51984D02*
X86716D01*
X85495Y51787D02*
X86716D01*
Y50941D02*
Y53362D01*
X88290Y50941D02*
Y53362D01*
X84964Y53165D02*
X90042D01*
X85672Y51590D02*
X89353D01*
X85869Y51393D02*
X89137D01*
X86145Y51196D02*
X88861D01*
X86539Y51000D02*
X88487D01*
X84944Y53362D02*
X85042D01*
X90062D01*
X83201Y56412D02*
Y62022D01*
X82012Y60158D02*
X82012Y60395D01*
X82012Y60158D02*
X82169Y60080D01*
X81854Y59922D02*
X82169Y60080D01*
X82012Y59292D02*
X82012Y59528D01*
X81854Y59607D02*
X82169Y59765D01*
X81854Y59607D02*
X82012Y59528D01*
X80799Y56412D02*
X83201D01*
X81854Y59922D02*
X82169Y59765D01*
X80799Y62022D02*
X83201D01*
X80799Y56412D02*
Y62022D01*
X83112Y51237D02*
Y53206D01*
X80533Y52536D02*
X81045Y52772D01*
X80533Y52536D02*
X80533Y52930D01*
X81045Y52772D01*
X80573Y52615D02*
X80927Y52772D01*
X80573Y52851D02*
X80573Y52615D01*
X80573Y52851D02*
X80927Y52772D01*
X80612Y52694D02*
X80809Y52772D01*
X80612Y52694D02*
X80612Y52772D01*
X80770Y52772D01*
X81124Y52772D02*
X81439D01*
X80159Y52772D02*
X80494D01*
Y52457D02*
X80494Y52930D01*
X80494Y52457D02*
X81124Y52772D01*
X80494Y53009D02*
X81124Y52772D01*
X80494Y53009D02*
X80494Y52930D01*
X78388Y51237D02*
Y53206D01*
X83112D01*
X78388Y51237D02*
X83112Y51237D01*
X78461Y58186D02*
X79839D01*
X78461Y58383D02*
X79839D01*
X79150D02*
Y58776D01*
Y57792D02*
Y58186D01*
X80134Y57497D02*
Y59072D01*
X78166Y57497D02*
Y59072D01*
X67702Y21302D02*
X67702Y25802D01*
X69202Y21302D02*
Y25802D01*
X67702D02*
X69202D01*
X68702Y21302D02*
X69202Y21302D01*
X67702Y21302D02*
X68202Y21302D01*
X65400Y27766D02*
Y29734D01*
X64573Y29183D02*
X65400D01*
X64573Y28317D02*
Y29183D01*
Y28317D02*
X65400D01*
X65203Y27805D02*
Y28317D01*
X65046Y27844D02*
Y28317D01*
X64888Y27923D02*
Y28317D01*
X64731Y28041D02*
Y28317D01*
X64613Y28159D02*
X65400D01*
X64809Y28002D02*
X65400D01*
X64809Y29498D02*
X65400D01*
X64613Y29341D02*
X65400D01*
X64731Y29183D02*
Y29459D01*
X64888Y29183D02*
Y29577D01*
X65046Y29183D02*
Y29656D01*
X65203Y29183D02*
Y29695D01*
X69375Y30511D02*
X69414Y30550D01*
X69375Y30511D02*
Y30589D01*
X69414Y30550D01*
X69335Y30432D02*
X69493Y30550D01*
X69335Y30432D02*
Y30668D01*
X69493Y30550D01*
X69296Y30353D02*
X69572Y30550D01*
X69296Y30353D02*
Y30747D01*
X69572Y30550D01*
X69257Y30274D02*
X69650Y30550D01*
X69257Y30274D02*
Y30826D01*
X69650Y30550D01*
X69709D02*
X69906D01*
X68784D02*
X69217D01*
X69709Y30255D02*
Y30845D01*
X67721Y29959D02*
X70713D01*
Y31141D01*
X67721D02*
X70713D01*
X67721Y29959D02*
Y31141D01*
X65511Y30511D02*
X65550Y30550D01*
X65511Y30511D02*
Y30589D01*
X65550Y30550D01*
X65471Y30432D02*
X65629Y30550D01*
X65471Y30432D02*
Y30668D01*
X65629Y30550D01*
X65432Y30353D02*
X65707Y30550D01*
X65432Y30353D02*
Y30747D01*
X65707Y30550D01*
X65393Y30274D02*
X65786Y30550D01*
X65393Y30274D02*
Y30826D01*
X65786Y30550D01*
X65845D02*
X66042D01*
X64920D02*
X65353D01*
X65845Y30255D02*
Y30845D01*
X63857Y29959D02*
X66849D01*
Y31141D01*
X63857D02*
X66849D01*
X63857Y29959D02*
Y31141D01*
X103081Y37963D02*
X107412D01*
Y26845D02*
Y37963D01*
X103081Y26845D02*
X107412D01*
X103081D02*
Y37963D01*
X105151Y16512D02*
Y22122D01*
X103962Y20258D02*
X103962Y20495D01*
X103962Y20258D02*
X104119Y20180D01*
X103804Y20022D02*
X104119Y20180D01*
X103962Y19392D02*
X103962Y19628D01*
X103804Y19707D02*
X104119Y19865D01*
X103804Y19707D02*
X103962Y19628D01*
X102749Y16512D02*
X105151D01*
X103804Y20022D02*
X104119Y19865D01*
X102749Y22122D02*
X105151D01*
X102749Y16512D02*
Y22122D01*
X96195Y20153D02*
X99305D01*
X97159Y18952D02*
X98459D01*
X96766Y19130D02*
Y20350D01*
X96569Y19326D02*
Y20350D01*
X96372Y19602D02*
Y20350D01*
X98341Y19956D02*
X99266D01*
X98341Y19759D02*
X99207D01*
X98341Y19543D02*
X99108D01*
X98341Y19346D02*
X98970D01*
X96234Y19956D02*
X97159D01*
X96293Y19759D02*
X97159D01*
X96411Y19543D02*
X97159D01*
X96549Y19346D02*
X97159D01*
X96746Y19149D02*
X97159D01*
X97041Y18952D02*
X97159D01*
X96963Y18992D02*
Y20350D01*
X98341Y19956D02*
Y20350D01*
X97159Y19956D02*
Y20350D01*
X99128Y19602D02*
Y20350D01*
X98931Y19326D02*
Y20350D01*
X98734Y19130D02*
Y20350D01*
X98537Y18992D02*
Y20350D01*
X96175D02*
X99325D01*
X97159Y18893D02*
Y19956D01*
X98341Y18893D02*
Y19956D01*
X96077Y22023D02*
X96470D01*
X96274Y21826D02*
Y22220D01*
X92095Y20153D02*
X95205D01*
X93059Y18952D02*
X94359D01*
X92666Y19130D02*
Y20350D01*
X92469Y19326D02*
Y20350D01*
X92272Y19602D02*
Y20350D01*
X94241Y19956D02*
X95166D01*
X94241Y19759D02*
X95107D01*
X94241Y19543D02*
X95008D01*
X94241Y19346D02*
X94870D01*
X92134Y19956D02*
X93059D01*
X92193Y19759D02*
X93059D01*
X92311Y19543D02*
X93059D01*
X92449Y19346D02*
X93059D01*
X92646Y19149D02*
X93059D01*
X92941Y18952D02*
X93059D01*
X92863Y18992D02*
Y20350D01*
X94241Y19956D02*
Y20350D01*
X93059Y19956D02*
Y20350D01*
X95028Y19602D02*
Y20350D01*
X94831Y19326D02*
Y20350D01*
X94634Y19130D02*
Y20350D01*
X94437Y18992D02*
Y20350D01*
X92075D02*
X95225D01*
X93059Y18893D02*
Y19956D01*
X94241Y18893D02*
Y19956D01*
X91977Y22023D02*
X92370D01*
X92174Y21826D02*
Y22220D01*
X96809Y24341D02*
Y27491D01*
Y24341D02*
X97991D01*
Y27491D01*
X96809D02*
X97991D01*
X97400Y26014D02*
Y26408D01*
Y25424D02*
Y25817D01*
X97164D02*
X97656D01*
X97164Y26014D02*
X97656D01*
X87809Y27222D02*
Y27930D01*
X88006Y27222D02*
Y27970D01*
X88203Y27222D02*
Y27989D01*
X88400Y27222D02*
Y28009D01*
X88597Y27222D02*
Y27989D01*
X88794Y27222D02*
Y27970D01*
X88991Y27222D02*
Y27930D01*
X89384Y25450D02*
Y27812D01*
X89581Y25450D02*
Y27714D01*
X89778Y25450D02*
Y27596D01*
X89975Y25450D02*
Y27458D01*
X90172Y25450D02*
Y27281D01*
X90368Y25450D02*
Y27084D01*
X90565Y25450D02*
Y26808D01*
X90762Y25450D02*
Y26434D01*
X87416Y25450D02*
Y27812D01*
X87219Y25450D02*
Y27714D01*
X87022Y25450D02*
Y27596D01*
X86825Y25450D02*
Y27458D01*
X86628Y25450D02*
Y27300D01*
X86431Y25450D02*
Y27084D01*
X86235Y25450D02*
Y26808D01*
X86038Y25450D02*
Y26434D01*
X85880Y25844D02*
X87613D01*
X85920Y26041D02*
X87613D01*
X85979Y26237D02*
X87613D01*
X86038Y26434D02*
X87613D01*
X86136Y26631D02*
X87613D01*
X86254Y26828D02*
X87613D01*
X86392Y27025D02*
X87613D01*
X87809Y25450D02*
Y25647D01*
X88006Y25450D02*
Y25647D01*
X88203Y25450D02*
Y25647D01*
X88400Y25450D02*
Y25647D01*
X88597Y25450D02*
Y25647D01*
X88794Y25450D02*
Y25647D01*
X88991Y25450D02*
Y25647D01*
X89187Y25844D02*
X90920D01*
X89187Y26041D02*
X90880D01*
X89187Y26237D02*
X90821D01*
X89187Y26434D02*
X90762D01*
X89187Y26631D02*
X90664D01*
X89187Y26828D02*
X90546D01*
X89187Y27025D02*
X90408D01*
X89187Y25450D02*
Y27871D01*
X87613Y25450D02*
Y27871D01*
X85861Y25647D02*
X90939D01*
X86550Y27222D02*
X90231D01*
X86766Y27418D02*
X90034D01*
X87042Y27615D02*
X89758D01*
X87416Y27812D02*
X89365D01*
X90861Y25450D02*
X90959D01*
X85841D02*
X90861D01*
X91051Y16412D02*
Y22022D01*
X89862Y20158D02*
X89862Y20395D01*
X89862Y20158D02*
X90019Y20080D01*
X89704Y19922D02*
X90019Y20080D01*
X89862Y19292D02*
X89862Y19528D01*
X89704Y19607D02*
X90019Y19765D01*
X89704Y19607D02*
X89862Y19528D01*
X88649Y16412D02*
X91051D01*
X89704Y19922D02*
X90019Y19765D01*
X88649Y22022D02*
X91051D01*
X88649Y16412D02*
Y22022D01*
X86061Y20448D02*
X87439D01*
X86061Y20252D02*
X87439D01*
X86750Y19858D02*
Y20252D01*
Y20448D02*
Y20842D01*
X85766Y19563D02*
Y21137D01*
X87734Y19563D02*
Y21137D01*
X74900Y12200D02*
X74939Y12161D01*
X74861D02*
X74939D01*
X74861D02*
X74900Y12200D01*
Y12279D02*
X75018Y12121D01*
X74782D02*
X75018D01*
X74782D02*
X74900Y12279D01*
Y12357D02*
X75097Y12082D01*
X74703D02*
X75097D01*
X74703D02*
X74900Y12357D01*
Y12436D02*
X75176Y12043D01*
X74624D02*
X75176D01*
X74624D02*
X74900Y12436D01*
Y12495D02*
Y12692D01*
Y11570D02*
Y12003D01*
X74605Y12495D02*
X75195D01*
X75491Y10507D02*
Y13499D01*
X74309D02*
X75491D01*
X74309Y10507D02*
Y13499D01*
Y10507D02*
X75491D01*
X62761Y19464D02*
X62859Y19267D01*
X62761Y21236D02*
X62761Y19464D01*
X62761Y21236D02*
X62859Y21433D01*
X62761Y24202D02*
X62859Y24398D01*
X62761Y24202D02*
X62761Y22430D01*
X62859Y22233D01*
X60586Y22213D02*
Y23472D01*
Y23925D02*
Y25165D01*
X59877Y21228D02*
Y26051D01*
X61275D01*
X59877Y21228D02*
X61275Y21228D01*
X60546Y23807D02*
X60586Y23768D01*
X60546Y23807D02*
X60625D01*
X60586Y23768D02*
X60625Y23807D01*
X60468Y23846D02*
X60586Y23689D01*
X60468Y23846D02*
X60704D01*
X60586Y23689D02*
X60704Y23846D01*
X60389Y23886D02*
X60586Y23610D01*
X60389Y23886D02*
X60783Y23886D01*
X60586Y23610D02*
X60783Y23886D01*
X60310Y23925D02*
X60586Y23531D01*
X60310Y23925D02*
X60861D01*
X60586Y23531D02*
X60861Y23925D01*
X60291Y23472D02*
X60881D01*
X61294Y21228D02*
Y26051D01*
X57163Y20734D02*
X58737D01*
X57163Y18766D02*
X58737D01*
X57458Y19750D02*
X57852D01*
X58048D02*
X58442D01*
X58048Y19061D02*
Y20439D01*
X57852Y19061D02*
Y20439D01*
X48907Y18463D02*
X55206D01*
X48907Y20431D02*
X55206D01*
X48907Y20234D02*
Y20431D01*
X55206Y19644D02*
Y20431D01*
Y18463D02*
Y18856D01*
X48907Y18463D02*
Y18856D01*
Y19644D02*
Y20234D01*
X52060Y8250D02*
X56509D01*
X54894Y9234D02*
X55131Y9234D01*
X54816Y9077D02*
X54894Y9234D01*
X54658Y9392D02*
X54816Y9077D01*
X54028Y9234D02*
X54265D01*
X54343Y9392D02*
X54501Y9077D01*
X54265Y9234D02*
X54343Y9392D01*
X52060Y8250D02*
Y10219D01*
X54501Y9077D02*
X54658Y9392D01*
X56509Y10219D02*
X56509Y8250D01*
X52060Y10219D02*
X56509D01*
X39356Y4803D02*
X40144Y4803D01*
X39356Y5197D02*
X40144D01*
X39750Y3819D02*
X39750Y4803D01*
X39750Y6181D02*
X39750Y5197D01*
X38766Y2441D02*
X40734Y2441D01*
X38766Y7559D02*
X38766Y2441D01*
X38766Y7559D02*
X40734D01*
Y2441D02*
Y7559D01*
X41656Y5197D02*
X42444Y5197D01*
X41656Y4803D02*
X42444D01*
X42050Y5197D02*
X42050Y6181D01*
X42050Y4803D02*
X42050Y3819D01*
X41066Y7559D02*
X43034Y7559D01*
X43034Y2441D01*
X41066D02*
X43034D01*
X41066D02*
Y7559D01*
X28236Y14408D02*
Y20018D01*
X27047Y18154D02*
X27047Y18390D01*
X27047Y18154D02*
X27205Y18075D01*
X26890Y17918D02*
X27205Y18075D01*
X27047Y17288D02*
X27047Y17524D01*
X26890Y17603D02*
X27205Y17761D01*
X26890Y17603D02*
X27047Y17524D01*
X25835Y14408D02*
X28236D01*
X26890Y17918D02*
X27205Y17761D01*
X25835Y20018D02*
X28236D01*
X25835Y14408D02*
Y20018D01*
X35219Y11090D02*
Y14437D01*
X38467Y11307D02*
X38467Y17980D01*
X38762Y11405D02*
Y17980D01*
X39057Y11523D02*
Y17980D01*
X39353Y11661D02*
Y17980D01*
X39648D02*
X39648Y11799D01*
X39943Y17980D02*
X39943Y11976D01*
X40239Y12153D02*
Y17980D01*
X40534Y12370D02*
Y17980D01*
X40829D02*
X40829Y12606D01*
X41124Y12862D02*
X41124Y17980D01*
X41420Y13157D02*
Y17980D01*
X41715Y13492D02*
Y17980D01*
X42010Y13885D02*
X42010Y17980D01*
X42306Y14338D02*
X42306Y17980D01*
X42601Y14889D02*
X42601Y17980D01*
X42896Y15598D02*
Y17980D01*
X43191Y16720D02*
Y17980D01*
X37876Y17094D02*
X43250Y17094D01*
X29510Y17685D02*
X43290D01*
X29569Y17094D02*
X34924Y17094D01*
X29609Y16799D02*
X34924D01*
X29648Y16504D02*
X34924D01*
X29727Y16208D02*
X34924D01*
X29806Y15913D02*
X34924D01*
X29904Y15618D02*
X34924D01*
X30002Y15322D02*
X34924Y15322D01*
X30140Y15027D02*
X34924D01*
X30278Y14732D02*
X34924D01*
X30613Y14141D02*
X42187Y14141D01*
X30829Y13846D02*
X41971D01*
X31046Y13551D02*
X41754D01*
X31302Y13256D02*
X41498D01*
X31577Y12960D02*
X41223D01*
X31912Y12665D02*
X40888D01*
X32266Y12370D02*
X40534D01*
X32699Y12074D02*
X40101D01*
X33211Y11779D02*
X39589D01*
X33841Y11484D02*
X38959D01*
X34786Y11189D02*
X38014D01*
X37975Y14732D02*
X42522D01*
X37876Y15027D02*
X42660D01*
X37876Y15322D02*
X42798D01*
X37876Y15618D02*
X42896D01*
X37876Y15913D02*
X42994D01*
X37876Y16208D02*
X43073D01*
X37876Y16504D02*
X43152D01*
X37876Y16799D02*
X43191D01*
X34924Y11149D02*
Y17980D01*
X34628D02*
X34628Y11228D01*
X34333Y11307D02*
X34333Y17980D01*
X34038Y11405D02*
Y17980D01*
X33743Y11523D02*
X33743Y17980D01*
X33447Y11661D02*
Y17980D01*
X33152Y11818D02*
Y17980D01*
X32857Y11976D02*
X32857Y17980D01*
X32561Y12173D02*
Y17980D01*
X32266Y12370D02*
Y17980D01*
X31971Y12606D02*
Y17980D01*
X31676D02*
X31676Y12862D01*
X31380Y13177D02*
Y17980D01*
X31085Y13511D02*
Y17980D01*
X30790D02*
X30790Y13885D01*
X30494Y17980D02*
X30494Y14338D01*
X30199Y17980D02*
X30199Y14889D01*
X29904Y15598D02*
Y17980D01*
X29609Y16740D02*
Y17980D01*
X37876Y11149D02*
Y17980D01*
X30435Y14437D02*
X42365Y14437D01*
X35219Y17389D02*
Y17980D01*
X35514Y17389D02*
Y17980D01*
X35809D02*
X35809Y17389D01*
X36105Y17389D02*
Y17980D01*
X36400Y17389D02*
Y17980D01*
X36695Y17389D02*
Y17980D01*
X36991Y17389D02*
X36991Y17980D01*
X37286Y17389D02*
Y17980D01*
X37581D02*
X37581Y17389D01*
X38172Y11228D02*
X38172Y17980D01*
X37581Y11090D02*
X37581Y14437D01*
X37286Y11051D02*
Y14437D01*
X36991Y11011D02*
Y14437D01*
X36695D02*
X36695Y10992D01*
X36400Y14437D02*
X36400Y10992D01*
X36105D02*
Y14437D01*
X35809Y11011D02*
Y14437D01*
X35514Y11051D02*
Y14437D01*
X29530Y17389D02*
X43270D01*
X29510Y17980D02*
X43290D01*
X30101Y25362D02*
X31676D01*
X30888Y24574D02*
X30888Y26149D01*
X35219Y27059D02*
Y30405D01*
X38467Y27275D02*
X38467Y33948D01*
X38762Y27374D02*
Y33948D01*
X39057Y27492D02*
Y33948D01*
X39353Y27630D02*
Y33948D01*
X39648D02*
X39648Y27767D01*
X39943Y33948D02*
X39943Y27944D01*
X40239Y28122D02*
Y33948D01*
X40534Y28338D02*
Y33948D01*
X40829D02*
X40829Y28574D01*
X41124Y28830D02*
X41124Y33948D01*
X41420Y29126D02*
Y33948D01*
X41715Y29460D02*
Y33948D01*
X42010Y29854D02*
X42010Y33948D01*
X42306Y30307D02*
X42306Y33948D01*
X42601Y30858D02*
X42601Y33948D01*
X42896Y31567D02*
Y33948D01*
X43191Y32689D02*
Y33948D01*
X37876Y33063D02*
X43250Y33063D01*
X29510Y33653D02*
X43290D01*
X29569Y33063D02*
X34924Y33063D01*
X29609Y32767D02*
X34924D01*
X29648Y32472D02*
X34924D01*
X29727Y32177D02*
X34924D01*
X29806Y31881D02*
X34924D01*
X29904Y31586D02*
X34924D01*
X30002Y31291D02*
X34924Y31291D01*
X30140Y30996D02*
X34924D01*
X30278Y30700D02*
X34924D01*
X30613Y30110D02*
X42187Y30110D01*
X30829Y29815D02*
X41971D01*
X31046Y29519D02*
X41754D01*
X31302Y29224D02*
X41498D01*
X31577Y28929D02*
X41223D01*
X31912Y28633D02*
X40888D01*
X32266Y28338D02*
X40534D01*
X32699Y28043D02*
X40101D01*
X33211Y27748D02*
X39589D01*
X33841Y27452D02*
X38959D01*
X34786Y27157D02*
X38014D01*
X37975Y30700D02*
X42522D01*
X37876Y30996D02*
X42660D01*
X37876Y31291D02*
X42798D01*
X37876Y31586D02*
X42896D01*
X37876Y31881D02*
X42994D01*
X37876Y32177D02*
X43073D01*
X37876Y32472D02*
X43152D01*
X37876Y32767D02*
X43191D01*
X34924Y27118D02*
Y33948D01*
X34628D02*
X34628Y27196D01*
X34333Y27275D02*
X34333Y33948D01*
X34038Y27374D02*
Y33948D01*
X33743Y27492D02*
X33743Y33948D01*
X33447Y27630D02*
Y33948D01*
X33152Y27787D02*
Y33948D01*
X32857Y27944D02*
X32857Y33948D01*
X32561Y28141D02*
Y33948D01*
X32266Y28338D02*
Y33948D01*
X31971Y28574D02*
Y33948D01*
X31676D02*
X31676Y28830D01*
X31380Y29145D02*
Y33948D01*
X31085Y29480D02*
Y33948D01*
X30790D02*
X30790Y29854D01*
X30494Y33948D02*
X30494Y30307D01*
X30199Y33948D02*
X30199Y30858D01*
X29904Y31567D02*
Y33948D01*
X29609Y32708D02*
Y33948D01*
X37876Y27118D02*
Y33948D01*
X30435Y30405D02*
X42365Y30405D01*
X35219Y33358D02*
Y33948D01*
X35514Y33358D02*
Y33948D01*
X35809D02*
X35809Y33358D01*
X36105Y33358D02*
Y33948D01*
X36400Y33358D02*
Y33948D01*
X36695Y33358D02*
Y33948D01*
X36991Y33358D02*
X36991Y33948D01*
X37286Y33358D02*
Y33948D01*
X37581D02*
X37581Y33358D01*
X38172Y27196D02*
X38172Y33948D01*
X37581Y27059D02*
X37581Y30405D01*
X37286Y27019D02*
Y30405D01*
X36991Y26980D02*
Y30405D01*
X36695D02*
X36695Y26960D01*
X36400Y30405D02*
X36400Y26960D01*
X36105D02*
Y30405D01*
X35809Y26980D02*
Y30405D01*
X35514Y27019D02*
Y30405D01*
X29530Y33358D02*
X43270D01*
X29510Y33948D02*
X43290D01*
X30101Y41330D02*
X31676D01*
X30888Y40543D02*
X30888Y42118D01*
X46698Y41211D02*
Y42589D01*
X46502Y41211D02*
Y42589D01*
X46108Y41900D02*
X46502D01*
X46698D02*
X47092D01*
X45813Y42884D02*
X47387D01*
X45813Y40916D02*
X47387D01*
X48907Y43427D02*
X55206D01*
X48907Y41459D02*
X55206D01*
Y41656D01*
X48907Y41459D02*
Y42246D01*
Y43034D02*
Y43427D01*
X55206Y43034D02*
Y43427D01*
Y41656D02*
Y42246D01*
X54031Y30344D02*
X54070Y30384D01*
X54031Y30344D02*
Y30423D01*
X54070Y30384D01*
X53991Y30265D02*
X54149Y30384D01*
X53991Y30265D02*
Y30502D01*
X54149Y30384D01*
X53952Y30187D02*
X54227Y30384D01*
X53952Y30187D02*
Y30580D01*
X54227Y30384D01*
X53912Y30108D02*
X54306Y30384D01*
X53912Y30108D02*
Y30659D01*
X54306Y30384D01*
X54365D02*
X54562D01*
X53440D02*
X53873D01*
X54365Y30088D02*
Y30679D01*
X52377Y29793D02*
X55369D01*
Y30974D01*
X52377D02*
X55369D01*
X52377Y29793D02*
Y30974D01*
X54031Y28744D02*
X54070Y28784D01*
X54031Y28744D02*
Y28823D01*
X54070Y28784D01*
X53991Y28665D02*
X54149Y28784D01*
X53991Y28665D02*
Y28902D01*
X54149Y28784D01*
X53952Y28587D02*
X54227Y28784D01*
X53952Y28587D02*
Y28980D01*
X54227Y28784D01*
X53912Y28508D02*
X54306Y28784D01*
X53912Y28508D02*
Y29059D01*
X54306Y28784D01*
X54365D02*
X54562D01*
X53440D02*
X53873D01*
X54365Y28488D02*
Y29079D01*
X52377Y28193D02*
X55369D01*
Y29374D01*
X52377D02*
X55369D01*
X52377Y28193D02*
Y29374D01*
X54835Y26740D02*
X59165D01*
X54835Y21228D02*
X59165D01*
Y26740D01*
X54835Y21228D02*
Y26740D01*
X49660D02*
X53990D01*
X49660Y21228D02*
X53990D01*
Y26740D01*
X49660Y21228D02*
Y26740D01*
X44485D02*
X48815D01*
X44485Y21228D02*
X48815D01*
Y26740D01*
X44485Y21228D02*
Y26740D01*
X48185Y31219D02*
Y32479D01*
Y29526D02*
Y30767D01*
X48893Y28641D02*
Y33463D01*
X47496Y28641D02*
X48893D01*
X47496Y33463D02*
X48893Y33463D01*
X48185Y30924D02*
X48224Y30885D01*
X48145D02*
X48224D01*
X48145D02*
X48185Y30924D01*
Y31003D02*
X48303Y30845D01*
X48067D02*
X48303D01*
X48067D02*
X48185Y31003D01*
Y31082D02*
X48382Y30806D01*
X47988Y30806D02*
X48382Y30806D01*
X47988Y30806D02*
X48185Y31082D01*
Y31160D02*
X48460Y30767D01*
X47909D02*
X48460D01*
X47909D02*
X48185Y31160D01*
X47889Y31219D02*
X48480D01*
X47476Y28641D02*
Y33463D01*
X44233Y28641D02*
Y34251D01*
X45422Y30268D02*
X45422Y30505D01*
X45264Y30583D02*
X45422Y30505D01*
X45264Y30583D02*
X45579Y30741D01*
X45422Y31135D02*
X45422Y31371D01*
X45264Y30898D02*
X45579Y31056D01*
X45422Y31135D02*
X45579Y31056D01*
X44233Y34251D02*
X46634D01*
X45264Y30898D02*
X45579Y30741D01*
X44233Y28641D02*
X46634D01*
Y34251D01*
X61611Y48389D02*
X61650Y48350D01*
X61611Y48389D02*
X61689D01*
X61650Y48350D02*
X61689Y48389D01*
X61532Y48429D02*
X61650Y48271D01*
X61532Y48429D02*
X61768D01*
X61650Y48271D02*
X61768Y48429D01*
X61453Y48468D02*
X61650Y48193D01*
X61453Y48468D02*
X61847D01*
X61650Y48193D02*
X61847Y48468D01*
X61374Y48507D02*
X61650Y48114D01*
X61374Y48507D02*
X61926D01*
X61650Y48114D02*
X61926Y48507D01*
X61650Y47858D02*
Y48055D01*
Y48547D02*
Y48980D01*
X61355Y48055D02*
X61945D01*
X61059Y47051D02*
Y50043D01*
Y47051D02*
X62241D01*
Y50043D01*
X61059D02*
X62241D01*
X61650Y44700D02*
X61689Y44661D01*
X61611D02*
X61689D01*
X61611D02*
X61650Y44700D01*
Y44779D02*
X61768Y44621D01*
X61532D02*
X61768D01*
X61532D02*
X61650Y44779D01*
Y44857D02*
X61847Y44582D01*
X61453D02*
X61847D01*
X61453D02*
X61650Y44857D01*
Y44936D02*
X61926Y44543D01*
X61374D02*
X61926D01*
X61374D02*
X61650Y44936D01*
Y44995D02*
Y45192D01*
Y44070D02*
Y44503D01*
X61355Y44995D02*
X61945D01*
X62241Y43007D02*
Y45999D01*
X61059D02*
X62241D01*
X61059Y43007D02*
Y45999D01*
Y43007D02*
X62241D01*
X73217Y50891D02*
Y56501D01*
X72028Y54637D02*
X72028Y54873D01*
X72028Y54637D02*
X72186Y54558D01*
X71871Y54400D02*
X72186Y54558D01*
X72028Y53771D02*
X72028Y54007D01*
X71871Y54085D02*
X72186Y54243D01*
X71871Y54085D02*
X72028Y54007D01*
X70815Y50891D02*
X73217D01*
X71871Y54400D02*
X72186Y54243D01*
X70815Y56501D02*
X73217D01*
X70815Y50891D02*
Y56501D01*
X70467Y50891D02*
Y56501D01*
X69278Y54637D02*
X69278Y54873D01*
X69278Y54637D02*
X69436Y54558D01*
X69121Y54400D02*
X69436Y54558D01*
X69278Y53771D02*
X69278Y54007D01*
X69121Y54085D02*
X69436Y54243D01*
X69121Y54085D02*
X69278Y54007D01*
X68065Y50891D02*
X70467D01*
X69121Y54400D02*
X69436Y54243D01*
X68065Y56501D02*
X70467D01*
X68065Y50891D02*
Y56501D01*
X67717Y50891D02*
Y56501D01*
X66528Y54637D02*
X66528Y54873D01*
X66528Y54637D02*
X66686Y54558D01*
X66371Y54400D02*
X66686Y54558D01*
X66528Y53771D02*
X66528Y54007D01*
X66371Y54085D02*
X66686Y54243D01*
X66371Y54085D02*
X66528Y54007D01*
X65315Y50891D02*
X67717D01*
X66371Y54400D02*
X66686Y54243D01*
X65315Y56501D02*
X67717D01*
X65315Y50891D02*
Y56501D01*
X60750Y52742D02*
Y54002D01*
Y54455D02*
Y55695D01*
X60041Y51758D02*
Y56581D01*
X61439D01*
X60041Y51758D02*
X61439Y51758D01*
X60711Y54337D02*
X60750Y54297D01*
X60711Y54337D02*
X60789D01*
X60750Y54297D02*
X60789Y54337D01*
X60632Y54376D02*
X60750Y54219D01*
X60632Y54376D02*
X60868D01*
X60750Y54219D02*
X60868Y54376D01*
X60553Y54415D02*
X60750Y54140D01*
X60553Y54415D02*
X60947Y54415D01*
X60750Y54140D02*
X60947Y54415D01*
X60474Y54455D02*
X60750Y54061D01*
X60474Y54455D02*
X61026D01*
X60750Y54061D02*
X61026Y54455D01*
X60455Y54002D02*
X61045D01*
X61459Y51758D02*
Y56581D01*
X54835Y56840D02*
X59165D01*
X54835Y51328D02*
X59165D01*
Y56840D01*
X54835Y51328D02*
Y56840D01*
X49660D02*
X53990D01*
X49660Y51328D02*
X53990D01*
Y56840D01*
X49660Y51328D02*
Y56840D01*
X44485D02*
X48815D01*
X44485Y51328D02*
X48815D01*
Y56840D01*
X44485Y51328D02*
Y56840D01*
X35219Y43027D02*
Y46374D01*
X38467Y43244D02*
X38467Y49917D01*
X38762Y43342D02*
Y49917D01*
X39057Y43460D02*
Y49917D01*
X39353Y43598D02*
Y49917D01*
X39648D02*
X39648Y43736D01*
X39943Y49917D02*
X39943Y43913D01*
X40239Y44090D02*
Y49917D01*
X40534Y44307D02*
Y49917D01*
X40829D02*
X40829Y44543D01*
X41124Y44799D02*
X41124Y49917D01*
X41420Y45094D02*
Y49917D01*
X41715Y45429D02*
Y49917D01*
X42010Y45822D02*
X42010Y49917D01*
X42306Y46275D02*
X42306Y49917D01*
X42601Y46826D02*
X42601Y49917D01*
X42896Y47535D02*
Y49917D01*
X43191Y48657D02*
Y49917D01*
X37876Y49031D02*
X43250Y49031D01*
X29510Y49622D02*
X43290D01*
X29569Y49031D02*
X34924Y49031D01*
X29609Y48736D02*
X34924D01*
X29648Y48441D02*
X34924D01*
X29727Y48145D02*
X34924D01*
X29806Y47850D02*
X34924D01*
X29904Y47555D02*
X34924D01*
X30002Y47259D02*
X34924Y47259D01*
X30140Y46964D02*
X34924D01*
X30278Y46669D02*
X34924D01*
X30613Y46078D02*
X42187Y46078D01*
X30829Y45783D02*
X41971D01*
X31046Y45488D02*
X41754D01*
X31302Y45193D02*
X41498D01*
X31577Y44897D02*
X41223D01*
X31912Y44602D02*
X40888D01*
X32266Y44307D02*
X40534D01*
X32699Y44011D02*
X40101D01*
X33211Y43716D02*
X39589D01*
X33841Y43421D02*
X38959D01*
X34786Y43126D02*
X38014D01*
X37975Y46669D02*
X42522D01*
X37876Y46964D02*
X42660D01*
X37876Y47259D02*
X42798D01*
X37876Y47555D02*
X42896D01*
X37876Y47850D02*
X42994D01*
X37876Y48145D02*
X43073D01*
X37876Y48441D02*
X43152D01*
X37876Y48736D02*
X43191D01*
X34924Y43086D02*
Y49917D01*
X34628D02*
X34628Y43165D01*
X34333Y43244D02*
X34333Y49917D01*
X34038Y43342D02*
Y49917D01*
X33743Y43460D02*
X33743Y49917D01*
X33447Y43598D02*
Y49917D01*
X33152Y43756D02*
Y49917D01*
X32857Y43913D02*
X32857Y49917D01*
X32561Y44110D02*
Y49917D01*
X32266Y44307D02*
Y49917D01*
X31971Y44543D02*
Y49917D01*
X31676D02*
X31676Y44799D01*
X31380Y45114D02*
Y49917D01*
X31085Y45448D02*
Y49917D01*
X30790D02*
X30790Y45822D01*
X30494Y49917D02*
X30494Y46275D01*
X30199Y49917D02*
X30199Y46826D01*
X29904Y47535D02*
Y49917D01*
X29609Y48677D02*
Y49917D01*
X37876Y43086D02*
Y49917D01*
X30435Y46374D02*
X42365Y46374D01*
X35219Y49326D02*
Y49917D01*
X35514Y49326D02*
Y49917D01*
X35809D02*
X35809Y49326D01*
X36105Y49326D02*
Y49917D01*
X36400Y49326D02*
Y49917D01*
X36695Y49326D02*
Y49917D01*
X36991Y49326D02*
X36991Y49917D01*
X37286Y49326D02*
Y49917D01*
X37581D02*
X37581Y49326D01*
X38172Y43165D02*
X38172Y49917D01*
X37581Y43027D02*
X37581Y46374D01*
X37286Y42988D02*
Y46374D01*
X36991Y42948D02*
Y46374D01*
X36695D02*
X36695Y42929D01*
X36400Y46374D02*
X36400Y42929D01*
X36105D02*
Y46374D01*
X35809Y42948D02*
Y46374D01*
X35514Y42988D02*
Y46374D01*
X29530Y49326D02*
X43270D01*
X29510Y49917D02*
X43290D01*
X30101Y57299D02*
X31676D01*
X30888Y56511D02*
X30888Y58086D01*
X25399Y47341D02*
Y52951D01*
X26588Y48968D02*
X26588Y49205D01*
X26431Y49283D02*
X26588Y49205D01*
X26431Y49283D02*
X26746Y49441D01*
X26588Y49835D02*
X26588Y50071D01*
X26431Y49598D02*
X26746Y49756D01*
X26588Y49835D02*
X26746Y49756D01*
X25399Y52951D02*
X27801D01*
X26431Y49598D02*
X26746Y49441D01*
X25399Y47341D02*
X27801D01*
Y52951D01*
X21387Y64362D02*
X25914D01*
X21190Y64559D02*
X26111D01*
X26603Y60031D02*
Y63969D01*
X23552Y61705D02*
Y62295D01*
X23257Y62000D02*
X23847D01*
X25914Y63969D02*
Y64362D01*
X26111Y63969D02*
Y64559D01*
X21387Y63969D02*
Y64362D01*
X21190Y63969D02*
Y64559D01*
X26111Y59441D02*
Y60031D01*
X25914Y59638D02*
Y60031D01*
X21190Y59441D02*
Y60031D01*
X21387Y59638D02*
Y60031D01*
X21190Y59441D02*
X26111D01*
X21387Y59638D02*
X25914D01*
X9576D02*
X14103D01*
X9379Y59441D02*
X14300D01*
X14103Y59638D02*
Y60031D01*
X14300Y59441D02*
Y60031D01*
X9576Y59638D02*
Y60031D01*
X9379Y59441D02*
Y60031D01*
X14300Y63969D02*
Y64559D01*
X14103Y63969D02*
Y64362D01*
X9379Y63969D02*
Y64559D01*
X9576Y63969D02*
Y64362D01*
X18532Y62000D02*
X19320D01*
X16170D02*
X16957D01*
X11643D02*
X12233D01*
X11938Y61705D02*
Y62295D01*
X8887Y60031D02*
Y63969D01*
X9379Y64559D02*
X14300D01*
X9576Y64362D02*
X14103D01*
X8887Y63969D02*
X26603D01*
X8887Y60031D02*
X26603D01*
X10168Y32767D02*
X20798D01*
X10168Y28633D02*
X20798D01*
X10168D02*
Y32767D01*
X14581Y30700D02*
X14975D01*
X14187D02*
X14581D01*
X15959D02*
X16353D01*
X14975Y29913D02*
Y31487D01*
X15959Y29913D02*
Y31487D01*
X20798Y28633D02*
Y32767D01*
X11825Y30700D02*
X14187D01*
X16353D02*
X19109D01*
X10168Y34338D02*
X20798D01*
X10168Y38472D02*
X20798D01*
Y34338D02*
Y38472D01*
X15991Y36405D02*
X16384D01*
X16778D01*
X14613D02*
X15006D01*
X15991Y35618D02*
Y37192D01*
X15006Y35618D02*
Y37192D01*
X10168Y34338D02*
Y38472D01*
X16778Y36405D02*
X19140D01*
X11857D02*
X14613D01*
X15680Y39388D02*
Y43325D01*
X10168D02*
X15680D01*
X10168Y39388D02*
Y43325D01*
Y39388D02*
X15680D01*
Y44292D02*
Y48229D01*
X10168D02*
X15680D01*
X10168Y44292D02*
Y48229D01*
Y44292D02*
X15680D01*
Y49197D02*
Y53134D01*
X10168D02*
X15680D01*
X10168Y49197D02*
Y53134D01*
Y49197D02*
X15680D01*
X23144Y57191D02*
X23183Y57230D01*
X20978Y55222D02*
Y57978D01*
X22435Y56167D02*
Y57033D01*
X21175Y56600D02*
X22435D01*
X23144Y56009D02*
Y57191D01*
X24522Y55222D02*
Y57978D01*
X23026Y56246D02*
Y56954D01*
X22986Y56324D02*
Y56876D01*
X22947Y56403D02*
Y56797D01*
X22907Y56482D02*
Y56718D01*
X22829Y56600D02*
X22868Y56561D01*
Y56639D01*
X22829Y56600D02*
X22868Y56639D01*
X23065Y56167D02*
Y57033D01*
Y56600D02*
X24325D01*
X22435D02*
X23144Y57191D01*
X22435Y56600D02*
X23144Y56009D01*
X22514Y56600D02*
X23026Y56246D01*
X22514Y56600D02*
X23026Y56954D01*
X22593Y56600D02*
X22986Y56324D01*
X22593Y56600D02*
X22986Y56876D01*
X22671Y56600D02*
X22947Y56403D01*
X22671Y56600D02*
X22947Y56797D01*
X22750Y56600D02*
X22907Y56482D01*
X22750Y56600D02*
X22907Y56718D01*
X22435Y56600D02*
X23065Y56167D01*
X22435Y56600D02*
X23065Y57033D01*
X20978Y55222D02*
X24522D01*
X20978Y57978D02*
X24522D01*
X13144Y57191D02*
X13183Y57230D01*
X10978Y55222D02*
Y57978D01*
X12435Y56167D02*
Y57033D01*
X11175Y56600D02*
X12435D01*
X13144Y56009D02*
Y57191D01*
X14522Y55222D02*
Y57978D01*
X13026Y56246D02*
Y56954D01*
X12986Y56324D02*
Y56876D01*
X12947Y56403D02*
Y56797D01*
X12907Y56482D02*
Y56718D01*
X12829Y56600D02*
X12868Y56561D01*
Y56639D01*
X12829Y56600D02*
X12868Y56639D01*
X13065Y56167D02*
Y57033D01*
Y56600D02*
X14325D01*
X12435D02*
X13144Y57191D01*
X12435Y56600D02*
X13144Y56009D01*
X12514Y56600D02*
X13026Y56246D01*
X12514Y56600D02*
X13026Y56954D01*
X12593Y56600D02*
X12986Y56324D01*
X12593Y56600D02*
X12986Y56876D01*
X12671Y56600D02*
X12947Y56403D01*
X12671Y56600D02*
X12947Y56797D01*
X12750Y56600D02*
X12907Y56482D01*
X12750Y56600D02*
X12907Y56718D01*
X12435Y56600D02*
X13065Y56167D01*
X12435Y56600D02*
X13065Y57033D01*
X10978Y55222D02*
X14522D01*
X10978Y57978D02*
X14522D01*
X3288Y54887D02*
X7618D01*
X3288D02*
Y59154D01*
X7618Y54887D02*
Y59154D01*
X3288D02*
X7618D01*
X4741Y49656D02*
X4780Y49617D01*
X2772Y51822D02*
X5528D01*
X3717Y50365D02*
X4583D01*
X4150D02*
Y51625D01*
X3559Y49656D02*
X4741D01*
X2772Y48278D02*
X5528D01*
X3796Y49774D02*
X4504D01*
X3874Y49814D02*
X4426D01*
X3953Y49853D02*
X4347D01*
X4032Y49893D02*
X4268D01*
X4111Y49932D02*
X4150Y49971D01*
X4111Y49932D02*
X4189D01*
X4150Y49971D02*
X4189Y49932D01*
X3717Y49735D02*
X4583D01*
X4150Y48475D02*
Y49735D01*
Y50365D02*
X4741Y49656D01*
X3559D02*
X4150Y50365D01*
X3796Y49774D02*
X4150Y50286D01*
X4504Y49774D01*
X3874Y49814D02*
X4150Y50207D01*
X4426Y49814D01*
X3953Y49853D02*
X4150Y50129D01*
X4347Y49853D01*
X4032Y49893D02*
X4150Y50050D01*
X4268Y49893D01*
X3717Y49735D02*
X4150Y50365D01*
X4583Y49735D01*
X2772Y48278D02*
Y51822D01*
X5528Y48278D02*
Y51822D01*
X8091Y49656D02*
X8130Y49617D01*
X6122Y51822D02*
X8878D01*
X7067Y50365D02*
X7933D01*
X7500D02*
Y51625D01*
X6909Y49656D02*
X8091D01*
X6122Y48278D02*
X8878D01*
X7146Y49774D02*
X7854D01*
X7224Y49814D02*
X7776D01*
X7303Y49853D02*
X7697D01*
X7382Y49893D02*
X7618D01*
X7461Y49932D02*
X7500Y49971D01*
X7461Y49932D02*
X7539D01*
X7500Y49971D02*
X7539Y49932D01*
X7067Y49735D02*
X7933D01*
X7500Y48475D02*
Y49735D01*
Y50365D02*
X8091Y49656D01*
X6909D02*
X7500Y50365D01*
X7146Y49774D02*
X7500Y50286D01*
X7854Y49774D01*
X7224Y49814D02*
X7500Y50207D01*
X7776Y49814D01*
X7303Y49853D02*
X7500Y50129D01*
X7697Y49853D01*
X7382Y49893D02*
X7500Y50050D01*
X7618Y49893D01*
X7067Y49735D02*
X7500Y50365D01*
X7933Y49735D01*
X6122Y48278D02*
Y51822D01*
X8878Y48278D02*
Y51822D01*
X8091Y41306D02*
X8130Y41267D01*
X6122Y43472D02*
X8878D01*
X7067Y42015D02*
X7933D01*
X7500D02*
Y43275D01*
X6909Y41306D02*
X8091D01*
X6122Y39928D02*
X8878D01*
X7146Y41424D02*
X7854D01*
X7224Y41464D02*
X7776D01*
X7303Y41503D02*
X7697D01*
X7382Y41543D02*
X7618D01*
X7461Y41582D02*
X7500Y41621D01*
X7461Y41582D02*
X7539D01*
X7500Y41621D02*
X7539Y41582D01*
X7067Y41385D02*
X7933D01*
X7500Y40125D02*
Y41385D01*
Y42015D02*
X8091Y41306D01*
X6909D02*
X7500Y42015D01*
X7146Y41424D02*
X7500Y41936D01*
X7854Y41424D01*
X7224Y41464D02*
X7500Y41857D01*
X7776Y41464D01*
X7303Y41503D02*
X7500Y41779D01*
X7697Y41503D01*
X7382Y41543D02*
X7500Y41700D01*
X7618Y41543D01*
X7067Y41385D02*
X7500Y42015D01*
X7933Y41385D01*
X6122Y39928D02*
Y43472D01*
X8878Y39928D02*
Y43472D01*
X4741Y41306D02*
X4780Y41267D01*
X2772Y43472D02*
X5528D01*
X3717Y42015D02*
X4583D01*
X4150D02*
Y43275D01*
X3559Y41306D02*
X4741D01*
X2772Y39928D02*
X5528D01*
X3796Y41424D02*
X4504D01*
X3874Y41464D02*
X4426D01*
X3953Y41503D02*
X4347D01*
X4032Y41543D02*
X4268D01*
X4111Y41582D02*
X4150Y41621D01*
X4111Y41582D02*
X4189D01*
X4150Y41621D02*
X4189Y41582D01*
X3717Y41385D02*
X4583D01*
X4150Y40125D02*
Y41385D01*
Y42015D02*
X4741Y41306D01*
X3559D02*
X4150Y42015D01*
X3796Y41424D02*
X4150Y41936D01*
X4504Y41424D01*
X3874Y41464D02*
X4150Y41857D01*
X4426Y41464D01*
X3953Y41503D02*
X4150Y41779D01*
X4347Y41503D01*
X4032Y41543D02*
X4150Y41700D01*
X4268Y41543D01*
X3717Y41385D02*
X4150Y42015D01*
X4583Y41385D01*
X2772Y39928D02*
Y43472D01*
X5528Y39928D02*
Y43472D01*
X6518Y29887D02*
Y36328D01*
X2188D02*
X6518D01*
X2188Y29887D02*
Y36328D01*
Y29887D02*
X6518D01*
X14111Y8867D02*
X14150Y8827D01*
X13363Y6662D02*
X16119D01*
X14308Y8119D02*
X15174D01*
X14741Y6859D02*
Y8119D01*
X14150Y8827D02*
X15331D01*
X13363Y10205D02*
X16119D01*
X14386Y8709D02*
X15095D01*
X14465Y8670D02*
X15016D01*
X14544Y8631D02*
X14937D01*
X14623Y8591D02*
X14859D01*
X14741Y8512D02*
X14780Y8552D01*
X14701D02*
X14780D01*
X14701D02*
X14741Y8512D01*
X14308Y8749D02*
X15174D01*
X14741D02*
Y10009D01*
X14150Y8827D02*
X14741Y8119D01*
X15331Y8827D01*
X14741Y8198D02*
X15095Y8709D01*
X14386D02*
X14741Y8198D01*
Y8276D02*
X15016Y8670D01*
X14465D02*
X14741Y8276D01*
Y8355D02*
X14937Y8631D01*
X14544D02*
X14741Y8355D01*
Y8434D02*
X14859Y8591D01*
X14623D02*
X14741Y8434D01*
Y8119D02*
X15174Y8749D01*
X14308D02*
X14741Y8119D01*
X16119Y6662D02*
Y10205D01*
X13363Y6662D02*
Y10205D01*
X11581Y8040D02*
X11621Y8001D01*
X9613Y10205D02*
X12369D01*
X10558Y8749D02*
X11424D01*
X10991D02*
Y10009D01*
X10400Y8040D02*
X11581D01*
X9613Y6662D02*
X12369D01*
X10636Y8158D02*
X11345D01*
X10715Y8198D02*
X11266D01*
X10794Y8237D02*
X11187D01*
X10873Y8276D02*
X11109D01*
X10951Y8316D02*
X10991Y8355D01*
X10951Y8316D02*
X11030D01*
X10991Y8355D02*
X11030Y8316D01*
X10558Y8119D02*
X11424D01*
X10991Y6859D02*
Y8119D01*
Y8749D02*
X11581Y8040D01*
X10400D02*
X10991Y8749D01*
X10636Y8158D02*
X10991Y8670D01*
X11345Y8158D01*
X10715Y8198D02*
X10991Y8591D01*
X11266Y8198D01*
X10794Y8237D02*
X10991Y8512D01*
X11187Y8237D01*
X10873Y8276D02*
X10991Y8434D01*
X11109Y8276D01*
X10558Y8119D02*
X10991Y8749D01*
X11424Y8119D01*
X9613Y6662D02*
Y10205D01*
X12369Y6662D02*
Y10205D01*
X15680Y23082D02*
Y27018D01*
X10168D02*
X15680D01*
X10168Y23082D02*
Y27018D01*
Y23082D02*
X15680D01*
X15632Y13432D02*
Y17369D01*
X10120D02*
X15632D01*
X10120Y13432D02*
Y17369D01*
Y13432D02*
X15632D01*
X15680Y18294D02*
Y22231D01*
X10168D02*
X15680D01*
X10168Y18294D02*
Y22231D01*
Y18294D02*
X15680D01*
X8091Y24206D02*
X8130Y24167D01*
X6122Y26372D02*
X8878D01*
X7067Y24915D02*
X7933D01*
X7500D02*
Y26175D01*
X6909Y24206D02*
X8091D01*
X6122Y22828D02*
X8878D01*
X7146Y24324D02*
X7854D01*
X7224Y24364D02*
X7776D01*
X7303Y24403D02*
X7697D01*
X7382Y24443D02*
X7618D01*
X7461Y24482D02*
X7500Y24521D01*
X7461Y24482D02*
X7539D01*
X7500Y24521D02*
X7539Y24482D01*
X7067Y24285D02*
X7933D01*
X7500Y23025D02*
Y24285D01*
Y24915D02*
X8091Y24206D01*
X6909D02*
X7500Y24915D01*
X7146Y24324D02*
X7500Y24836D01*
X7854Y24324D01*
X7224Y24364D02*
X7500Y24757D01*
X7776Y24364D01*
X7303Y24403D02*
X7500Y24679D01*
X7697Y24403D01*
X7382Y24443D02*
X7500Y24600D01*
X7618Y24443D01*
X7067Y24285D02*
X7500Y24915D01*
X7933Y24285D01*
X6122Y22828D02*
Y26372D01*
X8878Y22828D02*
Y26372D01*
X4741Y24206D02*
X4780Y24167D01*
X2772Y26372D02*
X5528D01*
X3717Y24915D02*
X4583D01*
X4150D02*
Y26175D01*
X3559Y24206D02*
X4741D01*
X2772Y22828D02*
X5528D01*
X3796Y24324D02*
X4504D01*
X3874Y24364D02*
X4426D01*
X3953Y24403D02*
X4347D01*
X4032Y24443D02*
X4268D01*
X4111Y24482D02*
X4150Y24521D01*
X4111Y24482D02*
X4189D01*
X4150Y24521D02*
X4189Y24482D01*
X3717Y24285D02*
X4583D01*
X4150Y23025D02*
Y24285D01*
Y24915D02*
X4741Y24206D01*
X3559D02*
X4150Y24915D01*
X3796Y24324D02*
X4150Y24836D01*
X4504Y24324D01*
X3874Y24364D02*
X4150Y24757D01*
X4426Y24364D01*
X3953Y24403D02*
X4150Y24679D01*
X4347Y24403D01*
X4032Y24443D02*
X4150Y24600D01*
X4268Y24443D01*
X3717Y24285D02*
X4150Y24915D01*
X4583Y24285D01*
X2772Y22828D02*
Y26372D01*
X5528Y22828D02*
Y26372D01*
X8091Y15856D02*
X8130Y15817D01*
X6122Y18022D02*
X8878D01*
X7067Y16565D02*
X7933D01*
X7500D02*
Y17825D01*
X6909Y15856D02*
X8091D01*
X6122Y14478D02*
X8878D01*
X7146Y15974D02*
X7854D01*
X7224Y16014D02*
X7776D01*
X7303Y16053D02*
X7697D01*
X7382Y16093D02*
X7618D01*
X7461Y16132D02*
X7500Y16171D01*
X7461Y16132D02*
X7539D01*
X7500Y16171D02*
X7539Y16132D01*
X7067Y15935D02*
X7933D01*
X7500Y14675D02*
Y15935D01*
Y16565D02*
X8091Y15856D01*
X6909D02*
X7500Y16565D01*
X7146Y15974D02*
X7500Y16486D01*
X7854Y15974D01*
X7224Y16014D02*
X7500Y16407D01*
X7776Y16014D01*
X7303Y16053D02*
X7500Y16329D01*
X7697Y16053D01*
X7382Y16093D02*
X7500Y16250D01*
X7618Y16093D01*
X7067Y15935D02*
X7500Y16565D01*
X7933Y15935D01*
X6122Y14478D02*
Y18022D01*
X8878Y14478D02*
Y18022D01*
X4741Y15856D02*
X4780Y15817D01*
X2772Y18022D02*
X5528D01*
X3717Y16565D02*
X4583D01*
X4150D02*
Y17825D01*
X3559Y15856D02*
X4741D01*
X2772Y14478D02*
X5528D01*
X3796Y15974D02*
X4504D01*
X3874Y16014D02*
X4426D01*
X3953Y16053D02*
X4347D01*
X4032Y16093D02*
X4268D01*
X4111Y16132D02*
X4150Y16171D01*
X4111Y16132D02*
X4189D01*
X4150Y16171D02*
X4189Y16132D01*
X3717Y15935D02*
X4583D01*
X4150Y14675D02*
Y15935D01*
Y16565D02*
X4741Y15856D01*
X3559D02*
X4150Y16565D01*
X3796Y15974D02*
X4150Y16486D01*
X4504Y15974D01*
X3874Y16014D02*
X4150Y16407D01*
X4426Y16014D01*
X3953Y16053D02*
X4150Y16329D01*
X4347Y16053D01*
X4032Y16093D02*
X4150Y16250D01*
X4268Y16093D01*
X3717Y15935D02*
X4150Y16565D01*
X4583Y15935D01*
X2772Y14478D02*
Y18022D01*
X5528Y14478D02*
Y18022D01*
X3138Y6516D02*
X7469D01*
X3138D02*
Y10784D01*
X7469Y6516D02*
Y10784D01*
X3138D02*
X7469D01*
X73702Y14798D02*
X74202Y14798D01*
X73702Y15298D02*
X74202D01*
X73800Y15251D02*
X74100D01*
X73899Y15200D02*
X74001D01*
X73950Y14050D02*
Y16050D01*
X73702Y15298D02*
X73950Y14798D01*
Y15298D01*
Y14798D02*
X74202Y15298D01*
X73950Y14900D02*
X74100Y15251D01*
X73800D02*
X73950Y14900D01*
Y14999D02*
X74001Y15200D01*
X73899D02*
X73950Y14999D01*
X80086Y7328D02*
X80086Y6541D01*
X79692D02*
Y7328D01*
X80086Y6934D02*
X81070Y6934D01*
X78708Y6934D02*
X79692Y6934D01*
X82448Y7919D02*
X82448Y5950D01*
X77330Y5950D02*
X82448Y5950D01*
X77330Y5950D02*
Y7919D01*
X82448D01*
X65400Y25616D02*
Y27584D01*
X64573Y27033D02*
X65400D01*
X64573Y26167D02*
Y27033D01*
Y26167D02*
X65400D01*
X65203Y25655D02*
Y26167D01*
X65046Y25694D02*
Y26167D01*
X64888Y25773D02*
Y26167D01*
X64731Y25891D02*
Y26167D01*
X64613Y26009D02*
X65400D01*
X64809Y25852D02*
X65400D01*
X64809Y27348D02*
X65400D01*
X64613Y27191D02*
X65400D01*
X64731Y27033D02*
Y27309D01*
X64888Y27033D02*
Y27427D01*
X65046Y27033D02*
Y27506D01*
X65203Y27033D02*
Y27545D01*
X68391Y7919D02*
X73509D01*
X68391Y5950D02*
Y7919D01*
Y5950D02*
X73509Y5950D01*
X73509Y7919D02*
X73509Y5950D01*
X69769Y6934D02*
X70753Y6934D01*
X71147D02*
X72131Y6934D01*
X70753Y6541D02*
Y7328D01*
X71147D02*
X71147Y6541D01*
X49885Y34930D02*
Y39379D01*
X51854Y39379D01*
X50712Y37529D02*
X51027Y37371D01*
X49885Y34930D02*
X51854D01*
X50712Y37214D02*
X50869Y37135D01*
X50712Y37214D02*
X51027Y37371D01*
X50869Y36899D02*
Y37135D01*
X50712Y37529D02*
X51027Y37686D01*
X50869Y37765D02*
X51027Y37686D01*
X50869Y38001D02*
X50869Y37765D01*
X51854Y34930D02*
Y39379D01*
X47200Y35030D02*
Y39479D01*
X49169Y39479D01*
X48027Y37629D02*
X48342Y37471D01*
X47200Y35030D02*
X49169D01*
X48027Y37314D02*
X48185Y37235D01*
X48027Y37314D02*
X48342Y37471D01*
X48185Y36999D02*
Y37235D01*
X48027Y37629D02*
X48342Y37786D01*
X48185Y37865D02*
X48342Y37786D01*
X48185Y38101D02*
X48185Y37865D01*
X49169Y35030D02*
Y39479D01*
X44316Y35030D02*
Y39479D01*
X46284Y39479D01*
X45143Y37629D02*
X45457Y37471D01*
X44316Y35030D02*
X46284D01*
X45143Y37314D02*
X45300Y37235D01*
X45143Y37314D02*
X45457Y37471D01*
X45300Y36999D02*
Y37235D01*
X45143Y37629D02*
X45457Y37786D01*
X45300Y37865D02*
X45457Y37786D01*
X45300Y38101D02*
X45300Y37865D01*
X46284Y35030D02*
Y39479D01*
X71691Y27266D02*
X76809D01*
Y29234D01*
X71691Y29234D02*
X76809Y29234D01*
X71691Y29234D02*
X71691Y27266D01*
X74447Y28250D02*
X75431Y28250D01*
X73069Y28250D02*
X74053Y28250D01*
X74447Y27856D02*
Y28644D01*
X74053D02*
X74053Y27856D01*
X63659Y53843D02*
X64841D01*
Y50851D02*
Y53843D01*
X63659Y50851D02*
X64841D01*
X63659D02*
Y53843D01*
X63955Y51855D02*
X64545D01*
X64250Y52347D02*
Y52780D01*
Y51658D02*
Y51855D01*
Y51914D02*
X64526Y52307D01*
X63974D02*
X64526D01*
X63974D02*
X64250Y51914D01*
Y51993D02*
X64447Y52268D01*
X64053D02*
X64447D01*
X64053D02*
X64250Y51993D01*
Y52071D02*
X64368Y52229D01*
X64132D02*
X64368D01*
X64132D02*
X64250Y52071D01*
Y52150D02*
X64289Y52189D01*
X64211D02*
X64289D01*
X64211D02*
X64250Y52150D01*
X60416Y35425D02*
Y38575D01*
Y35425D02*
X62384D01*
Y38575D01*
X60416D02*
X62384D01*
X61400Y37098D02*
Y37492D01*
Y36508D02*
Y36902D01*
X60711D02*
X62089D01*
X60711Y37098D02*
X62089D01*
X84722Y24250D02*
X85156D01*
X79250D02*
X79683D01*
Y26219D02*
X84722D01*
Y24250D02*
Y26219D01*
X79683Y24250D02*
Y26219D01*
X79250Y24250D02*
Y28384D01*
X85156D01*
X85156Y24250D01*
X52504Y11267D02*
Y11464D01*
X60378Y11365D02*
Y18452D01*
X44630Y11365D02*
X60378D01*
X44630D02*
Y18452D01*
X60378D01*
X52504Y18354D02*
Y18550D01*
Y50335D02*
Y50532D01*
X44630Y43347D02*
Y50433D01*
X60378D01*
Y43347D02*
Y50433D01*
X44630Y43347D02*
X60378D01*
X52504Y43248D02*
Y43445D01*
X83372Y51700D02*
X83806D01*
X77900D02*
X78333D01*
Y53668D02*
X83372D01*
Y51700D02*
Y53668D01*
X78333Y51700D02*
Y53668D01*
X77900Y51700D02*
Y55834D01*
X83806D01*
X83806Y51700D01*
X50361Y28654D02*
Y33477D01*
X50774Y31233D02*
X51365D01*
X50794Y30780D02*
X51069Y31174D01*
X50794Y30780D02*
X51345D01*
X51069Y31174D02*
X51345Y30780D01*
X50872Y30819D02*
X51069Y31095D01*
X50872Y30819D02*
X51266Y30819D01*
X51069Y31095D02*
X51266Y30819D01*
X50951Y30859D02*
X51069Y31016D01*
X50951Y30859D02*
X51187D01*
X51069Y31016D02*
X51187Y30859D01*
X51030Y30898D02*
X51069Y30937D01*
X51030Y30898D02*
X51109D01*
X51069Y30937D02*
X51109Y30898D01*
X50380Y33477D02*
X51778Y33477D01*
X50380Y28654D02*
X51778D01*
Y33477D01*
X51069Y29540D02*
Y30780D01*
Y31233D02*
Y32493D01*
X39016Y58741D02*
Y63859D01*
Y58741D02*
X40984D01*
X40984Y63859D02*
X40984Y58741D01*
X39016Y63859D02*
X40984Y63859D01*
X40000Y61103D02*
X40000Y60119D01*
X40000Y61497D02*
X40000Y62481D01*
X39606Y61103D02*
X40394D01*
X39606Y61497D02*
X40394Y61497D01*
X43284Y58741D02*
Y63859D01*
X41316D02*
X43284D01*
X41316D02*
X41316Y58741D01*
X43284Y58741D01*
X42300Y62481D02*
X42300Y61497D01*
X42300Y60119D02*
X42300Y61103D01*
X41906Y61497D02*
X42694D01*
X41906Y61103D02*
X42694Y61103D01*
X105474Y13805D02*
Y14395D01*
Y14100D02*
X106212D01*
X107541Y13313D02*
Y14887D01*
X104489Y13805D02*
Y14395D01*
X102422Y13313D02*
Y14887D01*
X103702Y14100D02*
X104489D01*
X102422Y14887D02*
X107541D01*
X102422Y13313D02*
X107541D01*
X104608Y47155D02*
Y47745D01*
X103870Y47450D02*
X104608D01*
X102541Y46663D02*
Y48237D01*
X105592Y47155D02*
Y47745D01*
X107659Y46663D02*
Y48237D01*
X105592Y47450D02*
X106380D01*
X102541Y46663D02*
X107659D01*
X102541Y48237D02*
X107659D01*
X94064Y53248D02*
X94556D01*
X94064Y53052D02*
X94556D01*
X94300Y52658D02*
Y53052D01*
Y53248D02*
Y53642D01*
X93709Y54725D02*
X94891D01*
Y51575D02*
Y54725D01*
X93709Y51575D02*
X94891D01*
X93709D02*
Y54725D01*
X90866Y51625D02*
Y54775D01*
Y51625D02*
X92834D01*
Y54775D01*
X90866D02*
X92834D01*
X91850Y53298D02*
Y53692D01*
Y52708D02*
Y53102D01*
X91161D02*
X92539D01*
X91161Y53298D02*
X92539D01*
X79066Y44313D02*
Y45887D01*
X81034Y44313D02*
Y45887D01*
X80050Y44608D02*
Y45002D01*
Y45198D02*
Y45592D01*
X79361Y45198D02*
X80739D01*
X79361Y45002D02*
X80739D01*
X81699Y43212D02*
Y48822D01*
X84101D01*
X82754Y46722D02*
X83069Y46565D01*
X81699Y43212D02*
X84101D01*
X82754Y46407D02*
X82912Y46328D01*
X82754Y46407D02*
X83069Y46565D01*
X82912Y46092D02*
X82912Y46328D01*
X82754Y46722D02*
X83069Y46880D01*
X82912Y46958D02*
X83069Y46880D01*
X82912Y46958D02*
X82912Y47195D01*
X84101Y43212D02*
Y48822D01*
X98101Y41191D02*
Y46801D01*
X95699Y41191D02*
X98101D01*
X96731Y43448D02*
X97046Y43291D01*
X95699Y46801D02*
X98101D01*
X96888Y43685D02*
X97046Y43606D01*
X96731Y43448D02*
X97046Y43606D01*
X96888Y43685D02*
X96888Y43921D01*
X96731Y43133D02*
X97046Y43291D01*
X96731Y43133D02*
X96888Y43055D01*
X96888Y42818D02*
X96888Y43055D01*
X95699Y41191D02*
Y46801D01*
X92517Y42711D02*
X93009D01*
X92517Y42514D02*
X93009D01*
X92753Y42120D02*
Y42514D01*
Y42711D02*
Y43104D01*
X92162Y44187D02*
X93343D01*
Y41037D02*
Y44187D01*
X92162Y41037D02*
X93343D01*
X92162D02*
Y44187D01*
X89509Y41037D02*
Y44187D01*
Y41037D02*
X91478D01*
Y44187D01*
X89509D02*
X91478D01*
X90493Y42711D02*
Y43104D01*
Y42120D02*
Y42514D01*
X89804D02*
X91182D01*
X89804Y42711D02*
X91182D01*
X92826Y45230D02*
Y45624D01*
X92630Y45427D02*
X93023D01*
X90759Y47494D02*
Y48557D01*
X91941Y47494D02*
Y48557D01*
X89775Y47100D02*
X92925D01*
X90563D02*
Y48458D01*
X90366Y47100D02*
Y48320D01*
X90169Y47100D02*
Y48124D01*
X89972Y47100D02*
Y47848D01*
X91941Y47100D02*
Y47494D01*
X90759Y47100D02*
Y47494D01*
X92137Y47100D02*
Y48458D01*
X91941Y48498D02*
X92059D01*
X91941Y48301D02*
X92354D01*
X91941Y48104D02*
X92551D01*
X91941Y47907D02*
X92689D01*
X91941Y47691D02*
X92807D01*
X91941Y47494D02*
X92866D01*
X90130Y48104D02*
X90759D01*
X89992Y47907D02*
X90759D01*
X89893Y47691D02*
X90759D01*
X89834Y47494D02*
X90759D01*
X92728Y47100D02*
Y47848D01*
X92531Y47100D02*
Y48124D01*
X92334Y47100D02*
Y48320D01*
X90641Y48498D02*
X91941D01*
X89795Y47297D02*
X92905D01*
X100305Y40237D02*
X100895D01*
X100600D02*
Y40975D01*
X99813Y42304D02*
X101387D01*
X100305Y39253D02*
X100895D01*
X99813Y37186D02*
X101387D01*
X100600Y38465D02*
Y39253D01*
X99813Y37186D02*
Y42304D01*
X101387Y37186D02*
Y42304D01*
X95949Y31311D02*
Y36921D01*
X98351D01*
X97004Y34821D02*
X97319Y34664D01*
X95949Y31311D02*
X98351D01*
X97004Y34506D02*
X97162Y34427D01*
X97004Y34506D02*
X97319Y34664D01*
X97162Y34191D02*
X97162Y34427D01*
X97004Y34821D02*
X97319Y34979D01*
X97162Y35057D02*
X97319Y34979D01*
X97162Y35057D02*
X97162Y35294D01*
X98351Y31311D02*
Y36921D01*
X93166Y29437D02*
Y32587D01*
Y29437D02*
X95134D01*
Y32587D01*
X93166D02*
X95134D01*
X94150Y31110D02*
Y31504D01*
Y30520D02*
Y30914D01*
X93461D02*
X94839D01*
X93461Y31110D02*
X94839D01*
X93544Y35398D02*
X94036D01*
X93544Y35595D02*
X94036D01*
X93800D02*
Y35988D01*
Y35004D02*
Y35398D01*
X93209Y33921D02*
X94391D01*
X93209D02*
Y37071D01*
X94391D01*
Y33921D02*
Y37071D01*
X102084Y18875D02*
Y22025D01*
X100116D02*
X102084D01*
X100116Y18875D02*
Y22025D01*
Y18875D02*
X102084D01*
X101100Y19958D02*
Y20352D01*
Y20548D02*
Y20942D01*
X100411Y20548D02*
X101789D01*
X100411Y20352D02*
X101789D01*
X105022Y50810D02*
Y50832D01*
X105045Y50877D01*
X105067Y50900D01*
X105112Y50922D01*
X105202D01*
X105247Y50900D01*
X105270Y50877D01*
X105292Y50832D01*
Y50787D01*
X105270Y50742D01*
X105225Y50675D01*
X105000Y50450D01*
X105315D01*
X105100Y56132D02*
X105145Y56155D01*
X105212Y56222D01*
Y55750D01*
X84807Y24981D02*
X85010D01*
X85077Y25004D01*
X85100Y25026D01*
X85122Y25071D01*
Y25139D01*
X85100Y25184D01*
X85077Y25206D01*
X85010Y25229D01*
X84807D01*
Y24756D01*
X79493Y24776D02*
Y25248D01*
Y24776D02*
X79178Y25248D01*
Y24776D02*
Y25248D01*
X106450Y41282D02*
X106495Y41305D01*
X106562Y41372D01*
Y40900D01*
X106445Y46322D02*
X106692D01*
X106557Y46142D01*
X106625D01*
X106670Y46120D01*
X106692Y46097D01*
X106715Y46030D01*
Y45985D01*
X106692Y45917D01*
X106647Y45872D01*
X106580Y45850D01*
X106512D01*
X106445Y45872D01*
X106422Y45895D01*
X106400Y45940D01*
X83407Y52131D02*
X83610D01*
X83677Y52154D01*
X83700Y52176D01*
X83722Y52221D01*
Y52289D01*
X83700Y52334D01*
X83677Y52356D01*
X83610Y52379D01*
X83407D01*
Y51906D01*
X78093Y51926D02*
Y52398D01*
Y51926D02*
X77778Y52398D01*
Y51926D02*
Y52398D01*
X62269Y20626D02*
Y20153D01*
Y20626D02*
X62471D01*
X62539Y20603D01*
X62561Y20581D01*
X62584Y20536D01*
Y20491D01*
X62561Y20446D01*
X62539Y20423D01*
X62471Y20401D01*
X62269D02*
X62471D01*
X62539Y20378D01*
X62561Y20356D01*
X62584Y20311D01*
Y20243D01*
X62561Y20198D01*
X62539Y20176D01*
X62471Y20153D01*
X62269D01*
X62561Y21511D02*
X62269D01*
Y21039D01*
X62561D01*
X62269Y21286D02*
X62449D01*
X62508Y19529D02*
X62485Y19574D01*
X62440Y19619D01*
X62395Y19641D01*
X62305D01*
X62260Y19619D01*
X62215Y19574D01*
X62193Y19529D01*
X62170Y19461D01*
Y19349D01*
X62193Y19281D01*
X62215Y19236D01*
X62260Y19191D01*
X62305Y19169D01*
X62395D01*
X62440Y19191D01*
X62485Y19236D01*
X62508Y19281D01*
X62508Y22593D02*
X62485Y22638D01*
X62440Y22683D01*
X62395Y22705D01*
X62305D01*
X62260Y22683D01*
X62215Y22638D01*
X62193Y22593D01*
X62170Y22525D01*
Y22413D01*
X62193Y22346D01*
X62215Y22301D01*
X62260Y22256D01*
X62305Y22233D01*
X62395D01*
X62440Y22256D01*
X62485Y22301D01*
X62508Y22346D01*
X62463Y24477D02*
X62170D01*
Y24005D01*
X62463D01*
X62170Y24252D02*
X62350D01*
X62170Y23591D02*
Y23119D01*
Y23591D02*
X62373D01*
X62440Y23569D01*
X62463Y23546D01*
X62485Y23501D01*
Y23456D01*
X62463Y23411D01*
X62440Y23389D01*
X62373Y23366D01*
X62170D02*
X62373D01*
X62440Y23344D01*
X62463Y23321D01*
X62485Y23276D01*
Y23209D01*
X62463Y23164D01*
X62440Y23141D01*
X62373Y23119D01*
X62170D01*
X52150Y33082D02*
X52195Y33105D01*
X52262Y33172D01*
Y32700D01*
X52631Y33172D02*
X52564Y33150D01*
X52519Y33082D01*
X52496Y32970D01*
Y32902D01*
X52519Y32790D01*
X52564Y32722D01*
X52631Y32700D01*
X52676D01*
X52744Y32722D01*
X52789Y32790D01*
X52811Y32902D01*
Y32970D01*
X52789Y33082D01*
X52744Y33150D01*
X52676Y33172D01*
X52631D01*
X52799Y38785D02*
X52574D01*
X52552Y38583D01*
X52574Y38605D01*
X52642Y38628D01*
X52709D01*
X52777Y38605D01*
X52822Y38560D01*
X52844Y38493D01*
Y38448D01*
X52822Y38380D01*
X52777Y38335D01*
X52709Y38313D01*
X52642D01*
X52574Y38335D01*
X52552Y38358D01*
X52529Y38403D01*
X58975Y39422D02*
X58750Y39107D01*
X59087D01*
X58975Y39422D02*
Y38950D01*
X58772Y34560D02*
Y34582D01*
X58795Y34627D01*
X58817Y34650D01*
X58862Y34672D01*
X58952D01*
X58997Y34650D01*
X59020Y34627D01*
X59042Y34582D01*
Y34537D01*
X59020Y34492D01*
X58975Y34425D01*
X58750Y34200D01*
X59065D01*
X22650Y28082D02*
X22695Y28105D01*
X22762Y28172D01*
Y27700D01*
X27872Y28160D02*
Y28182D01*
X27895Y28227D01*
X27917Y28250D01*
X27962Y28272D01*
X28052D01*
X28097Y28250D01*
X28120Y28227D01*
X28142Y28182D01*
Y28137D01*
X28120Y28092D01*
X28075Y28025D01*
X27850Y27800D01*
X28165D01*
X27745Y40172D02*
X27992D01*
X27857Y39992D01*
X27925D01*
X27970Y39970D01*
X27992Y39947D01*
X28015Y39880D01*
Y39835D01*
X27992Y39767D01*
X27947Y39722D01*
X27880Y39700D01*
X27812D01*
X27745Y39722D01*
X27722Y39745D01*
X27700Y39790D01*
X22775Y40172D02*
X22550Y39857D01*
X22887D01*
X22775Y40172D02*
Y39700D01*
X5522Y59710D02*
Y59732D01*
X5545Y59777D01*
X5567Y59800D01*
X5612Y59822D01*
X5702D01*
X5747Y59800D01*
X5770Y59777D01*
X5792Y59732D01*
Y59687D01*
X5770Y59642D01*
X5725Y59575D01*
X5500Y59350D01*
X5815D01*
X5650Y54632D02*
X5695Y54655D01*
X5762Y54722D01*
Y54250D01*
X6022Y11410D02*
Y11432D01*
X6045Y11477D01*
X6067Y11500D01*
X6112Y11522D01*
X6202D01*
X6247Y11500D01*
X6270Y11477D01*
X6292Y11432D01*
Y11387D01*
X6270Y11342D01*
X6225Y11275D01*
X6000Y11050D01*
X6315D01*
X6200Y6232D02*
X6245Y6255D01*
X6312Y6322D01*
Y5850D01*
X64800Y50082D02*
X64845Y50105D01*
X64912Y50172D01*
Y49700D01*
X65142Y34115D02*
X65120Y34047D01*
X65075Y34002D01*
X65007Y33980D01*
X64985D01*
X64917Y34002D01*
X64872Y34047D01*
X64850Y34115D01*
Y34137D01*
X64872Y34205D01*
X64917Y34250D01*
X64985Y34272D01*
X65007D01*
X65075Y34250D01*
X65120Y34205D01*
X65142Y34115D01*
Y34002D01*
X65120Y33890D01*
X65075Y33822D01*
X65007Y33800D01*
X64962D01*
X64895Y33822D01*
X64872Y33867D01*
X77450Y32432D02*
X77495Y32455D01*
X77562Y32522D01*
Y32050D01*
X77931Y32522D02*
X77864Y32500D01*
X77819Y32432D01*
X77796Y32320D01*
Y32252D01*
X77819Y32140D01*
X77864Y32072D01*
X77931Y32050D01*
X77976D01*
X78044Y32072D01*
X78089Y32140D01*
X78111Y32252D01*
Y32320D01*
X78089Y32432D01*
X78044Y32500D01*
X77976Y32522D01*
X77931D01*
X77500Y49982D02*
X77545Y50005D01*
X77612Y50072D01*
Y49600D01*
X77959Y50072D02*
X77891Y50050D01*
X77869Y50005D01*
Y49960D01*
X77891Y49915D01*
X77936Y49892D01*
X78026Y49870D01*
X78094Y49847D01*
X78139Y49802D01*
X78161Y49757D01*
Y49690D01*
X78139Y49645D01*
X78116Y49622D01*
X78049Y49600D01*
X77959D01*
X77891Y49622D01*
X77869Y49645D01*
X77846Y49690D01*
Y49757D01*
X77869Y49802D01*
X77914Y49847D01*
X77981Y49870D01*
X78071Y49892D01*
X78116Y49915D01*
X78139Y49960D01*
Y50005D01*
X78116Y50050D01*
X78049Y50072D01*
X77959D01*
D11*
X86155Y47510D02*
G03*
X85564Y47510I-295J0D01*
G01*
X86745D02*
G03*
X86155Y47510I-295J0D01*
G01*
X87336D02*
G03*
X86745Y47510I-295J0D01*
G01*
X88222Y46900D02*
G03*
X88222Y46900I-1772J0D01*
G01*
X86215Y31946D02*
G03*
X85625Y31946I-295J0D01*
G01*
X86806D02*
G03*
X86215Y31946I-295J0D01*
G01*
X87396D02*
G03*
X86806Y31946I-295J0D01*
G01*
X88282Y31336D02*
G03*
X88282Y31336I-1772J0D01*
G01*
X87019Y59310D02*
G03*
X86428Y59310I-295J0D01*
G01*
X87609D02*
G03*
X87019Y59310I-295J0D01*
G01*
X88200D02*
G03*
X87609Y59310I-295J0D01*
G01*
X89086Y58700D02*
G03*
X89086Y58700I-1772J0D01*
G01*
X94349Y25906D02*
G03*
X94349Y26497I0J295D01*
G01*
Y25316D02*
G03*
X94349Y25906I0J295D01*
G01*
Y24725D02*
G03*
X94349Y25316I0J295D01*
G01*
X95510Y25611D02*
G03*
X95510Y25611I-1772J0D01*
G01*
X58028Y38189D02*
G03*
X58028Y37598I0J-295D01*
G01*
D02*
G03*
X58028Y37007I0J-295D01*
G01*
Y37007D02*
G03*
X58028Y36417I0J-295D01*
G01*
Y36417D02*
G03*
X58028Y35826I0J-295D01*
G01*
D02*
G03*
X58028Y35236I0J-295D01*
G01*
X55115Y33208D02*
G03*
X55115Y33799I0J295D01*
G01*
Y33799D02*
G03*
X55115Y34389I0J295D01*
G01*
X55213Y37480D02*
G03*
X55213Y38070I0J295D01*
G01*
Y38070D02*
G03*
X55213Y38661I0J295D01*
G01*
X23398Y35272D02*
G03*
X23989Y35272I295J0D01*
G01*
D02*
G03*
X24579Y35272I295J0D01*
G01*
D02*
G03*
X25170Y35272I295J0D01*
G01*
D02*
G03*
X25760Y35272I295J0D01*
G01*
D02*
G03*
X26351Y35272I295J0D01*
G01*
D02*
G03*
X26941Y35272I295J0D01*
G01*
Y32516D02*
G03*
X26351Y32516I-295J0D01*
G01*
D02*
G03*
X25760Y32516I-295J0D01*
G01*
D02*
G03*
X25170Y32516I-295J0D01*
G01*
D02*
G03*
X24579Y32516I-295J0D01*
G01*
D02*
G03*
X23989Y32516I-295J0D01*
G01*
D02*
G03*
X23398Y32516I-295J0D01*
G01*
X66442Y40803D02*
G03*
X66442Y41394I0J295D01*
G01*
D02*
G03*
X66442Y41984I0J295D01*
G01*
D02*
G03*
X66442Y42575I0J295D01*
G01*
X66481Y48480D02*
G03*
X66481Y49071I0J295D01*
G01*
Y47890D02*
G03*
X66481Y48480I0J295D01*
G01*
Y47299D02*
G03*
X66481Y47890I0J295D01*
G01*
X66442Y44346D02*
G03*
X66442Y44937I0J295D01*
G01*
Y43756D02*
G03*
X66442Y44346I0J295D01*
G01*
Y42575D02*
G03*
X66442Y43165I0J295D01*
G01*
D02*
G03*
X66442Y43756I0J295D01*
G01*
X66481Y46709D02*
G03*
X66481Y47299I0J295D01*
G01*
Y46118D02*
G03*
X66481Y46709I0J295D01*
G01*
Y44937D02*
G03*
X66481Y45528I0J295D01*
G01*
D02*
G03*
X66481Y46118I0J295D01*
G01*
X74355Y36276D02*
G03*
X74355Y35685I0J-295D01*
G01*
D02*
G03*
X74355Y35094I0J-295D01*
G01*
Y36866D02*
G03*
X74355Y36276I0J-295D01*
G01*
Y37457D02*
G03*
X74355Y36866I0J-295D01*
G01*
X74394Y33913D02*
G03*
X74394Y33323I0J-295D01*
G01*
D02*
G03*
X74394Y32732I0J-295D01*
G01*
Y34504D02*
G03*
X74394Y33913I0J-295D01*
G01*
Y35094D02*
G03*
X74394Y34504I0J-295D01*
G01*
X74454Y48480D02*
G03*
X74454Y47890I0J-295D01*
G01*
Y49071D02*
G03*
X74454Y48480I0J-295D01*
G01*
Y47890D02*
G03*
X74454Y47299I0J-295D01*
G01*
D02*
G03*
X74454Y46709I0J-295D01*
G01*
X74335Y39543D02*
G03*
X74335Y38953I0J-295D01*
G01*
Y40134D02*
G03*
X74335Y39543I0J-295D01*
G01*
Y41315D02*
G03*
X74335Y40724I0J-295D01*
G01*
D02*
G03*
X74335Y40134I0J-295D01*
G01*
X66442Y32929D02*
G03*
X66442Y33520I0J295D01*
G01*
D02*
G03*
X66442Y34110I0J295D01*
G01*
Y34701D02*
G03*
X66442Y35291I0J295D01*
G01*
Y34110D02*
G03*
X66442Y34701I0J295D01*
G01*
X60075Y39685D02*
X60075Y32815D01*
X59465Y32204D02*
X60075Y32815D01*
X52989Y32204D02*
X59465Y32204D01*
X52989Y39685D02*
X60075D01*
X52989Y32204D02*
Y39685D01*
X58028Y38189D02*
X58363Y38189D01*
X58028Y35236D02*
X58363Y35236D01*
X54780Y34389D02*
X55115Y34389D01*
X54780Y33208D02*
X55115D01*
X54878Y38661D02*
X55213Y38661D01*
X54878Y37480D02*
X55213Y37480D01*
X23398Y35272D02*
Y35606D01*
X26941Y35272D02*
Y35606D01*
Y32181D02*
Y32516D01*
X23398Y32181D02*
Y32516D01*
X21626Y38323D02*
X28713D01*
X21626Y29464D02*
X28713D01*
X21626Y39405D02*
X28713D01*
X21626Y28382D02*
X28713D01*
Y39405D01*
X21626Y28382D02*
Y39405D01*
X66107Y40803D02*
X66442D01*
X66146Y49071D02*
X66481D01*
X66107Y44937D02*
X66442D01*
X74355Y37457D02*
X74690D01*
X74394Y32732D02*
X74729D01*
X74394Y35095D02*
X74729D01*
X63509Y31748D02*
X77091Y31748D01*
Y50272D01*
X64316D02*
X76894D01*
X63558Y49514D02*
X64316Y50272D01*
X63509Y31748D02*
Y49465D01*
X74454Y49071D02*
X74788D01*
X74454Y46709D02*
X74788D01*
X74335Y38953D02*
X74670D01*
X74335Y41315D02*
X74670D01*
X66107Y32929D02*
X66442D01*
X66107Y35291D02*
X66442D01*
X63509Y49465D02*
X63607Y49563D01*
X76894Y50272D02*
X77091D01*
X66227Y29478D02*
X66620D01*
X66424Y29675D02*
Y29281D01*
X66227Y27328D02*
X66620D01*
X66424Y27525D02*
Y27131D01*
D12*
X76545Y18898D02*
G03*
X76545Y18898I-98J0D01*
G01*
D13*
X69009Y22050D02*
G03*
X69009Y22050I-110J0D01*
G01*
D14*
X58387Y37696D02*
G03*
X58387Y37696I-71J0D01*
G01*
X54863Y33523D02*
G03*
X54863Y33523I-71J0D01*
G01*
X54962Y38346D02*
G03*
X54962Y38346I-71J0D01*
G01*
X23831Y35646D02*
G03*
X23831Y35646I-98J0D01*
G01*
X23831Y32142D02*
G03*
X23831Y32142I-98J0D01*
G01*
X66190Y41118D02*
G03*
X66190Y41118I-71J0D01*
G01*
X66230Y45252D02*
G03*
X66230Y45252I-71J0D01*
G01*
X74631Y35390D02*
G03*
X74631Y35390I-71J0D01*
G01*
Y33028D02*
G03*
X74631Y33028I-71J0D01*
G01*
X74847Y48756D02*
G03*
X74847Y48756I-71J0D01*
G01*
X74729Y41000D02*
G03*
X74729Y41000I-71J0D01*
G01*
X66190Y34976D02*
G03*
X66190Y34976I-71J0D01*
G01*
X79788Y24284D02*
X84532D01*
X78388Y51434D02*
X83132D01*
X49104Y20234D02*
X55009D01*
X49104Y41656D02*
X55009D01*
D15*
X20350Y6470D02*
X20510D01*
X20310Y6430D02*
X20510D01*
X20270Y6110D02*
X20510D01*
X20630Y5830D02*
X21070D01*
X20710Y5790D02*
X20990D01*
X20830Y5750D02*
X20870D01*
X20950Y5990D02*
X21310D01*
X20790Y7510D02*
X20990D01*
X20790Y7470D02*
X20950D01*
X20750Y7430D02*
X20950D01*
X20750Y7390D02*
X20950D01*
X20710Y7350D02*
X20910D01*
X20710Y7310D02*
X20910D01*
X20710Y7270D02*
X20870D01*
X20670Y7230D02*
X20870D01*
X20670Y7190D02*
X20830D01*
X20630Y7150D02*
X20830D01*
X20630Y7110D02*
X20830D01*
X20590Y7070D02*
X20790D01*
X20590Y7030D02*
X20790D01*
X20670Y8310D02*
X20870D01*
X20670Y8270D02*
X20870D01*
X20710Y8230D02*
X20870D01*
X20710Y8190D02*
X20870D01*
X20710Y8150D02*
X20910D01*
X20710Y8110D02*
X20910D01*
X20750Y8070D02*
X20950D01*
X20750Y8030D02*
X20990D01*
X20790Y7990D02*
X21030D01*
X20830Y7950D02*
X21070D01*
X20830Y7910D02*
X21110D01*
X20870Y7870D02*
X21110D01*
X20910Y7830D02*
X21110D01*
X20910Y7790D02*
X21110D01*
X20910Y7750D02*
X21110D01*
X20870Y7710D02*
X21070D01*
X20870Y7670D02*
X21070D01*
X20830Y7630D02*
X21030D01*
X20830Y7590D02*
X21030D01*
X20870Y8790D02*
X20910D01*
X20830Y8750D02*
X20990D01*
X20790Y8710D02*
X21030D01*
X20790Y8670D02*
X21070D01*
X20750Y8630D02*
X21110D01*
X20750Y8590D02*
X21150D01*
X20710Y8550D02*
X21190D01*
X20710Y8510D02*
X20910D01*
X20990D02*
X21230D01*
X20710Y8470D02*
X20870D01*
X21030D02*
X21310D01*
X20710Y8430D02*
X20870D01*
X20710Y8390D02*
X20870D01*
X21470Y6310D02*
X21830D01*
X21390Y6270D02*
X21910D01*
X21790Y6110D02*
X22070D01*
X21870Y6070D02*
X22110D01*
X21870Y6030D02*
X22110D01*
X22390Y5110D02*
X22590D01*
X22390Y5070D02*
X22630D01*
X22430Y5030D02*
X22630D01*
X22430Y4990D02*
X22630D01*
X22470Y4950D02*
X22670D01*
X22470Y4910D02*
X22670D01*
X22510Y4870D02*
X22710D01*
X22510Y4830D02*
X22710D01*
X22550Y4790D02*
X22750D01*
X22550Y4750D02*
X22750D01*
X22590Y4710D02*
X22790D01*
X22590Y4670D02*
X22790D01*
X22630Y4630D02*
X22830D01*
X22630Y4590D02*
X22830D01*
X22670Y4550D02*
X22870D01*
X22670Y4510D02*
X22870D01*
X22670Y4470D02*
X22910D01*
X22710Y4430D02*
X22910D01*
X22710Y4390D02*
X22910D01*
X22710Y5910D02*
X22910D01*
X22710Y5870D02*
X22910D01*
X22710Y5830D02*
X22910D01*
X22670Y5790D02*
X22870D01*
X22670Y5750D02*
X22870D01*
X22670Y5710D02*
X22870D01*
X22670Y5670D02*
X22870D01*
X22670Y5630D02*
X22870D01*
X22670Y5590D02*
X22870D01*
X22190Y5550D02*
X22390D01*
X22670D02*
X22870D01*
X22190Y5510D02*
X22390D01*
X22670D02*
X22870D01*
X22190Y5470D02*
X22430D01*
X22670D02*
X22870D01*
X22230Y5430D02*
X22430D01*
X22670D02*
X22870D01*
X22230Y5390D02*
X22470D01*
X22670D02*
X22870D01*
X22270Y5350D02*
X22470D01*
X22670D02*
X22910D01*
X22270Y5310D02*
X22510D01*
X22710D02*
X22910D01*
X22310Y5270D02*
X22510D01*
X22710D02*
X22910D01*
X22310Y5230D02*
X22550D01*
X22710D02*
X22910D01*
X22350Y5190D02*
X22550D01*
X23030Y4310D02*
X23230D01*
X23390D02*
X23670D01*
X23030Y4270D02*
X23230D01*
X23350D02*
X23710D01*
X23030Y4230D02*
X23230D01*
X23350D02*
X23710D01*
X23350Y4150D02*
X23510D01*
X23350Y4110D02*
X23510D01*
X23350Y4070D02*
X23510D01*
X23310Y4030D02*
X23510D01*
X23310Y3990D02*
X23510D01*
X23310Y3950D02*
X23510D01*
X23310Y3910D02*
X23470D01*
X22990Y3830D02*
X23470D01*
X22990Y3790D02*
X23470D01*
X23030Y3750D02*
X23470D01*
X23070Y3710D02*
X23390D01*
X23470Y4670D02*
X23710D01*
X22990Y4630D02*
X23190D01*
X23470D02*
X23670D01*
X22990Y4590D02*
X23190D01*
X23430D02*
X23630D01*
X22990Y4550D02*
X23190D01*
X23430D02*
X23630D01*
X22990Y4510D02*
X23190D01*
X23430D02*
X23630D01*
X23030Y4470D02*
X23230D01*
X23430D02*
X23630D01*
X23030Y4430D02*
X23230D01*
X23390D02*
X23630D01*
X23030Y4390D02*
X23230D01*
X23390D02*
X23670D01*
X23070Y6310D02*
X23550D01*
X22990Y6270D02*
X23390D01*
X23870Y4310D02*
X24030D01*
X23870Y4270D02*
X24030D01*
X23870Y4230D02*
X24030D01*
X23870Y4190D02*
X24030D01*
X23870Y4150D02*
X24030D01*
X23870Y4110D02*
X24030D01*
X23870Y4070D02*
X24030D01*
X23870Y4030D02*
X24030D01*
X23870Y3990D02*
X24030D01*
X23870Y3950D02*
X24030D01*
X23870Y3910D02*
X24030D01*
X23870Y4670D02*
X24070D01*
X23870Y4630D02*
X24030D01*
X23870Y4590D02*
X24030D01*
X23870Y4550D02*
X24030D01*
X23870Y4510D02*
X24030D01*
X23870Y4470D02*
X24030D01*
X23870Y4430D02*
X24030D01*
X23870Y4390D02*
X24030D01*
X23790Y6510D02*
X24030D01*
X24630Y4630D02*
X25310D01*
X25630Y4310D02*
X25830D01*
X25630Y4270D02*
X25830D01*
X25630Y4230D02*
X25830D01*
X25670Y4190D02*
X25830D01*
X25670Y4150D02*
X25870D01*
X25670Y4110D02*
X25870D01*
X25710Y4070D02*
X25870D01*
X25710Y4030D02*
X25910D01*
X25710Y3990D02*
X25910D01*
X25710Y3950D02*
X25910D01*
X25750Y3910D02*
X25950D01*
X25870Y3710D02*
X26070D01*
X25470Y4630D02*
X25670D01*
X25510Y4590D02*
X25710D01*
X25510Y4550D02*
X25710D01*
X25550Y4510D02*
X25750D01*
X25550Y4470D02*
X25750D01*
X25590Y4430D02*
X25750D01*
X25590Y4390D02*
X25790D01*
X25390Y6710D02*
X25830D01*
X25910D02*
X26110D01*
X25910Y6670D02*
X26110D01*
X25910Y6630D02*
X26110D01*
X25910Y6590D02*
X26070D01*
X25630Y6550D02*
X25790D01*
X25910D02*
X26110D01*
X25630Y6510D02*
X25790D01*
X25910D02*
X26110D01*
X25630Y6470D02*
X25830D01*
X25910D02*
X26110D01*
X25630Y6430D02*
X25830D01*
X25950D02*
X26110D01*
X25670Y6390D02*
X25830D01*
X25670Y6350D02*
X25830D01*
X25670Y6310D02*
X25870D01*
X25670Y6270D02*
X25870D01*
X25710Y6230D02*
X25870D01*
X25710Y6190D02*
X25910D01*
X25750Y6150D02*
X25950D01*
X25750Y6110D02*
X25990D01*
X25790Y6070D02*
X26030D01*
X25830Y6030D02*
X26110D01*
X25710Y6830D02*
X25750D01*
X25630Y6790D02*
X25790D01*
X25950D02*
X26110D01*
X26470Y5110D02*
X26830D01*
X26390Y5070D02*
X26870D01*
X26270Y5030D02*
X26870D01*
X26710Y4990D02*
X26910D01*
X26710Y4950D02*
X26910D01*
X26390Y4870D02*
X26590D01*
X26350Y4830D02*
X26590D01*
X26310Y4790D02*
X26550D01*
X26310Y4750D02*
X26510D01*
X26270Y4710D02*
X26470D01*
X26270Y4670D02*
X26430D01*
X26230Y4630D02*
X26430D01*
X26230Y4590D02*
X26390D01*
X26190Y4550D02*
X26390D01*
X26190Y4510D02*
X26350D01*
X26270Y5790D02*
X26710D01*
X26750Y5390D02*
X26910D01*
X26710Y5350D02*
X26910D01*
X26710Y5310D02*
X26870D01*
X26670Y5270D02*
X26870D01*
X26670Y5230D02*
X26870D01*
X26590Y5190D02*
X26830D01*
X26430Y6710D02*
X26910D01*
X26390Y6630D02*
X26590D01*
X26390Y6590D02*
X26550D01*
X26190Y6110D02*
X26790D01*
X26270Y6070D02*
X26710D01*
X26430Y6030D02*
X26510D01*
X26430Y7270D02*
X26750D01*
X26350Y7230D02*
X26910D01*
X26510Y6790D02*
X26790D01*
X27030Y4310D02*
X27230D01*
X27070Y4270D02*
X27230D01*
X27070Y4230D02*
X27270D01*
X27110Y4190D02*
X27270D01*
X27110Y4150D02*
X27310D01*
X27150Y4110D02*
X27310D01*
X27150Y4070D02*
X27350D01*
X27190Y4030D02*
X27350D01*
X27190Y3990D02*
X27390D01*
X27230Y3950D02*
X27430D01*
X27230Y3910D02*
X27430D01*
X27390Y3710D02*
X27670D01*
X26990Y4430D02*
X27190D01*
X26990Y4390D02*
X27190D01*
X27270Y5910D02*
X27430D01*
X27390Y6710D02*
X27670D01*
X27430Y6670D02*
X27710D01*
X27030Y6950D02*
X27390D01*
X27110Y6910D02*
X27430D01*
X27190Y6870D02*
X27470D01*
X27230Y6830D02*
X27510D01*
X27270Y6790D02*
X27550D01*
X28030Y5910D02*
X28270D01*
X28030Y5870D02*
X28230D01*
X28030Y5830D02*
X28230D01*
X27990Y5790D02*
X28230D01*
X27990Y5750D02*
X28190D01*
X27950Y5710D02*
X28190D01*
X27950Y5670D02*
X28150D01*
X27950Y5630D02*
X28150D01*
X27910Y5590D02*
X28150D01*
X27910Y5550D02*
X28110D01*
X27870Y5510D02*
X28110D01*
X27870Y5470D02*
X28070D01*
X27870Y5430D02*
X28070D01*
X27830Y5390D02*
X28070D01*
X27830Y5350D02*
X28030D01*
X27790Y5310D02*
X28030D01*
X27790Y5270D02*
X27990D01*
X27790Y5230D02*
X27990D01*
X27790Y5190D02*
X27990D01*
X28150Y6710D02*
X28350D01*
X28150Y6670D02*
X28350D01*
X28190Y6630D02*
X28350D01*
X28190Y6590D02*
X28390D01*
X28190Y6550D02*
X28390D01*
X28190Y6510D02*
X28390D01*
X28190Y6470D02*
X28390D01*
X28190Y6430D02*
X28390D01*
X28150Y6390D02*
X28390D01*
X28150Y6350D02*
X28350D01*
X28150Y6310D02*
X28350D01*
X28150Y6270D02*
X28350D01*
X28150Y6230D02*
X28350D01*
X28150Y6190D02*
X28350D01*
X28110Y6150D02*
X28350D01*
X28110Y6110D02*
X28310D01*
X28110Y6070D02*
X28310D01*
X28110Y6030D02*
X28310D01*
X28070Y5990D02*
X28270D01*
X27830Y7270D02*
X28070D01*
X27870Y7230D02*
X28110D01*
X27910Y7190D02*
X28150D01*
X27950Y7150D02*
X28190D01*
X27990Y7110D02*
X28230D01*
X27990Y7070D02*
X28230D01*
X28030Y7030D02*
X28270D01*
X28070Y6990D02*
X28270D01*
X28070Y6950D02*
X28310D01*
X28110Y6910D02*
X28310D01*
X28110Y6870D02*
X28310D01*
X28150Y6830D02*
X28350D01*
X28150Y6790D02*
X28350D01*
X20870Y5950D02*
X21230D01*
X20670Y8350D02*
X20870D01*
X20830Y7550D02*
X20990D01*
X22350Y5150D02*
X22550D01*
X23030Y4350D02*
X23230D01*
X23390D02*
X23670D01*
X23870D02*
X24030D01*
X25590D02*
X25790D01*
X25510Y6750D02*
X25790D01*
X25950D02*
X26110D01*
X26550Y5150D02*
X26830D01*
X26430Y6750D02*
X26870D01*
X27030Y4350D02*
X27230D01*
X27350Y6750D02*
X27630D01*
X28070Y5950D02*
X28270D01*
X28150Y6750D02*
X28350D01*
X22750Y4310D02*
X22990D01*
X22790Y4270D02*
X22990D01*
X22790Y4230D02*
X22990D01*
X22830Y4190D02*
X23230D01*
X22830Y4150D02*
X23230D01*
X22870Y4110D02*
X23230D01*
X22870Y4070D02*
X23230D01*
X22910Y4030D02*
X23230D01*
X22910Y3990D02*
X23230D01*
X22950Y3950D02*
X23230D01*
X22950Y3910D02*
X23230D01*
X22750Y5110D02*
X22990D01*
X22790Y5070D02*
X22990D01*
X22790Y5030D02*
X22990D01*
X22790Y4990D02*
X23030D01*
X22830Y4950D02*
X23070D01*
X22830Y4910D02*
X23070D01*
X22870Y4870D02*
X23110D01*
X22870Y4830D02*
X23110D01*
X22910Y4790D02*
X23110D01*
X22910Y4750D02*
X23150D01*
X22950Y4710D02*
X23150D01*
X22950Y4670D02*
X23150D01*
X20510Y5910D02*
X21190D01*
X21990D02*
X22190D01*
X20550Y5870D02*
X21110D01*
X21990D02*
X22230D01*
X22030Y5830D02*
X22230D01*
X22030Y5790D02*
X22270D01*
X22070Y5750D02*
X22270D01*
X22070Y5710D02*
X22310D01*
X22110Y5670D02*
X22310D01*
X22110Y5630D02*
X22350D01*
X22150Y5590D02*
X22350D01*
X22750Y5190D02*
X22950D01*
X20430Y6710D02*
X20630D01*
X20430Y6670D02*
X20630D01*
X20390Y6630D02*
X20590D01*
X20390Y6590D02*
X20590D01*
X20390Y6550D02*
X20550D01*
X20350Y6510D02*
X20550D01*
X21310Y6230D02*
X21950D01*
X22950D02*
X23310D01*
X21270Y6190D02*
X21990D01*
X22910D02*
X23230D01*
X21190Y6150D02*
X22030D01*
X22870D02*
X23150D01*
X21110Y6110D02*
X21550D01*
X22830D02*
X23110D01*
X20310Y6070D02*
X20590D01*
X21070D02*
X21430D01*
X22790D02*
X23070D01*
X20350Y6030D02*
X20670D01*
X20990D02*
X21350D01*
X22790D02*
X22990D01*
X20390Y5990D02*
X20750D01*
X21910D02*
X22150D01*
X22750D02*
X22990D01*
X20550Y6990D02*
X20750D01*
X20550Y6950D02*
X20750D01*
X20550Y6910D02*
X20710D01*
X20510Y6870D02*
X20710D01*
X20510Y6830D02*
X20670D01*
X20470Y6790D02*
X20670D01*
X21190Y8310D02*
X21750D01*
X21270Y8270D02*
X22030D01*
X21350Y8230D02*
X22350D01*
X21470Y8190D02*
X22670D01*
X21670Y8150D02*
X22990D01*
X21070Y8430D02*
X21350D01*
X21070Y8390D02*
X21430D01*
X26110Y4310D02*
X26270D01*
X26070Y4270D02*
X26270D01*
X26070Y4230D02*
X26230D01*
X26070Y4190D02*
X26230D01*
X23550Y4150D02*
X23750D01*
X26030D02*
X26230D01*
X23550Y4110D02*
X23750D01*
X26030D02*
X26230D01*
X23590Y4070D02*
X23750D01*
X26030D02*
X26190D01*
X23590Y4030D02*
X23790D01*
X26030D02*
X26190D01*
X23590Y3990D02*
X23790D01*
X25990D02*
X26190D01*
X23590Y3950D02*
X23830D01*
X25990D02*
X26190D01*
X23630Y3910D02*
X23830D01*
X25990D02*
X26190D01*
X23630Y3870D02*
X24030D01*
X25750D02*
X26190D01*
X23630Y3830D02*
X24030D01*
X25750D02*
X26150D01*
X23670Y3790D02*
X24030D01*
X25790D02*
X26150D01*
X23670Y3750D02*
X24030D01*
X25790D02*
X26150D01*
X23750Y3710D02*
X23990D01*
X25710Y4870D02*
X26350D01*
X23630Y4830D02*
X24350D01*
X25470D02*
X26230D01*
X23550Y4790D02*
X26110D01*
X23510Y4750D02*
X25950D01*
X23510Y4710D02*
X25790D01*
X24150Y4670D02*
X25670D01*
X26150Y4470D02*
X26350D01*
X26150Y4430D02*
X26310D01*
X26110Y4390D02*
X26310D01*
X25310Y6670D02*
X25790D01*
X25150Y6630D02*
X25790D01*
X25030Y6590D02*
X25790D01*
X24870Y6550D02*
X25510D01*
X24550Y6510D02*
X25390D01*
X23470Y6470D02*
X25230D01*
X25950Y6390D02*
X26150D01*
X25990Y6350D02*
X26190D01*
X25990Y6310D02*
X26190D01*
X26030Y6270D02*
X26270D01*
X26030Y6230D02*
X26350D01*
X25870Y5990D02*
X26190D01*
X26070Y7070D02*
X26430D01*
X26070Y7030D02*
X26390D01*
X26030Y6990D02*
X26310D01*
X25990Y6950D02*
X26230D01*
X25990Y6910D02*
X26190D01*
X25950Y6870D02*
X26150D01*
X25950Y6830D02*
X26150D01*
X23590Y7910D02*
X25110D01*
X23950Y7870D02*
X25510D01*
X24310Y7830D02*
X25870D01*
X24670Y7790D02*
X26270D01*
X27590Y4310D02*
X27830D01*
X27590Y4270D02*
X27790D01*
X27590Y4230D02*
X27790D01*
X27590Y4190D02*
X27790D01*
X27590Y4150D02*
X27790D01*
X27590Y4110D02*
X27790D01*
X27590Y4070D02*
X27790D01*
X27590Y4030D02*
X27790D01*
X27590Y3990D02*
X27790D01*
X27590Y3950D02*
X27790D01*
X27550Y3910D02*
X27790D01*
X27270Y3870D02*
X27750D01*
X27270Y3830D02*
X27750D01*
X27270Y3790D02*
X27750D01*
X27310Y3750D02*
X27750D01*
Y5110D02*
X27950D01*
X27750Y5070D02*
X27950D01*
X27710Y5030D02*
X27950D01*
X27710Y4990D02*
X27910D01*
X27710Y4950D02*
X27910D01*
X26750Y4910D02*
X26950D01*
X27710D02*
X27910D01*
X26750Y4870D02*
X26950D01*
X27710D02*
X27910D01*
X26790Y4830D02*
X26990D01*
X27670D02*
X27870D01*
X26790Y4790D02*
X26990D01*
X27670D02*
X27870D01*
X26790Y4750D02*
X27030D01*
X27670D02*
X27870D01*
X26830Y4710D02*
X27030D01*
X27670D02*
X27870D01*
X26870Y4670D02*
X27070D01*
X27670D02*
X27870D01*
X26870Y4630D02*
X27070D01*
X27670D02*
X27870D01*
X26910Y4590D02*
X27110D01*
X27630D02*
X27830D01*
X26910Y4550D02*
X27110D01*
X27630D02*
X27830D01*
X26950Y4510D02*
X27110D01*
X27630D02*
X27830D01*
X26950Y4470D02*
X27150D01*
X27630D02*
X27830D01*
X27630Y4430D02*
X27830D01*
X27630Y4390D02*
X27830D01*
X26870Y5790D02*
X27030D01*
X26830Y5750D02*
X27030D01*
X26830Y5710D02*
X27030D01*
X26830Y5670D02*
X26990D01*
X26830Y5630D02*
X26990D01*
X26790Y5590D02*
X26990D01*
X26790Y5550D02*
X26990D01*
X26790Y5510D02*
X26950D01*
X26750Y5470D02*
X26950D01*
X26750Y5430D02*
X26950D01*
X26710Y6630D02*
X26990D01*
X27470D02*
X27750D01*
X26790Y6590D02*
X26990D01*
X27510D02*
X27790D01*
X26830Y6550D02*
X26990D01*
X27550D02*
X27790D01*
X26830Y6510D02*
X27030D01*
X27590D02*
X27830D01*
X26830Y6470D02*
X27030D01*
X27630D02*
X27830D01*
X26830Y6430D02*
X26990D01*
X27670D02*
X27870D01*
X26830Y6390D02*
X26990D01*
X27670D02*
X27870D01*
X26790Y6350D02*
X26990D01*
X27710D02*
X27910D01*
X26790Y6310D02*
X26990D01*
X27710D02*
X27910D01*
X26710Y6270D02*
X26950D01*
X27750D02*
X27910D01*
X26630Y6230D02*
X26950D01*
X27750D02*
X27910D01*
X27710Y6190D02*
X27910D01*
X27670Y6150D02*
X27910D01*
X26950Y6110D02*
X27070D01*
X27590D02*
X27870D01*
X26910Y6070D02*
X27830D01*
X26870Y6030D02*
X27830D01*
X26790Y5990D02*
X27750D01*
X27190Y7510D02*
X27750D01*
X27350Y7470D02*
X27830D01*
X27470Y7430D02*
X27870D01*
X27590Y7390D02*
X27950D01*
X27670Y7350D02*
X27990D01*
X27750Y7310D02*
X28030D01*
X26750Y7070D02*
X27230D01*
X26910Y7030D02*
X27270D01*
X26950Y6990D02*
X27350D01*
X20470Y5950D02*
X20830D01*
X21950D02*
X22150D01*
X22750D02*
X22950D01*
X22750Y5150D02*
X22950D01*
X22750Y4350D02*
X22950D01*
X21150Y8350D02*
X21550D01*
X20470Y6750D02*
X20670D01*
X25910Y5950D02*
X26350D01*
X26110Y4350D02*
X26310D01*
X26630Y5950D02*
X27670D01*
X27750Y5150D02*
X27950D01*
X27630Y4350D02*
X27830D01*
X26910Y7550D02*
X27630D01*
X23350Y4190D02*
X23750D01*
X22950Y3870D02*
X23470D01*
X26150Y4990D02*
X26670D01*
X26030Y4950D02*
X26670D01*
X25910Y4910D02*
X26630D01*
X25950Y5910D02*
X27030D01*
X26030Y5870D02*
X27030D01*
X26110Y5830D02*
X27030D01*
X26390Y6670D02*
X26950D01*
X23310Y6430D02*
X25110D01*
X23230Y6390D02*
X24950D01*
X23110Y6350D02*
X24670D01*
X26070Y6190D02*
X26910D01*
X26110Y6150D02*
X26870D01*
X26230Y7190D02*
X26990D01*
X26190Y7150D02*
X27070D01*
X26150Y7110D02*
X27150D01*
X21950Y8110D02*
X23390D01*
X22230Y8070D02*
X23710D01*
X22550Y8030D02*
X24070D01*
X22910Y7990D02*
X24430D01*
X23230Y7950D02*
X24790D01*
X24990Y7750D02*
X26630D01*
X25390Y7710D02*
X27030D01*
X25750Y7670D02*
X27270D01*
X26150Y7630D02*
X27430D01*
X26510Y7590D02*
X27550D01*
D16*
X106822Y51137D02*
Y55404D01*
X108032Y8781D02*
Y11734D01*
X107215Y41581D02*
Y45558D01*
X106822Y26845D02*
Y37963D01*
X3878Y54887D02*
Y59154D01*
X2778Y29887D02*
Y36328D01*
X3728Y6516D02*
Y10784D01*
D17*
X82524Y25819D02*
X82524Y25307D01*
X82524Y25859D02*
X82524Y25819D01*
X81124Y52969D02*
X81124Y52457D01*
X81124Y53009D02*
X81124Y52969D01*
D18*
X107949Y56072D02*
X107749D01*
X107849D01*
Y55572D01*
X107749Y55472D01*
X107650D01*
X107550Y55572D01*
X108449Y55472D02*
Y56072D01*
X108149Y55772D01*
X108549D01*
X90450Y38050D02*
X90350Y38150D01*
X90150D01*
X90050Y38050D01*
Y37650D01*
X90150Y37550D01*
X90350D01*
X90450Y37650D01*
X90650Y38050D02*
X90750Y38150D01*
X90950D01*
X91050Y38050D01*
Y37950D01*
X90950Y37850D01*
X90850D01*
X90950D01*
X91050Y37750D01*
Y37650D01*
X90950Y37550D01*
X90750D01*
X90650Y37650D01*
X91250Y38050D02*
X91350Y38150D01*
X91550D01*
X91650Y38050D01*
Y37650D01*
X91550Y37550D01*
X91350D01*
X91250Y37650D01*
Y38050D01*
X86050Y37950D02*
X85950Y38050D01*
X85750D01*
X85650Y37950D01*
Y37550D01*
X85750Y37450D01*
X85950D01*
X86050Y37550D01*
X86650Y37450D02*
X86250D01*
X86650Y37850D01*
Y37950D01*
X86550Y38050D01*
X86350D01*
X86250Y37950D01*
X86850Y37550D02*
X86950Y37450D01*
X87150D01*
X87250Y37550D01*
Y37950D01*
X87150Y38050D01*
X86950D01*
X86850Y37950D01*
Y37850D01*
X86950Y37750D01*
X87250D01*
X85750Y49600D02*
Y49000D01*
X86150D01*
X86750D02*
X86350D01*
X86750Y49400D01*
Y49500D01*
X86650Y49600D01*
X86450D01*
X86350Y49500D01*
X85800Y44500D02*
X85700Y44600D01*
X85500D01*
X85400Y44500D01*
Y44100D01*
X85500Y44000D01*
X85700D01*
X85800Y44100D01*
X86000Y44000D02*
X86200D01*
X86100D01*
Y44600D01*
X86000Y44500D01*
X86500D02*
X86600Y44600D01*
X86800D01*
X86900Y44500D01*
Y44400D01*
X86800Y44300D01*
X86900Y44200D01*
Y44100D01*
X86800Y44000D01*
X86600D01*
X86500Y44100D01*
Y44200D01*
X86600Y44300D01*
X86500Y44400D01*
Y44500D01*
X86600Y44300D02*
X86800D01*
X90350Y33750D02*
X90250Y33850D01*
X90050D01*
X89950Y33750D01*
Y33350D01*
X90050Y33250D01*
X90250D01*
X90350Y33350D01*
X90550Y33750D02*
X90650Y33850D01*
X90850D01*
X90950Y33750D01*
Y33650D01*
X90850Y33550D01*
X90750D01*
X90850D01*
X90950Y33450D01*
Y33350D01*
X90850Y33250D01*
X90650D01*
X90550Y33350D01*
X91550Y33250D02*
X91150D01*
X91550Y33650D01*
Y33750D01*
X91450Y33850D01*
X91250D01*
X91150Y33750D01*
X86100Y33850D02*
Y33250D01*
X86500D01*
X86700Y33750D02*
X86800Y33850D01*
X87000D01*
X87100Y33750D01*
Y33650D01*
X87000Y33550D01*
X86900D01*
X87000D01*
X87100Y33450D01*
Y33350D01*
X87000Y33250D01*
X86800D01*
X86700Y33350D01*
X82250Y28650D02*
Y29250D01*
X82550D01*
X82650Y29150D01*
Y28950D01*
X82550Y28850D01*
X82250D01*
X82450D02*
X82650Y28650D01*
X82850D02*
X83050D01*
X82950D01*
Y29250D01*
X82850Y29150D01*
X83750Y29250D02*
X83350D01*
Y28950D01*
X83550Y29050D01*
X83650D01*
X83750Y28950D01*
Y28750D01*
X83650Y28650D01*
X83450D01*
X83350Y28750D01*
X79600Y30850D02*
X79500Y30950D01*
X79300D01*
X79200Y30850D01*
Y30450D01*
X79300Y30350D01*
X79500D01*
X79600Y30450D01*
X80200Y30350D02*
X79800D01*
X80200Y30750D01*
Y30850D01*
X80100Y30950D01*
X79900D01*
X79800Y30850D01*
X80400Y30350D02*
X80600D01*
X80500D01*
Y30950D01*
X80400Y30850D01*
X78200Y36150D02*
X78800D01*
Y36450D01*
X78700Y36550D01*
X78300D01*
X78200Y36450D01*
Y36150D01*
X78800Y36750D02*
Y36950D01*
Y36850D01*
X78200D01*
X78300Y36750D01*
X78800Y37650D02*
Y37250D01*
X78400Y37650D01*
X78300D01*
X78200Y37550D01*
Y37350D01*
X78300Y37250D01*
X78150Y41050D02*
X78750D01*
Y41350D01*
X78650Y41450D01*
X78250D01*
X78150Y41350D01*
Y41050D01*
Y42050D02*
X78250Y41850D01*
X78450Y41650D01*
X78650D01*
X78750Y41750D01*
Y41950D01*
X78650Y42050D01*
X78550D01*
X78450Y41950D01*
Y41650D01*
X77350Y30100D02*
X77250Y30000D01*
Y29800D01*
X77350Y29700D01*
X77750D01*
X77850Y29800D01*
Y30000D01*
X77750Y30100D01*
X77850Y30600D02*
X77250D01*
X77550Y30300D01*
Y30700D01*
X77750Y30900D02*
X77850Y31000D01*
Y31200D01*
X77750Y31300D01*
X77350D01*
X77250Y31200D01*
Y31000D01*
X77350Y30900D01*
X77450D01*
X77550Y31000D01*
Y31300D01*
X76550Y25550D02*
X76950D01*
X76750D01*
Y24950D01*
X77150D02*
Y25550D01*
X77450D01*
X77550Y25450D01*
Y25250D01*
X77450Y25150D01*
X77150D01*
X77750Y24950D02*
X77950D01*
X77850D01*
Y25550D01*
X77750Y25450D01*
X78250D02*
X78350Y25550D01*
X78550D01*
X78650Y25450D01*
Y25350D01*
X78550Y25250D01*
X78450D01*
X78550D01*
X78650Y25150D01*
Y25050D01*
X78550Y24950D01*
X78350D01*
X78250Y25050D01*
X79250Y29250D02*
Y28650D01*
X79550D01*
X79650Y28750D01*
Y29150D01*
X79550Y29250D01*
X79250D01*
X79850Y28650D02*
X80050D01*
X79950D01*
Y29250D01*
X79850Y29150D01*
X80650Y28650D02*
Y29250D01*
X80350Y28950D01*
X80750D01*
X73550Y25500D02*
Y25100D01*
X73750Y24900D01*
X73950Y25100D01*
Y25500D01*
X74150D02*
Y24900D01*
X74450D01*
X74550Y25000D01*
Y25400D01*
X74450Y25500D01*
X74150D01*
X75150D02*
X74950Y25400D01*
X74750Y25200D01*
Y25000D01*
X74850Y24900D01*
X75050D01*
X75150Y25000D01*
Y25100D01*
X75050Y25200D01*
X74750D01*
X71255Y24522D02*
X71655D01*
X71455D01*
Y23922D01*
X71854D02*
Y24522D01*
X72154D01*
X72254Y24422D01*
Y24222D01*
X72154Y24122D01*
X71854D01*
X72454Y23922D02*
X72654D01*
X72554D01*
Y24522D01*
X72454Y24422D01*
X72954Y23922D02*
X73154D01*
X73054D01*
Y24522D01*
X72954Y24422D01*
X75250Y21250D02*
Y20750D01*
X75350Y20650D01*
X75550D01*
X75650Y20750D01*
Y21250D01*
X76250Y20650D02*
X75850D01*
X76250Y21050D01*
Y21150D01*
X76150Y21250D01*
X75950D01*
X75850Y21150D01*
X92250Y12450D02*
X92150Y12550D01*
X91950D01*
X91850Y12450D01*
Y12050D01*
X91950Y11950D01*
X92150D01*
X92250Y12050D01*
X92850Y12550D02*
X92650Y12450D01*
X92450Y12250D01*
Y12050D01*
X92550Y11950D01*
X92750D01*
X92850Y12050D01*
Y12150D01*
X92750Y12250D01*
X92450D01*
X93050Y12450D02*
X93150Y12550D01*
X93350D01*
X93450Y12450D01*
Y12350D01*
X93350Y12250D01*
X93450Y12150D01*
Y12050D01*
X93350Y11950D01*
X93150D01*
X93050Y12050D01*
Y12150D01*
X93150Y12250D01*
X93050Y12350D01*
Y12450D01*
X93150Y12250D02*
X93350D01*
X96800Y13700D02*
Y13100D01*
X97100D01*
X97200Y13200D01*
Y13600D01*
X97100Y13700D01*
X96800D01*
X97800Y13100D02*
X97400D01*
X97800Y13500D01*
Y13600D01*
X97700Y13700D01*
X97500D01*
X97400Y13600D01*
X98400Y13100D02*
X98000D01*
X98400Y13500D01*
Y13600D01*
X98300Y13700D01*
X98100D01*
X98000Y13600D01*
X100950Y12300D02*
X100850Y12400D01*
X100650D01*
X100550Y12300D01*
Y11900D01*
X100650Y11800D01*
X100850D01*
X100950Y11900D01*
X101550Y12400D02*
X101350Y12300D01*
X101150Y12100D01*
Y11900D01*
X101250Y11800D01*
X101450D01*
X101550Y11900D01*
Y12000D01*
X101450Y12100D01*
X101150D01*
X102150Y12400D02*
X101950Y12300D01*
X101750Y12100D01*
Y11900D01*
X101850Y11800D01*
X102050D01*
X102150Y11900D01*
Y12000D01*
X102050Y12100D01*
X101750D01*
X109050Y11600D02*
X108850D01*
X108950D01*
Y11100D01*
X108850Y11000D01*
X108750D01*
X108650Y11100D01*
X109650Y11000D02*
X109250D01*
X109650Y11400D01*
Y11500D01*
X109550Y11600D01*
X109350D01*
X109250Y11500D01*
X103500Y11100D02*
X103900D01*
X103700D01*
Y10500D01*
X104100D02*
Y11100D01*
X104400D01*
X104500Y11000D01*
Y10800D01*
X104400Y10700D01*
X104100D01*
X105100Y10500D02*
X104700D01*
X105100Y10900D01*
Y11000D01*
X105000Y11100D01*
X104800D01*
X104700Y11000D01*
X105300Y10500D02*
X105500D01*
X105400D01*
Y11100D01*
X105300Y11000D01*
X108373Y46167D02*
X108173D01*
X108273D01*
Y45667D01*
X108173Y45567D01*
X108073D01*
X107973Y45667D01*
X108573Y46167D02*
X108973D01*
Y46067D01*
X108573Y45667D01*
Y45567D01*
X100850Y55850D02*
X101250D01*
X101050D01*
Y55250D01*
X101450D02*
Y55850D01*
X101750D01*
X101850Y55750D01*
Y55550D01*
X101750Y55450D01*
X101450D01*
X102350Y55250D02*
Y55850D01*
X102050Y55550D01*
X102450D01*
X97000Y57200D02*
X97400D01*
X97200D01*
Y56600D01*
X97600D02*
Y57200D01*
X97900D01*
X98000Y57100D01*
Y56900D01*
X97900Y56800D01*
X97600D01*
X98600Y56600D02*
X98200D01*
X98600Y57000D01*
Y57100D01*
X98500Y57200D01*
X98300D01*
X98200Y57100D01*
X95850Y54250D02*
X95450D01*
Y53950D01*
X95650D01*
X95450D01*
Y53650D01*
X96050D02*
X96250D01*
X96150D01*
Y54250D01*
X96050Y54150D01*
X99600Y61100D02*
X99500Y61200D01*
X99300D01*
X99200Y61100D01*
Y60700D01*
X99300Y60600D01*
X99500D01*
X99600Y60700D01*
X100200Y61200D02*
X99800D01*
Y60900D01*
X100000Y61000D01*
X100100D01*
X100200Y60900D01*
Y60700D01*
X100100Y60600D01*
X99900D01*
X99800Y60700D01*
X95100Y62400D02*
Y63000D01*
X95400D01*
X95500Y62900D01*
Y62700D01*
X95400Y62600D01*
X95100D01*
X95300D02*
X95500Y62400D01*
X96100Y63000D02*
X95900Y62900D01*
X95700Y62700D01*
Y62500D01*
X95800Y62400D01*
X96000D01*
X96100Y62500D01*
Y62600D01*
X96000Y62700D01*
X95700D01*
X91700Y61200D02*
X91600Y61300D01*
X91400D01*
X91300Y61200D01*
Y60800D01*
X91400Y60700D01*
X91600D01*
X91700Y60800D01*
X91900D02*
X92000Y60700D01*
X92200D01*
X92300Y60800D01*
Y61200D01*
X92200Y61300D01*
X92000D01*
X91900Y61200D01*
Y61100D01*
X92000Y61000D01*
X92300D01*
X87300Y56650D02*
X87200Y56750D01*
X87000D01*
X86900Y56650D01*
Y56250D01*
X87000Y56150D01*
X87200D01*
X87300Y56250D01*
X87500Y56650D02*
X87600Y56750D01*
X87800D01*
X87900Y56650D01*
Y56550D01*
X87800Y56450D01*
X87700D01*
X87800D01*
X87900Y56350D01*
Y56250D01*
X87800Y56150D01*
X87600D01*
X87500Y56250D01*
X87000Y61400D02*
Y60800D01*
X87400D01*
X87600D02*
X87800D01*
X87700D01*
Y61400D01*
X87600Y61300D01*
X81500Y62400D02*
Y63000D01*
X81800D01*
X81900Y62900D01*
Y62700D01*
X81800Y62600D01*
X81500D01*
X81700D02*
X81900Y62400D01*
X82400D02*
Y63000D01*
X82100Y62700D01*
X82500D01*
X76400Y52800D02*
Y52200D01*
X76700D01*
X76800Y52300D01*
Y52700D01*
X76700Y52800D01*
X76400D01*
X77400Y52200D02*
X77000D01*
X77400Y52600D01*
Y52700D01*
X77300Y52800D01*
X77100D01*
X77000Y52700D01*
X79271Y60871D02*
X79171Y60971D01*
X78971D01*
X78871Y60871D01*
Y60471D01*
X78971Y60371D01*
X79171D01*
X79271Y60471D01*
X79471Y60371D02*
X79671D01*
X79571D01*
Y60971D01*
X79471Y60871D01*
X54383Y65308D02*
X54283Y65408D01*
X54083D01*
X53983Y65308D01*
Y65208D01*
X54083Y65108D01*
X54283D01*
X54383Y65008D01*
Y64908D01*
X54283Y64808D01*
X54083D01*
X53983Y64908D01*
X54983Y65308D02*
X54883Y65408D01*
X54683D01*
X54583Y65308D01*
Y64908D01*
X54683Y64808D01*
X54883D01*
X54983Y64908D01*
X55582Y65408D02*
X55382Y65308D01*
X55182Y65108D01*
Y64908D01*
X55282Y64808D01*
X55482D01*
X55582Y64908D01*
Y65008D01*
X55482Y65108D01*
X55182D01*
X102496Y65273D02*
X102396Y65373D01*
X102196D01*
X102096Y65273D01*
Y65173D01*
X102196Y65073D01*
X102396D01*
X102496Y64973D01*
Y64873D01*
X102396Y64773D01*
X102196D01*
X102096Y64873D01*
X103096Y65273D02*
X102996Y65373D01*
X102796D01*
X102696Y65273D01*
Y64873D01*
X102796Y64773D01*
X102996D01*
X103096Y64873D01*
X103296Y64773D02*
X103496D01*
X103396D01*
Y65373D01*
X103296Y65273D01*
X102807Y2253D02*
X102707Y2353D01*
X102507D01*
X102407Y2253D01*
Y2153D01*
X102507Y2053D01*
X102707D01*
X102807Y1953D01*
Y1853D01*
X102707Y1753D01*
X102507D01*
X102407Y1853D01*
X103407Y2253D02*
X103307Y2353D01*
X103107D01*
X103007Y2253D01*
Y1853D01*
X103107Y1753D01*
X103307D01*
X103407Y1853D01*
X104007Y2353D02*
X103607D01*
Y2053D01*
X103807Y2153D01*
X103907D01*
X104007Y2053D01*
Y1853D01*
X103907Y1753D01*
X103707D01*
X103607Y1853D01*
X69050Y28300D02*
X69450D01*
X69250D01*
Y27700D01*
X69650D02*
Y28300D01*
X69950D01*
X70050Y28200D01*
Y28000D01*
X69950Y27900D01*
X69650D01*
X70250Y28200D02*
X70350Y28300D01*
X70550D01*
X70650Y28200D01*
Y28100D01*
X70550Y28000D01*
X70650Y27900D01*
Y27800D01*
X70550Y27700D01*
X70350D01*
X70250Y27800D01*
Y27900D01*
X70350Y28000D01*
X70250Y28100D01*
Y28200D01*
X70350Y28000D02*
X70550D01*
X67950Y26650D02*
Y26150D01*
X68050Y26050D01*
X68250D01*
X68350Y26150D01*
Y26650D01*
X68550Y26050D02*
X68750D01*
X68650D01*
Y26650D01*
X68550Y26550D01*
X63450Y28350D02*
X63350Y28250D01*
Y28050D01*
X63450Y27950D01*
X63850D01*
X63950Y28050D01*
Y28250D01*
X63850Y28350D01*
X63950Y28850D02*
X63350D01*
X63650Y28550D01*
Y28950D01*
X63950Y29450D02*
X63350D01*
X63650Y29150D01*
Y29550D01*
X70950Y29900D02*
X71550D01*
Y30200D01*
X71450Y30300D01*
X71050D01*
X70950Y30200D01*
Y29900D01*
X71550Y30500D02*
Y30700D01*
Y30600D01*
X70950D01*
X71050Y30500D01*
Y31000D02*
X70950Y31100D01*
Y31300D01*
X71050Y31400D01*
X71150D01*
X71250Y31300D01*
Y31200D01*
Y31300D01*
X71350Y31400D01*
X71450D01*
X71550Y31300D01*
Y31100D01*
X71450Y31000D01*
X62100Y30900D02*
Y30500D01*
X62300Y30300D01*
X62500Y30500D01*
Y30900D01*
X62700D02*
Y30300D01*
X63000D01*
X63100Y30400D01*
Y30800D01*
X63000Y30900D01*
X62700D01*
X63300Y30300D02*
X63500D01*
X63400D01*
Y30900D01*
X63300Y30800D01*
X108250Y38150D02*
X108050D01*
X108150D01*
Y37650D01*
X108050Y37550D01*
X107950D01*
X107850Y37650D01*
X108850Y38150D02*
X108450D01*
Y37850D01*
X108650Y37950D01*
X108750D01*
X108850Y37850D01*
Y37650D01*
X108750Y37550D01*
X108550D01*
X108450Y37650D01*
X99600Y34900D02*
X100000D01*
X99800D01*
Y34300D01*
X100200D02*
Y34900D01*
X100500D01*
X100600Y34800D01*
Y34600D01*
X100500Y34500D01*
X100200D01*
X100800Y34300D02*
X101000D01*
X100900D01*
Y34900D01*
X100800Y34800D01*
X101700Y34300D02*
X101300D01*
X101700Y34700D01*
Y34800D01*
X101600Y34900D01*
X101400D01*
X101300Y34800D01*
X99650Y32174D02*
X100050D01*
X99850D01*
Y31574D01*
X100250D02*
Y32174D01*
X100550D01*
X100650Y32074D01*
Y31874D01*
X100550Y31774D01*
X100250D01*
X100850Y31574D02*
X101050D01*
X100950D01*
Y32174D01*
X100850Y32074D01*
X101749Y32174D02*
X101349D01*
Y31874D01*
X101549Y31974D01*
X101649D01*
X101749Y31874D01*
Y31674D01*
X101649Y31574D01*
X101449D01*
X101349Y31674D01*
X103100Y22450D02*
Y23050D01*
X103400D01*
X103500Y22950D01*
Y22750D01*
X103400Y22650D01*
X103100D01*
X103300D02*
X103500Y22450D01*
X104100D02*
X103700D01*
X104100Y22850D01*
Y22950D01*
X104000Y23050D01*
X103800D01*
X103700Y22950D01*
X104600Y22450D02*
Y23050D01*
X104300Y22750D01*
X104700D01*
X97600Y22750D02*
X97500Y22850D01*
X97300D01*
X97200Y22750D01*
Y22350D01*
X97300Y22250D01*
X97500D01*
X97600Y22350D01*
X98100Y22250D02*
Y22850D01*
X97800Y22550D01*
X98200D01*
X98400Y22250D02*
X98600D01*
X98500D01*
Y22850D01*
X98400Y22750D01*
X93350Y22800D02*
X93250Y22900D01*
X93050D01*
X92950Y22800D01*
Y22400D01*
X93050Y22300D01*
X93250D01*
X93350Y22400D01*
X93850Y22300D02*
Y22900D01*
X93550Y22600D01*
X93950D01*
X94150Y22800D02*
X94250Y22900D01*
X94450D01*
X94550Y22800D01*
Y22400D01*
X94450Y22300D01*
X94250D01*
X94150Y22400D01*
Y22800D01*
X97050Y28300D02*
X96950Y28400D01*
X96750D01*
X96650Y28300D01*
Y27900D01*
X96750Y27800D01*
X96950D01*
X97050Y27900D01*
X97550Y27800D02*
Y28400D01*
X97250Y28100D01*
X97650D01*
X98250Y28400D02*
X97850D01*
Y28100D01*
X98050Y28200D01*
X98150D01*
X98250Y28100D01*
Y27900D01*
X98150Y27800D01*
X97950D01*
X97850Y27900D01*
X93200Y28250D02*
Y27650D01*
X93600D01*
X94100D02*
Y28250D01*
X93800Y27950D01*
X94200D01*
X87900Y28800D02*
X87800Y28900D01*
X87600D01*
X87500Y28800D01*
Y28400D01*
X87600Y28300D01*
X87800D01*
X87900Y28400D01*
X88400Y28300D02*
Y28900D01*
X88100Y28600D01*
X88500D01*
X89100Y28300D02*
X88700D01*
X89100Y28700D01*
Y28800D01*
X89000Y28900D01*
X88800D01*
X88700Y28800D01*
X89050Y22350D02*
Y22950D01*
X89350D01*
X89450Y22850D01*
Y22650D01*
X89350Y22550D01*
X89050D01*
X89250D02*
X89450Y22350D01*
X90050D02*
X89650D01*
X90050Y22750D01*
Y22850D01*
X89950Y22950D01*
X89750D01*
X89650Y22850D01*
X90650Y22950D02*
X90250D01*
Y22650D01*
X90450Y22750D01*
X90550D01*
X90650Y22650D01*
Y22450D01*
X90550Y22350D01*
X90350D01*
X90250Y22450D01*
X86500Y22800D02*
X86400Y22900D01*
X86200D01*
X86100Y22800D01*
Y22400D01*
X86200Y22300D01*
X86400D01*
X86500Y22400D01*
X87000Y22300D02*
Y22900D01*
X86700Y22600D01*
X87100D01*
X87300Y22900D02*
X87700D01*
Y22800D01*
X87300Y22400D01*
Y22300D01*
X82250Y22700D02*
X82650D01*
X82450D01*
Y22100D01*
X82850D02*
Y22700D01*
X83150D01*
X83250Y22600D01*
Y22400D01*
X83150Y22300D01*
X82850D01*
X83450Y22100D02*
X83650D01*
X83550D01*
Y22700D01*
X83450Y22600D01*
X84350Y22700D02*
X84150Y22600D01*
X83950Y22400D01*
Y22200D01*
X84050Y22100D01*
X84250D01*
X84350Y22200D01*
Y22300D01*
X84250Y22400D01*
X83950D01*
X86050Y14800D02*
X86450D01*
X86250D01*
Y14200D01*
X86650D02*
Y14800D01*
X86950D01*
X87050Y14700D01*
Y14500D01*
X86950Y14400D01*
X86650D01*
X87250Y14200D02*
X87450D01*
X87350D01*
Y14800D01*
X87250Y14700D01*
X87750Y14800D02*
X88150D01*
Y14700D01*
X87750Y14300D01*
Y14200D01*
X86000Y13000D02*
X86400D01*
X86200D01*
Y12400D01*
X86600D02*
Y13000D01*
X86900D01*
X87000Y12900D01*
Y12700D01*
X86900Y12600D01*
X86600D01*
X87600Y12400D02*
X87200D01*
X87600Y12800D01*
Y12900D01*
X87500Y13000D01*
X87300D01*
X87200Y12900D01*
X87800D02*
X87900Y13000D01*
X88100D01*
X88200Y12900D01*
Y12500D01*
X88100Y12400D01*
X87900D01*
X87800Y12500D01*
Y12900D01*
X74150Y10150D02*
Y9750D01*
X74350Y9550D01*
X74550Y9750D01*
Y10150D01*
X74750D02*
Y9550D01*
X75050D01*
X75150Y9650D01*
Y10050D01*
X75050Y10150D01*
X74750D01*
X75350D02*
X75750D01*
Y10050D01*
X75350Y9650D01*
Y9550D01*
X77650Y16500D02*
Y16900D01*
Y16700D01*
X78250D01*
Y17100D02*
X77650D01*
Y17400D01*
X77750Y17500D01*
X77950D01*
X78050Y17400D01*
Y17100D01*
X78250Y17700D02*
Y17900D01*
Y17800D01*
X77650D01*
X77750Y17700D01*
Y18200D02*
X77650Y18300D01*
Y18500D01*
X77750Y18600D01*
X77850D01*
X77950Y18500D01*
X78050Y18600D01*
X78150D01*
X78250Y18500D01*
Y18300D01*
X78150Y18200D01*
X78050D01*
X77950Y18300D01*
X77850Y18200D01*
X77750D01*
X77950Y18300D02*
Y18500D01*
X74756Y16550D02*
Y16950D01*
Y16750D01*
X75355D01*
Y17150D02*
X74756D01*
Y17450D01*
X74856Y17550D01*
X75056D01*
X75155Y17450D01*
Y17150D01*
X74756Y18150D02*
X74856Y17950D01*
X75056Y17750D01*
X75255D01*
X75355Y17850D01*
Y18050D01*
X75255Y18150D01*
X75155D01*
X75056Y18050D01*
Y17750D01*
X63000Y18250D02*
Y18650D01*
X62900Y18750D01*
X62700D01*
X62600Y18650D01*
Y18250D01*
X62700Y18150D01*
X62900D01*
X62800Y18350D02*
X63000Y18150D01*
X62900D02*
X63000Y18250D01*
X63600Y18150D02*
X63200D01*
X63600Y18550D01*
Y18650D01*
X63500Y18750D01*
X63300D01*
X63200Y18650D01*
X66150Y21300D02*
Y21700D01*
Y21500D01*
X66750D01*
Y21900D02*
X66150D01*
Y22200D01*
X66250Y22300D01*
X66450D01*
X66550Y22200D01*
Y21900D01*
X66150Y22500D02*
Y22900D01*
X66250D01*
X66650Y22500D01*
X66750D01*
X64102Y16934D02*
X64502D01*
X64302D01*
Y16335D01*
X64701D02*
Y16934D01*
X65001D01*
X65101Y16834D01*
Y16635D01*
X65001Y16535D01*
X64701D01*
X65301Y16335D02*
X65501D01*
X65401D01*
Y16934D01*
X65301Y16834D01*
X63100Y25050D02*
Y25450D01*
X63000Y25550D01*
X62800D01*
X62700Y25450D01*
Y25050D01*
X62800Y24950D01*
X63000D01*
X62900Y25150D02*
X63100Y24950D01*
X63000D02*
X63100Y25050D01*
X63300Y25450D02*
X63400Y25550D01*
X63600D01*
X63700Y25450D01*
Y25350D01*
X63600Y25250D01*
X63500D01*
X63600D01*
X63700Y25150D01*
Y25050D01*
X63600Y24950D01*
X63400D01*
X63300Y25050D01*
X60024Y20936D02*
Y20336D01*
X60324D01*
X60424Y20436D01*
Y20836D01*
X60324Y20936D01*
X60024D01*
X60624Y20336D02*
X60824D01*
X60724D01*
Y20936D01*
X60624Y20836D01*
X61124Y20336D02*
X61324D01*
X61224D01*
Y20936D01*
X61124Y20836D01*
X60250Y19750D02*
X60150Y19850D01*
X59950D01*
X59850Y19750D01*
Y19350D01*
X59950Y19250D01*
X60150D01*
X60250Y19350D01*
X60850Y19250D02*
X60450D01*
X60850Y19650D01*
Y19750D01*
X60750Y19850D01*
X60550D01*
X60450Y19750D01*
X61050D02*
X61150Y19850D01*
X61350D01*
X61450Y19750D01*
Y19650D01*
X61350Y19550D01*
X61450Y19450D01*
Y19350D01*
X61350Y19250D01*
X61150D01*
X61050Y19350D01*
Y19450D01*
X61150Y19550D01*
X61050Y19650D01*
Y19750D01*
X61150Y19550D02*
X61350D01*
X47850Y19150D02*
Y19550D01*
X47750Y19650D01*
X47550D01*
X47450Y19550D01*
Y19150D01*
X47550Y19050D01*
X47750D01*
X47650Y19250D02*
X47850Y19050D01*
X47750D02*
X47850Y19150D01*
X48350Y19050D02*
Y19650D01*
X48050Y19350D01*
X48450D01*
X52100Y10550D02*
Y11150D01*
X52400D01*
X52500Y11050D01*
Y10850D01*
X52400Y10750D01*
X52100D01*
X52300D02*
X52500Y10550D01*
X53100D02*
X52700D01*
X53100Y10950D01*
Y11050D01*
X53000Y11150D01*
X52800D01*
X52700Y11050D01*
X53700Y10550D02*
X53300D01*
X53700Y10950D01*
Y11050D01*
X53600Y11150D01*
X53400D01*
X53300Y11050D01*
X50830Y4327D02*
X50731Y4427D01*
X50531D01*
X50431Y4327D01*
Y4227D01*
X50531Y4127D01*
X50731D01*
X50830Y4027D01*
Y3927D01*
X50731Y3827D01*
X50531D01*
X50431Y3927D01*
X51430Y4327D02*
X51330Y4427D01*
X51130D01*
X51030Y4327D01*
Y3927D01*
X51130Y3827D01*
X51330D01*
X51430Y3927D01*
X51930Y3827D02*
Y4427D01*
X51630Y4127D01*
X52030D01*
X39350Y1900D02*
X39250Y2000D01*
X39050D01*
X38950Y1900D01*
Y1500D01*
X39050Y1400D01*
X39250D01*
X39350Y1500D01*
X39550Y2000D02*
X39950D01*
Y1900D01*
X39550Y1500D01*
Y1400D01*
X40550D02*
X40150D01*
X40550Y1800D01*
Y1900D01*
X40450Y2000D01*
X40250D01*
X40150Y1900D01*
X41600Y1950D02*
X41500Y2050D01*
X41300D01*
X41200Y1950D01*
Y1550D01*
X41300Y1450D01*
X41500D01*
X41600Y1550D01*
X42200Y2050D02*
X42000Y1950D01*
X41800Y1750D01*
Y1550D01*
X41900Y1450D01*
X42100D01*
X42200Y1550D01*
Y1650D01*
X42100Y1750D01*
X41800D01*
X42800Y2050D02*
X42400D01*
Y1750D01*
X42600Y1850D01*
X42700D01*
X42800Y1750D01*
Y1550D01*
X42700Y1450D01*
X42500D01*
X42400Y1550D01*
X41900Y11450D02*
X42300D01*
X42100D01*
Y10850D01*
X42500D02*
Y11450D01*
X42800D01*
X42900Y11350D01*
Y11150D01*
X42800Y11050D01*
X42500D01*
X43100Y10850D02*
X43300D01*
X43200D01*
Y11450D01*
X43100Y11350D01*
X43900Y10850D02*
Y11450D01*
X43600Y11150D01*
X44000D01*
X22284Y17072D02*
X22684D01*
X22484D01*
Y16473D01*
X22884D02*
Y17072D01*
X23184D01*
X23284Y16972D01*
Y16772D01*
X23184Y16673D01*
X22884D01*
X23884Y16473D02*
X23484D01*
X23884Y16872D01*
Y16972D01*
X23784Y17072D01*
X23584D01*
X23484Y16972D01*
X24483Y16473D02*
X24084D01*
X24483Y16872D01*
Y16972D01*
X24383Y17072D01*
X24183D01*
X24084Y16972D01*
X26165Y20602D02*
Y21201D01*
X26465D01*
X26565Y21101D01*
Y20901D01*
X26465Y20802D01*
X26165D01*
X26365D02*
X26565Y20602D01*
X27165Y21201D02*
X26765D01*
Y20901D01*
X26965Y21001D01*
X27065D01*
X27165Y20901D01*
Y20702D01*
X27065Y20602D01*
X26865D01*
X26765Y20702D01*
X27765Y21201D02*
X27365D01*
Y20901D01*
X27565Y21001D01*
X27665D01*
X27765Y20901D01*
Y20702D01*
X27665Y20602D01*
X27465D01*
X27365Y20702D01*
X36050Y25750D02*
X35950Y25850D01*
X35750D01*
X35650Y25750D01*
Y25350D01*
X35750Y25250D01*
X35950D01*
X36050Y25350D01*
X36250Y25850D02*
X36650D01*
Y25750D01*
X36250Y25350D01*
Y25250D01*
X36850D02*
X37050D01*
X36950D01*
Y25850D01*
X36850Y25750D01*
X35900Y41750D02*
X35800Y41850D01*
X35600D01*
X35500Y41750D01*
Y41350D01*
X35600Y41250D01*
X35800D01*
X35900Y41350D01*
X36500Y41850D02*
X36300Y41750D01*
X36100Y41550D01*
Y41350D01*
X36200Y41250D01*
X36400D01*
X36500Y41350D01*
Y41450D01*
X36400Y41550D01*
X36100D01*
X37000Y41250D02*
Y41850D01*
X36700Y41550D01*
X37100D01*
X44000Y41650D02*
X43900Y41550D01*
Y41350D01*
X44000Y41250D01*
X44400D01*
X44500Y41350D01*
Y41550D01*
X44400Y41650D01*
X44500Y41850D02*
Y42050D01*
Y41950D01*
X43900D01*
X44000Y41850D01*
X44500Y42750D02*
Y42350D01*
X44100Y42750D01*
X44000D01*
X43900Y42650D01*
Y42450D01*
X44000Y42350D01*
X49116Y44138D02*
Y44538D01*
X49016Y44638D01*
X48816D01*
X48716Y44538D01*
Y44138D01*
X48816Y44038D01*
X49016D01*
X48916Y44238D02*
X49116Y44038D01*
X49016D02*
X49116Y44138D01*
X49316Y44038D02*
X49516D01*
X49416D01*
Y44638D01*
X49316Y44538D01*
X55000Y40650D02*
X55400D01*
X55200D01*
Y40050D01*
X55600D02*
Y40650D01*
X55900D01*
X56000Y40550D01*
Y40350D01*
X55900Y40250D01*
X55600D01*
X56200Y40550D02*
X56300Y40650D01*
X56500D01*
X56600Y40550D01*
Y40450D01*
X56500Y40350D01*
X56400D01*
X56500D01*
X56600Y40250D01*
Y40150D01*
X56500Y40050D01*
X56300D01*
X56200Y40150D01*
X52250Y35200D02*
Y35600D01*
Y35400D01*
X52850D01*
Y36200D02*
Y35800D01*
X52450Y36200D01*
X52350D01*
X52250Y36100D01*
Y35900D01*
X52350Y35800D01*
X55600Y29850D02*
X56000D01*
X56200Y30050D01*
X56000Y30250D01*
X55600D01*
Y30450D02*
X56200D01*
Y30750D01*
X56100Y30850D01*
X55700D01*
X55600Y30750D01*
Y30450D01*
Y31450D02*
Y31050D01*
X55900D01*
X55800Y31250D01*
Y31350D01*
X55900Y31450D01*
X56100D01*
X56200Y31350D01*
Y31150D01*
X56100Y31050D01*
X55600Y27950D02*
X56000D01*
X56200Y28150D01*
X56000Y28350D01*
X55600D01*
Y28550D02*
X56200D01*
Y28850D01*
X56100Y28950D01*
X55700D01*
X55600Y28850D01*
Y28550D01*
X56200Y29450D02*
X55600D01*
X55900Y29150D01*
Y29550D01*
X56450Y27600D02*
X56350Y27700D01*
X56150D01*
X56050Y27600D01*
Y27500D01*
X56150Y27400D01*
X56350D01*
X56450Y27300D01*
Y27200D01*
X56350Y27100D01*
X56150D01*
X56050Y27200D01*
X56650Y27100D02*
Y27700D01*
X56950D01*
X57050Y27600D01*
Y27400D01*
X56950Y27300D01*
X56650D01*
X56850D02*
X57050Y27100D01*
X57650Y27700D02*
X57450Y27600D01*
X57250Y27400D01*
Y27200D01*
X57350Y27100D01*
X57550D01*
X57650Y27200D01*
Y27300D01*
X57550Y27400D01*
X57250D01*
X51350Y27600D02*
X51250Y27700D01*
X51050D01*
X50950Y27600D01*
Y27500D01*
X51050Y27400D01*
X51250D01*
X51350Y27300D01*
Y27200D01*
X51250Y27100D01*
X51050D01*
X50950Y27200D01*
X51550Y27100D02*
Y27700D01*
X51850D01*
X51950Y27600D01*
Y27400D01*
X51850Y27300D01*
X51550D01*
X51750D02*
X51950Y27100D01*
X52550Y27700D02*
X52150D01*
Y27400D01*
X52350Y27500D01*
X52450D01*
X52550Y27400D01*
Y27200D01*
X52450Y27100D01*
X52250D01*
X52150Y27200D01*
X46200Y27550D02*
X46100Y27650D01*
X45900D01*
X45800Y27550D01*
Y27450D01*
X45900Y27350D01*
X46100D01*
X46200Y27250D01*
Y27150D01*
X46100Y27050D01*
X45900D01*
X45800Y27150D01*
X46400Y27050D02*
Y27650D01*
X46700D01*
X46800Y27550D01*
Y27350D01*
X46700Y27250D01*
X46400D01*
X46600D02*
X46800Y27050D01*
X47300D02*
Y27650D01*
X47000Y27350D01*
X47400D01*
X47650Y34400D02*
Y33800D01*
X47950D01*
X48050Y33900D01*
Y34300D01*
X47950Y34400D01*
X47650D01*
X48250Y34300D02*
X48350Y34400D01*
X48550D01*
X48650Y34300D01*
Y34200D01*
X48550Y34100D01*
X48450D01*
X48550D01*
X48650Y34000D01*
Y33900D01*
X48550Y33800D01*
X48350D01*
X48250Y33900D01*
X43850Y28950D02*
X43250D01*
Y29250D01*
X43350Y29350D01*
X43550D01*
X43650Y29250D01*
Y28950D01*
Y29150D02*
X43850Y29350D01*
X43250Y29950D02*
Y29550D01*
X43550D01*
X43450Y29750D01*
Y29850D01*
X43550Y29950D01*
X43750D01*
X43850Y29850D01*
Y29650D01*
X43750Y29550D01*
X43850Y30550D02*
Y30150D01*
X43450Y30550D01*
X43350D01*
X43250Y30450D01*
Y30250D01*
X43350Y30150D01*
X62500Y47700D02*
X62900D01*
X63100Y47900D01*
X62900Y48100D01*
X62500D01*
Y48300D02*
X63100D01*
Y48600D01*
X63000Y48700D01*
X62600D01*
X62500Y48600D01*
Y48300D01*
X62600Y48900D02*
X62500Y49000D01*
Y49200D01*
X62600Y49300D01*
X62700D01*
X62800Y49200D01*
Y49100D01*
Y49200D01*
X62900Y49300D01*
X63000D01*
X63100Y49200D01*
Y49000D01*
X63000Y48900D01*
X62550Y44050D02*
X62950D01*
X63150Y44250D01*
X62950Y44450D01*
X62550D01*
Y44650D02*
X63150D01*
Y44950D01*
X63050Y45050D01*
X62650D01*
X62550Y44950D01*
Y44650D01*
X63150Y45650D02*
Y45250D01*
X62750Y45650D01*
X62650D01*
X62550Y45550D01*
Y45350D01*
X62650Y45250D01*
X71300Y56850D02*
Y57450D01*
X71600D01*
X71700Y57350D01*
Y57150D01*
X71600Y57050D01*
X71300D01*
X71500D02*
X71700Y56850D01*
X71900Y57350D02*
X72000Y57450D01*
X72200D01*
X72300Y57350D01*
Y57250D01*
X72200Y57150D01*
X72100D01*
X72200D01*
X72300Y57050D01*
Y56950D01*
X72200Y56850D01*
X72000D01*
X71900Y56950D01*
X68650Y56850D02*
Y57450D01*
X68950D01*
X69050Y57350D01*
Y57150D01*
X68950Y57050D01*
X68650D01*
X68850D02*
X69050Y56850D01*
X69650D02*
X69250D01*
X69650Y57250D01*
Y57350D01*
X69550Y57450D01*
X69350D01*
X69250Y57350D01*
X65900Y56850D02*
Y57450D01*
X66200D01*
X66300Y57350D01*
Y57150D01*
X66200Y57050D01*
X65900D01*
X66100D02*
X66300Y56850D01*
X66500D02*
X66700D01*
X66600D01*
Y57450D01*
X66500Y57350D01*
X60200Y57750D02*
Y57150D01*
X60500D01*
X60600Y57250D01*
Y57650D01*
X60500Y57750D01*
X60200D01*
X61100Y57150D02*
Y57750D01*
X60800Y57450D01*
X61200D01*
X56450Y57700D02*
X56350Y57800D01*
X56150D01*
X56050Y57700D01*
Y57600D01*
X56150Y57500D01*
X56350D01*
X56450Y57400D01*
Y57300D01*
X56350Y57200D01*
X56150D01*
X56050Y57300D01*
X56650Y57200D02*
Y57800D01*
X56950D01*
X57050Y57700D01*
Y57500D01*
X56950Y57400D01*
X56650D01*
X56850D02*
X57050Y57200D01*
X57250Y57700D02*
X57350Y57800D01*
X57550D01*
X57650Y57700D01*
Y57600D01*
X57550Y57500D01*
X57450D01*
X57550D01*
X57650Y57400D01*
Y57300D01*
X57550Y57200D01*
X57350D01*
X57250Y57300D01*
X51400Y57650D02*
X51300Y57750D01*
X51100D01*
X51000Y57650D01*
Y57550D01*
X51100Y57450D01*
X51300D01*
X51400Y57350D01*
Y57250D01*
X51300Y57150D01*
X51100D01*
X51000Y57250D01*
X51600Y57150D02*
Y57750D01*
X51900D01*
X52000Y57650D01*
Y57450D01*
X51900Y57350D01*
X51600D01*
X51800D02*
X52000Y57150D01*
X52600D02*
X52200D01*
X52600Y57550D01*
Y57650D01*
X52500Y57750D01*
X52300D01*
X52200Y57650D01*
X46350D02*
X46250Y57750D01*
X46050D01*
X45950Y57650D01*
Y57550D01*
X46050Y57450D01*
X46250D01*
X46350Y57350D01*
Y57250D01*
X46250Y57150D01*
X46050D01*
X45950Y57250D01*
X46550Y57150D02*
Y57750D01*
X46850D01*
X46950Y57650D01*
Y57450D01*
X46850Y57350D01*
X46550D01*
X46750D02*
X46950Y57150D01*
X47150D02*
X47350D01*
X47250D01*
Y57750D01*
X47150Y57650D01*
X35600Y57800D02*
X35500Y57900D01*
X35300D01*
X35200Y57800D01*
Y57400D01*
X35300Y57300D01*
X35500D01*
X35600Y57400D01*
X36200Y57900D02*
X35800D01*
Y57600D01*
X36000Y57700D01*
X36100D01*
X36200Y57600D01*
Y57400D01*
X36100Y57300D01*
X35900D01*
X35800Y57400D01*
X36400D02*
X36500Y57300D01*
X36700D01*
X36800Y57400D01*
Y57800D01*
X36700Y57900D01*
X36500D01*
X36400Y57800D01*
Y57700D01*
X36500Y57600D01*
X36800D01*
X25800Y53300D02*
Y53900D01*
X26100D01*
X26200Y53800D01*
Y53600D01*
X26100Y53500D01*
X25800D01*
X26000D02*
X26200Y53300D01*
X26800Y53900D02*
X26400D01*
Y53600D01*
X26600Y53700D01*
X26700D01*
X26800Y53600D01*
Y53400D01*
X26700Y53300D01*
X26500D01*
X26400Y53400D01*
X27000Y53300D02*
X27200D01*
X27100D01*
Y53900D01*
X27000Y53800D01*
X22250Y53550D02*
X22650D01*
X22450D01*
Y52950D01*
X22850D02*
Y53550D01*
X23150D01*
X23250Y53450D01*
Y53250D01*
X23150Y53150D01*
X22850D01*
X23450Y52950D02*
X23650D01*
X23550D01*
Y53550D01*
X23450Y53450D01*
X23950Y53050D02*
X24050Y52950D01*
X24250D01*
X24350Y53050D01*
Y53450D01*
X24250Y53550D01*
X24050D01*
X23950Y53450D01*
Y53350D01*
X24050Y53250D01*
X24350D01*
X7900Y62550D02*
X7500D01*
Y62250D01*
X7700D01*
X7500D01*
Y61950D01*
X8500D02*
X8100D01*
X8500Y62350D01*
Y62450D01*
X8400Y62550D01*
X8200D01*
X8100Y62450D01*
X24617Y40316D02*
Y39716D01*
X25017D01*
X25617Y40316D02*
X25217D01*
Y40016D01*
X25417Y40116D01*
X25517D01*
X25617Y40016D01*
Y39816D01*
X25517Y39716D01*
X25317D01*
X25217Y39816D01*
X9350Y30650D02*
X9250Y30550D01*
Y30350D01*
X9350Y30250D01*
X9750D01*
X9850Y30350D01*
Y30550D01*
X9750Y30650D01*
X9250Y31250D02*
X9350Y31050D01*
X9550Y30850D01*
X9750D01*
X9850Y30950D01*
Y31150D01*
X9750Y31250D01*
X9650D01*
X9550Y31150D01*
Y30850D01*
X9750Y31450D02*
X9850Y31550D01*
Y31750D01*
X9750Y31850D01*
X9350D01*
X9250Y31750D01*
Y31550D01*
X9350Y31450D01*
X9450D01*
X9550Y31550D01*
Y31850D01*
X9400Y35900D02*
X9300Y35800D01*
Y35600D01*
X9400Y35500D01*
X9800D01*
X9900Y35600D01*
Y35800D01*
X9800Y35900D01*
X9300Y36500D02*
X9400Y36300D01*
X9600Y36100D01*
X9800D01*
X9900Y36200D01*
Y36400D01*
X9800Y36500D01*
X9700D01*
X9600Y36400D01*
Y36100D01*
X9400Y36700D02*
X9300Y36800D01*
Y37000D01*
X9400Y37100D01*
X9800D01*
X9900Y37000D01*
Y36800D01*
X9800Y36700D01*
X9400D01*
X16400Y41300D02*
X16300Y41200D01*
Y41000D01*
X16400Y40900D01*
X16500D01*
X16600Y41000D01*
Y41200D01*
X16700Y41300D01*
X16800D01*
X16900Y41200D01*
Y41000D01*
X16800Y40900D01*
X16900Y41500D02*
X16300D01*
Y41800D01*
X16400Y41900D01*
X16600D01*
X16700Y41800D01*
Y41500D01*
Y41700D02*
X16900Y41900D01*
X16300Y42100D02*
Y42500D01*
X16400D01*
X16800Y42100D01*
X16900D01*
X16200Y45800D02*
X16100Y45700D01*
Y45500D01*
X16200Y45400D01*
X16300D01*
X16400Y45500D01*
Y45700D01*
X16500Y45800D01*
X16600D01*
X16700Y45700D01*
Y45500D01*
X16600Y45400D01*
X16700Y46000D02*
X16100D01*
Y46300D01*
X16200Y46400D01*
X16400D01*
X16500Y46300D01*
Y46000D01*
Y46200D02*
X16700Y46400D01*
X16200Y46600D02*
X16100Y46700D01*
Y46900D01*
X16200Y47000D01*
X16300D01*
X16400Y46900D01*
X16500Y47000D01*
X16600D01*
X16700Y46900D01*
Y46700D01*
X16600Y46600D01*
X16500D01*
X16400Y46700D01*
X16300Y46600D01*
X16200D01*
X16400Y46700D02*
Y46900D01*
X16200Y50800D02*
X16100Y50700D01*
Y50500D01*
X16200Y50400D01*
X16300D01*
X16400Y50500D01*
Y50700D01*
X16500Y50800D01*
X16600D01*
X16700Y50700D01*
Y50500D01*
X16600Y50400D01*
X16700Y51000D02*
X16100D01*
Y51300D01*
X16200Y51400D01*
X16400D01*
X16500Y51300D01*
Y51000D01*
Y51200D02*
X16700Y51400D01*
X16600Y51600D02*
X16700Y51700D01*
Y51900D01*
X16600Y52000D01*
X16200D01*
X16100Y51900D01*
Y51700D01*
X16200Y51600D01*
X16300D01*
X16400Y51700D01*
Y52000D01*
X22113Y58913D02*
Y58313D01*
X22413D01*
X22513Y58413D01*
Y58813D01*
X22413Y58913D01*
X22113D01*
X22713Y58313D02*
X22913D01*
X22813D01*
Y58913D01*
X22713Y58813D01*
X23613Y58913D02*
X23413Y58813D01*
X23213Y58613D01*
Y58413D01*
X23313Y58313D01*
X23513D01*
X23613Y58413D01*
Y58513D01*
X23513Y58613D01*
X23213D01*
X11950Y58750D02*
Y58150D01*
X12250D01*
X12350Y58250D01*
Y58650D01*
X12250Y58750D01*
X11950D01*
X12550Y58150D02*
X12750D01*
X12650D01*
Y58750D01*
X12550Y58650D01*
X13050Y58750D02*
X13450D01*
Y58650D01*
X13050Y58250D01*
Y58150D01*
X2450Y59000D02*
X2250D01*
X2350D01*
Y58500D01*
X2250Y58400D01*
X2150D01*
X2050Y58500D01*
X2650Y58400D02*
X2850D01*
X2750D01*
Y59000D01*
X2650Y58900D01*
X1850Y49400D02*
X2450D01*
Y49700D01*
X2350Y49800D01*
X1950D01*
X1850Y49700D01*
Y49400D01*
X2450Y50000D02*
Y50200D01*
Y50100D01*
X1850D01*
X1950Y50000D01*
X2350Y50500D02*
X2450Y50600D01*
Y50800D01*
X2350Y50900D01*
X1950D01*
X1850Y50800D01*
Y50600D01*
X1950Y50500D01*
X2050D01*
X2150Y50600D01*
Y50900D01*
X9050Y49400D02*
X9650D01*
Y49700D01*
X9550Y49800D01*
X9150D01*
X9050Y49700D01*
Y49400D01*
X9650Y50000D02*
Y50200D01*
Y50100D01*
X9050D01*
X9150Y50000D01*
Y50500D02*
X9050Y50600D01*
Y50800D01*
X9150Y50900D01*
X9250D01*
X9350Y50800D01*
X9450Y50900D01*
X9550D01*
X9650Y50800D01*
Y50600D01*
X9550Y50500D01*
X9450D01*
X9350Y50600D01*
X9250Y50500D01*
X9150D01*
X9350Y50600D02*
Y50800D01*
X9100Y40700D02*
X9700D01*
Y41000D01*
X9600Y41100D01*
X9200D01*
X9100Y41000D01*
Y40700D01*
X9700Y41700D02*
Y41300D01*
X9300Y41700D01*
X9200D01*
X9100Y41600D01*
Y41400D01*
X9200Y41300D01*
Y41900D02*
X9100Y42000D01*
Y42200D01*
X9200Y42300D01*
X9600D01*
X9700Y42200D01*
Y42000D01*
X9600Y41900D01*
X9200D01*
X1800Y40850D02*
X2400D01*
Y41150D01*
X2300Y41250D01*
X1900D01*
X1800Y41150D01*
Y40850D01*
X2400Y41850D02*
Y41450D01*
X2000Y41850D01*
X1900D01*
X1800Y41750D01*
Y41550D01*
X1900Y41450D01*
X2400Y42050D02*
Y42250D01*
Y42150D01*
X1800D01*
X1900Y42050D01*
X1100Y36150D02*
X900D01*
X1000D01*
Y35650D01*
X900Y35550D01*
X800D01*
X700Y35650D01*
X1700Y36150D02*
X1500Y36050D01*
X1300Y35850D01*
Y35650D01*
X1400Y35550D01*
X1600D01*
X1700Y35650D01*
Y35750D01*
X1600Y35850D01*
X1300D01*
X16450Y7600D02*
X17050D01*
Y7900D01*
X16950Y8000D01*
X16550D01*
X16450Y7900D01*
Y7600D01*
X17050Y8600D02*
Y8200D01*
X16650Y8600D01*
X16550D01*
X16450Y8500D01*
Y8300D01*
X16550Y8200D01*
Y8800D02*
X16450Y8900D01*
Y9100D01*
X16550Y9200D01*
X16650D01*
X16750Y9100D01*
X16850Y9200D01*
X16950D01*
X17050Y9100D01*
Y8900D01*
X16950Y8800D01*
X16850D01*
X16750Y8900D01*
X16650Y8800D01*
X16550D01*
X16750Y8900D02*
Y9100D01*
X8650Y7750D02*
X9250D01*
Y8050D01*
X9150Y8150D01*
X8750D01*
X8650Y8050D01*
Y7750D01*
X9250Y8750D02*
Y8350D01*
X8850Y8750D01*
X8750D01*
X8650Y8650D01*
Y8450D01*
X8750Y8350D01*
X8650Y8950D02*
Y9350D01*
X8750D01*
X9150Y8950D01*
X9250D01*
X16250Y24250D02*
X16150Y24150D01*
Y23950D01*
X16250Y23850D01*
X16350D01*
X16450Y23950D01*
Y24150D01*
X16550Y24250D01*
X16650D01*
X16750Y24150D01*
Y23950D01*
X16650Y23850D01*
X16750Y24450D02*
X16150D01*
Y24750D01*
X16250Y24850D01*
X16450D01*
X16550Y24750D01*
Y24450D01*
Y24650D02*
X16750Y24850D01*
Y25050D02*
Y25250D01*
Y25150D01*
X16150D01*
X16250Y25050D01*
X16750Y25950D02*
Y25550D01*
X16350Y25950D01*
X16250D01*
X16150Y25850D01*
Y25650D01*
X16250Y25550D01*
X16150Y15000D02*
X16050Y14900D01*
Y14700D01*
X16150Y14600D01*
X16250D01*
X16350Y14700D01*
Y14900D01*
X16450Y15000D01*
X16550D01*
X16650Y14900D01*
Y14700D01*
X16550Y14600D01*
X16650Y15200D02*
X16050D01*
Y15500D01*
X16150Y15600D01*
X16350D01*
X16450Y15500D01*
Y15200D01*
Y15400D02*
X16650Y15600D01*
Y15800D02*
Y16000D01*
Y15900D01*
X16050D01*
X16150Y15800D01*
Y16300D02*
X16050Y16400D01*
Y16600D01*
X16150Y16700D01*
X16550D01*
X16650Y16600D01*
Y16400D01*
X16550Y16300D01*
X16150D01*
X16250Y19800D02*
X16150Y19700D01*
Y19500D01*
X16250Y19400D01*
X16350D01*
X16450Y19500D01*
Y19700D01*
X16550Y19800D01*
X16650D01*
X16750Y19700D01*
Y19500D01*
X16650Y19400D01*
X16750Y20000D02*
X16150D01*
Y20300D01*
X16250Y20400D01*
X16450D01*
X16550Y20300D01*
Y20000D01*
Y20200D02*
X16750Y20400D01*
Y20600D02*
Y20800D01*
Y20700D01*
X16150D01*
X16250Y20600D01*
X16750Y21100D02*
Y21300D01*
Y21200D01*
X16150D01*
X16250Y21100D01*
X9150Y23700D02*
X9750D01*
Y24000D01*
X9650Y24100D01*
X9250D01*
X9150Y24000D01*
Y23700D01*
X9750Y24700D02*
Y24300D01*
X9350Y24700D01*
X9250D01*
X9150Y24600D01*
Y24400D01*
X9250Y24300D01*
Y24900D02*
X9150Y25000D01*
Y25200D01*
X9250Y25300D01*
X9350D01*
X9450Y25200D01*
Y25100D01*
Y25200D01*
X9550Y25300D01*
X9650D01*
X9750Y25200D01*
Y25000D01*
X9650Y24900D01*
X1800Y23750D02*
X2400D01*
Y24050D01*
X2300Y24150D01*
X1900D01*
X1800Y24050D01*
Y23750D01*
X2400Y24750D02*
Y24350D01*
X2000Y24750D01*
X1900D01*
X1800Y24650D01*
Y24450D01*
X1900Y24350D01*
X2400Y25250D02*
X1800D01*
X2100Y24950D01*
Y25350D01*
X9150Y15300D02*
X9750D01*
Y15600D01*
X9650Y15700D01*
X9250D01*
X9150Y15600D01*
Y15300D01*
X9750Y16300D02*
Y15900D01*
X9350Y16300D01*
X9250D01*
X9150Y16200D01*
Y16000D01*
X9250Y15900D01*
X9150Y16900D02*
Y16500D01*
X9450D01*
X9350Y16700D01*
Y16800D01*
X9450Y16900D01*
X9650D01*
X9750Y16800D01*
Y16600D01*
X9650Y16500D01*
X1850Y15650D02*
X2450D01*
Y15950D01*
X2350Y16050D01*
X1950D01*
X1850Y15950D01*
Y15650D01*
X2450Y16650D02*
Y16250D01*
X2050Y16650D01*
X1950D01*
X1850Y16550D01*
Y16350D01*
X1950Y16250D01*
X1850Y17250D02*
X1950Y17050D01*
X2150Y16850D01*
X2350D01*
X2450Y16950D01*
Y17150D01*
X2350Y17250D01*
X2250D01*
X2150Y17150D01*
Y16850D01*
X2300Y10200D02*
X2100D01*
X2200D01*
Y9700D01*
X2100Y9600D01*
X2000D01*
X1900Y9700D01*
X2500Y10100D02*
X2600Y10200D01*
X2800D01*
X2900Y10100D01*
Y10000D01*
X2800Y9900D01*
X2700D01*
X2800D01*
X2900Y9800D01*
Y9700D01*
X2800Y9600D01*
X2600D01*
X2500Y9700D01*
X1650Y4400D02*
X1550Y4500D01*
X1350D01*
X1250Y4400D01*
Y4300D01*
X1350Y4200D01*
X1550D01*
X1650Y4100D01*
Y4000D01*
X1550Y3900D01*
X1350D01*
X1250Y4000D01*
X2250Y4400D02*
X2150Y4500D01*
X1950D01*
X1850Y4400D01*
Y4000D01*
X1950Y3900D01*
X2150D01*
X2250Y4000D01*
X2850Y3900D02*
X2450D01*
X2850Y4300D01*
Y4400D01*
X2750Y4500D01*
X2550D01*
X2450Y4400D01*
X1500Y63100D02*
X1400Y63200D01*
X1200D01*
X1100Y63100D01*
Y63000D01*
X1200Y62900D01*
X1400D01*
X1500Y62800D01*
Y62700D01*
X1400Y62600D01*
X1200D01*
X1100Y62700D01*
X2100Y63100D02*
X2000Y63200D01*
X1800D01*
X1700Y63100D01*
Y62700D01*
X1800Y62600D01*
X2000D01*
X2100Y62700D01*
X2300Y63100D02*
X2400Y63200D01*
X2600D01*
X2700Y63100D01*
Y63000D01*
X2600Y62900D01*
X2500D01*
X2600D01*
X2700Y62800D01*
Y62700D01*
X2600Y62600D01*
X2400D01*
X2300Y62700D01*
X71550Y15250D02*
Y14650D01*
X71950D01*
X72550Y15250D02*
X72150D01*
Y14650D01*
X72550D01*
X72150Y14950D02*
X72350D01*
X72750Y15250D02*
Y14650D01*
X73050D01*
X73150Y14750D01*
Y15150D01*
X73050Y15250D01*
X72750D01*
X73350Y14650D02*
X73550D01*
X73450D01*
Y15250D01*
X73350Y15150D01*
X59856Y28931D02*
X60256D01*
X60056D01*
Y28331D01*
X60455D02*
Y28931D01*
X60755D01*
X60855Y28831D01*
Y28631D01*
X60755Y28531D01*
X60455D01*
X61055Y28331D02*
X61255D01*
X61155D01*
Y28931D01*
X61055Y28831D01*
X61555D02*
X61655Y28931D01*
X61855D01*
X61955Y28831D01*
Y28431D01*
X61855Y28331D01*
X61655D01*
X61555Y28431D01*
Y28831D01*
X60915Y52095D02*
X61315D01*
X61115D01*
Y51495D01*
X61515D02*
X61715D01*
X61615D01*
Y52095D01*
X61515Y51995D01*
X49949Y39720D02*
Y40320D01*
X50249D01*
X50349Y40220D01*
Y40020D01*
X50249Y39920D01*
X49949D01*
X50149D02*
X50349Y39720D01*
X50549Y40220D02*
X50649Y40320D01*
X50849D01*
X50949Y40220D01*
Y40120D01*
X50849Y40020D01*
X50749D01*
X50849D01*
X50949Y39920D01*
Y39820D01*
X50849Y39720D01*
X50649D01*
X50549Y39820D01*
X51449Y39720D02*
Y40320D01*
X51149Y40020D01*
X51549D01*
X47265Y39820D02*
Y40420D01*
X47565D01*
X47665Y40320D01*
Y40120D01*
X47565Y40020D01*
X47265D01*
X47465D02*
X47665Y39820D01*
X47864Y40320D02*
X47964Y40420D01*
X48164D01*
X48264Y40320D01*
Y40220D01*
X48164Y40120D01*
X48064D01*
X48164D01*
X48264Y40020D01*
Y39920D01*
X48164Y39820D01*
X47964D01*
X47864Y39920D01*
X48464Y40320D02*
X48564Y40420D01*
X48764D01*
X48864Y40320D01*
Y39920D01*
X48764Y39820D01*
X48564D01*
X48464Y39920D01*
Y40320D01*
X44380Y39814D02*
Y40413D01*
X44680D01*
X44780Y40313D01*
Y40114D01*
X44680Y40014D01*
X44380D01*
X44580D02*
X44780Y39814D01*
X45380D02*
X44980D01*
X45380Y40213D01*
Y40313D01*
X45280Y40413D01*
X45080D01*
X44980Y40313D01*
X45580D02*
X45680Y40413D01*
X45880D01*
X45979Y40313D01*
Y40213D01*
X45880Y40114D01*
X45979Y40014D01*
Y39914D01*
X45880Y39814D01*
X45680D01*
X45580Y39914D01*
Y40014D01*
X45680Y40114D01*
X45580Y40213D01*
Y40313D01*
X45680Y40114D02*
X45880D01*
X96010Y37259D02*
Y37859D01*
X96310D01*
X96410Y37759D01*
Y37559D01*
X96310Y37459D01*
X96010D01*
X96210D02*
X96410Y37259D01*
X96610D02*
X96810D01*
X96710D01*
Y37859D01*
X96610Y37759D01*
X97110Y37359D02*
X97210Y37259D01*
X97410D01*
X97510Y37359D01*
Y37759D01*
X97410Y37859D01*
X97210D01*
X97110Y37759D01*
Y37659D01*
X97210Y37559D01*
X97510D01*
X95760Y47140D02*
Y47740D01*
X96060D01*
X96160Y47640D01*
Y47440D01*
X96060Y47340D01*
X95760D01*
X95960D02*
X96160Y47140D01*
X96360D02*
X96560D01*
X96460D01*
Y47740D01*
X96360Y47640D01*
X97260Y47140D02*
X96860D01*
X97260Y47540D01*
Y47640D01*
X97160Y47740D01*
X96960D01*
X96860Y47640D01*
X81760Y49160D02*
Y49760D01*
X82060D01*
X82160Y49660D01*
Y49460D01*
X82060Y49360D01*
X81760D01*
X81960D02*
X82160Y49160D01*
X82360D02*
X82560D01*
X82460D01*
Y49760D01*
X82360Y49660D01*
X82860Y49160D02*
X83060D01*
X82960D01*
Y49760D01*
X82860Y49660D01*
X50419Y34417D02*
Y33818D01*
X50719D01*
X50819Y33918D01*
Y34317D01*
X50719Y34417D01*
X50419D01*
X51019Y33818D02*
X51219D01*
X51119D01*
Y34417D01*
X51019Y34317D01*
X51519D02*
X51619Y34417D01*
X51819D01*
X51919Y34317D01*
Y33918D01*
X51819Y33818D01*
X51619D01*
X51519Y33918D01*
Y34317D01*
X63720Y54784D02*
Y54184D01*
X64020D01*
X64120Y54284D01*
Y54684D01*
X64020Y54784D01*
X63720D01*
X64320Y54184D02*
X64520D01*
X64420D01*
Y54784D01*
X64320Y54684D01*
X75439Y8150D02*
X75339Y8250D01*
X75139D01*
X75039Y8150D01*
Y7750D01*
X75139Y7650D01*
X75339D01*
X75439Y7750D01*
X76039Y8250D02*
X75839Y8150D01*
X75639Y7950D01*
Y7750D01*
X75739Y7650D01*
X75939D01*
X76039Y7750D01*
Y7850D01*
X75939Y7950D01*
X75639D01*
X76239Y8150D02*
X76339Y8250D01*
X76539D01*
X76639Y8150D01*
Y8050D01*
X76539Y7950D01*
X76439D01*
X76539D01*
X76639Y7850D01*
Y7750D01*
X76539Y7650D01*
X76339D01*
X76239Y7750D01*
X68848Y8754D02*
X68748Y8854D01*
X68548D01*
X68449Y8754D01*
Y8354D01*
X68548Y8254D01*
X68748D01*
X68848Y8354D01*
X69448Y8854D02*
X69248Y8754D01*
X69048Y8554D01*
Y8354D01*
X69148Y8254D01*
X69348D01*
X69448Y8354D01*
Y8454D01*
X69348Y8554D01*
X69048D01*
X70048Y8254D02*
X69648D01*
X70048Y8654D01*
Y8754D01*
X69948Y8854D01*
X69748D01*
X69648Y8754D01*
X41780Y64700D02*
X41680Y64800D01*
X41480D01*
X41380Y64700D01*
Y64300D01*
X41480Y64200D01*
X41680D01*
X41780Y64300D01*
X42380Y64800D02*
X42180Y64700D01*
X41980Y64500D01*
Y64300D01*
X42080Y64200D01*
X42280D01*
X42380Y64300D01*
Y64400D01*
X42280Y64500D01*
X41980D01*
X42580Y64200D02*
X42780D01*
X42680D01*
Y64800D01*
X42580Y64700D01*
X39480Y64700D02*
X39380Y64800D01*
X39180D01*
X39080Y64700D01*
Y64300D01*
X39180Y64200D01*
X39380D01*
X39480Y64300D01*
X40080Y64800D02*
X39680D01*
Y64500D01*
X39880Y64600D01*
X39980D01*
X40080Y64500D01*
Y64300D01*
X39980Y64200D01*
X39780D01*
X39680Y64300D01*
X40280Y64700D02*
X40380Y64800D01*
X40580D01*
X40679Y64700D01*
Y64600D01*
X40580Y64500D01*
X40679Y64400D01*
Y64300D01*
X40580Y64200D01*
X40380D01*
X40280Y64300D01*
Y64400D01*
X40380Y64500D01*
X40280Y64600D01*
Y64700D01*
X40380Y64500D02*
X40580D01*
X77400Y27950D02*
X77300Y27850D01*
Y27650D01*
X77400Y27550D01*
X77800D01*
X77900Y27650D01*
Y27850D01*
X77800Y27950D01*
X77900Y28450D02*
X77300D01*
X77600Y28150D01*
Y28550D01*
X77400Y28750D02*
X77300Y28850D01*
Y29050D01*
X77400Y29150D01*
X77500D01*
X77600Y29050D01*
X77700Y29150D01*
X77800D01*
X77900Y29050D01*
Y28850D01*
X77800Y28750D01*
X77700D01*
X77600Y28850D01*
X77500Y28750D01*
X77400D01*
X77600Y28850D02*
Y29050D01*
X100580Y22860D02*
X100480Y22960D01*
X100280D01*
X100180Y22860D01*
Y22460D01*
X100280Y22360D01*
X100480D01*
X100580Y22460D01*
X101080Y22360D02*
Y22960D01*
X100780Y22660D01*
X101180D01*
X101779Y22960D02*
X101580Y22860D01*
X101380Y22660D01*
Y22460D01*
X101480Y22360D01*
X101680D01*
X101779Y22460D01*
Y22560D01*
X101680Y22660D01*
X101380D01*
X102881Y15730D02*
X102781Y15830D01*
X102581D01*
X102481Y15730D01*
Y15330D01*
X102581Y15230D01*
X102781D01*
X102881Y15330D01*
X103381Y15230D02*
Y15830D01*
X103081Y15530D01*
X103481D01*
X103681Y15730D02*
X103781Y15830D01*
X103981D01*
X104081Y15730D01*
Y15630D01*
X103981Y15530D01*
X103881D01*
X103981D01*
X104081Y15430D01*
Y15330D01*
X103981Y15230D01*
X103781D01*
X103681Y15330D01*
X93675Y37911D02*
X93575Y38011D01*
X93375D01*
X93275Y37911D01*
Y37511D01*
X93375Y37411D01*
X93575D01*
X93675Y37511D01*
X93875Y37911D02*
X93975Y38011D01*
X94175D01*
X94275Y37911D01*
Y37811D01*
X94175Y37711D01*
X94075D01*
X94175D01*
X94275Y37611D01*
Y37511D01*
X94175Y37411D01*
X93975D01*
X93875Y37511D01*
X94874Y38011D02*
X94475D01*
Y37711D01*
X94675Y37811D01*
X94775D01*
X94874Y37711D01*
Y37511D01*
X94775Y37411D01*
X94575D01*
X94475Y37511D01*
X93630Y33423D02*
X93530Y33523D01*
X93330D01*
X93230Y33423D01*
Y33023D01*
X93330Y32924D01*
X93530D01*
X93630Y33023D01*
X93830Y33423D02*
X93930Y33523D01*
X94130D01*
X94230Y33423D01*
Y33323D01*
X94130Y33223D01*
X94030D01*
X94130D01*
X94230Y33123D01*
Y33023D01*
X94130Y32924D01*
X93930D01*
X93830Y33023D01*
X94730Y32924D02*
Y33523D01*
X94430Y33223D01*
X94829D01*
X100270Y43145D02*
X100170Y43245D01*
X99970D01*
X99870Y43145D01*
Y42745D01*
X99970Y42645D01*
X100170D01*
X100270Y42745D01*
X100870Y42645D02*
X100470D01*
X100870Y43045D01*
Y43145D01*
X100770Y43245D01*
X100570D01*
X100470Y43145D01*
X101469Y42645D02*
X101070D01*
X101469Y43045D01*
Y43145D01*
X101370Y43245D01*
X101170D01*
X101070Y43145D01*
X89973Y45022D02*
X89873Y45122D01*
X89673D01*
X89573Y45022D01*
Y44622D01*
X89673Y44522D01*
X89873D01*
X89973Y44622D01*
X90573Y44522D02*
X90173D01*
X90573Y44922D01*
Y45022D01*
X90473Y45122D01*
X90273D01*
X90173Y45022D01*
X90773D02*
X90873Y45122D01*
X91073D01*
X91173Y45022D01*
Y44622D01*
X91073Y44522D01*
X90873D01*
X90773Y44622D01*
Y45022D01*
X90240Y49510D02*
X90140Y49610D01*
X89940D01*
X89840Y49510D01*
Y49110D01*
X89940Y49010D01*
X90140D01*
X90240Y49110D01*
X90440Y49010D02*
X90640D01*
X90540D01*
Y49610D01*
X90440Y49510D01*
X90940Y49110D02*
X91040Y49010D01*
X91240D01*
X91340Y49110D01*
Y49510D01*
X91240Y49610D01*
X91040D01*
X90940Y49510D01*
Y49410D01*
X91040Y49310D01*
X91340D01*
X92623Y45022D02*
X92523Y45122D01*
X92323D01*
X92223Y45022D01*
Y44622D01*
X92323Y44522D01*
X92523D01*
X92623Y44622D01*
X92823Y44522D02*
X93023D01*
X92923D01*
Y45122D01*
X92823Y45022D01*
X93323Y45122D02*
X93722D01*
Y45022D01*
X93323Y44622D01*
Y44522D01*
X103000Y49080D02*
X102900Y49180D01*
X102700D01*
X102600Y49080D01*
Y48680D01*
X102700Y48580D01*
X102900D01*
X103000Y48680D01*
X103200Y48580D02*
X103400D01*
X103300D01*
Y49180D01*
X103200Y49080D01*
X104000Y48580D02*
Y49180D01*
X103700Y48880D01*
X104100D01*
X79530Y47676D02*
X79430Y47776D01*
X79230D01*
X79130Y47676D01*
Y47276D01*
X79230Y47176D01*
X79430D01*
X79530Y47276D01*
X79730Y47176D02*
X79930D01*
X79830D01*
Y47776D01*
X79730Y47676D01*
X80230D02*
X80330Y47776D01*
X80530D01*
X80630Y47676D01*
Y47576D01*
X80530Y47476D01*
X80430D01*
X80530D01*
X80630Y47376D01*
Y47276D01*
X80530Y47176D01*
X80330D01*
X80230Y47276D01*
X60880Y39410D02*
X60780Y39510D01*
X60580D01*
X60480Y39410D01*
Y39010D01*
X60580Y38910D01*
X60780D01*
X60880Y39010D01*
X61080Y38910D02*
X61280D01*
X61180D01*
Y39510D01*
X61080Y39410D01*
X61580Y38910D02*
X61780D01*
X61680D01*
Y39510D01*
X61580Y39410D01*
X91330Y55610D02*
X91230Y55710D01*
X91030D01*
X90930Y55610D01*
Y55210D01*
X91030Y55110D01*
X91230D01*
X91330Y55210D01*
X91530Y55110D02*
X91730D01*
X91630D01*
Y55710D01*
X91530Y55610D01*
X92030D02*
X92130Y55710D01*
X92330D01*
X92430Y55610D01*
Y55210D01*
X92330Y55110D01*
X92130D01*
X92030Y55210D01*
Y55610D01*
X94170Y55560D02*
X94070Y55660D01*
X93870D01*
X93770Y55560D01*
Y55160D01*
X93870Y55060D01*
X94070D01*
X94170Y55160D01*
X94370Y55560D02*
X94470Y55660D01*
X94670D01*
X94770Y55560D01*
Y55460D01*
X94670Y55360D01*
X94770Y55260D01*
Y55160D01*
X94670Y55060D01*
X94470D01*
X94370Y55160D01*
Y55260D01*
X94470Y55360D01*
X94370Y55460D01*
Y55560D01*
X94470Y55360D02*
X94670D01*
X63550Y26550D02*
X63450Y26450D01*
Y26250D01*
X63550Y26150D01*
X63950D01*
X64050Y26250D01*
Y26450D01*
X63950Y26550D01*
X64050Y27150D02*
Y26750D01*
X63650Y27150D01*
X63550D01*
X63450Y27050D01*
Y26850D01*
X63550Y26750D01*
X102625Y43425D02*
X103025D01*
X102825D01*
Y42825D01*
X103225D02*
Y43425D01*
X103525D01*
X103625Y43325D01*
Y43125D01*
X103525Y43025D01*
X103225D01*
X103825Y42925D02*
X103925Y42825D01*
X104125D01*
X104224Y42925D01*
Y43325D01*
X104125Y43425D01*
X103925D01*
X103825Y43325D01*
Y43225D01*
X103925Y43125D01*
X104224D01*
X99875Y46325D02*
X100275D01*
X100075D01*
Y45725D01*
X100475D02*
Y46325D01*
X100775D01*
X100875Y46225D01*
Y46025D01*
X100775Y45925D01*
X100475D01*
X101474Y46325D02*
X101075D01*
Y46025D01*
X101275Y46125D01*
X101375D01*
X101474Y46025D01*
Y45825D01*
X101375Y45725D01*
X101175D01*
X101075Y45825D01*
D19*
X108050Y39550D02*
Y40017D01*
Y39783D01*
X108750D01*
X108050Y40716D02*
Y40250D01*
X108750D01*
Y40716D01*
X108400Y40250D02*
Y40483D01*
X108167Y41416D02*
X108050Y41299D01*
Y41066D01*
X108167Y40950D01*
X108283D01*
X108400Y41066D01*
Y41299D01*
X108517Y41416D01*
X108633D01*
X108750Y41299D01*
Y41066D01*
X108633Y40950D01*
X108050Y41649D02*
Y42116D01*
Y41883D01*
X108750D01*
Y43049D02*
X108050D01*
Y43399D01*
X108167Y43515D01*
X108400D01*
X108517Y43399D01*
Y43049D01*
X108050Y43749D02*
X108750D01*
X108517Y43982D01*
X108750Y44215D01*
X108050D01*
X108750Y44448D02*
X108050D01*
Y44798D01*
X108167Y44915D01*
X108400D01*
X108517Y44798D01*
Y44448D01*
Y44682D02*
X108750Y44915D01*
X108627Y29572D02*
X107927D01*
X108161Y29805D01*
X107927Y30038D01*
X108627D01*
Y30271D02*
X108161D01*
X107927Y30505D01*
X108161Y30738D01*
X108627D01*
X108277D01*
Y30271D01*
X107927Y30971D02*
Y31204D01*
Y31088D01*
X108627D01*
Y30971D01*
Y31204D01*
Y31554D02*
X107927D01*
X108627Y32021D01*
X107927D01*
X108627Y32954D02*
X107927D01*
Y33304D01*
X108044Y33420D01*
X108277D01*
X108394Y33304D01*
Y32954D01*
X107927Y33654D02*
X108627D01*
X108394Y33887D01*
X108627Y34120D01*
X107927D01*
X108627Y34353D02*
X107927D01*
Y34703D01*
X108044Y34820D01*
X108277D01*
X108394Y34703D01*
Y34353D01*
Y34587D02*
X108627Y34820D01*
X108800Y5450D02*
X109500D01*
Y5800D01*
X109383Y5917D01*
X108917D01*
X108800Y5800D01*
Y5450D01*
X108917Y6616D02*
X108800Y6500D01*
Y6266D01*
X108917Y6150D01*
X109033D01*
X109150Y6266D01*
Y6500D01*
X109267Y6616D01*
X109383D01*
X109500Y6500D01*
Y6266D01*
X109383Y6150D01*
X109500Y6850D02*
X108800D01*
Y7199D01*
X108917Y7316D01*
X109150D01*
X109267Y7199D01*
Y6850D01*
X109500Y8249D02*
X108800D01*
Y8599D01*
X108917Y8716D01*
X109150D01*
X109267Y8599D01*
Y8249D01*
X108800Y8949D02*
X109500D01*
X109267Y9182D01*
X109500Y9415D01*
X108800D01*
X109500Y9649D02*
X108800D01*
Y9999D01*
X108917Y10115D01*
X109150D01*
X109267Y9999D01*
Y9649D01*
Y9882D02*
X109500Y10115D01*
X1600Y30017D02*
Y29550D01*
X1133Y30017D01*
X1017D01*
X900Y29900D01*
Y29667D01*
X1017Y29550D01*
X1600Y30716D02*
Y30250D01*
X1133Y30716D01*
X1017D01*
X900Y30600D01*
Y30366D01*
X1017Y30250D01*
Y30950D02*
X900Y31066D01*
Y31299D01*
X1017Y31416D01*
X1483D01*
X1600Y31299D01*
Y31066D01*
X1483Y30950D01*
X1017D01*
X900Y31649D02*
X1367D01*
X1600Y31883D01*
X1367Y32116D01*
X900D01*
X1600Y33049D02*
X1133D01*
X900Y33282D01*
X1133Y33515D01*
X1600D01*
X1250D01*
Y33049D01*
X1017Y34215D02*
X900Y34099D01*
Y33865D01*
X1017Y33749D01*
X1483D01*
X1600Y33865D01*
Y34099D01*
X1483Y34215D01*
D20*
X105251Y26477D02*
X105222Y26536D01*
X105134Y26565D01*
X105076D01*
X104988Y26536D01*
X104929Y26448D01*
X104900Y26301D01*
Y26155D01*
X104929Y26038D01*
X104988Y25979D01*
X105076Y25950D01*
X105105D01*
X105193Y25979D01*
X105251Y26038D01*
X105281Y26126D01*
Y26155D01*
X105251Y26243D01*
X105193Y26301D01*
X105105Y26331D01*
X105076D01*
X104988Y26301D01*
X104929Y26243D01*
X104900Y26155D01*
X105000Y38698D02*
X105059Y38727D01*
X105146Y38815D01*
Y38200D01*
X4750Y29548D02*
X4809Y29577D01*
X4896Y29665D01*
Y29050D01*
X4409Y37215D02*
X4731D01*
X4555Y36981D01*
X4643D01*
X4701Y36951D01*
X4731Y36922D01*
X4760Y36834D01*
Y36776D01*
X4731Y36688D01*
X4672Y36629D01*
X4584Y36600D01*
X4496D01*
X4409Y36629D01*
X4379Y36659D01*
X4350Y36717D01*
M02*
