M48
;Layer_Color=9474304
;FILE_FORMAT=2:4
INCH,LZ
;TYPE=PLATED
T1F00S00C0.0120
T2F00S00C0.0200
T3F00S00C0.0220
T4F00S00C0.0315
T5F00S00C0.0354
T6F00S00C0.0394
T7F00S00C0.0433
T8F00S00C0.0472
T10F00S00C0.0512
T11F00S00C0.0591
T12F00S00C0.0630
T13F00S00C0.0669
T14F00S00C0.0709
T15F00S00C0.0906
T16F00S00C0.1181
T17F00S00C0.1378
%
T01
X057875Y031489
X0591Y04115
X057366Y04581
T02
X006564Y007425
X00671Y008043
X006719Y00869
X006716Y009329
X006463Y009857
X00655Y01295
X00665Y01365
X007336Y01421
X008153Y014056
X008607Y013167
X0098Y01155
X00995Y0109
X01045Y01045
X01125Y01035
X0135Y0119
X014Y0124
X01485Y01255
X0156Y0123
X0148Y01535
X012032Y014483
X01135Y0148
X011Y0153
X0046Y0141
X0039Y0142
X0051Y01355
X00515Y013
X0107Y00455
X01135Y0046
X01195Y00495
X01205Y00565
X0136Y0058
X0137Y00525
X0141Y0046
X015Y00445
X0263Y0152
X0269Y0148
X02755Y01495
X03525Y0149
X03505Y01555
X0361Y0146
X0369
X03765Y015
X063453Y014489
X067891Y014732
X07095Y01475
X0706Y011978
X073197Y010144
X067879Y010118
X0771Y013933
X079208Y013351
X08135Y0155
X08315Y01555
X0865Y01515
X080487Y017046
X0794Y01905
X080625Y02411
X08138Y024276
X08145Y0261
X080749Y026202
X080185Y025787
X082773Y02587
X084387Y025577
X084462Y024969
X084034Y024504
X0779Y02115
X07155Y0221
X069513Y020039
X07045Y0179
X0722Y0181
X070913Y025824
X0685Y0263
X06695Y02955
X062588Y029797
X059126Y030809
X05195Y0257
X051094Y02556
X05095Y02485
X047664Y024647
Y025513
X04724Y026053
X047976Y028268
X048622Y028374
X0475Y0288
X05115Y0203
X0518Y02035
X036871Y02136
X036043Y021432
X035278Y021032
X034742Y020324
X0347Y0195
X035Y01635
X03805Y0165
X038Y01575
X03705Y03065
X0362Y0306
X0355Y0307
X028145Y030774
X027495Y030624
X026895Y031024
X022688Y030404
X022Y030754
X021053Y030737
X020804Y030048
X020153Y029937
X019514Y029915
X018835Y030136
X018697Y030713
X0268Y0204
X0276Y02015
X02785Y01935
X0275Y0163
X0268Y01635
X02625Y01595
X02775Y01565
X0147Y01595
X014258Y016297
X01365Y01625
X0119
X0113Y016
X011397Y019663
X011047Y020163
X011347Y020863
X011947Y021113
X012079Y019345
X0138Y01945
X014451Y019561
X0147Y02025
X014562Y020827
X013883Y021048
X0138Y024237
X014451Y024348
X0147Y025037
X014562Y025614
X013883Y025835
X012161Y024083
X011499Y02422
X011058Y024653
X010891Y025315
X00855Y0271
X0085Y0278
X008Y02845
X00725Y0286
X00417Y028578
X00345Y02825
X003096Y027727
X003153Y026964
X0047Y03015
X005501Y030258
X005801Y031055
X01193Y031085
X011977Y030443
X0084Y021597
X0081Y020847
X0073Y020697
X0071Y019997
X0078
X00835Y019597
X0084Y018947
X0066Y018897
X00665Y019547
Y021097
Y021897
X00505Y021624
X00475Y020874
X00395Y020724
X00375Y020024
X00445
X005Y019624
X00505Y018974
X00325Y018924
X0033Y019574
Y021124
Y021924
X005555Y031852
X00345Y034
X0035Y034618
X00377Y035121
X00425Y03545
X00435Y03775
X00355Y0379
X0031Y03845
X003Y0391
X00655Y0389
X0066Y0382
X00735Y03775
X00825Y03795
X00855Y0389
X01105Y041135
X011069Y041773
X011562Y042191
X012172Y042236
X013732Y042206
X01437Y042187
X014789Y041695
X014833Y041084
X014597Y045676
X013997Y045426
X014797Y046476
X01125Y046846
X01105Y046046
X01155Y045496
X00835Y0451
X0084Y04445
X0078Y0455
X0071
X0073Y0462
X0081Y04635
X00665Y0466
Y04505
X0066Y0444
X00505Y04445
X005Y0451
X00445Y0455
X00375
X0033Y04505
X00325Y0444
X0033Y0466
X00395Y0462
X00475Y04635
X010854Y035464
X011556Y035538
X012105Y035879
X012233Y036465
X01145Y03145
X01085
X018946Y031402
X019597Y031513
X020236Y031535
X020915Y031314
X021715Y03143
X022125Y032154
X022842Y032344
X026845Y031774
X027301Y032213
X028126Y032155
X028345Y031474
X0231Y03735
X0224Y0373
X02185Y0368
X02175Y03605
X020838Y036311
X020319Y037042
X019452
X018945Y036275
X03505Y0323
Y0315
X0487Y0427
X048899Y04332
X0517Y0437
X05245
Y04155
X05155
X05815Y041945
X06565Y041533
X0658Y04085
X06544Y040201
X064655Y040132
X0658Y03545
X0657Y03445
X0764Y0343
X0766Y0357
X076666Y036618
X0767Y03755
X07675Y0391
X0763Y03985
X0753Y0398
X07515Y04195
X076Y0421
X0767Y04155
X0765Y03215
X07565Y03195
X075Y03215
X0789Y05175
X078535Y052243
X0786Y0529
X0792Y0532
X0799
X0816Y05325
X08245Y05315
X08285Y05255
Y0518
X07665Y04935
X076Y0499
X07535
X0752Y0477
X07605Y0478
X0767Y04705
X06435Y0481
X06395Y04865
X06263Y051332
X05995Y05205
X0602Y05275
X06085Y05295
X05805
X05715Y0523
X05625Y0526
X05615Y05325
X056039Y055114
X056639Y055863
X057679Y055771
X05785Y054918
X0602Y0557
X060102Y05649
X060741Y056918
X0614Y0565
X061301Y055651
X052504Y055771
X052675Y054918
X050864Y055114
X051464Y055863
X0509Y05325
X051Y0526
X0519Y0523
X0528Y05295
X047621Y053201
X0475Y054918
X047329Y055771
X046289Y055863
X045689Y055114
X0456Y0532
X0459Y0525
X0376Y0524
X0372Y053
X036252Y053159
X03555Y05295
X034954Y052469
X034929Y051653
X035383Y051056
X03725Y05095
X037747Y05152
X027315Y051791
X027065Y052441
X026365Y052491
X025815Y052091
X025865Y051341
X026465Y050941
X027115Y051091
X02695Y0485
X02735Y048
X02705Y04725
X02674Y056229
X0267Y05705
X026112Y057552
X0254Y0576
X025712Y060896
X025082Y061065
X024854Y06168
Y062324
X026369Y06235
X026416Y061754
X026277Y06113
X022458
X022597Y061754
X02255Y06235
X021035Y062324
Y06168
X021263Y061065
X021893Y060896
X01885Y05695
X0188Y05625
X01915Y0556
X01995Y05555
X016591Y056092
X016656Y0569
X016063Y055667
X015285Y055646
X014753Y051433
X014734Y050795
X014242Y050376
X013632Y050332
X01155Y0504
X01105Y05095
X01125Y05175
X01185Y052
X0079Y05215
X00695
X00655Y05275
X00645Y0535
X00505Y0536
X00515Y05265
X0043Y052
X00335Y0525
X0032Y05335
X0045Y05585
Y056438
Y057025
Y057613
Y0582
X00515Y0588
X0061
X00675Y0582
Y057613
Y057025
Y056438
Y05585
X0096Y0557
X0104Y0558
X0107Y05635
X01075Y0569
X010655Y061203
X010696Y061834
X010732Y062432
X010118Y060949
X009475Y060981
X013Y06105
X01355Y0609
X0141Y0608
X01285Y0616
Y06215
X0085Y0535
Y05275
X0084Y0471
X00665Y0474
X00505Y0471
X0033Y0474
X01185Y047096
X014297Y047026
X01395Y0631
X01335Y06305
X0129Y06265
X01065Y063
X010037Y063054
X00937Y063002
X021238Y062989
X021843Y063153
X022508Y063024
X025057Y062989
X025662Y063153
X026326Y063024
T03
X06575Y01915
T04
X065006Y0266
X065794
Y02875
X065006
T05
X1011Y019466
Y021434
X0974Y024931
Y0269
X09415Y030028
X0884Y026434
Y024466
X08675Y021334
Y019366
X077446Y01915
Y02015
X0741Y02015
Y01915
X06995Y02205
X06995Y02305
X06995Y02405
X06995Y02505
X06695Y02505
Y02405
X06695Y02305
X06695Y02205
X06345Y022332
Y023316
Y0243
Y021334
Y02035
Y019366
X058934Y01975
X056966
X045616Y0419
X047584
X0614Y037984
Y036016
X0799Y033996
Y032028
X08005Y044116
Y046084
X090493Y043596
Y041628
X092753
Y043596
X0938Y036481
Y034512
X09415Y031996
X0943Y052166
Y054134
X09185Y054184
Y052216
X087503Y052378
Y054346
X07915Y0573
Y059268
T06
X023231Y015342
X0429Y0126
X04205Y006969
X03975
Y003031
X04205
X053103Y009234
X056056
X068981Y006934
X072919
X07792
X0749Y011117
Y013086
X0849Y01265
Y01455
X081857Y006934
X096514Y0122
X098483
X1047
X103013Y0141
X10695
X1069Y01075
Y009766
X10075Y03045
X083403Y021129
X07675Y0172
X073656Y01755
X07235Y0229
X073281Y02645
X07525
X07755Y0266
X076219Y02825
X076219Y0305
X072281
X0703Y03055
X068331
X066436
X064467
X06515Y02185
X064772Y018121
X069945Y026573
X072281Y02825
X060586Y027208
X054956Y028784
Y030384
X052987
Y028784
X0453Y036074
Y039026
X048185
X050869Y038926
Y035974
X048185Y036074
X05415Y037539
Y038602
X05385Y0401
X05415Y03435
Y033287
X058914Y035256
X058914Y038011
X06165Y043617
Y045586
X1006Y0446
X1006Y041713
X10335Y0417
X105837Y042566
Y044534
X1006Y037776
X1006Y036
X103132Y04745
X107069
X099728Y055533
X097345
X098034Y059518
X101971
X06425Y053233
Y051264
X06165Y049433
Y047464
X0423Y059331
X04Y059331
X0233Y0519
X04Y063268
X0423Y063268
T07
X027035Y015609
X07495Y01555
Y01455
X09245Y010689
Y009311
X10135
Y010689
X10395Y017713
Y02165
X09775Y021039
Y019661
X09365
Y021039
X08985Y02155
Y017613
X0908Y030755
X08275Y030775
X045433Y029113
X027035Y019546
X045433Y03305
X08275Y034712
X0865Y034884
Y036262
X0908Y036351
Y034973
Y032133
X08625Y04145
Y042828
X0829Y044413
X09135Y046411
X0969Y0456
Y041663
X09715Y036449
Y032512
X0956Y0577
Y061637
X0917Y059478
Y0581
X082Y057613
Y06155
X0829Y04835
X09135Y047789
X072016Y052091
X069266
X066516
Y056028
X069266
X072016
X0266Y05175
Y047813
T08
X093739Y024725
Y026497
X060586Y025657
Y02172
X051069Y029048
X048185Y029034
X011054Y0307
X019912Y036405
X048185Y032971
X051069Y032985
X085625Y031336
X087396
X097113Y053993
X102275
X0882Y0587
X086428
X085564Y0469
X087336
X06075Y05225
Y056187
T10
X011853Y0154
X0139
X051825Y023
Y024969
X057
Y023
X04665
Y024969
X013947Y02505
X0119
Y020263
X013947
Y041356
X0119
Y046261
X013947
X051825Y0531
Y055068
X057
Y0531
X04665
Y055068
X013947Y051165
X0119
T11
X064887Y033126
Y035094
Y041
X075713
Y039032
Y037063
Y035094
Y033126
Y046906
Y048874
X064887
T12
X010991Y005481
X014741
Y011386
X010991
X0075Y013297
X00415
X080969Y02515
X083331Y02515
X054222Y01925
X052057
X049891
X0075Y019203
Y021647
X00415
Y019203
Y027553
X0075
Y038747
X00415
Y044653
X0075
X049891Y04264
X052057
X054222
X079569Y0523
X081931Y0523
X025703Y0566
X019797
X015703
X009797
X0075Y053003
X00415
Y047097
X0075
T13
X022709Y031433
Y036354
X02763Y036354
Y031433
X07982Y036812
X082773
X083403Y041638
X08045
T14
X0055Y00787
Y00943
X10505Y028814
Y030373
X00455Y031241
Y034359
X10505Y03505
Y033491
Y031932
Y036609
X10505Y052491
Y05405
X00565Y056241
Y0578
T15
X0364Y015913
X0364Y01985
X0364Y031881
X0364Y035819
X0364Y04785
X0364Y051787
T16
X001969Y001969
X051181
X106299
X001969Y064961
X051181
X106299
T17
X049551Y014909
X055457
X055457Y04689
X049551
M30
